<svg width="68" height="68" viewBox="0 0 68 68" fill="none" xmlns="http://www.w3.org/2000/svg">
<rect width="68" height="68" rx="34" fill="white" fill-opacity="0.43"/>
<g filter="url(#filter0_i_500_190256)">
<rect x="5" y="5" width="58" height="58" rx="29" fill="white"/>
<path d="M27.0419 21.5041C27.0833 21.5041 27.1247 21.5041 27.169 21.507L25.3787 18.925L24.9297 21.9915C25.5826 21.6724 26.3063 21.5041 27.0419 21.5041Z" fill="#4DBA79"/>
<path d="M30.6306 22.9842C30.734 23.0876 30.8285 23.194 30.9201 23.3033L31.8063 20.3521L29.0767 21.9414C29.6557 22.1836 30.1845 22.5382 30.6306 22.9842Z" fill="#4DBA79"/>
<path d="M34.7015 26.2717L31.8979 25.1846C32.0073 25.5922 32.0634 26.0147 32.0634 26.4401C32.0634 26.7532 32.0338 27.0634 31.9747 27.3677L34.7015 26.2717Z" fill="#4DBA79"/>
<path d="M25.4313 31.0022C25.2866 30.952 25.1418 30.8929 25 30.8279L25.4609 33.7289L27.0857 31.3242C26.5155 31.3124 25.9572 31.2031 25.4313 31.0022Z" fill="#4DBA79"/>
<path d="M23.2869 23.2651L20.25 23.0613L22.2943 25.2474C22.4686 24.5206 22.8083 23.8412 23.2869 23.2651Z" fill="#4DBA79"/>
<path d="M30.6306 29.894C30.2583 30.2662 29.8329 30.5705 29.3691 30.8039L31.8743 32.2248L31.0117 29.4626C30.8965 29.6133 30.7694 29.7581 30.6306 29.894Z" fill="#4DBA79"/>
<path d="M22.2763 27.4714L20.2852 29.6516L23.2068 29.4212C22.7578 28.8481 22.4388 28.1775 22.2763 27.4714Z" fill="#4DBA79"/>
<path d="M31.6029 26.3251C31.6029 28.7741 29.6176 30.7594 27.1686 30.7594C24.7196 30.7594 22.7344 28.7741 22.7344 26.3251C22.7344 23.8761 24.7196 21.8909 27.1686 21.8909C29.6176 21.8909 31.6029 23.8761 31.6029 26.3251Z" fill="#4DBA79"/>
<path d="M34.3296 47.7692V49.0749H42.1582L47.3782 43.8519V42.5461H39.5496L34.3296 47.7692Z" fill="#4DBA79"/>
<path d="M45.4192 36.6738L40.8521 41.244H48.6836V42.5468L53.2508 37.9796V36.6738H45.4192Z" fill="#4DBA79"/>
<path d="M38.8936 41.244L43.4637 36.6738H35.6321L31.062 41.244H38.8936Z" fill="#4DBA79"/>
<path d="M29.7591 42.5461L24.5361 47.7692V49.0749H32.3677V47.7692L37.5877 42.5461H29.7591Z" fill="#4DBA79"/>
<path d="M33.6736 36.6738H25.8421L21.2749 41.244H29.1065L33.6736 36.6738Z" fill="#4DBA79"/>
<path d="M19.972 42.5461L14.749 47.7692L14.749 49.0749H22.5806V47.7692L27.8006 42.5461H19.972Z" fill="#4DBA79"/>
</g>
<defs>
<filter id="filter0_i_500_190256" x="5" y="5" width="59" height="61" filterUnits="userSpaceOnUse" color-interpolation-filters="sRGB">
<feFlood flood-opacity="0" result="BackgroundImageFix"/>
<feBlend mode="normal" in="SourceGraphic" in2="BackgroundImageFix" result="shape"/>
<feColorMatrix in="SourceAlpha" type="matrix" values="0 0 0 0 0 0 0 0 0 0 0 0 0 0 0 0 0 0 127 0" result="hardAlpha"/>
<feOffset dx="1" dy="3"/>
<feGaussianBlur stdDeviation="2.5"/>
<feComposite in2="hardAlpha" operator="arithmetic" k2="-1" k3="1"/>
<feColorMatrix type="matrix" values="0 0 0 0 0 0 0 0 0 0 0 0 0 0 0 0 0 0 0.1 0"/>
<feBlend mode="normal" in2="shape" result="effect1_innerShadow_500_190256"/>
</filter>
</defs>
</svg>
