<svg width="68" height="68" viewBox="0 0 68 68" fill="none" xmlns="http://www.w3.org/2000/svg">
<rect width="68" height="68" rx="34" fill="white" fill-opacity="0.43"/>
<g filter="url(#filter0_i_500_183206)">
<rect x="5" y="5" width="58" height="58" rx="29" fill="white"/>
<path d="M38.1166 43.2222H29.8742C28.9385 43.2222 28.1785 43.9822 28.1785 44.9179C28.1785 45.8536 28.9385 46.6137 29.8742 46.6137H38.1166C39.0523 46.6137 39.8124 45.8536 39.8124 44.9179C39.8124 43.9822 39.0523 43.2222 38.1166 43.2222Z" fill="#4DBA79"/>
<path d="M28.7859 47.7856C28.7859 49.3327 29.9141 50.6738 31.4309 50.9575C31.4309 50.9575 35.3831 50.9541 36.5621 50.9541C38.0754 50.6704 39.2003 49.3293 39.2003 47.7822V47.2417H28.7859V47.7856Z" fill="#4DBA79"/>
<path d="M31.4314 51.5895C31.7793 52.7076 32.8164 53.4744 33.9953 53.4744C35.1776 53.4744 36.2147 52.7042 36.5626 51.5861L31.4314 51.5895Z" fill="#4DBA79"/>
<path d="M31.4311 30.0747C31.2791 29.9699 31.1169 29.8753 30.948 29.7841C30.8906 29.7368 30.8433 29.7064 30.8096 29.6862C30.796 29.6794 30.7825 29.6727 30.769 29.6625C30.769 29.6625 30.7825 29.6693 30.8096 29.6862C31.0325 29.8044 31.2386 29.9362 31.4311 30.0747Z" fill="#4DBA79"/>
<path fill-rule="evenodd" clip-rule="evenodd" d="M22.324 26.2001C22.324 19.7616 27.5599 14.5256 33.9984 14.5256C40.4335 14.5256 45.6695 19.7616 45.6762 26.2001C45.6762 28.8417 44.8114 31.3313 43.1765 33.4054C42.0482 34.8343 40.7207 36.7766 39.6161 38.6042V42.5936H28.3233L28.3233 38.5028C27.2863 36.7564 26.0769 34.993 24.8237 33.402C23.1887 31.3279 22.324 28.8383 22.324 26.2001ZM34.4781 35.7903C34.8665 38.2697 34.6877 41.7592 34.5796 42.5936H33.5696C33.7858 41.185 33.8837 39.9351 33.8939 38.8305C33.4041 36.7631 32.1 35.2092 31.7824 35.118C31.7447 35.1086 31.704 35.0992 31.6631 35.0897C31.8202 35.1285 32.4196 35.3953 33.0255 36.4084C32.2756 36.628 30.9244 35.9592 30.5967 35.1788C30.2488 34.3546 29.7826 34.2465 29.7826 34.2465C29.7826 34.2465 31.3635 34.233 32.3668 34.6586C33.289 35.0505 33.9004 35.7835 33.4681 36.2159C33.5998 36.3848 33.7146 36.5672 33.8126 36.7496C33.5863 31.5069 31.2588 29.9665 30.948 29.7841C31.1169 29.8753 31.2791 29.9699 31.4311 30.0747C31.2386 29.9362 31.0325 29.8044 30.8096 29.6862C30.7825 29.6693 30.769 29.6625 30.769 29.6625C30.7825 29.6727 30.796 29.6794 30.8096 29.6862C30.8433 29.7064 30.8906 29.7368 30.948 29.7841C31.3568 30.1186 32.3094 31.2198 32.9343 33.9425C31.2419 34.1654 28.7929 31.6792 28.5429 29.4024C28.2794 27.0006 27.364 26.4771 27.364 26.4771C27.364 26.4771 30.6778 27.2304 32.5357 28.8856C34.2484 30.4125 35.1165 32.6994 33.9612 33.652C34.0964 34.0404 34.2045 34.4424 34.2957 34.8444C34.522 34.1789 34.8632 33.3952 35.3564 32.7602C34.9915 32.1386 35.7178 31.2772 36.7042 30.8955C37.775 30.48 39.3593 30.7199 39.3593 30.7199C39.3593 30.7199 38.8763 30.7942 38.4 31.8143C37.9473 32.7804 36.4914 33.4628 35.7719 33.071C36.5478 31.8301 37.1946 31.5761 37.3483 31.5515L37.2176 31.5711C36.8427 31.6556 35.228 32.2129 34.4781 35.7903ZM37.3764 31.5475C37.3697 31.5475 37.3629 31.5475 37.3528 31.5508C37.3663 31.5475 37.3764 31.5475 37.3764 31.5475Z" fill="#4DBA79"/>
</g>
<defs>
<filter id="filter0_i_500_183206" x="5" y="5" width="59" height="61" filterUnits="userSpaceOnUse" color-interpolation-filters="sRGB">
<feFlood flood-opacity="0" result="BackgroundImageFix"/>
<feBlend mode="normal" in="SourceGraphic" in2="BackgroundImageFix" result="shape"/>
<feColorMatrix in="SourceAlpha" type="matrix" values="0 0 0 0 0 0 0 0 0 0 0 0 0 0 0 0 0 0 127 0" result="hardAlpha"/>
<feOffset dx="1" dy="3"/>
<feGaussianBlur stdDeviation="2.5"/>
<feComposite in2="hardAlpha" operator="arithmetic" k2="-1" k3="1"/>
<feColorMatrix type="matrix" values="0 0 0 0 0 0 0 0 0 0 0 0 0 0 0 0 0 0 0.1 0"/>
<feBlend mode="normal" in2="shape" result="effect1_innerShadow_500_183206"/>
</filter>
</defs>
</svg>
