<svg width="68" height="68" viewBox="0 0 68 68" fill="none" xmlns="http://www.w3.org/2000/svg">
<rect width="68" height="68" rx="34" fill="white" fill-opacity="0.43"/>
<g filter="url(#filter0_i_500_185552)">
<rect x="5" y="5" width="58" height="58" rx="29" fill="white"/>
<path d="M33.6124 22.2538C31.5724 22.018 30.105 20.1705 30.3408 18.1305C30.5765 16.0906 32.424 14.6232 34.464 14.8637C36.504 15.1043 37.9714 16.947 37.7356 18.9869C37.5047 21.0221 35.6572 22.4895 33.6124 22.2538Z" fill="#4DBA79"/>
<path d="M24.3892 34.4597C24.9714 35.1333 25.9866 35.2054 26.6553 34.6281L34.9884 27.4353C35.6619 26.8531 35.7341 25.838 35.1568 25.1692C34.5746 24.4956 33.5642 24.4235 32.8907 25.0008L24.5576 32.1936C23.884 32.7709 23.8119 33.7861 24.3892 34.4597Z" fill="#4DBA79"/>
<path d="M32.8234 35.7782C32.9726 37.236 34.5266 38.1645 36.2875 37.847C38.0484 37.5294 39.3571 36.0909 39.2079 34.6331L38.2745 25.5783C38.1254 24.1205 36.5714 23.192 34.8104 23.5095C33.0447 23.8271 31.7409 25.2656 31.89 26.7234L32.8234 35.7782Z" fill="#4DBA79"/>
<path d="M35.6185 43.8126C35.5463 44.4477 36.1718 45.0395 37.0185 45.1357C37.8653 45.2367 38.6062 44.7989 38.6832 44.1638L39.5829 36.3841C39.6551 35.749 39.0296 35.1572 38.1877 35.061C37.3409 34.9648 36.5951 35.3978 36.523 36.0329L35.6185 43.8126Z" fill="#4DBA79"/>
<path d="M34.6226 41.2871C34.0356 41.9558 34.0982 42.971 34.7573 43.5532L41.0215 49.0332C41.6855 49.6153 42.7006 49.5383 43.2876 48.8696C43.8746 48.196 43.812 47.1856 42.9123 46.1127L36.6481 40.6328C36.2199 40.5413 35.2096 40.6135 34.6226 41.2871Z" fill="#4DBA79"/>
<path d="M34.4974 41.6527C33.6074 41.6287 32.8664 42.3215 32.8376 43.2019L32.6114 51.5253C32.5874 52.4058 33.2898 53.1371 34.1847 53.1612C35.0748 53.1852 35.8205 52.4924 35.8446 51.6119L36.0707 43.2933C36.0948 42.4081 35.3875 41.6768 34.4974 41.6527Z" fill="#4DBA79"/>
<path d="M32.8041 34.325L28.9551 43.6972L43.9998 42.7109L39.1212 34.681" fill="#4DBA79"/>
<path d="M37.5624 16.668C41.8107 11.597 42.0416 22.7013 43.6149 23.7694C38.0916 24.9722 41.9695 16.3601 36.9465 16.9759" fill="#4DBA79"/>
</g>
<defs>
<filter id="filter0_i_500_185552" x="5" y="5" width="59" height="61" filterUnits="userSpaceOnUse" color-interpolation-filters="sRGB">
<feFlood flood-opacity="0" result="BackgroundImageFix"/>
<feBlend mode="normal" in="SourceGraphic" in2="BackgroundImageFix" result="shape"/>
<feColorMatrix in="SourceAlpha" type="matrix" values="0 0 0 0 0 0 0 0 0 0 0 0 0 0 0 0 0 0 127 0" result="hardAlpha"/>
<feOffset dx="1" dy="3"/>
<feGaussianBlur stdDeviation="2.5"/>
<feComposite in2="hardAlpha" operator="arithmetic" k2="-1" k3="1"/>
<feColorMatrix type="matrix" values="0 0 0 0 0 0 0 0 0 0 0 0 0 0 0 0 0 0 0.1 0"/>
<feBlend mode="normal" in2="shape" result="effect1_innerShadow_500_185552"/>
</filter>
</defs>
</svg>
