<svg width="68" height="68" viewBox="0 0 68 68" fill="none" xmlns="http://www.w3.org/2000/svg">
<rect width="68" height="68" rx="34" fill="white" fill-opacity="0.43"/>
<g filter="url(#filter0_i_500_184380)">
<rect x="5" y="5" width="58" height="58" rx="29" fill="white"/>
<path d="M34.0002 18.5339C31.8176 18.5339 30.0491 19.4182 30.0491 20.5095H37.9514C37.9514 19.4182 36.1829 18.5339 34.0002 18.5339Z" fill="#4DBA79"/>
<path d="M45.7055 21.2507L22.2945 21.2507C21.7981 21.2507 21.4004 21.6518 21.4004 22.1448V23.0389C21.4004 23.532 21.8014 23.933 22.2945 23.933L45.7055 23.933C46.1986 23.933 46.5996 23.532 46.5996 23.0389V22.1448C46.5996 21.6518 46.1986 21.2507 45.7055 21.2507Z" fill="#4DBA79"/>
<path d="M23.113 24.6743C23.113 24.6875 23.113 24.7006 23.113 24.7105L25.1774 48.0459C25.1774 48.8282 25.8118 49.466 26.5974 49.466H41.4027C42.1883 49.466 42.8228 48.8315 42.8228 48.0459L44.8871 24.7105C44.8871 24.6973 44.8838 24.6875 44.8838 24.6743L23.113 24.6743ZM27.3206 37.011C27.3173 36.7841 27.3469 36.577 27.4028 36.3897C27.4586 36.2023 27.5277 36.0413 27.6099 35.9065C27.6887 35.7684 27.7611 35.6665 27.8202 35.5975C27.8794 35.5285 27.9221 35.4857 27.9484 35.466L26.9754 34.8907L30.1475 34.7921L31.6169 37.5566L30.6998 37.034C30.6735 37.0636 30.6307 37.1063 30.5716 37.1655C30.5124 37.2246 30.4467 37.3002 30.3678 37.3857C30.2922 37.4744 30.2198 37.5599 30.1475 37.6454C30.0752 37.7308 30.0259 37.8032 29.9996 37.859C29.9372 37.9675 29.9076 38.0694 29.9076 38.1582C29.9109 38.3028 29.9634 38.4146 30.0686 38.4902C30.1738 38.5658 30.2593 38.6184 30.3217 38.6447L29.352 38.6545C28.8918 38.6578 28.4744 38.5592 28.1095 38.3587C27.7446 38.1582 27.5244 37.9379 27.4488 37.7045C27.4028 37.5862 27.3699 37.4777 27.3502 37.3791C27.3304 37.2805 27.3206 37.1589 27.3206 37.011ZM30.0653 42.2803C29.947 42.2803 29.8221 42.2178 29.6873 42.0929C29.5558 41.968 29.4276 41.8036 29.3027 41.6064C29.1778 41.4091 29.0661 41.2152 28.9707 41.0311C28.8754 40.847 28.7702 40.6367 28.6585 40.4C28.6486 40.3704 28.6256 40.3211 28.5894 40.2488C28.5237 40.1239 28.4185 39.9299 28.2706 39.667C28.1226 39.4073 27.9813 39.1575 27.8465 38.9241C27.715 38.6907 27.6066 38.5033 27.5277 38.362C27.4488 38.2239 27.3929 38.122 27.3567 38.0596C27.4784 38.2962 27.7085 38.4902 28.0569 38.6479C28.4021 38.8024 28.8031 38.8813 29.2567 38.8748C30.0456 38.8649 31.4887 38.855 33.5859 38.8353L33.6188 42.2474L30.0653 42.2803ZM31.6169 34.825L28.8491 33.2932C28.8754 33.2472 29.0003 33.0401 29.2238 32.6752C29.2699 32.6029 29.3816 32.4155 29.5657 32.1131C29.7498 31.8107 29.9109 31.5412 30.0555 31.3078C30.2001 31.0744 30.3152 30.8804 30.4039 30.7226C30.4927 30.5682 30.5551 30.463 30.5913 30.4071C30.6537 30.2986 30.7491 30.2164 30.8707 30.1606C30.9923 30.1047 31.1698 30.0521 31.4065 30.0061C31.4985 30.0061 31.6202 30.0159 31.7747 30.0356C31.9292 30.0587 32.1165 30.1112 32.3433 30.1934C32.5669 30.2789 32.7904 30.4137 33.0139 30.5977C33.2374 30.7818 33.4347 31.0251 33.599 31.3242L33.6418 31.3932C33.6878 31.4656 33.7272 31.5346 33.7667 31.597L31.6169 34.825ZM33.7371 31.1993C33.5596 30.8903 33.3591 30.6438 33.129 30.4498C32.8989 30.2559 32.6753 30.1178 32.4485 30.0324C32.225 29.9502 32.0409 29.8943 31.8897 29.8746C31.7385 29.8548 31.6267 29.8417 31.5544 29.8417C31.7517 29.8121 32.008 29.7957 32.317 29.7858C32.626 29.7792 33.2177 29.7727 34.0888 29.7628C34.9698 29.7562 35.6173 29.7727 36.0282 29.8187C36.4424 29.8647 36.7054 29.983 36.8139 30.1737C36.8336 30.2099 36.8796 30.2986 36.9618 30.44C37.0407 30.5813 37.1327 30.7358 37.2379 30.9067C37.3431 31.0777 37.4285 31.219 37.4943 31.3275C37.56 31.436 37.6061 31.5149 37.6324 31.5707L38.5922 31.0021L37.2708 33.9703L33.9869 33.7008L34.8942 33.1617L33.7371 31.1993ZM40.3804 38.3127C40.2917 38.4869 40.1766 38.6973 40.032 38.9438C39.9432 39.1082 39.8808 39.2232 39.8446 39.2857C39.7723 39.4401 39.6967 39.6012 39.6178 39.7656C39.4206 40.1863 39.2628 40.5216 39.1379 40.7682C39.013 41.0147 38.8749 41.2547 38.7204 41.4848C38.5692 41.7116 38.4114 41.8957 38.2503 42.0337C38.0893 42.1718 37.9216 42.2408 37.7474 42.2441C37.6291 42.2441 37.09 42.2507 36.1268 42.2572L36.1367 43.3749L34.4504 40.6893L36.1137 38.0267L36.1104 39.0917C37.6817 39.0786 38.4804 39.0687 38.5067 39.0687C38.8157 39.0556 39.0984 38.9865 39.3548 38.8616C39.6112 38.7367 39.8315 38.5921 40.0122 38.4343C40.193 38.2732 40.3278 38.1385 40.4166 38.0234C40.5053 37.9084 40.5711 37.8262 40.6039 37.7703C40.5448 37.9577 40.4692 38.1385 40.3804 38.3127ZM40.4987 37.5862C40.4724 37.6421 40.4133 37.7275 40.318 37.8459C40.2259 37.9642 40.0878 38.1056 39.9136 38.2634C39.7394 38.4244 39.5192 38.5691 39.2562 38.7006C38.9932 38.8288 38.7138 38.9011 38.4114 38.9142C38.4048 38.9142 38.3194 38.786 38.1583 38.5362C37.9972 38.2831 37.6521 37.7473 37.1228 36.9321C36.5936 36.1169 36.2813 35.6336 36.1893 35.4923L38.9801 33.8027C39.0064 33.8487 39.0721 33.9671 39.174 34.1544C39.2759 34.3451 39.4008 34.5752 39.5488 34.8447C39.8545 35.4134 40.078 35.8375 40.2259 36.1136C40.3738 36.3897 40.4823 36.5803 40.5448 36.6888C40.5908 36.771 40.6138 36.8729 40.6138 37.0011C40.6171 37.1688 40.5776 37.366 40.4987 37.5862Z" fill="#4DBA79"/>
</g>
<defs>
<filter id="filter0_i_500_184380" x="5" y="5" width="59" height="61" filterUnits="userSpaceOnUse" color-interpolation-filters="sRGB">
<feFlood flood-opacity="0" result="BackgroundImageFix"/>
<feBlend mode="normal" in="SourceGraphic" in2="BackgroundImageFix" result="shape"/>
<feColorMatrix in="SourceAlpha" type="matrix" values="0 0 0 0 0 0 0 0 0 0 0 0 0 0 0 0 0 0 127 0" result="hardAlpha"/>
<feOffset dx="1" dy="3"/>
<feGaussianBlur stdDeviation="2.5"/>
<feComposite in2="hardAlpha" operator="arithmetic" k2="-1" k3="1"/>
<feColorMatrix type="matrix" values="0 0 0 0 0 0 0 0 0 0 0 0 0 0 0 0 0 0 0.1 0"/>
<feBlend mode="normal" in2="shape" result="effect1_innerShadow_500_184380"/>
</filter>
</defs>
</svg>
