<svg width="68" height="68" viewBox="0 0 68 68" fill="none" xmlns="http://www.w3.org/2000/svg">
<rect width="68" height="68" rx="34" fill="white" fill-opacity="0.43"/>
<g filter="url(#filter0_i_500_187904)">
<rect x="5" y="5" width="58" height="58" rx="29" fill="white"/>
<path d="M44.321 47.0354L23.9487 47.0354V48.5L44.321 48.5V47.0354Z" fill="#4DB979"/>
<path d="M18.1026 25.1939L16.6001 26.0403L19.7766 31.6794L21.279 30.833L18.1026 25.1939Z" fill="#4DB979"/>
<path d="M49.9952 25.4816L46.2188 30.7375L47.6236 31.747L51.4001 26.491L49.9952 25.4816Z" fill="#4DB979"/>
<path d="M38.998 20.075C38.998 22.7721 37.0359 24.9552 34.6207 24.9552C32.2054 24.9552 30.2433 22.7721 30.2433 20.075C30.2433 19.9699 30.2489 19.8649 30.2599 19.7544H29.3701C29.3646 19.8594 29.3535 19.9644 29.3535 20.075C29.3535 23.3137 31.7135 25.9446 34.6207 25.9446C37.5278 25.9446 39.8878 23.3193 39.8878 20.075C39.8878 19.9699 39.8768 19.8649 39.8713 19.7544H38.9814C38.9925 19.8649 38.998 19.9699 38.998 20.075Z" fill="#4DB979"/>
<path fill-rule="evenodd" clip-rule="evenodd" d="M42.4196 19.5002H40.2033C40.2972 19.9148 40.3525 20.3514 40.3525 20.7935C40.3525 24.0379 37.7438 26.6631 34.5271 26.6631C31.3105 26.6631 28.7017 24.0323 28.7017 20.7935C28.7017 20.4675 28.7349 20.1524 28.7847 19.8429L25.5072 19.8429L18.5156 24.5905L22.2297 30.5486L24.131 29.9461L24.131 46.5214H44.2435V29.5979L45.5368 30.8912L49.8533 24.5021L42.4196 19.5002ZM33.0337 35.9727L30.648 34.5586L31.9209 32.5968C32.7736 31.8141 33.8129 32.8646 34.303 33.9055L33.0337 35.9727ZM37.0982 35.751L34.5716 35.7292L35.2737 35.2748L34.3404 33.5578C33.9947 32.9204 33.5865 32.4285 32.9361 32.2346L35.9842 32.2128C36.4262 32.1958 36.9248 32.5412 37.0946 32.9301L37.6474 33.9467L38.4422 33.5323L37.0982 35.751ZM36.354 37.2499L38.7217 35.8043L39.7826 37.8933C40.0392 39.0347 38.6349 39.454 37.5077 39.3861L36.354 37.2499ZM34.5704 40.988L35.8157 38.7415L35.8638 39.5897H37.7859C38.4988 39.5897 39.1179 39.4637 39.5996 38.9766L38.1388 41.7102C37.9376 42.1137 37.4005 42.3912 36.985 42.3548H35.847L35.8157 43.266L34.5704 40.988ZM28.9306 38.9439L30.5179 41.8762C30.837 42.2834 31.438 42.3803 32.0618 42.3646H33.7358L33.7358 39.5873L30.5613 39.5655C30.0687 39.5958 29.4232 39.4916 28.9306 38.9439ZM29.5605 36.4332L28.821 35.8552L31.4308 35.8322L32.7133 38.2096L31.9739 37.8097L30.996 39.4092C30.4517 39.4165 29.87 39.3922 29.4954 39.1874C29.1137 38.979 28.5163 38.3804 28.8644 37.7661L29.5605 36.4332Z" fill="#4DB979"/>
</g>
<defs>
<filter id="filter0_i_500_187904" x="5" y="5" width="59" height="61" filterUnits="userSpaceOnUse" color-interpolation-filters="sRGB">
<feFlood flood-opacity="0" result="BackgroundImageFix"/>
<feBlend mode="normal" in="SourceGraphic" in2="BackgroundImageFix" result="shape"/>
<feColorMatrix in="SourceAlpha" type="matrix" values="0 0 0 0 0 0 0 0 0 0 0 0 0 0 0 0 0 0 127 0" result="hardAlpha"/>
<feOffset dx="1" dy="3"/>
<feGaussianBlur stdDeviation="2.5"/>
<feComposite in2="hardAlpha" operator="arithmetic" k2="-1" k3="1"/>
<feColorMatrix type="matrix" values="0 0 0 0 0 0 0 0 0 0 0 0 0 0 0 0 0 0 0.1 0"/>
<feBlend mode="normal" in2="shape" result="effect1_innerShadow_500_187904"/>
</filter>
</defs>
</svg>
