<svg width="68" height="68" viewBox="0 0 68 68" fill="none" xmlns="http://www.w3.org/2000/svg">
<rect width="68" height="68" rx="34" fill="white" fill-opacity="0.43"/>
<g filter="url(#filter0_i_500_186734)">
<rect x="5" y="5" width="58" height="58" rx="29" fill="white"/>
<path d="M33.6404 18.4207C32.3902 17.6113 32.0486 15.9783 32.8845 14.7748C33.7203 13.5642 35.4066 13.2404 36.6568 14.0428C37.9069 14.8522 38.2413 16.4851 37.4127 17.6957C36.5768 18.8993 34.8833 19.2301 33.6404 18.4207ZM13.9431 40.3101C16.3708 36.7909 21.1025 35.6436 24.9184 37.4807L27.6585 33.5321C27.4696 33.3562 27.3024 33.1872 27.1498 33.0324C26.0232 32.6171 24.9838 32.0752 24.9838 32.0752L24.7875 31.6529C24.8675 31.2446 25.2309 30.9349 25.5434 30.7379C25.2818 30.0692 25.3763 29.7173 25.3763 29.7173C29.5265 21.4753 30.9002 18.9556 33.8512 19.3638C36.7949 19.765 41.3521 27.5213 41.3521 27.5213C43.5108 30.0974 45.7568 32.0048 46.2292 32.237L46.8107 31.5262L47.7556 32.2019L47.0433 33.1943C47.0433 33.2787 47.036 33.335 47.036 33.335C46.9851 33.5603 46.8252 33.6799 46.6435 33.7573L46.3019 34.2289L41.7083 33.335L41.3958 33.6166L43.6998 38.3534C46.2437 37.3751 49.231 37.5721 51.6732 39.1488C55.6199 41.6966 56.6884 46.8769 54.0572 50.6917C51.4261 54.5136 46.0766 55.5482 42.1298 53.0003C38.1831 50.4524 37.122 45.2721 39.7531 41.4503C40.4581 40.4297 41.3594 39.6133 42.3697 39.008L40.996 36.1434L34.9996 44.5472C34.6652 45.6734 34.4399 46.3772 34.4399 46.3772C37.9287 45.8493 37.3545 48.2001 37.3545 48.2001C35.2031 48.8265 32.2812 48.186 32.2812 48.186C31.4163 47.7497 32.2667 46.159 32.2667 46.159C32.2594 46.0675 32.2449 45.9549 32.2449 45.8563L29.6355 45.8212C29.4974 47.1162 29.0468 48.4042 28.2473 49.5585C25.6161 53.3804 20.2666 54.408 16.3199 51.8671C12.3804 49.3122 11.312 44.139 13.9431 40.3101ZM41.2577 42.4146C39.1716 45.427 40.022 49.5304 43.1402 51.5434C46.2583 53.5564 50.4885 52.7399 52.5672 49.7204C54.6533 46.7009 53.8029 42.6046 50.6847 40.5916C48.7804 39.3669 46.4691 39.198 44.4775 39.93L47.5157 46.166L46.8107 46.8347L45.8367 46.2083L43.1402 40.5916C42.4133 41.0561 41.7737 41.6685 41.2577 42.4146ZM29.2285 34.8201L32.3394 42.5061C32.5501 40.0145 32.9426 37.5229 32.9426 37.5229C32.2522 37.178 30.5077 35.8337 29.2285 34.8201ZM39.4842 32.3074L40.3346 31.9626L42.9221 32.4693C40.9887 31.3432 39.317 30.0551 39.317 30.0551C38.4666 29.3302 35.552 24.9101 35.552 24.9101C33.2479 25.3183 31.7361 30.203 31.7361 30.203C33.2261 31.4558 34.2582 32.7086 34.9851 33.8348L40.2037 34.0178L39.2516 32.9902L39.4842 32.3074ZM39.7458 35.5592L35.7991 35.2847C36.5623 36.8753 36.6713 37.9663 36.6713 37.9663C36.4751 38.8954 36.2643 39.8033 36.0462 40.662L39.7458 35.5592ZM29.6646 44.4557L31.3 44.5261L27.8911 35.6788L26.1394 38.2056C28.2981 39.7189 29.5192 42.0415 29.6646 44.4557ZM25.1364 39.6555L22.0328 44.1179L27.8693 44.3713C27.7021 42.5483 26.7573 40.8098 25.1364 39.6555ZM17.3229 50.4172C20.441 52.4302 24.6712 51.6067 26.75 48.5943C27.3533 47.7286 27.6949 46.7643 27.833 45.793L20.7681 45.6804L19.9104 44.7091L23.908 38.9517C20.928 37.6425 17.3156 38.5646 15.4404 41.2884C13.3689 44.3009 14.2121 48.3972 17.3229 50.4172Z" fill="#4DBA79"/>
<path d="M47.5334 31.3036C44.2362 29.3567 47.0304 23.838 52.0668 24.8456C50.6927 26.5625 52.8222 31.1879 47.9905 31.4402C47.9905 29.0362 48.5514 27.398 49.9715 25.9793C47.5216 27.674 47.5334 30.2278 47.5334 31.3036Z" fill="#4DBA79"/>
<path d="M48.2607 25.0118C48.0277 25.138 47.8036 25.2819 47.59 25.4437C47.3317 25.6395 47.0973 25.8577 46.8866 26.0921C46.5438 25.6024 46.0882 25.1291 45.4813 24.7091C45.9873 25.2151 46.3835 25.7479 46.6848 26.334C46.3138 26.8074 46.0392 27.3401 45.8879 27.8966C45.7024 28.5777 45.7098 29.2573 45.9101 29.8672C43.1248 28.7662 44.582 25.0697 43.386 23.5754C45.5021 23.154 47.2219 23.8811 48.2607 25.0118Z" fill="#4DBA79"/>
</g>
<defs>
<filter id="filter0_i_500_186734" x="5" y="5" width="59" height="61" filterUnits="userSpaceOnUse" color-interpolation-filters="sRGB">
<feFlood flood-opacity="0" result="BackgroundImageFix"/>
<feBlend mode="normal" in="SourceGraphic" in2="BackgroundImageFix" result="shape"/>
<feColorMatrix in="SourceAlpha" type="matrix" values="0 0 0 0 0 0 0 0 0 0 0 0 0 0 0 0 0 0 127 0" result="hardAlpha"/>
<feOffset dx="1" dy="3"/>
<feGaussianBlur stdDeviation="2.5"/>
<feComposite in2="hardAlpha" operator="arithmetic" k2="-1" k3="1"/>
<feColorMatrix type="matrix" values="0 0 0 0 0 0 0 0 0 0 0 0 0 0 0 0 0 0 0.1 0"/>
<feBlend mode="normal" in2="shape" result="effect1_innerShadow_500_186734"/>
</filter>
</defs>
</svg>
