<svg width="68" height="68" viewBox="0 0 68 68" fill="none" xmlns="http://www.w3.org/2000/svg">
<rect width="68" height="68" rx="34" fill="white" fill-opacity="0.43"/>
<g filter="url(#filter0_i_500_181984)">
<rect x="5" y="5" width="58" height="58" rx="29" fill="white"/>
<path d="M31.9546 29.7812C31.9546 29.7812 41.2457 43.7361 30.5829 51.1555C30.5829 51.1555 28.6259 52.9479 29.199 53.7404C29.199 53.7404 34.1433 53.6978 36.8989 53.6978C36.8989 53.6978 38.9107 50.7653 38.6791 42.9191C38.6791 42.9191 39.2582 36.5605 34.1615 30.1957C34.1615 30.1957 28.949 23.7273 28.5954 19.0635C28.5954 19.0757 28.9429 24.2699 31.9546 29.7812Z" fill="#4DBA79"/>
<path d="M36.3624 35.0851C36.3624 35.0851 38.7949 31.2687 42.276 30.6347C42.276 30.6347 45.8669 29.3605 46.2144 27.1353C46.2144 27.1353 45.6352 29.4702 42.5077 31.2687C42.5077 31.2687 37.5207 33.3903 36.9416 36.4629L36.3624 35.0851Z" fill="#4DBA79"/>
<path d="M30.5097 25.0564C30.5097 25.0564 31.6864 23.2152 33.3629 22.9104C33.3629 22.9104 35.0943 22.2946 35.265 21.2216C35.265 21.2216 34.9846 22.3495 33.4726 23.2152C33.4726 23.2152 31.0645 24.2394 30.7841 25.7209L30.5097 25.0564Z" fill="#4DBA79"/>
<path d="M35.4357 45.2602C35.4357 45.2602 33.0032 41.4438 29.5282 40.8097C29.5282 40.8097 25.9373 39.5356 25.5898 37.3104C25.5898 37.3104 26.169 39.6453 29.2965 41.4438C29.2965 41.4438 34.2774 43.5654 34.8566 46.638L35.4357 45.2602Z" fill="#4DBA79"/>
<path d="M27.9921 19.2955C28.5225 19.4845 30.5161 20.7891 30.1381 21.8743C33.3144 19.0029 27.0045 14.8024 25.4682 14.2598C24.066 21.7829 27.5166 22.4779 28.8639 22.4718C28.2665 22.2706 27.5654 21.5817 27.9921 19.2955Z" fill="#4DBA79"/>
<path d="M35.4234 21.0572C35.4173 21.4962 34.9479 23.2825 34.0578 23.2764C36.9597 24.898 38.4838 19.2161 38.5082 17.948C32.619 18.7832 32.9665 21.4962 33.3079 22.4838C33.3018 21.9961 33.6371 21.3072 35.4234 21.0572Z" fill="#4DBA79"/>
<path d="M46.1959 27.5496C46.1471 28.336 45.1533 31.5001 43.5561 31.4087C48.6162 34.5728 51.8534 24.5135 51.9997 22.2395C41.3674 23.221 41.7515 28.1165 42.2758 29.9211C42.3124 29.0554 42.9708 27.8483 46.1959 27.5496Z" fill="#4DBA79"/>
<path d="M24.9558 36.8651C26.1568 36.8163 31.1011 37.81 31.2169 40.2365C35.1857 32.0732 19.4506 28.8055 16 28.9457C19.1946 44.8637 26.5348 43.492 29.1807 42.4129C27.8577 42.4983 25.9251 41.6935 24.9558 36.8651Z" fill="#4DBA79"/>
</g>
<defs>
<filter id="filter0_i_500_181984" x="5" y="5" width="59" height="61" filterUnits="userSpaceOnUse" color-interpolation-filters="sRGB">
<feFlood flood-opacity="0" result="BackgroundImageFix"/>
<feBlend mode="normal" in="SourceGraphic" in2="BackgroundImageFix" result="shape"/>
<feColorMatrix in="SourceAlpha" type="matrix" values="0 0 0 0 0 0 0 0 0 0 0 0 0 0 0 0 0 0 127 0" result="hardAlpha"/>
<feOffset dx="1" dy="3"/>
<feGaussianBlur stdDeviation="2.5"/>
<feComposite in2="hardAlpha" operator="arithmetic" k2="-1" k3="1"/>
<feColorMatrix type="matrix" values="0 0 0 0 0 0 0 0 0 0 0 0 0 0 0 0 0 0 0.1 0"/>
<feBlend mode="normal" in2="shape" result="effect1_innerShadow_500_181984"/>
</filter>
</defs>
</svg>
