<svg width="69" height="69" viewBox="0 0 69 69" fill="none" xmlns="http://www.w3.org/2000/svg">
<rect x="0.5" y="0.5" width="68" height="68" rx="34" fill="white" fill-opacity="0.43"/>
<g filter="url(#filter0_i_500_180671)">
<rect x="5.5" y="5.5" width="58" height="58" rx="29" fill="white"/>
<path d="M19.1705 45.831C21.2343 45.831 23.031 45.1294 24.1454 43.9421C25.2598 45.1294 27.0566 45.831 29.1203 45.831C31.1841 45.831 32.9808 45.1294 34.0953 43.9421C35.2097 45.1294 37.0064 45.831 39.0702 45.831C41.134 45.831 42.9307 45.1294 44.0452 43.9421C45.1596 45.1294 46.9563 45.831 49.0201 45.831C51.6375 45.831 53.8275 44.702 54.738 42.8859C54.942 42.4756 54.7768 41.9778 54.3665 41.7739C53.9586 41.5699 53.4584 41.735 53.2545 42.1454C52.6378 43.3788 50.9746 44.1751 49.0201 44.1751C47.0656 44.1751 45.4048 43.3788 44.7881 42.1454C44.5065 41.5845 43.5863 41.5845 43.3046 42.1454C42.6879 43.3788 41.0272 44.1751 39.0702 44.1751C37.1133 44.1751 35.4525 43.3788 34.8358 42.1454C34.5542 41.5845 33.634 41.5845 33.3523 42.1454C32.7356 43.3788 31.0749 44.1751 29.1179 44.1751C27.161 44.1751 25.5002 43.3788 24.8835 42.1454C24.6019 41.5845 23.6817 41.5845 23.4 42.1454C22.7833 43.3788 21.1226 44.1751 19.168 44.1751C17.2135 44.1751 15.5503 43.3788 14.9336 42.1454C14.7297 41.735 14.2295 41.5699 13.8216 41.7739C13.4113 41.9778 13.2462 42.4756 13.4501 42.8859C14.3606 44.702 16.5507 45.831 19.1705 45.831Z" fill="#4DBA79"/>
<path d="M54.3665 49.2353C53.9586 49.0313 53.4584 49.1964 53.2545 49.6068C52.6378 50.8402 50.9746 51.6366 49.0201 51.6366C47.0656 51.6366 45.4048 50.8402 44.7881 49.6068C44.5065 49.0459 43.5863 49.0459 43.3046 49.6068C42.6879 50.8402 41.0272 51.6366 39.0702 51.6366C37.1133 51.6366 35.4525 50.8402 34.8358 49.6068C34.5542 49.0459 33.634 49.0459 33.3523 49.6068C32.7356 50.8402 31.0749 51.6366 29.1179 51.6366C27.161 51.6366 25.5002 50.8402 24.8835 49.6068C24.6019 49.0459 23.6817 49.0459 23.4 49.6068C22.7833 50.8402 21.1226 51.6366 19.168 51.6366C17.2135 51.6366 15.5503 50.8402 14.9336 49.6068C14.7297 49.1964 14.2295 49.0338 13.8216 49.2353C13.4113 49.4392 13.2462 49.937 13.4501 50.3473C14.3582 52.1634 16.5507 53.2924 19.168 53.2924C21.2318 53.2924 23.0285 52.5908 24.143 51.4035C25.2574 52.5908 27.0541 53.2924 29.1179 53.2924C31.1817 53.2924 32.9784 52.5908 34.0928 51.4035C35.2073 52.5908 37.004 53.2924 39.0678 53.2924C41.1316 53.2924 42.9283 52.5908 44.0427 51.4035C45.1572 52.5908 46.9539 53.2924 49.0177 53.2924C51.635 53.2924 53.8251 52.1634 54.7356 50.3473C54.9419 49.937 54.7744 49.4392 54.3665 49.2353Z" fill="#4DBA79"/>
<path d="M30.4009 44.241C30.5853 43.3116 31.455 44.3052 31.9436 41.879C34.2893 40.8354 31.5644 42.047 30.4591 41.7035C32.6061 39.5196 34.2857 39.0631 37.5354 37.1313C40.7853 35.2 41.8747 31.416 41.8747 31.416C41.8747 31.416 42.829 33.7507 42.8461 33.8677C42.8632 33.9847 40.6103 39.3587 40.4389 39.654C40.2672 39.9499 37.618 41.6899 37.3904 41.8187C37.1629 41.9476 30.4009 44.241 30.4009 44.241C30.6063 44.1793 30.2068 44.4362 30.4009 44.241Z" fill="#4DBA79"/>
<path d="M38.4227 45.3092C33.5695 43.1094 32.8994 42.9254 30.4009 44.241C30.4065 42.5105 29.4546 39.157 31.3231 37.0021C33.1915 34.8472 33.3046 36.9231 33.2358 37.9752C33.1671 39.0274 33.7134 39.1984 33.796 40.6898C33.8793 42.1814 33.7495 42.1631 33.7495 42.1631C33.7495 42.1631 35.375 41.6643 37.4782 39.8369C39.5819 38.0093 41.5866 34.9912 41.875 31.4165C41.8948 30.6815 42.0279 30.5584 40.9182 29.9613C39.8082 29.3637 38.4586 28.539 37.914 27.1827C37.3693 25.8264 37.7204 25.8865 38.6563 26.0557C39.5921 26.225 41.3163 25.8298 42.1102 26.851C42.7903 25.4906 43.2937 24.6092 44.3434 23.8427C45.3927 23.0765 45.7437 23.1644 45.9593 24.3102C46.175 25.4561 46.108 27.093 45.2616 28.5656C44.4151 30.0382 44.8229 30.5989 45.2216 31.4996C45.6197 32.4001 46.0186 35.0709 45.5516 38.4845C45.2999 40.324 44.8349 42.0905 43.7997 43.8533C42.547 42.6995 39.9869 45.1758 38.4227 45.3092Z" fill="#4DBA79"/>
<path d="M17.608 37.1055C17.652 37.1661 17.6352 37.2535 17.5704 37.3007L16.5138 38.0661C16.449 38.1133 16.3608 38.1017 16.3168 38.0411L16.0777 37.7109C16.0334 37.65 16.0505 37.5629 16.1153 37.5158L17.1719 36.7504C17.2367 36.7032 17.3249 36.7148 17.3689 36.7753L17.608 37.1055Z" fill="#4DBA79"/>
<path fill-rule="evenodd" clip-rule="evenodd" d="M21.0321 39.4277L21.1148 39.5401C21.2186 39.6832 21.2528 39.8644 21.2277 40.0675L23.4607 43.2132C23.4735 43.2162 23.4867 43.2196 23.4991 43.2229C23.5205 43.232 23.5406 43.2429 23.5602 43.254C23.6866 43.298 23.7987 43.362 23.8709 43.4611C23.8996 43.5012 23.923 43.544 23.9411 43.5895L24.9538 45.3017C25.1089 45.5675 25.099 45.8883 25.099 45.8883L25.0915 45.9403L25.0469 46.2475C25.0131 46.4796 24.8909 46.5359 24.8086 46.5465C24.7634 46.5525 24.7304 46.5447 24.7304 46.5447L24.3454 46.498C24.2223 46.4867 24.1926 46.5108 24.2013 46.5481C24.2088 46.5829 24.2193 46.9257 24.2266 47.1755C24.2288 47.2494 24.2043 47.3122 24.1691 47.3644C24.0852 47.4888 23.9392 47.5516 23.9392 47.5516C23.9392 47.5516 23.8415 47.622 23.5713 47.7473C23.5599 47.7525 23.5487 47.7569 23.5379 47.7611C23.2774 47.8585 23.0054 47.6961 23.0054 47.6961C23.0054 47.6961 22.9064 47.6542 22.8173 47.583C22.7286 47.5114 22.6902 47.6045 22.6902 47.6045C22.666 47.7121 22.5678 47.7829 22.5678 47.7829L22.5209 47.8167L22.5006 47.8312C22.305 47.9729 21.7351 47.4355 21.7351 47.4355L20.5217 46.0591C20.4856 46.0285 20.4559 45.9924 20.4277 45.9538C20.4248 45.95 20.4235 45.945 20.4221 45.9401C20.4207 45.9352 20.4193 45.9302 20.4165 45.9264C20.3494 45.8235 20.3141 45.7027 20.3168 45.5655L18.0038 42.3722C17.8125 42.3344 17.6625 42.2465 17.5644 42.111L17.4783 42.0012C17.4783 42.0012 16.6966 41.0548 16.5425 40.2109C16.4474 39.6904 16.5447 39.2389 16.6097 38.9369C16.6501 38.7493 16.6781 38.6193 16.6398 38.5664C16.584 38.5512 16.5397 38.524 16.5104 38.483C16.5064 38.4776 16.5036 38.4716 16.5007 38.4656L16.4969 38.4579C16.4928 38.4535 16.4895 38.4485 16.4863 38.4435L16.4802 38.4346C16.4416 38.3813 16.4324 38.3113 16.4535 38.2279L16.2201 37.9054C16.2733 37.9783 16.4597 37.9395 16.6927 37.8176C16.7709 37.7326 16.8603 37.6518 16.9673 37.5743C17.0723 37.4984 17.1786 37.4368 17.2818 37.3894C17.4652 37.2084 17.5605 37.0443 17.5087 36.9724L17.7329 37.2819C17.8346 37.2814 17.899 37.3187 17.9414 37.3771C17.9468 37.3844 17.9517 37.3926 17.9561 37.4012C17.9631 37.4079 17.9693 37.4153 17.975 37.4229C18.0066 37.4669 18.0183 37.5224 18.0123 37.5853C18.0519 37.6359 18.1835 37.6467 18.3722 37.6622C18.6849 37.6879 19.1545 37.7264 19.6226 37.9806C20.3769 38.39 21.0321 39.4277 21.0321 39.4277ZM20.4164 45.8164L20.4192 45.8202C20.4063 45.8021 20.3946 45.7837 20.3833 45.7643C20.3936 45.7824 20.4044 45.7995 20.4164 45.8164ZM21.1736 41.5625C21.1743 41.558 21.1744 41.5536 21.1743 41.5492C21.1753 41.4772 21.1275 41.4122 21.0544 41.3979L21.005 41.3883L20.8229 41.3529C20.7387 41.3365 20.6623 41.3805 20.6485 41.4685L20.6347 41.5566L20.5262 42.2492L19.8041 42.1476C19.7972 42.1466 19.7902 42.1455 19.7831 42.1444C19.7416 42.1378 19.6968 42.1306 19.6601 42.1505C19.6093 42.1779 19.5875 42.2218 19.5817 42.2779L19.5702 42.3897L19.5594 42.4943C19.5526 42.5601 19.5757 42.6178 19.6349 42.6529C19.662 42.6689 19.6977 42.6728 19.7304 42.6764C19.7391 42.6773 19.7476 42.6782 19.7556 42.6794L20.4436 42.7762L20.3321 43.4881C20.3219 43.5533 20.3138 43.6293 20.3805 43.6737C20.4143 43.6961 20.4472 43.7025 20.4849 43.7098L20.6044 43.7331L20.6881 43.7494C20.765 43.7643 20.837 43.7116 20.8489 43.6352L20.8633 43.5431L20.9718 42.8505L21.694 42.9521C21.7008 42.9531 21.7078 42.9542 21.7149 42.9553C21.7565 42.962 21.8012 42.9691 21.838 42.9492C21.8887 42.9218 21.9105 42.8779 21.9163 42.8218L21.9278 42.71L21.9386 42.6054C21.9454 42.5396 21.9223 42.482 21.8631 42.4469C21.836 42.4309 21.8003 42.4269 21.7676 42.4234C21.7589 42.4224 21.7504 42.4215 21.7424 42.4203L21.0544 42.3235L21.1724 41.5704L21.1736 41.5625Z" fill="#4DBA79"/>
</g>
<defs>
<filter id="filter0_i_500_180671" x="5.5" y="5.5" width="59" height="61" filterUnits="userSpaceOnUse" color-interpolation-filters="sRGB">
<feFlood flood-opacity="0" result="BackgroundImageFix"/>
<feBlend mode="normal" in="SourceGraphic" in2="BackgroundImageFix" result="shape"/>
<feColorMatrix in="SourceAlpha" type="matrix" values="0 0 0 0 0 0 0 0 0 0 0 0 0 0 0 0 0 0 127 0" result="hardAlpha"/>
<feOffset dx="1" dy="3"/>
<feGaussianBlur stdDeviation="2.5"/>
<feComposite in2="hardAlpha" operator="arithmetic" k2="-1" k3="1"/>
<feColorMatrix type="matrix" values="0 0 0 0 0 0 0 0 0 0 0 0 0 0 0 0 0 0 0.1 0"/>
<feBlend mode="normal" in2="shape" result="effect1_innerShadow_500_180671"/>
</filter>
</defs>
</svg>
