<svg width="68" height="68" viewBox="0 0 68 68" fill="none" xmlns="http://www.w3.org/2000/svg">
<rect width="68" height="68" rx="34" fill="white" fill-opacity="0.43"/>
<g filter="url(#filter0_i_500_189082)">
<rect x="5" y="5" width="58" height="58" rx="29" fill="white"/>
<path d="M33.5057 19.45C31.4523 19.45 29.7886 20.2818 29.7886 21.3085H37.2228C37.2228 20.2818 35.5591 19.45 33.5057 19.45Z" fill="#4DBA79"/>
<path d="M44.5179 22.0059H22.4935C22.0265 22.0059 21.6523 22.3831 21.6523 22.847V23.6882C21.6523 24.152 22.0296 24.5293 22.4935 24.5293H44.5179C44.9818 24.5293 45.3591 24.152 45.3591 23.6882V22.847C45.3591 22.3831 44.9818 22.0059 44.5179 22.0059Z" fill="#4DBA79"/>
<path fill-rule="evenodd" clip-rule="evenodd" d="M23.2637 25.2268V25.2608L25.2057 47.2141C25.2057 47.9501 25.8026 48.5501 26.5417 48.5501H40.4701C41.2092 48.5501 41.806 47.9532 41.806 47.2141L41.9197 45.9289C41.0442 46.3043 40.0816 46.5124 39.0728 46.5124C35.0716 46.5124 31.7979 43.2387 31.7979 39.2375C31.7979 35.2362 35.0716 31.9625 39.0728 31.9625C40.5376 31.9625 41.905 32.4013 43.0498 33.1539L43.7481 25.2608C43.7481 25.2546 43.7473 25.2492 43.7465 25.2438C43.7458 25.2384 43.745 25.233 43.745 25.2268H23.2637Z" fill="#4DBA79"/>
<path d="M44.8926 39.2372C44.8926 36.0362 42.2736 33.4172 39.0726 33.4172C35.8717 33.4172 33.2527 36.0362 33.2527 39.2372C33.2527 42.4382 35.8717 45.0571 39.0726 45.0571C42.2736 45.0571 44.8926 42.4382 44.8926 39.2372ZM38.5634 41.9289L36.3809 39.6737C36.2354 39.5282 36.1626 39.3827 36.1626 39.1644C36.1626 38.9462 36.2354 38.8007 36.3809 38.6552C36.6719 38.3642 37.1084 38.3642 37.3994 38.6552L38.3451 39.6009L38.3451 36.3272C38.3451 35.8907 38.6361 35.5997 39.0726 35.5997C39.5091 35.5997 39.8001 35.8907 39.8001 36.3272L39.8001 39.6009L40.7459 38.6552C41.0369 38.3642 41.4734 38.3642 41.7644 38.6552C42.0554 38.9462 42.0554 39.3827 41.7644 39.6737L39.5819 41.9289C39.4364 42.0744 39.2909 42.1472 39.0726 42.1472C38.8544 42.1472 38.7089 42.0744 38.5634 41.9289Z" fill="#4DBA79"/>
</g>
<defs>
<filter id="filter0_i_500_189082" x="5" y="5" width="59" height="61" filterUnits="userSpaceOnUse" color-interpolation-filters="sRGB">
<feFlood flood-opacity="0" result="BackgroundImageFix"/>
<feBlend mode="normal" in="SourceGraphic" in2="BackgroundImageFix" result="shape"/>
<feColorMatrix in="SourceAlpha" type="matrix" values="0 0 0 0 0 0 0 0 0 0 0 0 0 0 0 0 0 0 127 0" result="hardAlpha"/>
<feOffset dx="1" dy="3"/>
<feGaussianBlur stdDeviation="2.5"/>
<feComposite in2="hardAlpha" operator="arithmetic" k2="-1" k3="1"/>
<feColorMatrix type="matrix" values="0 0 0 0 0 0 0 0 0 0 0 0 0 0 0 0 0 0 0.1 0"/>
<feBlend mode="normal" in2="shape" result="effect1_innerShadow_500_189082"/>
</filter>
</defs>
</svg>
