<svg width="32" height="44" viewBox="0 0 32 44" fill="none" xmlns="http://www.w3.org/2000/svg">
<path d="M24.2048 20.155L9.56952 20.155V21.2072L24.2048 21.2072V20.155Z" fill="white"/>
<path d="M5.36989 4.46427L4.29053 5.07227L6.57248 9.12334L7.65184 8.51534L5.36989 4.46427Z" fill="white"/>
<path d="M28.2813 4.67096L25.5684 8.44678L26.5776 9.17193L29.2906 5.39611L28.2813 4.67096Z" fill="white"/>
<path d="M20.3812 0.78693C20.3812 2.72453 18.9717 4.29288 17.2366 4.29288C15.5015 4.29288 14.0919 2.72453 14.0919 0.78693C14.0919 0.711491 14.0959 0.636051 14.1039 0.556641L13.4646 0.556641C13.4606 0.63208 13.4527 0.70752 13.4527 0.78693C13.4527 3.11364 15.1481 5.0036 17.2366 5.0036C19.3251 5.0036 21.0205 3.11761 21.0205 0.78693C21.0205 0.711491 21.0125 0.636051 21.0086 0.556641L20.3693 0.556641C20.3773 0.636051 20.3812 0.711491 20.3812 0.78693Z" fill="white"/>
<path fill-rule="evenodd" clip-rule="evenodd" d="M22.839 0.374023L21.2468 0.374023C21.3143 0.671811 21.354 0.985482 21.354 1.30312C21.354 3.63381 19.4799 5.51979 17.1691 5.51979C14.8583 5.51979 12.9842 3.62984 12.9842 1.30312C12.9842 1.06886 13.008 0.842544 13.0438 0.620196L10.6892 0.620196L5.66656 4.03085L8.33474 8.31106L9.70059 7.87827L9.70059 19.7858L24.1492 19.7858L24.1492 7.62813L25.0783 8.55723L28.1793 3.96733L22.839 0.374023ZM16.0962 12.2077L14.3823 11.1918L15.2968 9.78252C15.9093 9.22019 16.656 9.9749 17.0081 10.7226L16.0962 12.2077ZM19.0161 12.0484L17.201 12.0328L17.7054 11.7063L17.0349 10.4728C16.7866 10.015 16.4933 9.66155 16.0261 9.52228L18.2159 9.50661C18.5334 9.49442 18.8916 9.74251 19.0136 10.0219L19.4107 10.7523L19.9817 10.4546L19.0161 12.0484ZM18.4815 13.1252L20.1824 12.0867L20.9446 13.5875C21.1289 14.4075 20.1201 14.7086 19.3103 14.6599L18.4815 13.1252ZM17.2002 15.8107L18.0948 14.1968L18.1294 14.8061H19.5102C20.0224 14.8061 20.467 14.7156 20.8131 14.3657L19.7637 16.3295C19.6192 16.6193 19.2333 16.8187 18.9348 16.7926H18.1173L18.0948 17.4472L17.2002 15.8107ZM13.1486 14.3422L14.2889 16.4488C14.5182 16.7412 14.9499 16.8109 15.398 16.7996L16.6006 16.7996L16.6006 14.8044L14.32 14.7887C13.9662 14.8105 13.5025 14.7356 13.1486 14.3422ZM13.6011 12.5385L13.0699 12.1233L14.9447 12.1068L15.8661 13.8147L15.3349 13.5274L14.6324 14.6765C14.2413 14.6817 13.8234 14.6643 13.5544 14.5172C13.2801 14.3674 12.851 13.9374 13.101 13.4961L13.6011 12.5385Z" fill="white"/>
<path d="M9.47692 29.2727V38H7.63175V31.0241H7.58061L5.58203 32.277V30.6406L7.74254 29.2727H9.47692ZM14.9006 38.1193C14.4517 38.1165 14.0185 38.0412 13.6009 37.8935C13.1861 37.7457 12.8139 37.5057 12.4844 37.1733C12.1548 36.8409 11.8935 36.4006 11.7003 35.8523C11.5099 35.304 11.4148 34.6307 11.4148 33.8324C11.4176 33.0994 11.5014 32.4446 11.6662 31.8679C11.8338 31.2884 12.0724 30.7969 12.3821 30.3935C12.6946 29.9901 13.0682 29.6832 13.5028 29.473C13.9375 29.2599 14.4247 29.1534 14.9645 29.1534C15.5469 29.1534 16.0611 29.267 16.5071 29.4943C16.9531 29.7187 17.3111 30.0241 17.581 30.4105C17.8537 30.7969 18.0185 31.2301 18.0753 31.7102H16.2557C16.1847 31.4062 16.0355 31.1676 15.8082 30.9943C15.581 30.821 15.2997 30.7344 14.9645 30.7344C14.3963 30.7344 13.9645 30.9815 13.669 31.4759C13.3764 31.9702 13.2273 32.642 13.2216 33.4915H13.2812C13.4119 33.233 13.5881 33.0128 13.8097 32.831C14.0341 32.6463 14.2884 32.5057 14.5724 32.4091C14.8594 32.3097 15.1619 32.2599 15.4801 32.2599C15.9972 32.2599 16.4574 32.3821 16.8608 32.6264C17.2642 32.8679 17.5824 33.2003 17.8153 33.6236C18.0483 34.0469 18.1648 34.5312 18.1648 35.0767C18.1648 35.6676 18.027 36.1932 17.7514 36.6534C17.4787 37.1136 17.0966 37.4744 16.6051 37.7358C16.1165 37.9943 15.5483 38.1222 14.9006 38.1193ZM14.892 36.6705C15.1761 36.6705 15.4304 36.6023 15.6548 36.4659C15.8793 36.3295 16.0554 36.1449 16.1832 35.9119C16.3111 35.679 16.375 35.4176 16.375 35.1278C16.375 34.8381 16.3111 34.5781 16.1832 34.348C16.0582 34.1179 15.8849 33.9347 15.6634 33.7983C15.4418 33.6619 15.1889 33.5938 14.9048 33.5938C14.6918 33.5938 14.4943 33.6335 14.3125 33.7131C14.1335 33.7926 13.9759 33.9034 13.8395 34.0455C13.706 34.1875 13.6009 34.3523 13.5241 34.5398C13.4474 34.7244 13.4091 34.9219 13.4091 35.1321C13.4091 35.4134 13.473 35.6705 13.6009 35.9034C13.7315 36.1364 13.9077 36.3224 14.1293 36.4616C14.3537 36.6009 14.608 36.6705 14.892 36.6705ZM22.8949 38.1918C22.1619 38.1889 21.5313 38.0085 21.0028 37.6506C20.4773 37.2926 20.0724 36.7741 19.7884 36.0952C19.5071 35.4162 19.3679 34.5994 19.3707 33.6449C19.3707 32.6932 19.5114 31.8821 19.7926 31.2116C20.0767 30.5412 20.4815 30.0312 21.0071 29.6818C21.5355 29.3295 22.1648 29.1534 22.8949 29.1534C23.625 29.1534 24.2528 29.3295 24.7784 29.6818C25.3068 30.0341 25.7131 30.5455 25.9972 31.2159C26.2813 31.8835 26.4219 32.6932 26.419 33.6449C26.419 34.6023 26.277 35.4205 25.9929 36.0994C25.7116 36.7784 25.3082 37.2969 24.7827 37.6548C24.2571 38.0128 23.6278 38.1918 22.8949 38.1918ZM22.8949 36.6619C23.3949 36.6619 23.794 36.4105 24.0923 35.9077C24.3906 35.4048 24.5384 34.6506 24.5355 33.6449C24.5355 32.983 24.4673 32.4318 24.331 31.9915C24.1974 31.5511 24.0071 31.2202 23.7599 30.9986C23.5156 30.777 23.2273 30.6662 22.8949 30.6662C22.3977 30.6662 22 30.9148 21.7017 31.4119C21.4034 31.9091 21.2528 32.6534 21.25 33.6449C21.25 34.3153 21.3168 34.875 21.4503 35.3239C21.5866 35.7699 21.7784 36.1051 22.0256 36.3295C22.2727 36.5511 22.5625 36.6619 22.8949 36.6619Z" fill="white"/>
</svg>
