<svg width="32" height="44" viewBox="0 0 32 44" fill="none" xmlns="http://www.w3.org/2000/svg">
<path d="M17.2705 4.83763C15.9398 4.68385 14.9825 3.47865 15.1363 2.14791C15.2901 0.817165 16.4953 -0.140082 17.8261 0.0168451C19.1568 0.173772 20.1141 1.37582 19.9603 2.70656C19.8096 4.03417 18.6044 4.99142 17.2705 4.83763Z" fill="white"/>
<path d="M11.2539 12.8C11.6337 13.2394 12.2959 13.2865 12.7322 12.9099L18.1681 8.21774C18.6075 7.83798 18.6546 7.17575 18.278 6.73949C17.8982 6.3001 17.2391 6.25302 16.7997 6.62964L11.3638 11.3218C10.9244 11.6984 10.8773 12.3606 11.2539 12.8Z" fill="white"/>
<path d="M16.7558 13.6601C16.8531 14.6111 17.8668 15.2168 19.0155 15.0097C20.1642 14.8025 21.0179 13.8641 20.9206 12.9131L20.3118 7.00639C20.2145 6.05542 19.2007 5.44968 18.052 5.65683C16.9002 5.86397 16.0496 6.80239 16.1469 7.75337L16.7558 13.6601Z" fill="white"/>
<path d="M18.5793 18.9013C18.5322 19.3156 18.9402 19.7016 19.4926 19.7644C20.045 19.8303 20.5283 19.5447 20.5785 19.1304L21.1654 14.0554C21.2125 13.6411 20.8045 13.2551 20.2552 13.1923C19.7029 13.1296 19.2164 13.412 19.1693 13.8263L18.5793 18.9013Z" fill="white"/>
<path d="M17.9296 17.2538C17.5467 17.6901 17.5875 18.3523 18.0175 18.7321L22.1039 22.3069C22.537 22.6866 23.1992 22.6364 23.5821 22.2002C23.965 21.7608 23.9242 21.1017 23.3373 20.4018L19.2509 16.827C18.9716 16.7673 18.3125 16.8144 17.9296 17.2538Z" fill="white"/>
<path d="M17.8479 17.4923C17.2673 17.4766 16.784 17.9286 16.7652 18.5029L16.6176 23.9326C16.6019 24.507 17.0602 24.984 17.6439 24.9997C18.2246 25.0154 18.711 24.5635 18.7267 23.9891L18.8742 18.5626C18.8899 17.9851 18.4286 17.508 17.8479 17.4923Z" fill="white"/>
<path d="M16.7433 12.7122L14.2324 18.826L24.0466 18.1826L20.8642 12.9444" fill="white"/>
<path d="M19.8472 1.19383C22.6186 -2.11419 22.7692 5.12955 23.7955 5.82631C20.1925 6.61094 22.7221 0.99296 19.4455 1.39469" fill="white"/>
<path d="M9.79279 32.9162V34.3565H5.81268V32.9162H9.79279ZM11.1905 36.4659V35.0128L14.834 29.2727H16.0868V31.2841H15.3453L13.0485 34.919V34.9872H18.226V36.4659H11.1905ZM15.3794 38V36.0227L15.4135 35.3793V29.2727H17.1436V38H15.3794ZM22.8773 38.1918C22.1444 38.1889 21.5137 38.0085 20.9853 37.6506C20.4597 37.2926 20.0549 36.7741 19.7708 36.0952C19.4895 35.4162 19.3503 34.5994 19.3532 33.6449C19.3532 32.6932 19.4938 31.8821 19.775 31.2116C20.0591 30.5412 20.464 30.0312 20.9895 29.6818C21.5179 29.3295 22.1472 29.1534 22.8773 29.1534C23.6074 29.1534 24.2353 29.3295 24.7608 29.6818C25.2892 30.0341 25.6955 30.5455 25.9796 31.2159C26.2637 31.8835 26.4043 32.6932 26.4015 33.6449C26.4015 34.6023 26.2594 35.4205 25.9753 36.0994C25.6941 36.7784 25.2907 37.2969 24.7651 37.6548C24.2395 38.0128 23.6103 38.1918 22.8773 38.1918ZM22.8773 36.6619C23.3773 36.6619 23.7765 36.4105 24.0748 35.9077C24.373 35.4048 24.5208 34.6506 24.5179 33.6449C24.5179 32.983 24.4498 32.4318 24.3134 31.9915C24.1799 31.5511 23.9895 31.2202 23.7424 30.9986C23.498 30.777 23.2097 30.6662 22.8773 30.6662C22.3801 30.6662 21.9824 30.9148 21.6841 31.4119C21.3858 31.9091 21.2353 32.6534 21.2324 33.6449C21.2324 34.3153 21.2992 34.875 21.4327 35.3239C21.5691 35.7699 21.7608 36.1051 22.008 36.3295C22.2551 36.5511 22.5449 36.6619 22.8773 36.6619Z" fill="white"/>
</svg>
