<svg width="32" height="45" viewBox="0 0 32 45" fill="none" xmlns="http://www.w3.org/2000/svg">
<path d="M17.5815 3.73288C16.8546 3.26229 16.656 2.31293 17.142 1.61318C17.6279 0.909339 18.6083 0.721106 19.3352 1.1876C20.062 1.65819 20.2564 2.60756 19.7746 3.3114C19.2887 4.01115 18.3041 4.20348 17.5815 3.73288ZM6.12955 16.4593C7.54097 14.4132 10.292 13.7462 12.5105 14.8143L14.1036 12.5186C13.9938 12.4163 13.8966 12.3181 13.8078 12.2281C13.1528 11.9866 12.5485 11.6715 12.5485 11.6715L12.4344 11.426C12.4809 11.1887 12.6922 11.0086 12.8739 10.894C12.7218 10.5053 12.7767 10.3007 12.7767 10.3007C15.1897 5.50885 15.9883 4.04388 17.704 4.28122C19.4155 4.51447 22.065 9.02395 22.065 9.02395C23.3201 10.5217 24.6259 11.6306 24.9005 11.7657L25.2386 11.3524L25.788 11.7452L25.3738 12.3222C25.3738 12.3713 25.3696 12.404 25.3696 12.404C25.34 12.535 25.2471 12.6045 25.1414 12.6495L24.9428 12.9237L22.2721 12.404L22.0904 12.5677L23.43 15.3217C24.909 14.7529 26.6458 14.8675 28.0657 15.7841C30.3603 17.2654 30.9814 20.2772 29.4517 22.4951C27.922 24.7171 24.8118 25.3187 22.5172 23.8373C20.2226 22.356 19.6056 19.3442 21.1354 17.1222C21.5453 16.5288 22.0693 16.0542 22.6566 15.7022L21.858 14.0368L18.3717 18.9227C18.1773 19.5775 18.0463 19.9867 18.0463 19.9867C20.0747 19.6798 19.7408 21.0465 19.7408 21.0465C18.49 21.4107 16.7912 21.0383 16.7912 21.0383C16.2884 20.7846 16.7828 19.8598 16.7828 19.8598C16.7786 19.8066 16.7701 19.7411 16.7701 19.6839L15.253 19.6634C15.1728 20.4163 14.9108 21.1652 14.4459 21.8363C12.9162 24.0583 9.806 24.6557 7.5114 23.1785C5.22102 21.6931 4.59982 18.6854 6.12955 16.4593ZM22.0101 17.6828C20.7973 19.4342 21.2917 21.8199 23.1046 22.9903C24.9174 24.1606 27.3769 23.6859 28.5854 21.9304C29.7982 20.1749 29.3038 17.7933 27.491 16.623C26.3838 15.9109 25.04 15.8127 23.8821 16.2383L25.6485 19.8639L25.2386 20.2527L24.6723 19.8885L23.1046 16.623C22.682 16.893 22.3101 17.2491 22.0101 17.6828ZM15.0164 13.2675L16.825 17.736C16.9476 16.2874 17.1758 14.8388 17.1758 14.8388C16.7743 14.6383 15.7601 13.8567 15.0164 13.2675ZM20.979 11.8066L21.4734 11.6061L22.9778 11.9007C21.8537 11.246 20.8818 10.4971 20.8818 10.4971C20.3874 10.0756 18.6928 7.50579 18.6928 7.50579C17.3533 7.74313 16.4743 10.583 16.4743 10.583C17.3406 11.3114 17.9407 12.0398 18.3632 12.6946L21.3974 12.801L20.8438 12.2035L20.979 11.8066ZM21.1311 13.6971L18.8365 13.5375C19.2802 14.4623 19.3436 15.0966 19.3436 15.0966C19.2295 15.6368 19.107 16.1647 18.9802 16.6639L21.1311 13.6971ZM15.2699 18.8695L16.2208 18.9105L14.2389 13.7667L13.2204 15.2358C14.4755 16.1156 15.1854 17.4659 15.2699 18.8695ZM12.6373 16.0787L10.8329 18.6731L14.2262 18.8204C14.129 17.7606 13.5796 16.7498 12.6373 16.0787ZM8.09455 22.3355C9.90741 23.5059 12.3668 23.0271 13.5754 21.2757C13.9261 20.7724 14.1248 20.2117 14.2051 19.647L10.0976 19.5815L9.59893 19.0168L11.9231 15.6695C10.1905 14.9084 8.09032 15.4444 7.00007 17.0281C5.79572 18.7795 6.28591 21.1611 8.09455 22.3355Z" fill="white"/>
<path d="M25.6587 11.223C23.7417 10.091 25.3663 6.88248 28.2944 7.46829C27.4955 8.46649 28.7336 11.1557 25.9245 11.3023C25.9245 9.90469 26.2506 8.95222 27.0762 8.12743C25.6518 9.11269 25.6587 10.5975 25.6587 11.223Z" fill="white"/>
<path d="M26.0816 7.56494C25.9461 7.63827 25.8158 7.72196 25.6916 7.816C25.5415 7.92988 25.4052 8.05671 25.2827 8.19302C25.0834 7.90831 24.8185 7.6331 24.4656 7.38894C24.7598 7.68314 24.9902 7.99286 25.1653 8.33365C24.9496 8.60887 24.79 8.91859 24.702 9.24212C24.5942 9.63812 24.5985 10.0333 24.715 10.3879C23.0956 9.74769 23.9428 7.59859 23.2474 6.7298C24.4777 6.48478 25.4776 6.90752 26.0816 7.56494Z" fill="white"/>
<path d="M9.307 30.2727V39H7.46183V32.0241H7.41069L5.41211 33.277V31.6406L7.57262 30.2727H9.307ZM14.8031 39.1918C14.0701 39.1889 13.4395 39.0085 12.911 38.6506C12.3855 38.2926 11.9806 37.7741 11.6966 37.0952C11.4153 36.4162 11.2761 35.5994 11.2789 34.6449C11.2789 33.6932 11.4196 32.8821 11.7008 32.2116C11.9849 31.5412 12.3897 31.0312 12.9153 30.6818C13.4437 30.3295 14.073 30.1534 14.8031 30.1534C15.5332 30.1534 16.161 30.3295 16.6866 30.6818C17.215 31.0341 17.6213 31.5455 17.9054 32.2159C18.1895 32.8835 18.3301 33.6932 18.3272 34.6449C18.3272 35.6023 18.1852 36.4205 17.9011 37.0994C17.6199 37.7784 17.2164 38.2969 16.6909 38.6548C16.1653 39.0128 15.536 39.1918 14.8031 39.1918ZM14.8031 37.6619C15.3031 37.6619 15.7022 37.4105 16.0005 36.9077C16.2988 36.4048 16.4466 35.6506 16.4437 34.6449C16.4437 33.983 16.3755 33.4318 16.2392 32.9915C16.1056 32.5511 15.9153 32.2202 15.6681 31.9986C15.4238 31.777 15.1355 31.6662 14.8031 31.6662C14.3059 31.6662 13.9082 31.9148 13.6099 32.4119C13.3116 32.9091 13.161 33.6534 13.1582 34.6449C13.1582 35.3153 13.225 35.875 13.3585 36.3239C13.4949 36.7699 13.6866 37.1051 13.9338 37.3295C14.1809 37.5511 14.4707 37.6619 14.8031 37.6619ZM23.0648 39.1918C22.3319 39.1889 21.7012 39.0085 21.1728 38.6506C20.6472 38.2926 20.2424 37.7741 19.9583 37.0952C19.677 36.4162 19.5378 35.5994 19.5407 34.6449C19.5407 33.6932 19.6813 32.8821 19.9625 32.2116C20.2466 31.5412 20.6515 31.0312 21.177 30.6818C21.7054 30.3295 22.3347 30.1534 23.0648 30.1534C23.7949 30.1534 24.4228 30.3295 24.9483 30.6818C25.4767 31.0341 25.883 31.5455 26.1671 32.2159C26.4512 32.8835 26.5918 33.6932 26.589 34.6449C26.589 35.6023 26.4469 36.4205 26.1628 37.0994C25.8816 37.7784 25.4782 38.2969 24.9526 38.6548C24.427 39.0128 23.7978 39.1918 23.0648 39.1918ZM23.0648 37.6619C23.5648 37.6619 23.964 37.4105 24.2623 36.9077C24.5605 36.4048 24.7083 35.6506 24.7054 34.6449C24.7054 33.983 24.6373 33.4318 24.5009 32.9915C24.3674 32.5511 24.177 32.2202 23.9299 31.9986C23.6855 31.777 23.3972 31.6662 23.0648 31.6662C22.5676 31.6662 22.1699 31.9148 21.8716 32.4119C21.5733 32.9091 21.4228 33.6534 21.4199 34.6449C21.4199 35.3153 21.4867 35.875 21.6202 36.3239C21.7566 36.7699 21.9483 37.1051 22.1955 37.3295C22.4426 37.5511 22.7324 37.6619 23.0648 37.6619Z" fill="white"/>
</svg>
