<svg width="32" height="46" viewBox="0 0 32 46" fill="none" xmlns="http://www.w3.org/2000/svg">
<path d="M8.20487 17.1369C9.36074 17.1369 10.367 16.7439 10.9912 16.0789C11.6154 16.7439 12.6217 17.1369 13.7775 17.1369C14.9334 17.1369 15.9397 16.7439 16.5639 16.0789C17.188 16.7439 18.1943 17.1369 19.3502 17.1369C20.5061 17.1369 21.5123 16.7439 22.1365 16.0789C22.7607 16.7439 23.767 17.1369 24.9228 17.1369C26.3888 17.1369 27.6153 16.5046 28.1253 15.4874C28.2395 15.2576 28.147 14.9788 27.9172 14.8646C27.6888 14.7504 27.4086 14.8428 27.2944 15.0727C26.949 15.7635 26.0175 16.2095 24.9228 16.2095C23.8282 16.2095 22.898 15.7635 22.5526 15.0727C22.3949 14.7585 21.8795 14.7585 21.7218 15.0727C21.3764 15.7635 20.4462 16.2095 19.3502 16.2095C18.2541 16.2095 17.324 15.7635 16.9786 15.0727C16.8209 14.7585 16.3055 14.7585 16.1477 15.0727C15.8023 15.7635 14.8722 16.2095 13.7762 16.2095C12.6801 16.2095 11.75 15.7635 11.4046 15.0727C11.2469 14.7585 10.7315 14.7585 10.5737 15.0727C10.2283 15.7635 9.29819 16.2095 8.20351 16.2095C7.10883 16.2095 6.17733 15.7635 5.83193 15.0727C5.71771 14.8428 5.43758 14.7504 5.20912 14.8646C4.97931 14.9788 4.88684 15.2576 5.00107 15.4874C5.51101 16.5046 6.73759 17.1369 8.20487 17.1369Z" fill="white"/>
<path d="M27.9172 19.0435C27.6888 18.9293 27.4086 19.0218 27.2944 19.2516C26.949 19.9424 26.0175 20.3884 24.9228 20.3884C23.8282 20.3884 22.898 19.9424 22.5526 19.2516C22.3949 18.9375 21.8795 18.9375 21.7218 19.2516C21.3764 19.9424 20.4462 20.3884 19.3502 20.3884C18.2541 20.3884 17.324 19.9424 16.9786 19.2516C16.8209 18.9375 16.3055 18.9375 16.1477 19.2516C15.8023 19.9424 14.8722 20.3884 13.7762 20.3884C12.6801 20.3884 11.75 19.9424 11.4046 19.2516C11.2469 18.9375 10.7315 18.9375 10.5737 19.2516C10.2283 19.9424 9.29819 20.3884 8.20351 20.3884C7.10883 20.3884 6.17733 19.9424 5.83193 19.2516C5.71771 19.0218 5.43758 18.9307 5.20912 19.0435C4.97931 19.1578 4.88684 19.4365 5.00107 19.6664C5.50965 20.6835 6.73759 21.3159 8.20351 21.3159C9.35938 21.3159 10.3657 20.9229 10.9898 20.2579C11.614 20.9229 12.6203 21.3159 13.7762 21.3159C14.932 21.3159 15.9383 20.9229 16.5625 20.2579C17.1867 20.9229 18.193 21.3159 19.3488 21.3159C20.5047 21.3159 21.511 20.9229 22.1351 20.2579C22.7593 20.9229 23.7656 21.3159 24.9215 21.3159C26.3874 21.3159 27.614 20.6835 28.1239 19.6664C28.2395 19.4365 28.1457 19.1578 27.9172 19.0435Z" fill="white"/>
<path d="M14.4947 16.2462C14.598 15.7257 15.0851 16.2822 15.3588 14.9233C16.6725 14.3388 15.1463 15.0174 14.5273 14.825C15.7298 13.6019 16.6705 13.3462 18.4905 12.2643C20.3107 11.1826 20.9209 9.06326 20.9209 9.06326C20.9209 9.06326 21.4553 10.3709 21.4649 10.4364C21.4745 10.5019 20.2127 13.5118 20.1167 13.6771C20.0206 13.8429 18.5368 14.8174 18.4094 14.8896C18.2819 14.9618 14.4947 16.2462 14.4947 16.2462C14.6098 16.2117 14.386 16.3556 14.4947 16.2462Z" fill="white"/>
<path d="M18.9875 16.8445C16.2694 15.6124 15.894 15.5094 14.4947 16.2462C14.4979 15.277 13.9647 13.3988 15.0112 12.1919C16.0577 10.985 16.121 12.1477 16.0825 12.7369C16.044 13.3262 16.35 13.422 16.3962 14.2573C16.4429 15.0927 16.3702 15.0824 16.3702 15.0824C16.3702 15.0824 17.2806 14.803 18.4585 13.7796C19.6367 12.756 20.7595 11.0657 20.921 9.06354C20.9321 8.65192 21.0067 8.58294 20.3852 8.24852C19.7635 7.91384 19.0076 7.45192 18.7026 6.69231C18.3975 5.93271 18.5942 5.96634 19.1183 6.06113C19.6425 6.15592 20.6081 5.93459 21.0528 6.50654C21.4337 5.74461 21.7156 5.25095 22.3035 4.82168C22.8912 4.39255 23.0878 4.44175 23.2086 5.08352C23.3294 5.72528 23.2918 6.6421 22.8178 7.46686C22.3437 8.29163 22.5721 8.60562 22.7954 9.1101C23.0184 9.61445 23.2418 11.1103 22.9802 13.0221C22.8392 14.0524 22.5788 15.0418 21.999 16.0291C21.2974 15.3829 19.8636 16.7698 18.9875 16.8445Z" fill="white"/>
<path d="M7.32995 12.2505C7.35458 12.2844 7.34519 12.3334 7.3089 12.3598L6.71709 12.7885C6.6808 12.8149 6.6314 12.8084 6.60677 12.7745L6.47285 12.5896C6.44804 12.5554 6.45761 12.5067 6.49391 12.4803L7.08571 12.0516C7.12201 12.0252 7.1714 12.0317 7.19604 12.0656L7.32995 12.2505Z" fill="white"/>
<path fill-rule="evenodd" clip-rule="evenodd" d="M9.24767 13.5512L9.29403 13.6141C9.35214 13.6943 9.37129 13.7958 9.35725 13.9095L10.6079 15.6713C10.6151 15.673 10.6224 15.6749 10.6294 15.6767C10.6414 15.6819 10.6526 15.6879 10.6636 15.6942C10.7344 15.7188 10.7972 15.7546 10.8376 15.8102C10.8537 15.8326 10.8668 15.8566 10.877 15.8821L11.4441 16.841C11.531 16.9899 11.5255 17.1696 11.5255 17.1696L11.5212 17.1987L11.4963 17.3708C11.4774 17.5008 11.4089 17.5323 11.3628 17.5382C11.3375 17.5416 11.319 17.5372 11.319 17.5372L11.1034 17.511C11.0344 17.5047 11.0178 17.5182 11.0227 17.5391C11.0269 17.5586 11.0328 17.7506 11.0368 17.8905C11.0381 17.9319 11.0243 17.9671 11.0046 17.9963C10.9576 18.066 10.8759 18.1011 10.8759 18.1011C10.8759 18.1011 10.8212 18.1406 10.6698 18.2108C10.6635 18.2137 10.6572 18.2162 10.6511 18.2185C10.5052 18.2731 10.3529 18.1821 10.3529 18.1821C10.3529 18.1821 10.2974 18.1586 10.2475 18.1187C10.1979 18.0786 10.1763 18.1308 10.1763 18.1308C10.1628 18.191 10.1078 18.2307 10.1078 18.2307L10.0815 18.2496L10.0701 18.2577C9.9606 18.3371 9.64145 18.0361 9.64145 18.0361L8.96184 17.2652C8.94159 17.2481 8.92496 17.2279 8.90917 17.2063C8.90757 17.2041 8.9068 17.2013 8.90603 17.1986C8.90526 17.1958 8.90449 17.193 8.90289 17.1909C8.86532 17.1333 8.84554 17.0656 8.84706 16.9888L7.55163 15.2003C7.44446 15.1792 7.36045 15.1299 7.30554 15.054L7.25728 14.9925C7.25728 14.9925 6.81949 14.4625 6.73317 13.9898C6.67993 13.6983 6.73439 13.4454 6.77082 13.2763C6.79346 13.1712 6.80913 13.0984 6.78768 13.0688C6.75641 13.0603 6.73164 13.045 6.7152 13.022C6.71295 13.019 6.71137 13.0157 6.70977 13.0123L6.70766 13.008C6.70536 13.0055 6.70353 13.0027 6.70169 12.9999L6.69829 12.995C6.67668 12.9651 6.67149 12.9259 6.68332 12.8792L6.55261 12.6986C6.58241 12.7394 6.68683 12.7177 6.81729 12.6494C6.8611 12.6018 6.91115 12.5565 6.97113 12.5131C7.02992 12.4706 7.08947 12.4361 7.14723 12.4096C7.24996 12.3082 7.30333 12.2163 7.27431 12.176L7.39991 12.3494C7.45687 12.3491 7.49293 12.37 7.51667 12.4027C7.5197 12.4067 7.52243 12.4114 7.52492 12.4162C7.52884 12.42 7.53228 12.4241 7.53549 12.4283C7.55318 12.453 7.55974 12.4841 7.55637 12.5193C7.57858 12.5476 7.65226 12.5537 7.75793 12.5624C7.93308 12.5767 8.1961 12.5983 8.45824 12.7407C8.88075 12.97 9.24767 13.5512 9.24767 13.5512ZM8.90284 17.1293L8.90444 17.1315C8.8972 17.1213 8.89062 17.111 8.88433 17.1001C8.89008 17.1103 8.89613 17.1199 8.90284 17.1293ZM9.32693 14.7468C9.32731 14.7443 9.32741 14.7418 9.32734 14.7394C9.32792 14.699 9.30114 14.6626 9.26019 14.6546L9.23254 14.6493L9.13051 14.6294C9.08334 14.6202 9.04057 14.6449 9.03286 14.6942L9.02513 14.7435L8.96437 15.1314L8.5599 15.0745C8.55606 15.074 8.55213 15.0733 8.54815 15.0727C8.5249 15.069 8.49984 15.065 8.47924 15.0761C8.45082 15.0915 8.43863 15.1161 8.43539 15.1475L8.42892 15.2101L8.42287 15.2687C8.41907 15.3055 8.43197 15.3378 8.46518 15.3575C8.48031 15.3665 8.50035 15.3686 8.51862 15.3707C8.52351 15.3712 8.52827 15.3717 8.53278 15.3723L8.91809 15.4266L8.85563 15.8253C8.84992 15.8618 8.84537 15.9044 8.88277 15.9292C8.9017 15.9418 8.92009 15.9453 8.94124 15.9495L9.00815 15.9625L9.05505 15.9716C9.09807 15.98 9.1384 15.9504 9.14509 15.9077L9.15317 15.8561L9.21392 15.4682L9.61838 15.5251C9.62223 15.5256 9.62615 15.5263 9.63013 15.5269C9.65339 15.5306 9.67844 15.5346 9.69904 15.5235C9.72746 15.5081 9.73965 15.4835 9.74289 15.4521L9.74935 15.3895L9.75539 15.3309C9.7592 15.2941 9.74629 15.2618 9.71308 15.2421C9.69796 15.2332 9.67791 15.231 9.65965 15.2289C9.65475 15.2284 9.64999 15.2279 9.64548 15.2273L9.26017 15.173L9.32624 14.7512L9.32693 14.7468Z" fill="white"/>
<path d="M6.24787 34.9162V36.3565H2.26776V34.9162H6.24787ZM7.53161 40V38.6705L10.6381 35.794C10.9023 35.5384 11.1239 35.3082 11.3029 35.1037C11.4847 34.8991 11.6225 34.6989 11.7163 34.5028C11.81 34.304 11.8569 34.0895 11.8569 33.8594C11.8569 33.6037 11.7987 33.3835 11.6822 33.1989C11.5657 33.0114 11.4066 32.8679 11.2049 32.7685C11.0032 32.6662 10.7745 32.6151 10.5188 32.6151C10.2518 32.6151 10.0188 32.669 9.81996 32.777C9.62109 32.8849 9.46768 33.0398 9.35973 33.2415C9.25178 33.4432 9.1978 33.6832 9.1978 33.9616H7.44638C7.44638 33.3906 7.57564 32.8949 7.83416 32.4744C8.09268 32.054 8.4549 31.7287 8.92081 31.4986C9.38672 31.2685 9.92365 31.1534 10.5316 31.1534C11.1566 31.1534 11.7006 31.2642 12.1637 31.4858C12.6296 31.7045 12.9918 32.0085 13.2504 32.3977C13.5089 32.7869 13.6381 33.233 13.6381 33.7358C13.6381 34.0653 13.5728 34.3906 13.4421 34.7116C13.3143 35.0327 13.0856 35.3892 12.756 35.7812C12.4265 36.1705 11.962 36.6378 11.3626 37.1832L10.0884 38.4318V38.4915H13.7532V40H7.53161ZM18.3161 40.1193C17.6797 40.1193 17.1129 40.0099 16.6158 39.7912C16.1214 39.5696 15.7308 39.2656 15.4439 38.8793C15.1598 38.4901 15.0135 38.0412 15.005 37.5327H16.8629C16.8743 37.7457 16.9439 37.9332 17.0717 38.0952C17.2024 38.2543 17.3757 38.3778 17.5916 38.4659C17.8075 38.554 18.0504 38.598 18.3203 38.598C18.6016 38.598 18.8501 38.5483 19.0661 38.4489C19.282 38.3494 19.451 38.2116 19.5732 38.0355C19.6953 37.8594 19.7564 37.6562 19.7564 37.4261C19.7564 37.1932 19.6911 36.9872 19.5604 36.8082C19.4325 36.6264 19.2479 36.4844 19.0064 36.3821C18.7678 36.2798 18.4837 36.2287 18.1541 36.2287H17.3402V34.8736H18.1541C18.4325 34.8736 18.6783 34.8253 18.8913 34.7287C19.1072 34.6321 19.2749 34.4986 19.3942 34.3281C19.5135 34.1548 19.5732 33.9531 19.5732 33.723C19.5732 33.5043 19.5206 33.3125 19.4155 33.1477C19.3132 32.9801 19.1683 32.8494 18.9808 32.7557C18.7962 32.6619 18.5803 32.6151 18.3331 32.6151C18.0831 32.6151 17.8544 32.6605 17.647 32.7514C17.4396 32.8395 17.2734 32.9659 17.1484 33.1307C17.0234 33.2955 16.9567 33.4886 16.9482 33.7102H15.1797C15.1882 33.2074 15.3317 32.7642 15.6101 32.3807C15.8885 31.9972 16.2635 31.6974 16.7351 31.4815C17.2095 31.2628 17.745 31.1534 18.3416 31.1534C18.9439 31.1534 19.4709 31.2628 19.9226 31.4815C20.3743 31.7003 20.7251 31.9957 20.9751 32.3679C21.228 32.7372 21.353 33.152 21.3501 33.6122C21.353 34.1009 21.201 34.5085 20.8942 34.8352C20.5902 35.1619 20.1939 35.3693 19.7053 35.4574V35.5256C20.3473 35.608 20.8359 35.831 21.1712 36.1946C21.5092 36.5554 21.6768 37.0071 21.674 37.5497C21.6768 38.0469 21.5334 38.4886 21.2436 38.875C20.9567 39.2614 20.5604 39.5653 20.0547 39.7869C19.549 40.0085 18.9695 40.1193 18.3161 40.1193ZM26.4222 40.1918C25.6893 40.1889 25.0586 40.0085 24.5302 39.6506C24.0046 39.2926 23.5998 38.7741 23.3157 38.0952C23.0344 37.4162 22.8952 36.5994 22.8981 35.6449C22.8981 34.6932 23.0387 33.8821 23.32 33.2116C23.604 32.5412 24.0089 32.0312 24.5344 31.6818C25.0629 31.3295 25.6921 31.1534 26.4222 31.1534C27.1523 31.1534 27.7802 31.3295 28.3058 31.6818C28.8342 32.0341 29.2404 32.5455 29.5245 33.2159C29.8086 33.8835 29.9492 34.6932 29.9464 35.6449C29.9464 36.6023 29.8043 37.4205 29.5202 38.0994C29.239 38.7784 28.8356 39.2969 28.31 39.6548C27.7844 40.0128 27.1552 40.1918 26.4222 40.1918ZM26.4222 38.6619C26.9222 38.6619 27.3214 38.4105 27.6197 37.9077C27.918 37.4048 28.0657 36.6506 28.0629 35.6449C28.0629 34.983 27.9947 34.4318 27.8583 33.9915C27.7248 33.5511 27.5344 33.2202 27.2873 32.9986C27.043 32.777 26.7546 32.6662 26.4222 32.6662C25.9251 32.6662 25.5273 32.9148 25.229 33.4119C24.9308 33.9091 24.7802 34.6534 24.7773 35.6449C24.7773 36.3153 24.8441 36.875 24.9776 37.3239C25.114 37.7699 25.3058 38.1051 25.5529 38.3295C25.8001 38.5511 26.0898 38.6619 26.4222 38.6619Z" fill="white"/>
</svg>
