<svg width="36" height="56" viewBox="0 0 36 56" fill="none" xmlns="http://www.w3.org/2000/svg">
<g filter="url(#filter0_d_934_793)">
<path d="M16.8646 15.4883C16.8646 15.4883 22.7478 24.3248 15.996 29.0229C15.996 29.0229 14.7568 30.1578 15.1197 30.6597C15.1197 30.6597 18.2505 30.6327 19.9954 30.6327C19.9954 30.6327 21.2693 28.7758 21.1226 23.8075C21.1226 23.8075 21.4893 19.781 18.262 15.7508C18.262 15.7508 14.9614 11.6549 14.7375 8.70166C14.7375 8.70938 14.9575 11.9985 16.8646 15.4883Z" fill="white"/>
<path d="M19.6556 18.8468C19.6556 18.8468 21.196 16.4302 23.4002 16.0287C23.4002 16.0287 25.674 15.2219 25.8941 13.8129C25.8941 13.8129 25.5273 15.2914 23.5469 16.4302C23.5469 16.4302 20.3891 17.7736 20.0224 19.7193L19.6556 18.8468Z" fill="white"/>
<path d="M15.9496 12.4964C15.9496 12.4964 16.6947 11.3306 17.7563 11.1376C17.7563 11.1376 18.8527 10.7477 18.9608 10.0683C18.9608 10.0683 18.7832 10.7824 17.8258 11.3306C17.8258 11.3306 16.3009 11.9792 16.1234 12.9172L15.9496 12.4964Z" fill="white"/>
<path d="M19.0689 25.2899C19.0689 25.2899 17.5286 22.8732 15.3281 22.4718C15.3281 22.4718 13.0543 21.6649 12.8343 20.2559C12.8343 20.2559 13.201 21.7344 15.1814 22.8732C15.1814 22.8732 18.3354 24.2167 18.7021 26.1623L19.0689 25.2899Z" fill="white"/>
<path d="M14.3554 8.84862C14.6913 8.96829 15.9536 9.79442 15.7143 10.4816C17.7256 8.66332 13.73 6.00349 12.7572 5.65991C11.8693 10.4237 14.0543 10.8638 14.9075 10.8599C14.5291 10.7325 14.0852 10.2963 14.3554 8.84862Z" fill="white"/>
<path d="M19.0611 9.96418C19.0572 10.2421 18.7599 11.3732 18.1963 11.3694C20.0339 12.3962 20.999 8.79833 21.0144 7.99536C17.2853 8.52424 17.5053 10.2421 17.7215 10.8675C17.7176 10.5587 17.93 10.1225 19.0611 9.96418Z" fill="white"/>
<path d="M25.8824 14.0753C25.8515 14.5733 25.2223 16.5769 24.2108 16.519C27.415 18.5225 29.4649 12.1528 29.5575 10.7129C22.8249 11.3344 23.0682 14.4343 23.4001 15.577C23.4233 15.0288 23.8402 14.2645 25.8824 14.0753Z" fill="white"/>
<path d="M12.4327 19.974C13.1932 19.9431 16.324 20.5723 16.3974 22.1088C18.9105 16.9397 8.94677 14.8705 6.76178 14.9593C8.78464 25.0388 13.4326 24.1702 15.108 23.4869C14.2703 23.541 13.0465 23.0314 12.4327 19.974Z" fill="white"/>
</g>
<path d="M11.9334 44.9162V46.3565H7.9533V44.9162H11.9334ZM16.6305 50.1193C15.9941 50.1193 15.4274 50.0099 14.9302 49.7912C14.4359 49.5696 14.0453 49.2656 13.7583 48.8793C13.4743 48.4901 13.3279 48.0412 13.3194 47.5327H15.1774C15.1887 47.7457 15.2583 47.9332 15.3862 48.0952C15.5169 48.2543 15.6902 48.3778 15.9061 48.4659C16.122 48.554 16.3649 48.598 16.6348 48.598C16.916 48.598 17.1646 48.5483 17.3805 48.4489C17.5964 48.3494 17.7654 48.2116 17.8876 48.0355C18.0098 47.8594 18.0708 47.6562 18.0708 47.4261C18.0708 47.1932 18.0055 46.9872 17.8748 46.8082C17.747 46.6264 17.5623 46.4844 17.3208 46.3821C17.0822 46.2798 16.7981 46.2287 16.4686 46.2287H15.6547V44.8736H16.4686C16.747 44.8736 16.9927 44.8253 17.2058 44.7287C17.4217 44.6321 17.5893 44.4986 17.7086 44.3281C17.8279 44.1548 17.8876 43.9531 17.8876 43.723C17.8876 43.5043 17.835 43.3125 17.7299 43.1477C17.6277 42.9801 17.4828 42.8494 17.2953 42.7557C17.1106 42.6619 16.8947 42.6151 16.6475 42.6151C16.3975 42.6151 16.1689 42.6605 15.9615 42.7514C15.7541 42.8395 15.5879 42.9659 15.4629 43.1307C15.3379 43.2955 15.2711 43.4886 15.2626 43.7102H13.4941C13.5027 43.2074 13.6461 42.7642 13.9245 42.3807C14.2029 41.9972 14.5779 41.6974 15.0495 41.4815C15.524 41.2628 16.0595 41.1534 16.6561 41.1534C17.2583 41.1534 17.7853 41.2628 18.237 41.4815C18.6887 41.7003 19.0396 41.9957 19.2896 42.3679C19.5424 42.7372 19.6674 43.152 19.6646 43.6122C19.6674 44.1009 19.5154 44.5085 19.2086 44.8352C18.9047 45.1619 18.5083 45.3693 18.0197 45.4574V45.5256C18.6618 45.608 19.1504 45.831 19.4856 46.1946C19.8237 46.5554 19.9913 47.0071 19.9885 47.5497C19.9913 48.0469 19.8478 48.4886 19.5581 48.875C19.2711 49.2614 18.8748 49.5653 18.3691 49.7869C17.8635 50.0085 17.2839 50.1193 16.6305 50.1193ZM24.7367 50.1918C24.0037 50.1889 23.373 50.0085 22.8446 49.6506C22.3191 49.2926 21.9142 48.7741 21.6301 48.0952C21.3489 47.4162 21.2097 46.5994 21.2125 45.6449C21.2125 44.6932 21.3532 43.8821 21.6344 43.2116C21.9185 42.5412 22.3233 42.0312 22.8489 41.6818C23.3773 41.3295 24.0066 41.1534 24.7367 41.1534C25.4668 41.1534 26.0946 41.3295 26.6202 41.6818C27.1486 42.0341 27.5549 42.5455 27.839 43.2159C28.123 43.8835 28.2637 44.6932 28.2608 45.6449C28.2608 46.6023 28.1188 47.4205 27.8347 48.0994C27.5534 48.7784 27.15 49.2969 26.6245 49.6548C26.0989 50.0128 25.4696 50.1918 24.7367 50.1918ZM24.7367 48.6619C25.2367 48.6619 25.6358 48.4105 25.9341 47.9077C26.2324 47.4048 26.3801 46.6506 26.3773 45.6449C26.3773 44.983 26.3091 44.4318 26.1728 43.9915C26.0392 43.5511 25.8489 43.2202 25.6017 42.9986C25.3574 42.777 25.0691 42.6662 24.7367 42.6662C24.2395 42.6662 23.8418 42.9148 23.5435 43.4119C23.2452 43.9091 23.0946 44.6534 23.0918 45.6449C23.0918 46.3153 23.1586 46.875 23.2921 47.3239C23.4284 47.7699 23.6202 48.1051 23.8674 48.3295C24.1145 48.5511 24.4043 48.6619 24.7367 48.6619Z" fill="white"/>
<defs>
<filter id="filter0_d_934_793" x="-0.630859" y="0.369141" width="37.5811" height="37.5811" filterUnits="userSpaceOnUse" color-interpolation-filters="sRGB">
<feFlood flood-opacity="0" result="BackgroundImageFix"/>
<feColorMatrix in="SourceAlpha" type="matrix" values="0 0 0 0 0 0 0 0 0 0 0 0 0 0 0 0 0 0 127 0" result="hardAlpha"/>
<feOffset dy="1"/>
<feGaussianBlur stdDeviation="0.5"/>
<feComposite in2="hardAlpha" operator="out"/>
<feColorMatrix type="matrix" values="0 0 0 0 0 0 0 0 0 0 0 0 0 0 0 0 0 0 0.25 0"/>
<feBlend mode="normal" in2="BackgroundImageFix" result="effect1_dropShadow_934_793"/>
<feBlend mode="normal" in="SourceGraphic" in2="effect1_dropShadow_934_793" result="shape"/>
</filter>
</defs>
</svg>
