<svg width="32" height="43" viewBox="0 0 32 43" fill="none" xmlns="http://www.w3.org/2000/svg">
<path d="M19.1467 0C17.7354 0 16.5919 0.571739 16.5919 1.27738L21.7014 1.27738C21.7014 0.571739 20.5579 0 19.1467 0Z" fill="white"/>
<path d="M26.7153 1.75659L11.5781 1.75659C11.2572 1.75659 11 2.01589 11 2.3347V2.91282C11 3.23163 11.2593 3.49092 11.5781 3.49092L26.7153 3.49092C27.0341 3.49092 27.2934 3.23163 27.2934 2.91282V2.3347C27.2934 2.01589 27.0341 1.75659 26.7153 1.75659Z" fill="white"/>
<path d="M12.1073 3.97021C12.1073 3.97872 12.1073 3.98722 12.1073 3.99359L13.4421 19.0819C13.4421 19.5878 13.8523 20.0001 14.3602 20.0001H23.9331C24.4411 20.0001 24.8513 19.5899 24.8513 19.0819L26.186 3.99359C26.186 3.98509 26.1839 3.97872 26.1839 3.97021L12.1073 3.97021ZM14.8278 11.9469C14.8257 11.8002 14.8448 11.6663 14.881 11.5452C14.9171 11.424 14.9617 11.3199 15.0149 11.2328C15.0659 11.1435 15.1126 11.0776 15.1509 11.033C15.1892 10.9883 15.2168 10.9607 15.2338 10.9479L14.6047 10.576L16.6557 10.5122L17.6058 12.2997L17.0128 11.9618C16.9958 11.9809 16.9681 12.0085 16.9299 12.0468C16.8916 12.085 16.8491 12.1339 16.7981 12.1892C16.7492 12.2466 16.7024 12.3018 16.6557 12.3571C16.6089 12.4124 16.577 12.4591 16.56 12.4953C16.5197 12.5654 16.5005 12.6313 16.5005 12.6887C16.5027 12.7822 16.5367 12.8544 16.6047 12.9033C16.6727 12.9522 16.728 12.9862 16.7683 13.0032L16.1413 13.0096C15.8438 13.0117 15.5739 12.948 15.3379 12.8183C15.102 12.6887 14.9596 12.5463 14.9107 12.3953C14.881 12.3188 14.8597 12.2487 14.847 12.1849C14.8342 12.1212 14.8278 12.0425 14.8278 11.9469ZM16.6026 15.3539C16.526 15.3539 16.4453 15.3136 16.3581 15.2328C16.2731 15.152 16.1902 15.0457 16.1095 14.9182C16.0287 14.7907 15.9564 14.6653 15.8948 14.5463C15.8332 14.4272 15.7651 14.2912 15.6929 14.1382C15.6865 14.1191 15.6716 14.0872 15.6482 14.0404C15.6057 13.9597 15.5377 13.8343 15.4421 13.6642C15.3464 13.4963 15.255 13.3348 15.1679 13.1839C15.0829 13.033 15.0127 12.9118 14.9617 12.8204C14.9107 12.7312 14.8746 12.6653 14.8512 12.6249C14.9299 12.7779 15.0786 12.9033 15.3039 13.0053C15.5271 13.1052 15.7864 13.1562 16.0797 13.152C16.5898 13.1456 17.5229 13.1392 18.8789 13.1265L18.9001 15.3327L16.6026 15.3539ZM17.6058 10.5335L15.8162 9.54305C15.8332 9.51329 15.9139 9.37939 16.0584 9.14347C16.0882 9.09671 16.1605 8.97557 16.2795 8.78003C16.3985 8.58449 16.5027 8.4102 16.5962 8.2593C16.6897 8.1084 16.7641 7.98299 16.8215 7.88097C16.8789 7.78108 16.9192 7.71307 16.9426 7.67694C16.983 7.6068 17.0446 7.55366 17.1233 7.51753C17.2019 7.4814 17.3167 7.44739 17.4697 7.41763C17.5292 7.41763 17.6079 7.42401 17.7078 7.43677C17.8077 7.45164 17.9288 7.48565 18.0755 7.53878C18.22 7.59404 18.3645 7.68118 18.5091 7.8002C18.6536 7.91923 18.7811 8.07651 18.8874 8.26993L18.915 8.31456C18.9448 8.36132 18.9703 8.40595 18.9958 8.44634L17.6058 10.5335ZM18.9766 8.18916C18.8619 7.98937 18.7322 7.82996 18.5834 7.70456C18.4347 7.57916 18.2901 7.4899 18.1435 7.43464C17.999 7.3815 17.8799 7.34536 17.7822 7.33261C17.6844 7.31986 17.6121 7.31136 17.5654 7.31136C17.6929 7.29223 17.8587 7.28161 18.0585 7.27523C18.2583 7.27098 18.6408 7.26673 19.2041 7.26035C19.7737 7.2561 20.1924 7.26673 20.4581 7.29648C20.7259 7.32624 20.8959 7.40276 20.966 7.52603C20.9788 7.54941 21.0085 7.6068 21.0617 7.69819C21.1127 7.78958 21.1722 7.88947 21.2402 7.99999C21.3082 8.11051 21.3635 8.20191 21.406 8.27205C21.4485 8.34219 21.4783 8.3932 21.4953 8.42933L22.1159 8.06164L21.2615 9.98088L19.1382 9.8066L19.7248 9.45802L18.9766 8.18916ZM23.2721 12.7886C23.2147 12.9012 23.1403 13.0372 23.0468 13.1966C22.9894 13.3029 22.949 13.3773 22.9257 13.4177C22.8789 13.5176 22.83 13.6217 22.779 13.728C22.6515 14 22.5495 14.2168 22.4687 14.3762C22.3879 14.5356 22.2987 14.6908 22.1988 14.8396C22.101 14.9862 21.999 15.1053 21.8948 15.1945C21.7907 15.2838 21.6823 15.3284 21.5696 15.3305C21.4931 15.3305 21.1446 15.3348 20.5218 15.3391L20.5282 16.0617L19.4379 14.3252L20.5133 12.6036L20.5112 13.2923C21.5271 13.2838 22.0436 13.2774 22.0606 13.2774C22.2604 13.2689 22.4432 13.2243 22.609 13.1435C22.7748 13.0627 22.9172 12.9692 23.0341 12.8672C23.151 12.7631 23.2381 12.6759 23.2955 12.6015C23.3529 12.5271 23.3954 12.474 23.4166 12.4379C23.3784 12.559 23.3295 12.6759 23.2721 12.7886ZM23.3486 12.3188C23.3316 12.355 23.2934 12.4102 23.2317 12.4867C23.1722 12.5633 23.0829 12.6547 22.9703 12.7567C22.8576 12.8608 22.7152 12.9543 22.5452 13.0394C22.3752 13.1222 22.1945 13.169 21.999 13.1775C21.9947 13.1775 21.9395 13.0946 21.8353 12.9331C21.7312 12.7694 21.508 12.423 21.1658 11.8959C20.8236 11.3688 20.6217 11.0563 20.5622 10.9649L22.3667 9.87248C22.3837 9.90224 22.4262 9.97876 22.4921 10.0999C22.558 10.2232 22.6387 10.372 22.7344 10.5462C22.932 10.9139 23.0766 11.1881 23.1722 11.3667C23.2679 11.5452 23.338 11.6685 23.3784 11.7386C23.4081 11.7917 23.423 11.8576 23.423 11.9405C23.4251 12.0489 23.3996 12.1764 23.3486 12.3188Z" fill="white"/>
<path d="M12.9237 31.9162V33.3565H8.94354V31.9162H12.9237ZM18.2504 28.2727V37H16.4052V30.0241H16.354L14.3555 31.277V29.6406L16.516 28.2727H18.2504ZM23.7464 37.1918C23.0135 37.1889 22.3828 37.0085 21.8544 36.6506C21.3288 36.2926 20.924 35.7741 20.6399 35.0952C20.3587 34.4162 20.2195 33.5994 20.2223 32.6449C20.2223 31.6932 20.3629 30.8821 20.6442 30.2116C20.9283 29.5412 21.3331 29.0312 21.8587 28.6818C22.3871 28.3295 23.0163 28.1534 23.7464 28.1534C24.4766 28.1534 25.1044 28.3295 25.63 28.6818C26.1584 29.0341 26.5646 29.5455 26.8487 30.2159C27.1328 30.8835 27.2734 31.6932 27.2706 32.6449C27.2706 33.6023 27.1286 34.4205 26.8445 35.0994C26.5632 35.7784 26.1598 36.2969 25.6342 36.6548C25.1087 37.0128 24.4794 37.1918 23.7464 37.1918ZM23.7464 35.6619C24.2464 35.6619 24.6456 35.4105 24.9439 34.9077C25.2422 34.4048 25.3899 33.6506 25.3871 32.6449C25.3871 31.983 25.3189 31.4318 25.1825 30.9915C25.049 30.5511 24.8587 30.2202 24.6115 29.9986C24.3672 29.777 24.0788 29.6662 23.7464 29.6662C23.2493 29.6662 22.8516 29.9148 22.5533 30.4119C22.255 30.9091 22.1044 31.6534 22.1016 32.6449C22.1016 33.3153 22.1683 33.875 22.3018 34.3239C22.4382 34.7699 22.63 35.1051 22.8771 35.3295C23.1243 35.5511 23.4141 35.6619 23.7464 35.6619Z" fill="white"/>
</svg>
