<svg width="33" height="46" viewBox="0 0 33 46" fill="none" xmlns="http://www.w3.org/2000/svg">
<path d="M9.74738 34.0615V35.5018H5.76727V34.0615H9.74738ZM15.0741 30.418V39.1453H13.2289V32.1694H13.1778L11.1792 33.4223V31.7859L13.3397 30.418H15.0741ZM20.404 39.2646C19.7477 39.2646 19.1639 39.158 18.6526 38.945C18.144 38.7291 17.7449 38.435 17.4551 38.0629C17.1653 37.6907 17.0205 37.2688 17.0205 36.7973C17.0205 36.4336 17.1028 36.0998 17.2676 35.7958C17.4352 35.489 17.6625 35.2348 17.9494 35.033C18.2364 34.8285 18.5574 34.6978 18.9125 34.641V34.5813C18.4466 34.4876 18.0688 34.2617 17.779 33.9038C17.4892 33.543 17.3443 33.124 17.3443 32.6467C17.3443 32.195 17.4764 31.793 17.7406 31.4407C18.0048 31.0856 18.3671 30.8072 18.8273 30.6055C19.2903 30.4009 19.8159 30.2987 20.404 30.2987C20.9921 30.2987 21.5162 30.4009 21.9764 30.6055C22.4395 30.81 22.8031 31.0899 23.0673 31.445C23.3315 31.7973 23.4651 32.1978 23.4679 32.6467C23.4651 33.1268 23.3173 33.5458 23.0247 33.9038C22.7321 34.2617 22.3571 34.4876 21.8997 34.5813V34.641C22.2492 34.6978 22.5659 34.8285 22.85 35.033C23.1369 35.2348 23.3642 35.489 23.5318 35.7958C23.7023 36.0998 23.7889 36.4336 23.7918 36.7973C23.7889 37.2688 23.6426 37.6907 23.3528 38.0629C23.0631 38.435 22.6625 38.7291 22.1511 38.945C21.6426 39.158 21.0602 39.2646 20.404 39.2646ZM20.404 37.9095C20.6966 37.9095 20.9523 37.8569 21.171 37.7518C21.3898 37.6438 21.5602 37.4961 21.6824 37.3086C21.8074 37.1183 21.8699 36.8995 21.8699 36.6524C21.8699 36.3995 21.806 36.1765 21.6781 35.9833C21.5503 35.7873 21.377 35.6339 21.1582 35.5231C20.9395 35.4095 20.6881 35.3526 20.404 35.3526C20.1227 35.3526 19.8713 35.4095 19.6497 35.5231C19.4281 35.6339 19.2534 35.7873 19.1256 35.9833C19.0006 36.1765 18.9381 36.3995 18.9381 36.6524C18.9381 36.8995 18.9992 37.1183 19.1213 37.3086C19.2435 37.4961 19.4153 37.6438 19.6369 37.7518C19.8585 37.8569 20.1142 37.9095 20.404 37.9095ZM20.404 34.0103C20.6483 34.0103 20.8656 33.9606 21.056 33.8612C21.2463 33.7617 21.3955 33.624 21.5034 33.4478C21.6114 33.2717 21.6654 33.0686 21.6654 32.8384C21.6654 32.6112 21.6114 32.4123 21.5034 32.2419C21.3955 32.0686 21.2477 31.9336 21.0602 31.837C20.8727 31.7376 20.654 31.6879 20.404 31.6879C20.1568 31.6879 19.9381 31.7376 19.7477 31.837C19.5574 31.9336 19.4082 32.0686 19.3003 32.2419C19.1952 32.4123 19.1426 32.6112 19.1426 32.8384C19.1426 33.0686 19.1966 33.2717 19.3046 33.4478C19.4125 33.624 19.5617 33.7617 19.752 33.8612C19.9423 33.9606 20.1597 34.0103 20.404 34.0103ZM28.5038 39.337C27.7708 39.3342 27.1401 39.1538 26.6117 38.7958C26.0862 38.4379 25.6813 37.9194 25.3972 37.2404C25.116 36.5615 24.9768 35.7447 24.9796 34.7901C24.9796 33.8384 25.1203 33.0274 25.4015 32.3569C25.6856 31.6865 26.0904 31.1765 26.616 30.8271C27.1444 30.4748 27.7737 30.2987 28.5038 30.2987C29.2339 30.2987 29.8617 30.4748 30.3873 30.8271C30.9157 31.1794 31.322 31.6907 31.606 32.3612C31.8901 33.0288 32.0308 33.8384 32.0279 34.7901C32.0279 35.7475 31.8859 36.5657 31.6018 37.2447C31.3205 37.9237 30.9171 38.4421 30.3916 38.8001C29.866 39.158 29.2367 39.337 28.5038 39.337ZM28.5038 37.8072C29.0038 37.8072 29.4029 37.5558 29.7012 37.0529C29.9995 36.5501 30.1472 35.7958 30.1444 34.7901C30.1444 34.1282 30.0762 33.5771 29.9399 33.1367C29.8063 32.6964 29.616 32.3654 29.3688 32.1438C29.1245 31.9223 28.8362 31.8115 28.5038 31.8115C28.0066 31.8115 27.6089 32.06 27.3106 32.5572C27.0123 33.0544 26.8617 33.7987 26.8589 34.7901C26.8589 35.4606 26.9256 36.0203 27.0592 36.4691C27.1955 36.9151 27.3873 37.2504 27.6345 37.4748C27.8816 37.6964 28.1714 37.8072 28.5038 37.8072Z" fill="white"/>
<path d="M22.2233 18.8552H16.9328C16.3322 18.8552 15.8443 19.3431 15.8443 19.9437C15.8443 20.5443 16.3322 21.0321 16.9328 21.0321H22.2233C22.8239 21.0321 23.3117 20.5443 23.3117 19.9437C23.3117 19.3431 22.8239 18.8552 22.2233 18.8552Z" fill="white"/>
<path d="M16.2343 21.7844C16.2343 22.7775 16.9585 23.6382 17.932 23.8204C17.932 23.8204 20.4689 23.8182 21.2256 23.8182C22.197 23.6361 22.919 22.7753 22.919 21.7822V21.4353H16.2343V21.7844Z" fill="white"/>
<path d="M17.9322 24.2259C18.1555 24.9436 18.8212 25.4358 19.5779 25.4358C20.3368 25.4358 21.0024 24.9414 21.2258 24.2237L17.9322 24.2259Z" fill="white"/>
<path d="M17.9321 10.4162C17.8346 10.349 17.7305 10.2883 17.6221 10.2298C17.5852 10.1994 17.5549 10.1799 17.5332 10.1669C17.5245 10.1625 17.5158 10.1582 17.5072 10.1517C17.5072 10.1517 17.5158 10.156 17.5332 10.1669C17.6763 10.2428 17.8085 10.3273 17.9321 10.4162Z" fill="white"/>
<path fill-rule="evenodd" clip-rule="evenodd" d="M12.0865 7.92925C12.0865 3.79657 15.4473 0.435791 19.58 0.435791C23.7105 0.435791 27.0713 3.79657 27.0756 7.92925C27.0756 9.62482 26.5206 11.2228 25.4711 12.5541C24.7469 13.4713 23.8948 14.718 23.1858 15.8911V18.4518H15.9373V15.826C15.2717 14.705 14.4955 13.5732 13.691 12.552C12.6416 11.2206 12.0865 9.62265 12.0865 7.92925ZM19.8879 14.0849C20.1372 15.6764 20.0224 17.9162 19.9531 18.4518H19.3048C19.4435 17.5476 19.5064 16.7453 19.5129 16.0363C19.1985 14.7094 18.3615 13.712 18.1576 13.6534C18.1334 13.6474 18.1073 13.6413 18.081 13.6352C18.1819 13.6602 18.5666 13.8314 18.9556 14.4817C18.4742 14.6226 17.6069 14.1933 17.3966 13.6925C17.1733 13.1634 16.874 13.094 16.874 13.094C16.874 13.094 17.8888 13.0853 18.5327 13.3585C19.1247 13.6101 19.5171 14.0806 19.2396 14.3581C19.3242 14.4665 19.3979 14.5836 19.4607 14.7007C19.3155 11.3356 17.8216 10.3468 17.6221 10.2298C17.7305 10.2883 17.8346 10.349 17.9321 10.4162C17.8085 10.3273 17.6763 10.2428 17.5332 10.1669C17.5158 10.156 17.5072 10.1517 17.5072 10.1517C17.5158 10.1582 17.5245 10.1625 17.5332 10.1669C17.5549 10.1799 17.5852 10.1994 17.6221 10.2298C17.8844 10.4444 18.4959 11.1513 18.897 12.8989C17.8107 13.042 16.2387 11.4461 16.0783 9.98474C15.9092 8.44312 15.3216 8.10705 15.3216 8.10705C15.3216 8.10705 17.4486 8.59057 18.6412 9.65301C19.7405 10.6331 20.2977 12.101 19.5561 12.7124C19.6429 12.9617 19.7123 13.2198 19.7708 13.4778C19.9161 13.0507 20.1351 12.5476 20.4516 12.14C20.2175 11.741 20.6836 11.1881 21.3168 10.9431C22.0041 10.6764 23.021 10.8304 23.021 10.8304C23.021 10.8304 22.7109 10.8781 22.4052 11.5329C22.1147 12.153 21.1802 12.591 20.7183 12.3395C21.2164 11.543 21.6315 11.38 21.7302 11.3642L21.6463 11.3768C21.4057 11.431 20.3692 11.7887 19.8879 14.0849ZM21.7483 11.3616C21.7439 11.3616 21.7396 11.3616 21.7331 11.3638C21.7417 11.3616 21.7483 11.3616 21.7483 11.3616Z" fill="white"/>
</svg>
