<svg width="32" height="42" viewBox="0 0 32 42" fill="none" xmlns="http://www.w3.org/2000/svg">
<path d="M15.4508 0.790527C14.0395 0.790527 12.8961 1.36227 12.8961 2.0679H18.0056C18.0056 1.36227 16.8621 0.790527 15.4508 0.790527Z" fill="white"/>
<path d="M23.0195 2.54712L7.88225 2.54712C7.56131 2.54712 7.30414 2.80641 7.30414 3.12523V3.70335C7.30414 4.02216 7.56344 4.28145 7.88225 4.28145L23.0195 4.28145C23.3383 4.28145 23.5976 4.02216 23.5976 3.70335V3.12523C23.5976 2.80641 23.3383 2.54712 23.0195 2.54712Z" fill="white"/>
<path fill-rule="evenodd" clip-rule="evenodd" d="M8.41144 4.76099V4.78436L9.7462 19.8727C9.7462 20.3785 10.1564 20.7909 10.6644 20.7909H20.2372C20.7452 20.7909 21.1554 20.3807 21.1554 19.8727L21.2336 18.9893C20.6318 19.2474 19.9703 19.3904 19.2769 19.3904C16.5269 19.3904 14.2769 17.1404 14.2769 14.3904C14.2769 11.6404 16.5269 9.39038 19.2769 9.39038C20.2837 9.39038 21.2234 9.69194 22.0103 10.2092L22.4902 4.78436C22.4902 4.78011 22.4897 4.77639 22.4891 4.77267C22.4886 4.76896 22.4881 4.76524 22.4881 4.76099L8.41144 4.76099Z" fill="white"/>
<path d="M23.2769 14.3901C23.2769 12.1901 21.4769 10.3901 19.2769 10.3901C17.0769 10.3901 15.2769 12.1901 15.2769 14.3901C15.2769 16.5901 17.0769 18.3901 19.2769 18.3901C21.4769 18.3901 23.2769 16.5901 23.2769 14.3901ZM18.9269 16.2401L17.4269 14.6901C17.3269 14.5901 17.2769 14.4901 17.2769 14.3401C17.2769 14.1901 17.3269 14.0901 17.4269 13.9901C17.6269 13.7901 17.9269 13.7901 18.1269 13.9901L18.7769 14.6401L18.7769 12.3901C18.7769 12.0901 18.9769 11.8901 19.2769 11.8901C19.5769 11.8901 19.7769 12.0901 19.7769 12.3901L19.7769 14.6401L20.4269 13.9901C20.6269 13.7901 20.9269 13.7901 21.1269 13.9901C21.3269 14.1901 21.3269 14.4901 21.1269 14.6901L19.6269 16.2401C19.5269 16.3401 19.4269 16.3901 19.2769 16.3901C19.1269 16.3901 19.0269 16.3401 18.9269 16.2401Z" fill="white"/>
<path d="M11.8968 36.1193C11.2946 36.1193 10.7576 36.0085 10.286 35.7869C9.81729 35.5653 9.44513 35.2599 9.16957 34.8707C8.894 34.4815 8.75053 34.0355 8.73917 33.5327H10.5289C10.5488 33.8707 10.6909 34.1449 10.9551 34.3551C11.2193 34.5653 11.5332 34.6705 11.8968 34.6705C12.1866 34.6705 12.4423 34.6065 12.6639 34.4787C12.8883 34.348 13.063 34.1676 13.188 33.9375C13.3159 33.7045 13.3798 33.4375 13.3798 33.1364C13.3798 32.8295 13.3145 32.5597 13.1838 32.3267C13.0559 32.0937 12.8784 31.9119 12.6511 31.7812C12.4238 31.6506 12.1639 31.5838 11.8713 31.581C11.6156 31.581 11.367 31.6335 11.1255 31.7386C10.8869 31.8437 10.7008 31.9872 10.5673 32.169L8.92667 31.875L9.34002 27.2727H14.6752V28.7812H10.8613L10.6355 30.9673H10.6866C10.84 30.7514 11.0716 30.5724 11.3812 30.4304C11.6909 30.2884 12.0375 30.2173 12.421 30.2173C12.9466 30.2173 13.4153 30.3409 13.8272 30.5881C14.2392 30.8352 14.5645 31.1747 14.8031 31.6065C15.0417 32.0355 15.1596 32.5298 15.1568 33.0895C15.1596 33.6776 15.0233 34.2003 14.7477 34.6577C14.475 35.1122 14.0929 35.4702 13.6014 35.7315C13.1127 35.9901 12.5446 36.1193 11.8968 36.1193ZM19.8656 36.1918C19.1326 36.1889 18.502 36.0085 17.9735 35.6506C17.448 35.2926 17.0431 34.7741 16.7591 34.0952C16.4778 33.4162 16.3386 32.5994 16.3414 31.6449C16.3414 30.6932 16.4821 29.8821 16.7633 29.2116C17.0474 28.5412 17.4522 28.0312 17.9778 27.6818C18.5062 27.3295 19.1355 27.1534 19.8656 27.1534C20.5957 27.1534 21.2235 27.3295 21.7491 27.6818C22.2775 28.0341 22.6838 28.5455 22.9679 29.2159C23.252 29.8835 23.3926 30.6932 23.3897 31.6449C23.3897 32.6023 23.2477 33.4205 22.9636 34.0994C22.6824 34.7784 22.2789 35.2969 21.7534 35.6548C21.2278 36.0128 20.5985 36.1918 19.8656 36.1918ZM19.8656 34.6619C20.3656 34.6619 20.7647 34.4105 21.063 33.9077C21.3613 33.4048 21.5091 32.6506 21.5062 31.6449C21.5062 30.983 21.438 30.4318 21.3017 29.9915C21.1681 29.5511 20.9778 29.2202 20.7306 28.9986C20.4863 28.777 20.198 28.6662 19.8656 28.6662C19.3684 28.6662 18.9707 28.9148 18.6724 29.4119C18.3741 29.9091 18.2235 30.6534 18.2207 31.6449C18.2207 32.3153 18.2875 32.875 18.421 33.3239C18.5574 33.7699 18.7491 34.1051 18.9963 34.3295C19.2434 34.5511 19.5332 34.6619 19.8656 34.6619Z" fill="white"/>
</svg>
