<svg width="36" height="46" viewBox="0 0 36 46" fill="none" xmlns="http://www.w3.org/2000/svg">
<path d="M11.3421 44.728C10.7341 44.728 10.1541 44.652 9.60213 44.5C9.05013 44.348 8.56213 44.12 8.13813 43.816C7.71413 43.512 7.37813 43.136 7.13013 42.688C6.89013 42.24 6.77013 41.724 6.77013 41.14C6.77013 40.596 6.86213 40.092 7.04613 39.628C7.23813 39.164 7.49813 38.744 7.82613 38.368C8.16213 37.992 8.55413 37.656 9.00213 37.36C9.45013 37.064 9.93413 36.812 10.4541 36.604C10.9821 36.396 11.5261 36.232 12.0861 36.112L12.1101 36.328C11.9181 36.272 11.7021 36.208 11.4621 36.136C11.2301 36.064 10.9701 35.996 10.6821 35.932C10.4021 35.868 10.0941 35.816 9.75813 35.776C9.43013 35.728 9.07413 35.704 8.69013 35.704C8.40213 35.704 8.13013 35.724 7.87413 35.764C7.62613 35.796 7.40613 35.836 7.21413 35.884L6.96213 34.252C7.19413 34.18 7.44213 34.12 7.70613 34.072C7.97813 34.024 8.25813 34 8.54613 34C9.02613 34 9.46613 34.04 9.86613 34.12C10.2661 34.192 10.6341 34.284 10.9701 34.396C11.3141 34.508 11.6381 34.624 11.9421 34.744C12.2461 34.856 12.5421 34.952 12.8301 35.032C13.1261 35.104 13.4261 35.14 13.7301 35.14H14.2101L14.3661 36.94C14.0621 36.94 13.7061 36.98 13.2981 37.06C12.8901 37.14 12.4621 37.256 12.0141 37.408C11.5741 37.56 11.1421 37.748 10.7181 37.972C10.3021 38.196 9.92213 38.456 9.57812 38.752C9.23413 39.048 8.95813 39.376 8.75013 39.736C8.55013 40.096 8.45013 40.488 8.45013 40.912C8.45013 41.296 8.53413 41.624 8.70213 41.896C8.87013 42.168 9.09813 42.388 9.38613 42.556C9.67413 42.724 9.99813 42.848 10.3581 42.928C10.7261 43.008 11.1061 43.048 11.4981 43.048C11.9381 43.048 12.3821 43 12.8301 42.904C13.2861 42.808 13.7421 42.672 14.1981 42.496L14.6901 43.96C14.1061 44.232 13.5261 44.428 12.9501 44.548C12.3741 44.668 11.8381 44.728 11.3421 44.728ZM11.7621 41.836C11.5861 41.836 11.4341 41.776 11.3061 41.656C11.1861 41.536 11.1261 41.388 11.1261 41.212C11.1261 41.028 11.1861 40.872 11.3061 40.744C11.4341 40.624 11.5861 40.564 11.7621 40.564C11.9381 40.564 12.0861 40.624 12.2061 40.744C12.3341 40.872 12.3981 41.028 12.3981 41.212C12.3981 41.388 12.3341 41.536 12.2061 41.656C12.0861 41.776 11.9381 41.836 11.7621 41.836ZM10.9101 40.432C10.7341 40.432 10.5821 40.372 10.4541 40.252C10.3341 40.132 10.2741 39.984 10.2741 39.808C10.2741 39.624 10.3341 39.472 10.4541 39.352C10.5821 39.224 10.7341 39.16 10.9101 39.16C11.0861 39.16 11.2341 39.224 11.3541 39.352C11.4821 39.472 11.5461 39.624 11.5461 39.808C11.5461 39.984 11.4821 40.132 11.3541 40.252C11.2341 40.372 11.0861 40.432 10.9101 40.432ZM12.6021 40.432C12.4261 40.432 12.2741 40.372 12.1461 40.252C12.0261 40.132 11.9661 39.984 11.9661 39.808C11.9661 39.624 12.0261 39.472 12.1461 39.352C12.2741 39.224 12.4261 39.16 12.6021 39.16C12.7781 39.16 12.9261 39.224 13.0461 39.352C13.1741 39.472 13.2381 39.624 13.2381 39.808C13.2381 39.984 13.1741 40.132 13.0461 40.252C12.9261 40.372 12.7781 40.432 12.6021 40.432ZM15.5004 42.76L15.1524 41.08C15.7204 41.008 16.2164 40.92 16.6404 40.816C17.0644 40.72 17.4204 40.584 17.7084 40.408C17.9964 40.232 18.2124 39.992 18.3564 39.688C18.5004 39.376 18.5724 38.976 18.5724 38.488C18.5724 38.016 18.5004 37.64 18.3564 37.36C18.2124 37.08 18.0204 36.94 17.7804 36.94C17.6124 36.94 17.4724 37 17.3604 37.12C17.2484 37.232 17.1644 37.368 17.1084 37.528C17.0604 37.68 17.0364 37.816 17.0364 37.936C17.0364 38.008 17.0564 38.084 17.0964 38.164C17.1364 38.244 17.2244 38.312 17.3604 38.368C17.4964 38.424 17.7084 38.456 17.9964 38.464C18.2924 38.472 18.6924 38.444 19.1964 38.38H21.2124C21.5164 38.38 21.7324 38.46 21.8604 38.62C21.9964 38.772 22.0644 38.964 22.0644 39.196C22.0644 39.444 21.9804 39.652 21.8124 39.82C21.6444 39.98 21.4044 40.06 21.0924 40.06H17.7924C17.2884 40.06 16.8564 40 16.4964 39.88C16.1364 39.76 15.8604 39.568 15.6684 39.304C15.4764 39.032 15.3804 38.672 15.3804 38.224C15.3804 37.864 15.4404 37.504 15.5604 37.144C15.6884 36.784 15.8644 36.456 16.0884 36.16C16.3124 35.856 16.5724 35.616 16.8684 35.44C17.1724 35.256 17.5004 35.164 17.8524 35.164C18.3324 35.164 18.7524 35.312 19.1124 35.608C19.4724 35.904 19.7524 36.296 19.9524 36.784C20.1604 37.272 20.2644 37.804 20.2644 38.38C20.2644 39.284 20.0724 40.052 19.6884 40.684C19.3044 41.316 18.7564 41.804 18.0444 42.148C17.3324 42.5 16.4844 42.704 15.5004 42.76ZM21.1094 40.06L21.2294 38.38C21.7094 38.38 22.0774 38.356 22.3334 38.308C22.5894 38.26 22.7654 38.172 22.8614 38.044C22.9654 37.908 23.0174 37.716 23.0174 37.468C23.0174 37.244 22.9854 36.976 22.9214 36.664C22.8654 36.352 22.7894 36.028 22.6934 35.692C22.6054 35.356 22.5094 35.048 22.4054 34.768L24.0614 34.312C24.1654 34.584 24.2654 34.9 24.3614 35.26C24.4574 35.62 24.5374 35.992 24.6014 36.376C24.6654 36.752 24.6974 37.116 24.6974 37.468C24.6974 38.012 24.6094 38.456 24.4334 38.8C24.2574 39.136 24.0094 39.396 23.6894 39.58C23.3774 39.764 23.0014 39.892 22.5614 39.964C22.1214 40.028 21.6374 40.06 21.1094 40.06ZM22.9214 44.056C22.7214 44.056 22.5534 43.988 22.4174 43.852C22.2894 43.716 22.2254 43.552 22.2254 43.36C22.2254 43.16 22.2894 42.988 22.4174 42.844C22.5534 42.7 22.7214 42.628 22.9214 42.628C23.1134 42.628 23.2774 42.7 23.4134 42.844C23.5494 42.988 23.6174 43.16 23.6174 43.36C23.6174 43.552 23.5494 43.716 23.4134 43.852C23.2774 43.988 23.1134 44.056 22.9214 44.056ZM23.8454 42.508C23.6454 42.508 23.4774 42.44 23.3414 42.304C23.2134 42.168 23.1494 42.004 23.1494 41.812C23.1494 41.612 23.2134 41.44 23.3414 41.296C23.4774 41.152 23.6454 41.08 23.8454 41.08C24.0374 41.08 24.2014 41.152 24.3374 41.296C24.4734 41.44 24.5414 41.612 24.5414 41.812C24.5414 42.004 24.4734 42.168 24.3374 42.304C24.2014 42.44 24.0374 42.508 23.8454 42.508ZM22.0454 42.508C21.8454 42.508 21.6774 42.44 21.5414 42.304C21.4054 42.168 21.3374 42.004 21.3374 41.812C21.3374 41.612 21.4054 41.44 21.5414 41.296C21.6774 41.152 21.8454 41.08 22.0454 41.08C22.2294 41.08 22.3894 41.152 22.5254 41.296C22.6694 41.44 22.7414 41.612 22.7414 41.812C22.7414 42.004 22.6694 42.168 22.5254 42.304C22.3894 42.44 22.2294 42.508 22.0454 42.508Z" fill="white"/>
<g filter="url(#filter0_d_939_801)">
<path d="M13.2722 9.67654C13.2991 9.67654 13.3259 9.67655 13.3547 9.67846L12.1923 8.00195L11.9007 9.99305C12.3246 9.78589 12.7946 9.67654 13.2722 9.67654Z" fill="white"/>
<path d="M15.6028 10.6376C15.6699 10.7047 15.7313 10.7738 15.7908 10.8448L16.3662 8.92847L14.5938 9.96046C14.9698 10.1178 15.3131 10.3479 15.6028 10.6376Z" fill="white"/>
<path d="M18.2462 12.7723L16.4258 12.0664C16.4968 12.3311 16.5333 12.6054 16.5333 12.8816C16.5333 13.085 16.5141 13.2864 16.4757 13.484L18.2462 12.7723Z" fill="white"/>
<path d="M12.2267 15.8439C12.1327 15.8113 12.0387 15.7729 11.9467 15.7307L12.2459 17.6144L13.3009 16.053C12.9307 16.0453 12.5682 15.9743 12.2267 15.8439Z" fill="white"/>
<path d="M10.8341 10.8201L8.86218 10.6877L10.1896 12.1072C10.3028 11.6353 10.5234 11.1942 10.8341 10.8201Z" fill="white"/>
<path d="M15.6028 15.1243C15.3611 15.366 15.0848 15.5636 14.7837 15.7151L16.4103 16.6378L15.8502 14.8442C15.7754 14.9421 15.6929 15.0361 15.6028 15.1243Z" fill="white"/>
<path d="M10.1782 13.5513L8.88531 14.9669L10.7824 14.8173C10.4908 14.4452 10.2837 14.0097 10.1782 13.5513Z" fill="white"/>
<path d="M16.2339 12.807C16.2339 14.3972 14.9449 15.6862 13.3547 15.6862C11.7645 15.6862 10.4755 14.3972 10.4755 12.807C10.4755 11.2168 11.7645 9.92773 13.3547 9.92773C14.9449 9.92773 16.2339 11.2168 16.2339 12.807Z" fill="white"/>
<path d="M18.0043 26.731V27.5788H23.0876L26.4771 24.1874V23.3396H21.3938L18.0043 26.731Z" fill="white"/>
<path d="M25.2053 19.5266L22.2397 22.4941H27.3249V23.34L30.2905 20.3745V19.5266H25.2053Z" fill="white"/>
<path d="M20.9679 22.4941L23.9354 19.5266H18.8502L15.8828 22.4941H20.9679Z" fill="white"/>
<path d="M15.037 23.3396L11.6456 26.731V27.5788H16.7307V26.731L20.1202 23.3396H15.037Z" fill="white"/>
<path d="M17.5784 19.5266H12.4933L9.52771 22.4941H14.6129L17.5784 19.5266Z" fill="white"/>
<path d="M8.68186 23.3396L5.29047 26.731V27.5788H10.3756V26.731L13.7651 23.3396H8.68186Z" fill="white"/>
</g>
<defs>
<filter id="filter0_d_939_801" x="-1" y="0" width="37.5811" height="37.5811" filterUnits="userSpaceOnUse" color-interpolation-filters="sRGB">
<feFlood flood-opacity="0" result="BackgroundImageFix"/>
<feColorMatrix in="SourceAlpha" type="matrix" values="0 0 0 0 0 0 0 0 0 0 0 0 0 0 0 0 0 0 127 0" result="hardAlpha"/>
<feOffset dy="1"/>
<feGaussianBlur stdDeviation="0.5"/>
<feComposite in2="hardAlpha" operator="out"/>
<feColorMatrix type="matrix" values="0 0 0 0 0 0 0 0 0 0 0 0 0 0 0 0 0 0 0.25 0"/>
<feBlend mode="normal" in2="BackgroundImageFix" result="effect1_dropShadow_939_801"/>
<feBlend mode="normal" in="SourceGraphic" in2="effect1_dropShadow_939_801" result="shape"/>
</filter>
</defs>
</svg>
