<svg width="32" height="47" viewBox="0 0 32 47" fill="none" xmlns="http://www.w3.org/2000/svg">
<path d="M14.5815 3.73288C13.8546 3.26229 13.656 2.31293 14.142 1.61318C14.6279 0.909339 15.6083 0.721106 16.3352 1.1876C17.062 1.65819 17.2564 2.60756 16.7746 3.3114C16.2887 4.01115 15.3041 4.20348 14.5815 3.73288ZM3.12955 16.4593C4.54097 14.4132 7.29196 13.7462 9.51051 14.8143L11.1036 12.5186C10.9938 12.4163 10.8966 12.3181 10.8078 12.2281C10.1528 11.9866 9.54854 11.6715 9.54854 11.6715L9.43444 11.426C9.48093 11.1887 9.69221 11.0086 9.87392 10.894C9.72179 10.5053 9.77673 10.3007 9.77673 10.3007C12.1897 5.50885 12.9883 4.04388 14.704 4.28122C16.4155 4.51447 19.065 9.02395 19.065 9.02395C20.3201 10.5217 21.6259 11.6306 21.9005 11.7657L22.2386 11.3524L22.788 11.7452L22.3738 12.3222C22.3738 12.3713 22.3696 12.404 22.3696 12.404C22.34 12.535 22.2471 12.6045 22.1414 12.6495L21.9428 12.9237L19.2721 12.404L19.0904 12.5677L20.43 15.3217C21.909 14.7529 23.6458 14.8675 25.0657 15.7841C27.3603 17.2654 27.9814 20.2772 26.4517 22.4951C24.922 24.7171 21.8118 25.3187 19.5172 23.8373C17.2226 22.356 16.6056 19.3442 18.1354 17.1222C18.5453 16.5288 19.0693 16.0542 19.6566 15.7022L18.858 14.0368L15.3717 18.9227C15.1773 19.5775 15.0463 19.9867 15.0463 19.9867C17.0747 19.6798 16.7408 21.0465 16.7408 21.0465C15.49 21.4107 13.7912 21.0383 13.7912 21.0383C13.2884 20.7846 13.7828 19.8598 13.7828 19.8598C13.7786 19.8066 13.7701 19.7411 13.7701 19.6839L12.253 19.6634C12.1728 20.4163 11.9108 21.1652 11.4459 21.8363C9.91618 24.0583 6.806 24.6557 4.5114 23.1785C2.22102 21.6931 1.59982 18.6854 3.12955 16.4593ZM19.0101 17.6828C17.7973 19.4342 18.2917 21.8199 20.1046 22.9903C21.9174 24.1606 24.3769 23.6859 25.5854 21.9304C26.7982 20.1749 26.3038 17.7933 24.491 16.623C23.3838 15.9109 22.04 15.8127 20.8821 16.2383L22.6485 19.8639L22.2386 20.2527L21.6723 19.8885L20.1046 16.623C19.682 16.893 19.3101 17.2491 19.0101 17.6828ZM12.0164 13.2675L13.825 17.736C13.9476 16.2874 14.1758 14.8388 14.1758 14.8388C13.7743 14.6383 12.7601 13.8567 12.0164 13.2675ZM17.979 11.8066L18.4734 11.6061L19.9778 11.9007C18.8537 11.246 17.8818 10.4971 17.8818 10.4971C17.3874 10.0756 15.6928 7.50579 15.6928 7.50579C14.3533 7.74313 13.4743 10.583 13.4743 10.583C14.3406 11.3114 14.9407 12.0398 15.3632 12.6946L18.3974 12.801L17.8438 12.2035L17.979 11.8066ZM18.1311 13.6971L15.8365 13.5375C16.2802 14.4623 16.3436 15.0966 16.3436 15.0966C16.2295 15.6368 16.107 16.1647 15.9802 16.6639L18.1311 13.6971ZM12.2699 18.8695L13.2208 18.9105L11.2389 13.7667L10.2204 15.2358C11.4755 16.1156 12.1854 17.4659 12.2699 18.8695ZM9.63727 16.0787L7.83287 18.6731L11.2262 18.8204C11.129 17.7606 10.5796 16.7498 9.63727 16.0787ZM5.09455 22.3355C6.90741 23.5059 9.36682 23.0271 10.5754 21.2757C10.9261 20.7724 11.1248 20.2117 11.2051 19.647L7.09758 19.5815L6.59893 19.0168L8.92311 15.6695C7.19054 14.9084 5.09032 15.4444 4.00007 17.0281C2.79572 18.7795 3.28591 21.1611 5.09455 22.3355Z" fill="white"/>
<path d="M22.6587 11.223C20.7417 10.091 22.3663 6.88248 25.2944 7.46829C24.4955 8.46649 25.7336 11.1557 22.9245 11.3023C22.9245 9.90469 23.2506 8.95222 24.0762 8.12743C22.6518 9.11269 22.6587 10.5975 22.6587 11.223Z" fill="white"/>
<path d="M23.0816 7.56494C22.9461 7.63827 22.8158 7.72196 22.6916 7.816C22.5415 7.92988 22.4052 8.05671 22.2827 8.19302C22.0834 7.90831 21.8185 7.6331 21.4656 7.38894C21.7598 7.68314 21.9902 7.99286 22.1653 8.33365C21.9496 8.60887 21.79 8.91859 21.702 9.24212C21.5942 9.63812 21.5985 10.0333 21.715 10.3879C20.0956 9.74769 20.9428 7.59859 20.2474 6.7298C21.4777 6.48478 22.4776 6.90752 23.0816 7.56494Z" fill="white"/>
<path d="M4.66637 41V39.6705L7.7729 36.794C8.03711 36.5384 8.2587 36.3082 8.43768 36.1037C8.6195 35.8991 8.75728 35.6989 8.85103 35.5028C8.94478 35.304 8.99165 35.0895 8.99165 34.8594C8.99165 34.6037 8.93342 34.3835 8.81694 34.1989C8.70046 34.0114 8.54137 33.8679 8.33967 33.7685C8.13796 33.6662 7.90927 33.6151 7.65359 33.6151C7.38654 33.6151 7.15359 33.669 6.95472 33.777C6.75586 33.8849 6.60245 34.0398 6.4945 34.2415C6.38654 34.4432 6.33256 34.6832 6.33256 34.9616H4.58114C4.58114 34.3906 4.7104 33.8949 4.96893 33.4744C5.22745 33.054 5.58967 32.7287 6.05558 32.4986C6.52148 32.2685 7.05842 32.1534 7.66637 32.1534C8.29137 32.1534 8.8354 32.2642 9.29847 32.4858C9.76438 32.7045 10.1266 33.0085 10.3851 33.3977C10.6436 33.7869 10.7729 34.233 10.7729 34.7358C10.7729 35.0653 10.7076 35.3906 10.5769 35.7116C10.449 36.0327 10.2203 36.3892 9.8908 36.7812C9.56126 37.1705 9.09677 37.6378 8.49734 38.1832L7.22319 39.4318V39.4915H10.888V41H4.66637ZM15.6468 41.1918C14.9139 41.1889 14.2832 41.0085 13.7548 40.6506C13.2292 40.2926 12.8244 39.7741 12.5403 39.0952C12.2591 38.4162 12.1199 37.5994 12.1227 36.6449C12.1227 35.6932 12.2633 34.8821 12.5446 34.2116C12.8287 33.5412 13.2335 33.0312 13.7591 32.6818C14.2875 32.3295 14.9167 32.1534 15.6468 32.1534C16.377 32.1534 17.0048 32.3295 17.5304 32.6818C18.0588 33.0341 18.465 33.5455 18.7491 34.2159C19.0332 34.8835 19.1738 35.6932 19.171 36.6449C19.171 37.6023 19.0289 38.4205 18.7449 39.0994C18.4636 39.7784 18.0602 40.2969 17.5346 40.6548C17.0091 41.0128 16.3798 41.1918 15.6468 41.1918ZM15.6468 39.6619C16.1468 39.6619 16.546 39.4105 16.8443 38.9077C17.1426 38.4048 17.2903 37.6506 17.2875 36.6449C17.2875 35.983 17.2193 35.4318 17.0829 34.9915C16.9494 34.5511 16.7591 34.2202 16.5119 33.9986C16.2676 33.777 15.9792 33.6662 15.6468 33.6662C15.1497 33.6662 14.752 33.9148 14.4537 34.4119C14.1554 34.9091 14.0048 35.6534 14.002 36.6449C14.002 37.3153 14.0687 37.875 14.2022 38.3239C14.3386 38.7699 14.5304 39.1051 14.7775 39.3295C15.0247 39.5511 15.3145 39.6619 15.6468 39.6619ZM23.9086 41.1918C23.1756 41.1889 22.5449 41.0085 22.0165 40.6506C21.4909 40.2926 21.0861 39.7741 20.802 39.0952C20.5208 38.4162 20.3816 37.5994 20.3844 36.6449C20.3844 35.6932 20.525 34.8821 20.8063 34.2116C21.0904 33.5412 21.4952 33.0312 22.0208 32.6818C22.5492 32.3295 23.1784 32.1534 23.9086 32.1534C24.6387 32.1534 25.2665 32.3295 25.7921 32.6818C26.3205 33.0341 26.7267 33.5455 27.0108 34.2159C27.2949 34.8835 27.4355 35.6932 27.4327 36.6449C27.4327 37.6023 27.2907 38.4205 27.0066 39.0994C26.7253 39.7784 26.3219 40.2969 25.7963 40.6548C25.2708 41.0128 24.6415 41.1918 23.9086 41.1918ZM23.9086 39.6619C24.4086 39.6619 24.8077 39.4105 25.106 38.9077C25.4043 38.4048 25.552 37.6506 25.5492 36.6449C25.5492 35.983 25.481 35.4318 25.3446 34.9915C25.2111 34.5511 25.0208 34.2202 24.7736 33.9986C24.5293 33.777 24.2409 33.6662 23.9086 33.6662C23.4114 33.6662 23.0137 33.9148 22.7154 34.4119C22.4171 34.9091 22.2665 35.6534 22.2637 36.6449C22.2637 37.3153 22.3304 37.875 22.464 38.3239C22.6003 38.7699 22.7921 39.1051 23.0392 39.3295C23.2864 39.5511 23.5762 39.6619 23.9086 39.6619Z" fill="white"/>
</svg>
