<svg width="36" height="52" viewBox="0 0 36 52" fill="none" xmlns="http://www.w3.org/2000/svg">
<g filter="url(#filter0_d_892_800)">
<path d="M20.4328 23.71H15.1422C14.5416 23.71 14.0538 24.1978 14.0538 24.7984C14.0538 25.399 14.5416 25.8869 15.1422 25.8869H20.4328C21.0334 25.8869 21.5212 25.399 21.5212 24.7984C21.5212 24.1978 21.0334 23.71 20.4328 23.71Z" fill="white"/>
<path d="M14.4438 26.6391C14.4438 27.6322 15.168 28.493 16.1415 28.6751C16.1415 28.6751 18.6784 28.6729 19.4351 28.6729C20.4065 28.4908 21.1285 27.63 21.1285 26.637V26.29H14.4438V26.6391Z" fill="white"/>
<path d="M16.1417 29.0806C16.365 29.7983 17.0306 30.2905 17.7874 30.2905C18.5462 30.2905 19.2119 29.7962 19.4352 29.0785L16.1417 29.0806Z" fill="white"/>
<path d="M16.1416 15.271C16.044 15.2038 15.94 15.143 15.8315 15.0845C15.7947 15.0541 15.7643 15.0346 15.7427 15.0216C15.734 15.0173 15.7253 15.0129 15.7166 15.0064C15.7166 15.0064 15.7253 15.0108 15.7427 15.0216C15.8858 15.0975 16.018 15.1821 16.1416 15.271Z" fill="white"/>
<path fill-rule="evenodd" clip-rule="evenodd" d="M10.296 12.784C10.296 8.65131 13.6568 5.29053 17.7895 5.29053C21.92 5.29053 25.2808 8.65131 25.2851 12.784C25.2851 14.4796 24.73 16.0776 23.6806 17.4089C22.9564 18.326 22.1043 19.5728 21.3953 20.7458V23.3065H14.1468V20.6807C13.4812 19.5598 12.7049 18.4279 11.9005 17.4067C10.8511 16.0754 10.296 14.4774 10.296 12.784ZM18.0974 18.9396C18.3467 20.5311 18.2319 22.7709 18.1625 23.3065H17.5142C17.653 22.4023 17.7159 21.6001 17.7224 20.8911C17.408 19.5641 16.5709 18.5667 16.3671 18.5082C16.3429 18.5021 16.3167 18.496 16.2905 18.49C16.3914 18.5149 16.7761 18.6861 17.165 19.3364C16.6837 19.4774 15.8164 19.0481 15.6061 18.5472C15.3827 18.0181 15.0835 17.9488 15.0835 17.9488C15.0835 17.9488 16.0982 17.9401 16.7422 18.2133C17.3341 18.4648 17.7266 18.9353 17.4491 19.2128C17.5336 19.3213 17.6073 19.4383 17.6702 19.5554C17.5249 16.1903 16.031 15.2016 15.8315 15.0845C15.94 15.143 16.044 15.2038 16.1416 15.271C16.018 15.1821 15.8858 15.0975 15.7427 15.0216C15.7253 15.0108 15.7166 15.0064 15.7166 15.0064C15.7253 15.0129 15.734 15.0173 15.7427 15.0216C15.7643 15.0346 15.7947 15.0541 15.8315 15.0845C16.0939 15.2991 16.7054 16.006 17.1065 17.7536C16.0202 17.8967 14.4482 16.3009 14.2878 14.8395C14.1186 13.2979 13.531 12.9618 13.531 12.9618C13.531 12.9618 15.6581 13.4453 16.8506 14.5077C17.9499 15.4878 18.5072 16.9557 17.7656 17.5671C17.8523 17.8165 17.9217 18.0745 17.9803 18.3325C18.1256 17.9054 18.3445 17.4023 18.6611 16.9947C18.4269 16.5958 18.8931 16.0429 19.5262 15.7979C20.2136 15.5312 21.2305 15.6851 21.2305 15.6851C21.2305 15.6851 20.9204 15.7328 20.6147 16.3876C20.3242 17.0077 19.3896 17.4457 18.9278 17.1942C19.4259 16.3978 19.841 16.2347 19.9397 16.2189L19.8558 16.2315C19.6151 16.2857 18.5787 16.6435 18.0974 18.9396ZM19.9577 16.2163C19.9534 16.2163 19.9491 16.2163 19.9425 16.2185C19.9512 16.2163 19.9577 16.2163 19.9577 16.2163Z" fill="white"/>
</g>
<path d="M13.8473 46.1193C13.2109 46.1193 12.6442 46.0099 12.147 45.7912C11.6527 45.5696 11.2621 45.2656 10.9751 44.8793C10.6911 44.4901 10.5447 44.0412 10.5362 43.5327H12.3942C12.4055 43.7457 12.4751 43.9332 12.603 44.0952C12.7337 44.2543 12.907 44.3778 13.1229 44.4659C13.3388 44.554 13.5817 44.598 13.8516 44.598C14.1328 44.598 14.3814 44.5483 14.5973 44.4489C14.8132 44.3494 14.9822 44.2116 15.1044 44.0355C15.2266 43.8594 15.2876 43.6562 15.2876 43.4261C15.2876 43.1932 15.2223 42.9872 15.0916 42.8082C14.9638 42.6264 14.7791 42.4844 14.5376 42.3821C14.299 42.2798 14.0149 42.2287 13.6854 42.2287H12.8714V40.8736H13.6854C13.9638 40.8736 14.2095 40.8253 14.4226 40.7287C14.6385 40.6321 14.8061 40.4986 14.9254 40.3281C15.0447 40.1548 15.1044 39.9531 15.1044 39.723C15.1044 39.5043 15.0518 39.3125 14.9467 39.1477C14.8445 38.9801 14.6996 38.8494 14.5121 38.7557C14.3274 38.6619 14.1115 38.6151 13.8643 38.6151C13.6143 38.6151 13.3857 38.6605 13.1783 38.7514C12.9709 38.8395 12.8047 38.9659 12.6797 39.1307C12.5547 39.2955 12.4879 39.4886 12.4794 39.7102H10.7109C10.7195 39.2074 10.8629 38.7642 11.1413 38.3807C11.4197 37.9972 11.7947 37.6974 12.2663 37.4815C12.7408 37.2628 13.2763 37.1534 13.8729 37.1534C14.4751 37.1534 15.0021 37.2628 15.4538 37.4815C15.9055 37.7003 16.2564 37.9957 16.5064 38.3679C16.7592 38.7372 16.8842 39.152 16.8814 39.6122C16.8842 40.1009 16.7322 40.5085 16.4254 40.8352C16.1214 41.1619 15.7251 41.3693 15.2365 41.4574V41.5256C15.8786 41.608 16.3672 41.831 16.7024 42.1946C17.0405 42.5554 17.2081 43.0071 17.2053 43.5497C17.2081 44.0469 17.0646 44.4886 16.7749 44.875C16.4879 45.2614 16.0916 45.5653 15.5859 45.7869C15.0803 46.0085 14.5007 46.1193 13.8473 46.1193ZM21.9535 46.1918C21.2205 46.1889 20.5898 46.0085 20.0614 45.6506C19.5359 45.2926 19.131 44.7741 18.8469 44.0952C18.5657 43.4162 18.4265 42.5994 18.4293 41.6449C18.4293 40.6932 18.57 39.8821 18.8512 39.2116C19.1353 38.5412 19.5401 38.0312 20.0657 37.6818C20.5941 37.3295 21.2234 37.1534 21.9535 37.1534C22.6836 37.1534 23.3114 37.3295 23.837 37.6818C24.3654 38.0341 24.7717 38.5455 25.0558 39.2159C25.3398 39.8835 25.4805 40.6932 25.4776 41.6449C25.4776 42.6023 25.3356 43.4205 25.0515 44.0994C24.7702 44.7784 24.3668 45.2969 23.8413 45.6548C23.3157 46.0128 22.6864 46.1918 21.9535 46.1918ZM21.9535 44.6619C22.4535 44.6619 22.8526 44.4105 23.1509 43.9077C23.4492 43.4048 23.5969 42.6506 23.5941 41.6449C23.5941 40.983 23.5259 40.4318 23.3896 39.9915C23.256 39.5511 23.0657 39.2202 22.8185 38.9986C22.5742 38.777 22.2859 38.6662 21.9535 38.6662C21.4563 38.6662 21.0586 38.9148 20.7603 39.4119C20.462 39.9091 20.3114 40.6534 20.3086 41.6449C20.3086 42.3153 20.3754 42.875 20.5089 43.3239C20.6452 43.7699 20.837 44.1051 21.0842 44.3295C21.3313 44.5511 21.6211 44.6619 21.9535 44.6619Z" fill="white"/>
<defs>
<filter id="filter0_d_892_800" x="-1" y="0" width="37.5811" height="37.5811" filterUnits="userSpaceOnUse" color-interpolation-filters="sRGB">
<feFlood flood-opacity="0" result="BackgroundImageFix"/>
<feColorMatrix in="SourceAlpha" type="matrix" values="0 0 0 0 0 0 0 0 0 0 0 0 0 0 0 0 0 0 127 0" result="hardAlpha"/>
<feOffset dy="1"/>
<feGaussianBlur stdDeviation="0.5"/>
<feComposite in2="hardAlpha" operator="out"/>
<feColorMatrix type="matrix" values="0 0 0 0 0 0 0 0 0 0 0 0 0 0 0 0 0 0 0.25 0"/>
<feBlend mode="normal" in2="BackgroundImageFix" result="effect1_dropShadow_892_800"/>
<feBlend mode="normal" in="SourceGraphic" in2="effect1_dropShadow_892_800" result="shape"/>
</filter>
</defs>
</svg>
