<svg width="36" height="56" viewBox="0 0 36 56" fill="none" xmlns="http://www.w3.org/2000/svg">
<g filter="url(#filter0_d_892_799)">
<path d="M16.8646 15.4883C16.8646 15.4883 22.7478 24.3248 15.996 29.0229C15.996 29.0229 14.7568 30.1578 15.1197 30.6597C15.1197 30.6597 18.2505 30.6327 19.9954 30.6327C19.9954 30.6327 21.2693 28.7758 21.1226 23.8075C21.1226 23.8075 21.4893 19.781 18.262 15.7508C18.262 15.7508 14.9614 11.6549 14.7375 8.70166C14.7375 8.70938 14.9575 11.9985 16.8646 15.4883Z" fill="white"/>
<path d="M19.6556 18.8468C19.6556 18.8468 21.196 16.4302 23.4002 16.0287C23.4002 16.0287 25.674 15.2219 25.8941 13.8129C25.8941 13.8129 25.5273 15.2914 23.5469 16.4302C23.5469 16.4302 20.3891 17.7736 20.0224 19.7193L19.6556 18.8468Z" fill="white"/>
<path d="M15.9496 12.4964C15.9496 12.4964 16.6947 11.3306 17.7563 11.1376C17.7563 11.1376 18.8527 10.7477 18.9608 10.0683C18.9608 10.0683 18.7832 10.7824 17.8258 11.3306C17.8258 11.3306 16.3009 11.9792 16.1234 12.9172L15.9496 12.4964Z" fill="white"/>
<path d="M19.0689 25.2899C19.0689 25.2899 17.5286 22.8732 15.3281 22.4718C15.3281 22.4718 13.0543 21.6649 12.8343 20.2559C12.8343 20.2559 13.201 21.7344 15.1814 22.8732C15.1814 22.8732 18.3354 24.2167 18.7021 26.1623L19.0689 25.2899Z" fill="white"/>
<path d="M14.3554 8.84862C14.6913 8.96829 15.9536 9.79442 15.7143 10.4816C17.7256 8.66332 13.73 6.00349 12.7572 5.65991C11.8693 10.4237 14.0543 10.8638 14.9075 10.8599C14.5291 10.7325 14.0852 10.2963 14.3554 8.84862Z" fill="white"/>
<path d="M19.0611 9.96418C19.0572 10.2421 18.7599 11.3732 18.1963 11.3694C20.0339 12.3962 20.999 8.79833 21.0144 7.99536C17.2853 8.52424 17.5053 10.2421 17.7215 10.8675C17.7176 10.5587 17.93 10.1225 19.0611 9.96418Z" fill="white"/>
<path d="M25.8824 14.0753C25.8515 14.5733 25.2223 16.5769 24.2108 16.519C27.415 18.5225 29.4649 12.1528 29.5575 10.7129C22.8249 11.3344 23.0682 14.4343 23.4001 15.577C23.4233 15.0288 23.8402 14.2645 25.8824 14.0753Z" fill="white"/>
<path d="M12.4327 19.974C13.1932 19.9431 16.324 20.5723 16.3974 22.1088C18.9105 16.9397 8.94677 14.8705 6.76178 14.9593C8.78464 25.0388 13.4326 24.1702 15.108 23.4869C14.2703 23.541 13.0465 23.0314 12.4327 19.974Z" fill="white"/>
</g>
<path d="M12.4769 41.2727V50H10.6317V43.0241H10.5806L8.58203 44.277V42.6406L10.7425 41.2727H12.4769ZM17.9006 50.1193C17.4517 50.1165 17.0185 50.0412 16.6009 49.8935C16.1861 49.7457 15.8139 49.5057 15.4844 49.1733C15.1548 48.8409 14.8935 48.4006 14.7003 47.8523C14.5099 47.304 14.4148 46.6307 14.4148 45.8324C14.4176 45.0994 14.5014 44.4446 14.6662 43.8679C14.8338 43.2884 15.0724 42.7969 15.3821 42.3935C15.6946 41.9901 16.0682 41.6832 16.5028 41.473C16.9375 41.2599 17.4247 41.1534 17.9645 41.1534C18.5469 41.1534 19.0611 41.267 19.5071 41.4943C19.9531 41.7187 20.3111 42.0241 20.581 42.4105C20.8537 42.7969 21.0185 43.2301 21.0753 43.7102H19.2557C19.1847 43.4062 19.0355 43.1676 18.8082 42.9943C18.581 42.821 18.2997 42.7344 17.9645 42.7344C17.3963 42.7344 16.9645 42.9815 16.669 43.4759C16.3764 43.9702 16.2273 44.642 16.2216 45.4915H16.2812C16.4119 45.233 16.5881 45.0128 16.8097 44.831C17.0341 44.6463 17.2884 44.5057 17.5724 44.4091C17.8594 44.3097 18.1619 44.2599 18.4801 44.2599C18.9972 44.2599 19.4574 44.3821 19.8608 44.6264C20.2642 44.8679 20.5824 45.2003 20.8153 45.6236C21.0483 46.0469 21.1648 46.5312 21.1648 47.0767C21.1648 47.6676 21.027 48.1932 20.7514 48.6534C20.4787 49.1136 20.0966 49.4744 19.6051 49.7358C19.1165 49.9943 18.5483 50.1222 17.9006 50.1193ZM17.892 48.6705C18.1761 48.6705 18.4304 48.6023 18.6548 48.4659C18.8793 48.3295 19.0554 48.1449 19.1832 47.9119C19.3111 47.679 19.375 47.4176 19.375 47.1278C19.375 46.8381 19.3111 46.5781 19.1832 46.348C19.0582 46.1179 18.8849 45.9347 18.6634 45.7983C18.4418 45.6619 18.1889 45.5938 17.9048 45.5938C17.6918 45.5938 17.4943 45.6335 17.3125 45.7131C17.1335 45.7926 16.9759 45.9034 16.8395 46.0455C16.706 46.1875 16.6009 46.3523 16.5241 46.5398C16.4474 46.7244 16.4091 46.9219 16.4091 47.1321C16.4091 47.4134 16.473 47.6705 16.6009 47.9034C16.7315 48.1364 16.9077 48.3224 17.1293 48.4616C17.3537 48.6009 17.608 48.6705 17.892 48.6705ZM25.8949 50.1918C25.1619 50.1889 24.5313 50.0085 24.0028 49.6506C23.4773 49.2926 23.0724 48.7741 22.7884 48.0952C22.5071 47.4162 22.3679 46.5994 22.3707 45.6449C22.3707 44.6932 22.5114 43.8821 22.7926 43.2116C23.0767 42.5412 23.4815 42.0312 24.0071 41.6818C24.5355 41.3295 25.1648 41.1534 25.8949 41.1534C26.625 41.1534 27.2528 41.3295 27.7784 41.6818C28.3068 42.0341 28.7131 42.5455 28.9972 43.2159C29.2813 43.8835 29.4219 44.6932 29.419 45.6449C29.419 46.6023 29.277 47.4205 28.9929 48.0994C28.7116 48.7784 28.3082 49.2969 27.7827 49.6548C27.2571 50.0128 26.6278 50.1918 25.8949 50.1918ZM25.8949 48.6619C26.3949 48.6619 26.794 48.4105 27.0923 47.9077C27.3906 47.4048 27.5384 46.6506 27.5355 45.6449C27.5355 44.983 27.4673 44.4318 27.331 43.9915C27.1974 43.5511 27.0071 43.2202 26.7599 42.9986C26.5156 42.777 26.2273 42.6662 25.8949 42.6662C25.3977 42.6662 25 42.9148 24.7017 43.4119C24.4034 43.9091 24.2528 44.6534 24.25 45.6449C24.25 46.3153 24.3168 46.875 24.4503 47.3239C24.5866 47.7699 24.7784 48.1051 25.0256 48.3295C25.2727 48.5511 25.5625 48.6619 25.8949 48.6619Z" fill="white"/>
<defs>
<filter id="filter0_d_892_799" x="-0.630859" y="0.369141" width="37.5811" height="37.5811" filterUnits="userSpaceOnUse" color-interpolation-filters="sRGB">
<feFlood flood-opacity="0" result="BackgroundImageFix"/>
<feColorMatrix in="SourceAlpha" type="matrix" values="0 0 0 0 0 0 0 0 0 0 0 0 0 0 0 0 0 0 127 0" result="hardAlpha"/>
<feOffset dy="1"/>
<feGaussianBlur stdDeviation="0.5"/>
<feComposite in2="hardAlpha" operator="out"/>
<feColorMatrix type="matrix" values="0 0 0 0 0 0 0 0 0 0 0 0 0 0 0 0 0 0 0.25 0"/>
<feBlend mode="normal" in2="BackgroundImageFix" result="effect1_dropShadow_892_799"/>
<feBlend mode="normal" in="SourceGraphic" in2="effect1_dropShadow_892_799" result="shape"/>
</filter>
</defs>
</svg>
