<svg width="32" height="49" viewBox="0 0 32 49" fill="none" xmlns="http://www.w3.org/2000/svg">
<path d="M15.7905 0.790527C14.3793 0.790527 13.2358 1.36227 13.2358 2.0679L18.3453 2.0679C18.3453 1.36227 17.2018 0.790527 15.7905 0.790527Z" fill="white"/>
<path d="M23.3592 2.54712L8.22197 2.54712C7.90104 2.54712 7.64386 2.80641 7.64386 3.12523V3.70335C7.64386 4.02216 7.90316 4.28145 8.22197 4.28145L23.3592 4.28145C23.678 4.28145 23.9373 4.02216 23.9373 3.70335V3.12523C23.9373 2.80641 23.678 2.54712 23.3592 2.54712Z" fill="white"/>
<path d="M8.75122 4.76074C8.75122 4.76924 8.75122 4.77774 8.75122 4.78412L10.086 19.8724C10.086 20.3783 10.4962 20.7906 11.0042 20.7906H20.577C21.085 20.7906 21.4952 20.3804 21.4952 19.8724L22.83 4.78412C22.83 4.77562 22.8278 4.76924 22.8278 4.76074L8.75122 4.76074ZM11.4718 12.7374C11.4696 12.5908 11.4888 12.4569 11.5249 12.3357C11.561 12.2146 11.6057 12.1104 11.6588 12.0233C11.7098 11.934 11.7566 11.8681 11.7948 11.8235C11.8331 11.7789 11.8607 11.7512 11.8777 11.7385L11.2486 11.3665L13.2996 11.3028L14.2497 13.0902L13.6567 12.7523C13.6397 12.7714 13.612 12.7991 13.5738 12.8373C13.5355 12.8756 13.493 12.9245 13.442 12.9797C13.3931 13.0371 13.3464 13.0924 13.2996 13.1476C13.2529 13.2029 13.221 13.2496 13.204 13.2858C13.1636 13.3559 13.1445 13.4218 13.1445 13.4792C13.1466 13.5727 13.1806 13.645 13.2486 13.6939C13.3166 13.7427 13.3719 13.7768 13.4123 13.7938L12.7853 13.8001C12.4877 13.8023 12.2178 13.7385 11.9819 13.6088C11.7459 13.4792 11.6035 13.3368 11.5546 13.1859C11.5249 13.1094 11.5036 13.0392 11.4909 12.9755C11.4781 12.9117 11.4718 12.8331 11.4718 12.7374ZM13.2465 16.1445C13.17 16.1445 13.0892 16.1041 13.002 16.0233C12.917 15.9425 12.8341 15.8363 12.7534 15.7087C12.6726 15.5812 12.6003 15.4558 12.5387 15.3368C12.4771 15.2178 12.4091 15.0817 12.3368 14.9287C12.3304 14.9096 12.3155 14.8777 12.2922 14.831C12.2497 14.7502 12.1816 14.6248 12.086 14.4548C11.9904 14.2868 11.899 14.1253 11.8118 13.9744C11.7268 13.8235 11.6567 13.7024 11.6057 13.611C11.5546 13.5217 11.5185 13.4558 11.4951 13.4154C11.5738 13.5685 11.7226 13.6939 11.9478 13.7959C12.171 13.8958 12.4303 13.9468 12.7236 13.9425C13.2337 13.9361 14.1668 13.9298 15.5228 13.917L15.544 16.1232L13.2465 16.1445ZM14.2497 11.324L12.4601 10.3336C12.4771 10.3038 12.5578 10.1699 12.7024 9.93399C12.7321 9.88724 12.8044 9.7661 12.9234 9.57056C13.0424 9.37502 13.1466 9.20073 13.2401 9.04983C13.3336 8.89892 13.408 8.77352 13.4654 8.6715C13.5228 8.5716 13.5632 8.5036 13.5865 8.46747C13.6269 8.39733 13.6886 8.34419 13.7672 8.30806C13.8458 8.27193 13.9606 8.23791 14.1136 8.20816C14.1732 8.20816 14.2518 8.21454 14.3517 8.22729C14.4516 8.24217 14.5727 8.27617 14.7194 8.32931C14.8639 8.38457 15.0084 8.47171 15.153 8.59073C15.2975 8.70975 15.425 8.86704 15.5313 9.06045L15.5589 9.10509C15.5887 9.15185 15.6142 9.19648 15.6397 9.23687L14.2497 11.324ZM15.6206 8.97969C15.5058 8.7799 15.3761 8.62048 15.2274 8.49508C15.0786 8.36969 14.9341 8.28043 14.7874 8.22517C14.6429 8.17203 14.5238 8.13589 14.4261 8.12314C14.3283 8.11038 14.256 8.10189 14.2093 8.10189C14.3368 8.08276 14.5026 8.07214 14.7024 8.06576C14.9022 8.06151 15.2847 8.05726 15.848 8.05088C16.4176 8.04663 16.8363 8.05725 17.102 8.08701C17.3698 8.11676 17.5398 8.19328 17.61 8.31656C17.6227 8.33994 17.6525 8.39732 17.7056 8.48872C17.7566 8.58011 17.8161 8.68 17.8841 8.79052C17.9521 8.90104 18.0074 8.99244 18.0499 9.06258C18.0924 9.13272 18.1222 9.18373 18.1392 9.21986L18.7598 8.85217L17.9054 10.7714L15.7821 10.5971L16.3687 10.2486L15.6206 8.97969ZM19.916 13.5791C19.8586 13.6917 19.7842 13.8278 19.6907 13.9872C19.6333 14.0934 19.593 14.1678 19.5696 14.2082C19.5228 14.3081 19.4739 14.4122 19.4229 14.5185C19.2954 14.7906 19.1934 15.0074 19.1126 15.1668C19.0319 15.3262 18.9426 15.4813 18.8427 15.6301C18.7449 15.7768 18.6429 15.8958 18.5388 15.9851C18.4346 16.0743 18.3262 16.1189 18.2136 16.1211C18.1371 16.1211 17.7885 16.1253 17.1657 16.1296L17.1721 16.8522L16.0818 15.1158L17.1572 13.3942L17.1551 14.0828C18.1711 14.0743 18.6875 14.0679 18.7045 14.0679C18.9043 14.0594 19.0871 14.0148 19.2529 13.934C19.4187 13.8533 19.5611 13.7597 19.678 13.6577C19.7949 13.5536 19.882 13.4664 19.9394 13.392C19.9968 13.3177 20.0393 13.2645 20.0606 13.2284C20.0223 13.3495 19.9734 13.4664 19.916 13.5791ZM19.9925 13.1094C19.9755 13.1455 19.9373 13.2008 19.8756 13.2773C19.8161 13.3538 19.7269 13.4452 19.6142 13.5472C19.5016 13.6513 19.3592 13.7449 19.1891 13.8299C19.0191 13.9128 18.8384 13.9595 18.6429 13.968C18.6387 13.968 18.5834 13.8851 18.4792 13.7236C18.3751 13.56 18.1519 13.2135 17.8097 12.6864C17.4675 12.1593 17.2656 11.8469 17.2061 11.7555L19.0106 10.663C19.0276 10.6928 19.0701 10.7693 19.136 10.8904C19.2019 11.0137 19.2827 11.1625 19.3783 11.3368C19.576 11.7045 19.7205 11.9786 19.8161 12.1572C19.9118 12.3357 19.9819 12.459 20.0223 12.5291C20.0521 12.5823 20.0669 12.6482 20.0669 12.731C20.0691 12.8394 20.0435 12.967 19.9925 13.1094Z" fill="white"/>
<path d="M8.79723 43V41.6705L11.9038 38.794C12.168 38.5384 12.3896 38.3082 12.5685 38.1037C12.7504 37.8991 12.8881 37.6989 12.9819 37.5028C13.0756 37.304 13.1225 37.0895 13.1225 36.8594C13.1225 36.6037 13.0643 36.3835 12.9478 36.1989C12.8313 36.0114 12.6722 35.8679 12.4705 35.7685C12.2688 35.6662 12.0401 35.6151 11.7844 35.6151C11.5174 35.6151 11.2844 35.669 11.0856 35.777C10.8867 35.8849 10.7333 36.0398 10.6254 36.2415C10.5174 36.4432 10.4634 36.6832 10.4634 36.9616H8.712C8.712 36.3906 8.84126 35.8949 9.09979 35.4744C9.35831 35.054 9.72053 34.7287 10.1864 34.4986C10.6523 34.2685 11.1893 34.1534 11.7972 34.1534C12.4222 34.1534 12.9663 34.2642 13.4293 34.4858C13.8952 34.7045 14.2575 35.0085 14.516 35.3977C14.7745 35.7869 14.9038 36.233 14.9038 36.7358C14.9038 37.0653 14.8384 37.3906 14.7077 37.7116C14.5799 38.0327 14.3512 38.3892 14.0217 38.7812C13.6921 39.1705 13.2276 39.6378 12.6282 40.1832L11.354 41.4318V41.4915H15.0188V43H8.79723ZM19.7777 43.1918C19.0447 43.1889 18.4141 43.0085 17.8857 42.6506C17.3601 42.2926 16.9553 41.7741 16.6712 41.0952C16.3899 40.4162 16.2507 39.5994 16.2536 38.6449C16.2536 37.6932 16.3942 36.8821 16.6754 36.2116C16.9595 35.5412 17.3643 35.0312 17.8899 34.6818C18.4183 34.3295 19.0476 34.1534 19.7777 34.1534C20.5078 34.1534 21.1357 34.3295 21.6612 34.6818C22.1896 35.0341 22.5959 35.5455 22.88 36.2159C23.1641 36.8835 23.3047 37.6932 23.3018 38.6449C23.3018 39.6023 23.1598 40.4205 22.8757 41.0994C22.5945 41.7784 22.1911 42.2969 21.6655 42.6548C21.1399 43.0128 20.5107 43.1918 19.7777 43.1918ZM19.7777 41.6619C20.2777 41.6619 20.6768 41.4105 20.9751 40.9077C21.2734 40.4048 21.4212 39.6506 21.4183 38.6449C21.4183 37.983 21.3501 37.4318 21.2138 36.9915C21.0803 36.5511 20.8899 36.2202 20.6428 35.9986C20.3984 35.777 20.1101 35.6662 19.7777 35.6662C19.2805 35.6662 18.8828 35.9148 18.5845 36.4119C18.2862 36.9091 18.1357 37.6534 18.1328 38.6449C18.1328 39.3153 18.1996 39.875 18.3331 40.3239C18.4695 40.7699 18.6612 41.1051 18.9084 41.3295C19.1555 41.5511 19.4453 41.6619 19.7777 41.6619Z" fill="white"/>
</svg>
