<svg width="32" height="48" viewBox="0 0 32 48" fill="none" xmlns="http://www.w3.org/2000/svg">
<path d="M14.4778 1.88235C14.5046 1.88235 14.5315 1.88236 14.5603 1.88427L13.3978 0.207764L13.1063 2.19886C13.5302 1.9917 14.0002 1.88235 14.4778 1.88235Z" fill="white"/>
<path d="M16.8084 2.8434C16.8755 2.91054 16.9369 2.9796 16.9963 3.05057L17.5718 1.13428L15.7994 2.16627C16.1753 2.32357 16.5187 2.55375 16.8084 2.8434Z" fill="white"/>
<path d="M19.4518 4.97812L17.6314 4.27222C17.7024 4.53693 17.7388 4.81123 17.7388 5.08745C17.7388 5.29078 17.7196 5.49219 17.6813 5.68977L19.4518 4.97812Z" fill="white"/>
<path d="M13.4323 8.0497C13.3383 8.01709 13.2443 7.97872 13.1522 7.93652L13.4515 9.8202L14.5065 8.25879C14.1363 8.25111 13.7737 8.18014 13.4323 8.0497Z" fill="white"/>
<path d="M12.0397 3.02591L10.0677 2.89355L11.3952 4.31303C11.5083 3.84115 11.7289 3.39996 12.0397 3.02591Z" fill="white"/>
<path d="M16.8083 7.33011C16.5666 7.57181 16.2904 7.76938 15.9893 7.92092L17.6159 8.84357L17.0558 7.05005C16.981 7.14788 16.8985 7.24187 16.8083 7.33011Z" fill="white"/>
<path d="M11.3838 5.75708L10.0909 7.17272L11.988 7.0231C11.6964 6.65097 11.4893 6.21553 11.3838 5.75708Z" fill="white"/>
<path d="M17.4395 5.01278C17.4395 6.60297 16.1505 7.89201 14.5603 7.89201C12.9701 7.89201 11.681 6.60297 11.681 5.01278C11.681 3.42258 12.9701 2.13354 14.5603 2.13354C16.1505 2.13354 17.4395 3.42258 17.4395 5.01278Z" fill="white"/>
<path d="M19.2099 18.9368V19.7846H24.2931L27.6826 16.3933V15.5454L22.5994 15.5454L19.2099 18.9368Z" fill="white"/>
<path d="M26.4109 11.7324L23.4453 14.6999H28.5305V15.5458L31.496 12.5803V11.7324L26.4109 11.7324Z" fill="white"/>
<path d="M22.1735 14.6999L25.1409 11.7324L20.0558 11.7324L17.0883 14.6999H22.1735Z" fill="white"/>
<path d="M16.2425 15.5454L12.8511 18.9368V19.7846H17.9363V18.9368L21.3258 15.5454L16.2425 15.5454Z" fill="white"/>
<path d="M18.784 11.7324L13.6988 11.7324L10.7333 14.6999H15.8184L18.784 11.7324Z" fill="white"/>
<path d="M9.88742 15.5454L6.49603 18.9368V19.7846H11.5812V18.9368L14.9707 15.5454L9.88742 15.5454Z" fill="white"/>
<path d="M9.8924 36.9162V38.3565H5.91229V36.9162H9.8924ZM14.6779 42.1193C14.0217 42.1193 13.4379 42.0128 12.9265 41.7997C12.418 41.5838 12.0188 41.2898 11.729 40.9176C11.4393 40.5455 11.2944 40.1236 11.2944 39.652C11.2944 39.2884 11.3768 38.9545 11.5415 38.6506C11.7092 38.3438 11.9364 38.0895 12.2234 37.8878C12.5103 37.6832 12.8313 37.5526 13.1864 37.4957V37.4361C12.7205 37.3423 12.3427 37.1165 12.0529 36.7585C11.7631 36.3977 11.6183 35.9787 11.6183 35.5014C11.6183 35.0497 11.7504 34.6477 12.0146 34.2955C12.2788 33.9403 12.641 33.6619 13.1012 33.4602C13.5643 33.2557 14.0898 33.1534 14.6779 33.1534C15.266 33.1534 15.7901 33.2557 16.2504 33.4602C16.7134 33.6648 17.0771 33.9446 17.3413 34.2997C17.6055 34.652 17.739 35.0526 17.7418 35.5014C17.739 35.9815 17.5913 36.4006 17.2987 36.7585C17.006 37.1165 16.631 37.3423 16.1737 37.4361V37.4957C16.5231 37.5526 16.8398 37.6832 17.1239 37.8878C17.4109 38.0895 17.6381 38.3438 17.8058 38.6506C17.9762 38.9545 18.0629 39.2884 18.0657 39.652C18.0629 40.1236 17.9165 40.5455 17.6268 40.9176C17.337 41.2898 16.9364 41.5838 16.4251 41.7997C15.9165 42.0128 15.3342 42.1193 14.6779 42.1193ZM14.6779 40.7642C14.9705 40.7642 15.2262 40.7116 15.445 40.6065C15.6637 40.4986 15.8342 40.3509 15.9563 40.1634C16.0813 39.973 16.1438 39.7543 16.1438 39.5071C16.1438 39.2543 16.0799 39.0312 15.9521 38.8381C15.8242 38.642 15.6509 38.4886 15.4322 38.3778C15.2134 38.2642 14.962 38.2074 14.6779 38.2074C14.3967 38.2074 14.1452 38.2642 13.9237 38.3778C13.7021 38.4886 13.5273 38.642 13.3995 38.8381C13.2745 39.0312 13.212 39.2543 13.212 39.5071C13.212 39.7543 13.2731 39.973 13.3952 40.1634C13.5174 40.3509 13.6893 40.4986 13.9109 40.6065C14.1325 40.7116 14.3881 40.7642 14.6779 40.7642ZM14.6779 36.8651C14.9222 36.8651 15.1396 36.8153 15.3299 36.7159C15.5202 36.6165 15.6694 36.4787 15.7773 36.3026C15.8853 36.1264 15.9393 35.9233 15.9393 35.6932C15.9393 35.4659 15.8853 35.267 15.7773 35.0966C15.6694 34.9233 15.5217 34.7884 15.3342 34.6918C15.1467 34.5923 14.9279 34.5426 14.6779 34.5426C14.4308 34.5426 14.212 34.5923 14.0217 34.6918C13.8313 34.7884 13.6822 34.9233 13.5742 35.0966C13.4691 35.267 13.4165 35.4659 13.4165 35.6932C13.4165 35.9233 13.4705 36.1264 13.5785 36.3026C13.6864 36.4787 13.8356 36.6165 14.0259 36.7159C14.2163 36.8153 14.4336 36.8651 14.6779 36.8651ZM22.7777 42.1918C22.0447 42.1889 21.4141 42.0085 20.8857 41.6506C20.3601 41.2926 19.9553 40.7741 19.6712 40.0952C19.3899 39.4162 19.2507 38.5994 19.2536 37.6449C19.2536 36.6932 19.3942 35.8821 19.6754 35.2116C19.9595 34.5412 20.3643 34.0312 20.8899 33.6818C21.4183 33.3295 22.0476 33.1534 22.7777 33.1534C23.5078 33.1534 24.1357 33.3295 24.6612 33.6818C25.1896 34.0341 25.5959 34.5455 25.88 35.2159C26.1641 35.8835 26.3047 36.6932 26.3018 37.6449C26.3018 38.6023 26.1598 39.4205 25.8757 40.0994C25.5945 40.7784 25.1911 41.2969 24.6655 41.6548C24.1399 42.0128 23.5107 42.1918 22.7777 42.1918ZM22.7777 40.6619C23.2777 40.6619 23.6768 40.4105 23.9751 39.9077C24.2734 39.4048 24.4212 38.6506 24.4183 37.6449C24.4183 36.983 24.3501 36.4318 24.2138 35.9915C24.0803 35.5511 23.8899 35.2202 23.6428 34.9986C23.3984 34.777 23.1101 34.6662 22.7777 34.6662C22.2805 34.6662 21.8828 34.9148 21.5845 35.4119C21.2862 35.9091 21.1357 36.6534 21.1328 37.6449C21.1328 38.3153 21.1996 38.875 21.3331 39.3239C21.4695 39.7699 21.6612 40.1051 21.9084 40.3295C22.1555 40.5511 22.4453 40.6619 22.7777 40.6619Z" fill="white"/>
</svg>
