<svg width="37" height="52" viewBox="0 0 37 52" fill="none" xmlns="http://www.w3.org/2000/svg">
<g filter="url(#filter0_d_893_808)">
<path d="M18.4508 7.79053C17.0395 7.79053 15.8961 8.36227 15.8961 9.0679H21.0056C21.0056 8.36227 19.8621 7.79053 18.4508 7.79053Z" fill="white"/>
<path d="M26.0195 9.54712H10.8823C10.5613 9.54712 10.3041 9.80641 10.3041 10.1252V10.7033C10.3041 11.0222 10.5634 11.2815 10.8823 11.2815H26.0195C26.3383 11.2815 26.5976 11.0222 26.5976 10.7033V10.1252C26.5976 9.80641 26.3383 9.54712 26.0195 9.54712Z" fill="white"/>
<path fill-rule="evenodd" clip-rule="evenodd" d="M11.4114 11.761V11.7844L12.7462 26.8727C12.7462 27.3785 13.1564 27.7909 13.6644 27.7909H23.2372C23.7452 27.7909 24.1554 27.3807 24.1554 26.8727L24.2336 25.9893C23.6318 26.2474 22.9703 26.3904 22.2769 26.3904C19.5269 26.3904 17.2769 24.1404 17.2769 21.3904C17.2769 18.6404 19.5269 16.3904 22.2769 16.3904C23.2837 16.3904 24.2234 16.6919 25.0103 17.2092L25.4902 11.7844C25.4902 11.7801 25.4897 11.7764 25.4891 11.7727C25.4886 11.769 25.4881 11.7652 25.4881 11.761H11.4114Z" fill="white"/>
<path d="M26.2769 21.3901C26.2769 19.1901 24.4769 17.3901 22.2769 17.3901C20.0769 17.3901 18.2769 19.1901 18.2769 21.3901C18.2769 23.5901 20.0769 25.3901 22.2769 25.3901C24.4769 25.3901 26.2769 23.5901 26.2769 21.3901ZM21.9269 23.2401L20.4269 21.6901C20.3269 21.5901 20.2769 21.4901 20.2769 21.3401C20.2769 21.1901 20.3269 21.0901 20.4269 20.9901C20.6269 20.7901 20.9269 20.7901 21.1269 20.9901L21.7769 21.6401L21.7769 19.3901C21.7769 19.0901 21.9769 18.8901 22.2769 18.8901C22.5769 18.8901 22.7769 19.0901 22.7769 19.3901L22.7769 21.6401L23.4269 20.9901C23.6269 20.7901 23.9269 20.7901 24.1269 20.9901C24.3269 21.1901 24.3269 21.4901 24.1269 21.6901L22.6269 23.2401C22.5269 23.3401 22.4269 23.3901 22.2769 23.3901C22.1269 23.3901 22.0269 23.3401 21.9269 23.2401Z" fill="white"/>
</g>
<path d="M9.79279 40.9162V42.3565H5.81268V40.9162H9.79279ZM11.1905 44.4659V43.0128L14.834 37.2727H16.0868V39.2841H15.3453L13.0485 42.919V42.9872H18.226V44.4659H11.1905ZM15.3794 46V44.0227L15.4135 43.3793V37.2727H17.1436V46H15.3794ZM22.8773 46.1918C22.1444 46.1889 21.5137 46.0085 20.9853 45.6506C20.4597 45.2926 20.0549 44.7741 19.7708 44.0952C19.4895 43.4162 19.3503 42.5994 19.3532 41.6449C19.3532 40.6932 19.4938 39.8821 19.775 39.2116C20.0591 38.5412 20.464 38.0312 20.9895 37.6818C21.5179 37.3295 22.1472 37.1534 22.8773 37.1534C23.6074 37.1534 24.2353 37.3295 24.7608 37.6818C25.2892 38.0341 25.6955 38.5455 25.9796 39.2159C26.2637 39.8835 26.4043 40.6932 26.4015 41.6449C26.4015 42.6023 26.2594 43.4205 25.9753 44.0994C25.6941 44.7784 25.2907 45.2969 24.7651 45.6548C24.2395 46.0128 23.6103 46.1918 22.8773 46.1918ZM22.8773 44.6619C23.3773 44.6619 23.7765 44.4105 24.0748 43.9077C24.373 43.4048 24.5208 42.6506 24.5179 41.6449C24.5179 40.983 24.4498 40.4318 24.3134 39.9915C24.1799 39.5511 23.9895 39.2202 23.7424 38.9986C23.498 38.777 23.2097 38.6662 22.8773 38.6662C22.3801 38.6662 21.9824 38.9148 21.6841 39.4119C21.3858 39.9091 21.2353 40.6534 21.2324 41.6449C21.2324 42.3153 21.2992 42.875 21.4327 43.3239C21.5691 43.7699 21.7608 44.1051 22.008 44.3295C22.2551 44.5511 22.5449 44.6619 22.8773 44.6619Z" fill="white"/>
<defs>
<filter id="filter0_d_893_808" x="0" y="0" width="37.5811" height="37.5811" filterUnits="userSpaceOnUse" color-interpolation-filters="sRGB">
<feFlood flood-opacity="0" result="BackgroundImageFix"/>
<feColorMatrix in="SourceAlpha" type="matrix" values="0 0 0 0 0 0 0 0 0 0 0 0 0 0 0 0 0 0 127 0" result="hardAlpha"/>
<feOffset dy="1"/>
<feGaussianBlur stdDeviation="0.5"/>
<feComposite in2="hardAlpha" operator="out"/>
<feColorMatrix type="matrix" values="0 0 0 0 0 0 0 0 0 0 0 0 0 0 0 0 0 0 0.25 0"/>
<feBlend mode="normal" in2="BackgroundImageFix" result="effect1_dropShadow_893_808"/>
<feBlend mode="normal" in="SourceGraphic" in2="effect1_dropShadow_893_808" result="shape"/>
</filter>
</defs>
</svg>
