<svg width="32" height="49" viewBox="0 0 32 49" fill="none" xmlns="http://www.w3.org/2000/svg">
<path d="M13.5378 5.12816C12.2071 4.97437 11.2498 3.76917 11.4036 2.43843C11.5574 1.10769 12.7626 0.150446 14.0933 0.307372C15.4241 0.464299 16.3813 1.66635 16.2275 2.99709C16.0769 4.32469 14.8717 5.28195 13.5378 5.12816Z" fill="white"/>
<path d="M7.52118 13.0905C7.90095 13.5299 8.56318 13.577 8.99943 13.2004L14.4354 8.50827C14.8748 8.1285 14.9218 7.46628 14.5452 7.03002C14.1655 6.59062 13.5064 6.54354 13.067 6.92017L7.63103 11.6123C7.19163 11.9889 7.14456 12.6511 7.52118 13.0905Z" fill="white"/>
<path d="M13.0231 13.9506C13.1204 14.9016 14.1341 15.5073 15.2828 15.3002C16.4315 15.093 17.2852 14.1546 17.1879 13.2036L16.579 7.29692C16.4817 6.34594 15.468 5.74021 14.3193 5.94735C13.1674 6.1545 12.3169 7.09292 12.4142 8.04389L13.0231 13.9506Z" fill="white"/>
<path d="M14.8465 19.1918C14.7995 19.6061 15.2075 19.9922 15.7598 20.0549C16.3122 20.1209 16.7956 19.8353 16.8458 19.421L17.4327 14.3459C17.4798 13.9317 17.0718 13.5456 16.5225 13.4828C15.9701 13.4201 15.4837 13.7026 15.4366 14.1168L14.8465 19.1918Z" fill="white"/>
<path d="M14.1969 17.5443C13.814 17.9806 13.8548 18.6428 14.2848 19.0226L18.3711 22.5974C18.8042 22.9772 19.4665 22.9269 19.8494 22.4907C20.2323 22.0513 20.1915 21.3922 19.6046 20.6923L15.5182 17.1175C15.2389 17.0579 14.5798 17.1049 14.1969 17.5443Z" fill="white"/>
<path d="M14.1152 17.7829C13.5346 17.7672 13.0513 18.2191 13.0324 18.7935L12.8849 24.2231C12.8692 24.7975 13.3274 25.2746 13.9112 25.2902C14.4918 25.3059 14.9783 24.854 14.994 24.2796L15.1415 18.8531C15.1572 18.2756 14.6958 17.7986 14.1152 17.7829Z" fill="white"/>
<path d="M13.0105 13.0027L10.4997 19.1166L20.3139 18.4732L17.1314 13.2349" fill="white"/>
<path d="M16.1145 1.48436C18.8858 -1.82366 19.0365 5.42008 20.0628 6.11683C16.4597 6.90147 18.9894 1.28349 15.7128 1.68522" fill="white"/>
<path d="M4.31161 41.4659V40.0128L7.95508 34.2727H9.20792V36.2841H8.46644L6.16957 39.919V39.9872H11.3471V41.4659H4.31161ZM8.50053 43V41.0227L8.53462 40.3793V34.2727H10.2647V43H8.50053ZM12.4444 41.4659V40.0128L16.0879 34.2727H17.3407V36.2841H16.5993L14.3024 39.919V39.9872H19.4799V41.4659H12.4444ZM16.6333 43V41.0227L16.6674 40.3793V34.2727H18.3976V43H16.6333ZM24.1312 43.1918C23.3983 43.1889 22.7676 43.0085 22.2392 42.6506C21.7136 42.2926 21.3088 41.7741 21.0247 41.0952C20.7434 40.4162 20.6042 39.5994 20.6071 38.6449C20.6071 37.6932 20.7477 36.8821 21.0289 36.2116C21.313 35.5412 21.7179 35.0312 22.2434 34.6818C22.7718 34.3295 23.4011 34.1534 24.1312 34.1534C24.8613 34.1534 25.4892 34.3295 26.0147 34.6818C26.5431 35.0341 26.9494 35.5455 27.2335 36.2159C27.5176 36.8835 27.6582 37.6932 27.6554 38.6449C27.6554 39.6023 27.5133 40.4205 27.2292 41.0994C26.948 41.7784 26.5446 42.2969 26.019 42.6548C25.4934 43.0128 24.8642 43.1918 24.1312 43.1918ZM24.1312 41.6619C24.6312 41.6619 25.0304 41.4105 25.3287 40.9077C25.627 40.4048 25.7747 39.6506 25.7718 38.6449C25.7718 37.983 25.7037 37.4318 25.5673 36.9915C25.4338 36.5511 25.2434 36.2202 24.9963 35.9986C24.752 35.777 24.4636 35.6662 24.1312 35.6662C23.6341 35.6662 23.2363 35.9148 22.938 36.4119C22.6397 36.9091 22.4892 37.6534 22.4863 38.6449C22.4863 39.3153 22.5531 39.875 22.6866 40.3239C22.823 40.7699 23.0147 41.1051 23.2619 41.3295C23.5091 41.5511 23.7988 41.6619 24.1312 41.6619Z" fill="white"/>
</svg>
