<svg width="36" height="49" viewBox="0 0 36 49" fill="none" xmlns="http://www.w3.org/2000/svg">
<g filter="url(#filter0_d_892_797)">
<path d="M9.20487 13.1369C10.3607 13.1369 11.367 12.7439 11.9912 12.0789C12.6154 12.7439 13.6217 13.1369 14.7775 13.1369C15.9334 13.1369 16.9397 12.7439 17.5639 12.0789C18.188 12.7439 19.1943 13.1369 20.3502 13.1369C21.5061 13.1369 22.5123 12.7439 23.1365 12.0789C23.7607 12.7439 24.767 13.1369 25.9228 13.1369C27.3888 13.1369 28.6153 12.5046 29.1253 11.4874C29.2395 11.2576 29.147 10.9788 28.9172 10.8646C28.6888 10.7504 28.4086 10.8428 28.2944 11.0727C27.949 11.7635 27.0175 12.2095 25.9228 12.2095C24.8282 12.2095 23.898 11.7635 23.5526 11.0727C23.3949 10.7585 22.8795 10.7585 22.7218 11.0727C22.3764 11.7635 21.4462 12.2095 20.3502 12.2095C19.2541 12.2095 18.324 11.7635 17.9786 11.0727C17.8209 10.7585 17.3055 10.7585 17.1477 11.0727C16.8023 11.7635 15.8722 12.2095 14.7762 12.2095C13.6801 12.2095 12.75 11.7635 12.4046 11.0727C12.2469 10.7585 11.7315 10.7585 11.5737 11.0727C11.2283 11.7635 10.2982 12.2095 9.20351 12.2095C8.10883 12.2095 7.17733 11.7635 6.83193 11.0727C6.71771 10.8428 6.43758 10.7504 6.20912 10.8646C5.97931 10.9788 5.88684 11.2576 6.00107 11.4874C6.51101 12.5046 7.73759 13.1369 9.20487 13.1369Z" fill="white"/>
<path d="M28.9172 15.0435C28.6888 14.9293 28.4086 15.0218 28.2944 15.2516C27.949 15.9424 27.0175 16.3884 25.9228 16.3884C24.8282 16.3884 23.898 15.9424 23.5526 15.2516C23.3949 14.9375 22.8795 14.9375 22.7218 15.2516C22.3764 15.9424 21.4462 16.3884 20.3502 16.3884C19.2541 16.3884 18.324 15.9424 17.9786 15.2516C17.8209 14.9375 17.3055 14.9375 17.1477 15.2516C16.8023 15.9424 15.8722 16.3884 14.7762 16.3884C13.6801 16.3884 12.75 15.9424 12.4046 15.2516C12.2469 14.9375 11.7315 14.9375 11.5737 15.2516C11.2283 15.9424 10.2982 16.3884 9.20351 16.3884C8.10883 16.3884 7.17733 15.9424 6.83193 15.2516C6.71771 15.0218 6.43758 14.9307 6.20912 15.0435C5.97931 15.1578 5.88684 15.4365 6.00107 15.6664C6.50965 16.6835 7.73759 17.3159 9.20351 17.3159C10.3594 17.3159 11.3657 16.9229 11.9898 16.2579C12.614 16.9229 13.6203 17.3159 14.7762 17.3159C15.932 17.3159 16.9383 16.9229 17.5625 16.2579C18.1867 16.9229 19.193 17.3159 20.3488 17.3159C21.5047 17.3159 22.511 16.9229 23.1351 16.2579C23.7593 16.9229 24.7656 17.3159 25.9215 17.3159C27.3874 17.3159 28.614 16.6835 29.1239 15.6664C29.2395 15.4365 29.1457 15.1578 28.9172 15.0435Z" fill="white"/>
<path d="M15.4947 12.2462C15.598 11.7257 16.0851 12.2822 16.3588 10.9233C17.6725 10.3388 16.1463 11.0174 15.5273 10.825C16.7298 9.60189 17.6705 9.34621 19.4905 8.26427C21.3107 7.18259 21.9209 5.06326 21.9209 5.06326C21.9209 5.06326 22.4553 6.37087 22.4649 6.43639C22.4745 6.50192 21.2127 9.51179 21.1167 9.67715C21.0206 9.84289 19.5368 10.8174 19.4094 10.8896C19.2819 10.9618 15.4947 12.2462 15.4947 12.2462C15.6098 12.2117 15.386 12.3556 15.4947 12.2462Z" fill="white"/>
<path d="M19.9875 12.8445C17.2694 11.6124 16.894 11.5094 15.4947 12.2462C15.4979 11.277 14.9647 9.3988 16.0112 8.19191C17.0577 6.98501 17.121 8.14765 17.0825 8.73693C17.044 9.32621 17.35 9.42199 17.3962 10.2573C17.4429 11.0927 17.3702 11.0824 17.3702 11.0824C17.3702 11.0824 18.2806 10.803 19.4585 9.7796C20.6367 8.75603 21.7595 7.06566 21.921 5.06354C21.9321 4.65192 22.0067 4.58294 21.3852 4.24852C20.7635 3.91384 20.0076 3.45192 19.7026 2.69231C19.3975 1.93271 19.5942 1.96634 20.1183 2.06113C20.6425 2.15592 21.6081 1.93459 22.0528 2.50654C22.4337 1.74461 22.7156 1.25095 23.3035 0.821683C23.8912 0.392546 24.0878 0.441748 24.2086 1.08352C24.3294 1.72528 24.2918 2.6421 23.8178 3.46686C23.3437 4.29163 23.5721 4.60562 23.7954 5.1101C24.0184 5.61445 24.2418 7.11029 23.9802 9.02214C23.8392 10.0524 23.5788 11.0418 22.999 12.0291C22.2974 11.3829 20.8636 12.7698 19.9875 12.8445Z" fill="white"/>
<path d="M8.32995 8.2505C8.35458 8.28442 8.34519 8.3334 8.3089 8.35981L7.71709 8.78849C7.6808 8.81491 7.6314 8.80843 7.60677 8.77451L7.47285 8.58958C7.44804 8.55543 7.45761 8.50669 7.49391 8.48027L8.08571 8.05159C8.12201 8.02518 8.1714 8.03165 8.19604 8.06557L8.32995 8.2505Z" fill="white"/>
<path fill-rule="evenodd" clip-rule="evenodd" d="M10.2477 9.55116L10.294 9.61412C10.3521 9.69426 10.3713 9.79577 10.3572 9.90949L11.6079 11.6713C11.6151 11.673 11.6224 11.6749 11.6294 11.6767C11.6414 11.6819 11.6526 11.6879 11.6636 11.6942C11.7344 11.7188 11.7972 11.7546 11.8376 11.8102C11.8537 11.8326 11.8668 11.8566 11.877 11.8821L12.4441 12.841C12.531 12.9899 12.5255 13.1696 12.5255 13.1696L12.5212 13.1987L12.4963 13.3708C12.4774 13.5008 12.4089 13.5323 12.3628 13.5382C12.3375 13.5416 12.319 13.5372 12.319 13.5372L12.1034 13.511C12.0344 13.5047 12.0178 13.5182 12.0227 13.5391C12.0269 13.5586 12.0328 13.7506 12.0368 13.8905C12.0381 13.9319 12.0243 13.9671 12.0046 13.9963C11.9576 14.066 11.8759 14.1011 11.8759 14.1011C11.8759 14.1011 11.8212 14.1406 11.6698 14.2108C11.6635 14.2137 11.6572 14.2162 11.6511 14.2185C11.5052 14.2731 11.3529 14.1821 11.3529 14.1821C11.3529 14.1821 11.2974 14.1586 11.2475 14.1187C11.1979 14.0786 11.1763 14.1308 11.1763 14.1308C11.1628 14.191 11.1078 14.2307 11.1078 14.2307L11.0815 14.2496L11.0701 14.2577C10.9606 14.3371 10.6414 14.0361 10.6414 14.0361L9.96184 13.2652C9.94159 13.2481 9.92496 13.2279 9.90917 13.2063C9.90757 13.2041 9.9068 13.2013 9.90603 13.1986C9.90526 13.1958 9.90449 13.193 9.90289 13.1909C9.86532 13.1333 9.84554 13.0656 9.84706 12.9888L8.55163 11.2003C8.44446 11.1792 8.36045 11.1299 8.30554 11.054L8.25728 10.9925C8.25728 10.9925 7.81949 10.4625 7.73317 9.98983C7.67993 9.69832 7.73439 9.44544 7.77082 9.27629C7.79346 9.17119 7.80913 9.09842 7.78768 9.0688C7.75641 9.06026 7.73164 9.04501 7.7152 9.02204C7.71295 9.01903 7.71137 9.0157 7.70977 9.01231L7.70766 9.008C7.70536 9.00555 7.70353 9.00274 7.70169 8.99994L7.69829 8.99497C7.67668 8.9651 7.67149 8.92592 7.68332 8.8792L7.55261 8.69856C7.58241 8.73937 7.68683 8.71767 7.81729 8.64939C7.8611 8.60176 7.91115 8.55652 7.97113 8.51313C8.02992 8.47063 8.08947 8.43609 8.14723 8.40959C8.24996 8.30822 8.30333 8.21631 8.27431 8.17603L8.39991 8.34935C8.45687 8.34906 8.49293 8.36997 8.51667 8.4027C8.5197 8.40674 8.52243 8.41138 8.52492 8.4162C8.52884 8.41995 8.53228 8.42406 8.53549 8.42834C8.55318 8.45298 8.55974 8.48408 8.55637 8.51927C8.57858 8.54764 8.65226 8.55369 8.75793 8.56235C8.93308 8.57672 9.1961 8.5983 9.45824 8.74069C9.88075 8.96995 10.2477 9.55116 10.2477 9.55116ZM9.90284 13.1293L9.90444 13.1315C9.8972 13.1213 9.89062 13.111 9.88433 13.1001C9.89008 13.1103 9.89613 13.1199 9.90284 13.1293ZM10.3269 10.7468C10.3273 10.7443 10.3274 10.7418 10.3273 10.7394C10.3279 10.699 10.3011 10.6626 10.2602 10.6546L10.2325 10.6493L10.1305 10.6294C10.0833 10.6202 10.0406 10.6449 10.0329 10.6942L10.0251 10.7435L9.96437 11.1314L9.5599 11.0745C9.55606 11.074 9.55213 11.0733 9.54815 11.0727C9.5249 11.069 9.49984 11.065 9.47924 11.0761C9.45082 11.0915 9.43863 11.1161 9.43539 11.1475L9.42892 11.2101L9.42287 11.2687C9.41907 11.3055 9.43197 11.3378 9.46518 11.3575C9.48031 11.3665 9.50035 11.3686 9.51862 11.3707C9.52351 11.3712 9.52827 11.3717 9.53278 11.3723L9.91809 11.4266L9.85563 11.8253C9.84992 11.8618 9.84537 11.9044 9.88277 11.9292C9.9017 11.9418 9.92009 11.9453 9.94124 11.9495L10.0081 11.9625L10.055 11.9716C10.0981 11.98 10.1384 11.9504 10.1451 11.9077L10.1532 11.8561L10.2139 11.4682L10.6184 11.5251C10.6222 11.5256 10.6262 11.5263 10.6301 11.5269C10.6534 11.5306 10.6784 11.5346 10.699 11.5235C10.7275 11.5081 10.7396 11.4835 10.7429 11.4521L10.7493 11.3895L10.7554 11.3309C10.7592 11.2941 10.7463 11.2618 10.7131 11.2421C10.698 11.2332 10.6779 11.231 10.6596 11.2289C10.6548 11.2284 10.65 11.2279 10.6455 11.2273L10.2602 11.173L10.3262 10.7512L10.3269 10.7468Z" fill="white"/>
<path d="M13.1327 46.0439C12.5247 46.0439 11.9447 45.9679 11.3927 45.8159C10.8407 45.6639 10.3527 45.4359 9.92865 45.1319C9.50465 44.8279 9.16865 44.4519 8.92065 44.0039C8.68065 43.5559 8.56065 43.0399 8.56065 42.4559C8.56065 41.9119 8.65265 41.4079 8.83665 40.9439C9.02865 40.4799 9.28865 40.0599 9.61665 39.6839C9.95265 39.3079 10.3447 38.9719 10.7927 38.6759C11.2407 38.3799 11.7247 38.1279 12.2447 37.9199C12.7727 37.7119 13.3167 37.5479 13.8767 37.4279L13.9007 37.6439C13.7087 37.5879 13.4927 37.5239 13.2527 37.4519C13.0207 37.3799 12.7607 37.3119 12.4727 37.2479C12.1927 37.1839 11.8847 37.1319 11.5487 37.0919C11.2207 37.0439 10.8647 37.0199 10.4807 37.0199C10.1927 37.0199 9.92065 37.0399 9.66465 37.0799C9.41665 37.1119 9.19665 37.1519 9.00465 37.1999L8.75265 35.5679C8.98465 35.4959 9.23265 35.4359 9.49665 35.3879C9.76865 35.3399 10.0487 35.3159 10.3367 35.3159C10.8167 35.3159 11.2567 35.3559 11.6567 35.4359C12.0567 35.5079 12.4247 35.5999 12.7607 35.7119C13.1047 35.8239 13.4287 35.9399 13.7327 36.0599C14.0367 36.1719 14.3327 36.2679 14.6207 36.3479C14.9167 36.4199 15.2167 36.4559 15.5207 36.4559H16.0007L16.1567 38.2559C15.8527 38.2559 15.4967 38.2959 15.0887 38.3759C14.6807 38.4559 14.2527 38.5719 13.8047 38.7239C13.3647 38.8759 12.9327 39.0639 12.5087 39.2879C12.0927 39.5119 11.7127 39.7719 11.3687 40.0679C11.0247 40.3639 10.7487 40.6919 10.5407 41.0519C10.3407 41.4119 10.2407 41.8039 10.2407 42.2279C10.2407 42.6119 10.3247 42.9399 10.4927 43.2119C10.6607 43.4839 10.8887 43.7039 11.1767 43.8719C11.4647 44.0399 11.7887 44.1639 12.1487 44.2439C12.5167 44.3239 12.8967 44.3639 13.2887 44.3639C13.7287 44.3639 14.1727 44.3159 14.6207 44.2199C15.0767 44.1239 15.5327 43.9879 15.9887 43.8119L16.4807 45.2759C15.8967 45.5479 15.3167 45.7439 14.7407 45.8639C14.1647 45.9839 13.6287 46.0439 13.1327 46.0439ZM13.5527 43.1519C13.3767 43.1519 13.2247 43.0919 13.0967 42.9719C12.9767 42.8519 12.9167 42.7039 12.9167 42.5279C12.9167 42.3439 12.9767 42.1879 13.0967 42.0599C13.2247 41.9399 13.3767 41.8799 13.5527 41.8799C13.7287 41.8799 13.8767 41.9399 13.9967 42.0599C14.1247 42.1879 14.1887 42.3439 14.1887 42.5279C14.1887 42.7039 14.1247 42.8519 13.9967 42.9719C13.8767 43.0919 13.7287 43.1519 13.5527 43.1519ZM12.7007 41.7479C12.5247 41.7479 12.3727 41.6879 12.2447 41.5679C12.1247 41.4479 12.0647 41.2999 12.0647 41.1239C12.0647 40.9399 12.1247 40.7879 12.2447 40.6679C12.3727 40.5399 12.5247 40.4759 12.7007 40.4759C12.8767 40.4759 13.0247 40.5399 13.1447 40.6679C13.2727 40.7879 13.3367 40.9399 13.3367 41.1239C13.3367 41.2999 13.2727 41.4479 13.1447 41.5679C13.0247 41.6879 12.8767 41.7479 12.7007 41.7479ZM14.3927 41.7479C14.2167 41.7479 14.0647 41.6879 13.9367 41.5679C13.8167 41.4479 13.7567 41.2999 13.7567 41.1239C13.7567 40.9399 13.8167 40.7879 13.9367 40.6679C14.0647 40.5399 14.2167 40.4759 14.3927 40.4759C14.5687 40.4759 14.7167 40.5399 14.8367 40.6679C14.9647 40.7879 15.0287 40.9399 15.0287 41.1239C15.0287 41.2999 14.9647 41.4479 14.8367 41.5679C14.7167 41.6879 14.5687 41.7479 14.3927 41.7479ZM17.2909 44.0759L16.9429 42.3959C17.5109 42.3239 18.0069 42.2359 18.4309 42.1319C18.8549 42.0359 19.2109 41.8999 19.4989 41.7239C19.7869 41.5479 20.0029 41.3079 20.1469 41.0039C20.2909 40.6919 20.3629 40.2919 20.3629 39.8039C20.3629 39.3319 20.2909 38.9559 20.1469 38.6759C20.0029 38.3959 19.8109 38.2559 19.5709 38.2559C19.4029 38.2559 19.2629 38.3159 19.1509 38.4359C19.0389 38.5479 18.9549 38.6839 18.8989 38.8439C18.8509 38.9959 18.8269 39.1319 18.8269 39.2519C18.8269 39.3239 18.8469 39.3999 18.8869 39.4799C18.9269 39.5599 19.0149 39.6279 19.1509 39.6839C19.2869 39.7399 19.4989 39.7719 19.7869 39.7799C20.0829 39.7879 20.4829 39.7599 20.9869 39.6959H23.0029C23.3069 39.6959 23.5229 39.7759 23.6509 39.9359C23.7869 40.0879 23.8549 40.2799 23.8549 40.5119C23.8549 40.7599 23.7709 40.9679 23.6029 41.1359C23.4349 41.2959 23.1949 41.3759 22.8829 41.3759H19.5829C19.0789 41.3759 18.6469 41.3159 18.2869 41.1959C17.9269 41.0759 17.6509 40.8839 17.4589 40.6199C17.2669 40.3479 17.1709 39.9879 17.1709 39.5399C17.1709 39.1799 17.2309 38.8199 17.3509 38.4599C17.4789 38.0999 17.6549 37.7719 17.8789 37.4759C18.1029 37.1719 18.3629 36.9319 18.6589 36.7559C18.9629 36.5719 19.2909 36.4799 19.6429 36.4799C20.1229 36.4799 20.5429 36.6279 20.9029 36.9239C21.2629 37.2199 21.5429 37.6119 21.7429 38.0999C21.9509 38.5879 22.0549 39.1199 22.0549 39.6959C22.0549 40.5999 21.8629 41.3679 21.4789 41.9999C21.0949 42.6319 20.5469 43.1199 19.8349 43.4639C19.1229 43.8159 18.2749 44.0199 17.2909 44.0759ZM22.8999 41.3759L23.0199 39.6959C23.4999 39.6959 23.8679 39.6719 24.1239 39.6239C24.3799 39.5759 24.5559 39.4879 24.6519 39.3599C24.7559 39.2239 24.8079 39.0319 24.8079 38.7839C24.8079 38.5599 24.7759 38.2919 24.7119 37.9799C24.6559 37.6679 24.5799 37.3439 24.4839 37.0079C24.3959 36.6719 24.2999 36.3639 24.1959 36.0839L25.8519 35.6279C25.9559 35.8999 26.0559 36.2159 26.1519 36.5759C26.2479 36.9359 26.3279 37.3079 26.3919 37.6919C26.4559 38.0679 26.4879 38.4319 26.4879 38.7839C26.4879 39.3279 26.3999 39.7719 26.2239 40.1159C26.0479 40.4519 25.7999 40.7119 25.4799 40.8959C25.1679 41.0799 24.7919 41.2079 24.3519 41.2799C23.9119 41.3439 23.4279 41.3759 22.8999 41.3759ZM24.7119 45.3719C24.5119 45.3719 24.3439 45.3039 24.2079 45.1679C24.0799 45.0319 24.0159 44.8679 24.0159 44.6759C24.0159 44.4759 24.0799 44.3039 24.2079 44.1599C24.3439 44.0159 24.5119 43.9439 24.7119 43.9439C24.9039 43.9439 25.0679 44.0159 25.2039 44.1599C25.3399 44.3039 25.4079 44.4759 25.4079 44.6759C25.4079 44.8679 25.3399 45.0319 25.2039 45.1679C25.0679 45.3039 24.9039 45.3719 24.7119 45.3719ZM25.6359 43.8239C25.4359 43.8239 25.2679 43.7559 25.1319 43.6199C25.0039 43.4839 24.9399 43.3199 24.9399 43.1279C24.9399 42.9279 25.0039 42.7559 25.1319 42.6119C25.2679 42.4679 25.4359 42.3959 25.6359 42.3959C25.8279 42.3959 25.9919 42.4679 26.1279 42.6119C26.2639 42.7559 26.3319 42.9279 26.3319 43.1279C26.3319 43.3199 26.2639 43.4839 26.1279 43.6199C25.9919 43.7559 25.8279 43.8239 25.6359 43.8239ZM23.8359 43.8239C23.6359 43.8239 23.4679 43.7559 23.3319 43.6199C23.1959 43.4839 23.1279 43.3199 23.1279 43.1279C23.1279 42.9279 23.1959 42.7559 23.3319 42.6119C23.4679 42.4679 23.6359 42.3959 23.8359 42.3959C24.0199 42.3959 24.1799 42.4679 24.3159 42.6119C24.4599 42.7559 24.5319 42.9279 24.5319 43.1279C24.5319 43.3199 24.4599 43.4839 24.3159 43.6199C24.1799 43.7559 24.0199 43.8239 23.8359 43.8239Z" fill="white"/>
</g>
<defs>
<filter id="filter0_d_892_797" x="-1" y="0.54248" width="37.5811" height="47.5015" filterUnits="userSpaceOnUse" color-interpolation-filters="sRGB">
<feFlood flood-opacity="0" result="BackgroundImageFix"/>
<feColorMatrix in="SourceAlpha" type="matrix" values="0 0 0 0 0 0 0 0 0 0 0 0 0 0 0 0 0 0 127 0" result="hardAlpha"/>
<feOffset dy="1"/>
<feGaussianBlur stdDeviation="0.5"/>
<feComposite in2="hardAlpha" operator="out"/>
<feColorMatrix type="matrix" values="0 0 0 0 0 0 0 0 0 0 0 0 0 0 0 0 0 0 0.25 0"/>
<feBlend mode="normal" in2="BackgroundImageFix" result="effect1_dropShadow_892_797"/>
<feBlend mode="normal" in="SourceGraphic" in2="effect1_dropShadow_892_797" result="shape"/>
</filter>
</defs>
</svg>
