<svg width="36" height="50" viewBox="0 0 36 50" fill="none" xmlns="http://www.w3.org/2000/svg">
<path d="M25.2048 27.155L10.5695 27.155V28.2072L25.2048 28.2072V27.155Z" fill="white"/>
<path d="M6.36989 11.4643L5.29053 12.0723L7.57248 16.1233L8.65184 15.5153L6.36989 11.4643Z" fill="white"/>
<path d="M29.2813 11.671L26.5684 15.4468L27.5776 16.1719L30.2906 12.3961L29.2813 11.671Z" fill="white"/>
<path d="M21.3812 7.78693C21.3812 9.72453 19.9717 11.2929 18.2366 11.2929C16.5015 11.2929 15.0919 9.72453 15.0919 7.78693C15.0919 7.71149 15.0959 7.63605 15.1039 7.55664H14.4646C14.4606 7.63208 14.4527 7.70752 14.4527 7.78693C14.4527 10.1136 16.1481 12.0036 18.2366 12.0036C20.3251 12.0036 22.0205 10.1176 22.0205 7.78693C22.0205 7.71149 22.0125 7.63605 22.0086 7.55664H21.3693C21.3773 7.63605 21.3812 7.71149 21.3812 7.78693Z" fill="white"/>
<path fill-rule="evenodd" clip-rule="evenodd" d="M23.839 7.37402H22.2468C22.3143 7.67181 22.354 7.98548 22.354 8.30312C22.354 10.6338 20.4799 12.5198 18.1691 12.5198C15.8583 12.5198 13.9842 10.6298 13.9842 8.30312C13.9842 8.06886 14.008 7.84254 14.0438 7.6202H11.6892L6.66656 11.0309L9.33474 15.3111L10.7006 14.8783L10.7006 26.7858L25.1492 26.7858L25.1492 14.6281L26.0783 15.5572L29.1793 10.9673L23.839 7.37402ZM17.0962 19.2077L15.3823 18.1918L16.2968 16.7825C16.9093 16.2202 17.656 16.9749 18.0081 17.7226L17.0962 19.2077ZM20.0161 19.0484L18.201 19.0328L18.7054 18.7063L18.0349 17.4728C17.7866 17.015 17.4933 16.6616 17.0261 16.5223L19.2159 16.5066C19.5334 16.4944 19.8916 16.7425 20.0136 17.0219L20.4107 17.7523L20.9817 17.4546L20.0161 19.0484ZM19.4815 20.1252L21.1824 19.0867L21.9446 20.5875C22.1289 21.4075 21.1201 21.7086 20.3103 21.6599L19.4815 20.1252ZM18.2002 22.8107L19.0948 21.1968L19.1294 21.8061H20.5102C21.0224 21.8061 21.467 21.7156 21.8131 21.3657L20.7637 23.3295C20.6192 23.6193 20.2333 23.8187 19.9348 23.7926H19.1173L19.0948 24.4472L18.2002 22.8107ZM14.1486 21.3422L15.2889 23.4488C15.5182 23.7412 15.9499 23.8109 16.398 23.7996L17.6006 23.7996L17.6006 21.8044L15.32 21.7887C14.9662 21.8105 14.5025 21.7356 14.1486 21.3422ZM14.6011 19.5385L14.0699 19.1233L15.9447 19.1068L16.8661 20.8147L16.3349 20.5274L15.6324 21.6765C15.2413 21.6817 14.8234 21.6643 14.5544 21.5172C14.2801 21.3674 13.851 20.9374 14.101 20.4961L14.6011 19.5385Z" fill="white"/>
<path d="M6.79279 38.9162V40.3565H2.81268V38.9162H6.79279ZM12.1195 35.2727V44H10.2743V37.0241H10.2232L8.22461 38.277V36.6406L10.3851 35.2727H12.1195ZM17.6156 44.1918C16.8826 44.1889 16.252 44.0085 15.7235 43.6506C15.198 43.2926 14.7931 42.7741 14.5091 42.0952C14.2278 41.4162 14.0886 40.5994 14.0914 39.6449C14.0914 38.6932 14.2321 37.8821 14.5133 37.2116C14.7974 36.5412 15.2022 36.0312 15.7278 35.6818C16.2562 35.3295 16.8855 35.1534 17.6156 35.1534C18.3457 35.1534 18.9735 35.3295 19.4991 35.6818C20.0275 36.0341 20.4338 36.5455 20.7179 37.2159C21.002 37.8835 21.1426 38.6932 21.1397 39.6449C21.1397 40.6023 20.9977 41.4205 20.7136 42.0994C20.4324 42.7784 20.0289 43.2969 19.5034 43.6548C18.9778 44.0128 18.3485 44.1918 17.6156 44.1918ZM17.6156 42.6619C18.1156 42.6619 18.5147 42.4105 18.813 41.9077C19.1113 41.4048 19.2591 40.6506 19.2562 39.6449C19.2562 38.983 19.188 38.4318 19.0517 37.9915C18.9181 37.5511 18.7278 37.2202 18.4806 36.9986C18.2363 36.777 17.948 36.6662 17.6156 36.6662C17.1184 36.6662 16.7207 36.9148 16.4224 37.4119C16.1241 37.9091 15.9735 38.6534 15.9707 39.6449C15.9707 40.3153 16.0375 40.875 16.171 41.3239C16.3074 41.7699 16.4991 42.1051 16.7463 42.3295C16.9934 42.5511 17.2832 42.6619 17.6156 42.6619ZM25.8773 44.1918C25.1444 44.1889 24.5137 44.0085 23.9853 43.6506C23.4597 43.2926 23.0549 42.7741 22.7708 42.0952C22.4895 41.4162 22.3503 40.5994 22.3532 39.6449C22.3532 38.6932 22.4938 37.8821 22.775 37.2116C23.0591 36.5412 23.464 36.0312 23.9895 35.6818C24.5179 35.3295 25.1472 35.1534 25.8773 35.1534C26.6074 35.1534 27.2353 35.3295 27.7608 35.6818C28.2892 36.0341 28.6955 36.5455 28.9796 37.2159C29.2637 37.8835 29.4043 38.6932 29.4015 39.6449C29.4015 40.6023 29.2594 41.4205 28.9753 42.0994C28.6941 42.7784 28.2907 43.2969 27.7651 43.6548C27.2395 44.0128 26.6103 44.1918 25.8773 44.1918ZM25.8773 42.6619C26.3773 42.6619 26.7765 42.4105 27.0748 41.9077C27.373 41.4048 27.5208 40.6506 27.5179 39.6449C27.5179 38.983 27.4498 38.4318 27.3134 37.9915C27.1799 37.5511 26.9895 37.2202 26.7424 36.9986C26.498 36.777 26.2097 36.6662 25.8773 36.6662C25.3801 36.6662 24.9824 36.9148 24.6841 37.4119C24.3858 37.9091 24.2353 38.6534 24.2324 39.6449C24.2324 40.3153 24.2992 40.875 24.4327 41.3239C24.5691 41.7699 24.7608 42.1051 25.008 42.3295C25.2551 42.5511 25.5449 42.6619 25.8773 42.6619Z" fill="white"/>
</svg>
