<svg width="15" height="16" viewBox="0 0 15 16" fill="none" xmlns="http://www.w3.org/2000/svg">
<path d="M14.9276 8.3504C14.9276 4.23594 11.5921 0.90051 7.47759 0.90051C3.36307 0.900511 0.0275874 4.23594 0.0275876 8.3504C0.0275877 12.4649 3.36307 15.8003 7.47759 15.8003C11.5921 15.8003 14.9276 12.4649 14.9276 8.3504Z" fill="black"/>
<path d="M7.47774 15.6368C11.502 15.6368 14.7644 12.3744 14.7644 8.35011C14.7644 4.32582 11.502 1.06348 7.47774 1.06348C3.45344 1.06348 0.191101 4.32582 0.191101 8.35011C0.191101 12.3744 3.45344 15.6368 7.47774 15.6368Z" fill="url(#paint0_radial_687_55169)"/>
<path d="M13.6366 8.34947C13.6366 4.94804 10.8791 2.19064 7.47765 2.19064C4.07617 2.19064 1.31873 4.94804 1.31873 8.34947C1.31873 11.7509 4.07617 14.5083 7.47765 14.5083C10.8791 14.5083 13.6366 11.7509 13.6366 8.34947Z" fill="white"/>
<path d="M7.47765 2.54064C10.6858 2.54064 13.2866 5.14134 13.2866 8.34947C13.2866 11.5576 10.6858 14.1583 7.47765 14.1583C4.26946 14.1583 1.66873 11.5576 1.66873 8.34947C1.66873 5.14134 4.26946 2.54064 7.47765 2.54064Z" stroke="#5B5B5B" stroke-opacity="0.38" stroke-width="0.7"/>
<path d="M7.5 2.9999C10.4823 2.9999 12.9 5.41756 12.9 8.3999C12.9 11.3822 10.4823 13.7999 7.5 13.7999C4.51766 13.7999 2.1 11.3822 2.1 8.3999C2.1 5.41756 4.51766 2.9999 7.5 2.9999Z" fill="white" stroke="#989898" stroke-width="0.2"/>
<path opacity="0.2" d="M12.2915 7.18219C11.5365 9.08146 10.1671 6.99574 8.26786 6.24076C6.3686 5.48578 3.88127 6.03855 4.63614 4.13928C5.39112 2.24002 7.73559 2.04698 9.63486 2.80196C11.5342 3.55684 13.0465 5.28292 12.2915 7.18219Z" fill="url(#paint1_linear_687_55169)"/>
<path d="M4.5 6.8999L7.76954 9.8999L10.5 7.39159" fill="#FEFDFB"/>
<path d="M4.5 6.8999L7.76954 9.8999L10.5 7.39159" stroke="#5B5B5B" stroke-width="0.7" stroke-miterlimit="10" stroke-linecap="round" stroke-linejoin="round"/>
<path d="M6.20212 10.031C6.14078 9.83003 6.13708 9.49674 6.1829 9.41028C6.22798 9.32529 6.50806 9.14202 6.70907 9.08068C6.50806 9.14202 6.18808 9.15311 6.08831 9.0999C5.98411 9.04447 5.82005 8.77474 5.75872 8.57373C5.82153 8.77991 5.83188 9.09325 5.77128 9.20705C5.70847 9.32455 5.44834 9.46422 5.2525 9.52408C5.45351 9.46275 5.77424 9.4524 5.87326 9.50487C5.97229 9.55808 6.14078 9.83003 6.20212 10.031Z" fill="white"/>
<path d="M6.72304 9.99534C6.70161 9.92366 6.70014 9.80542 6.71639 9.77438C6.73265 9.74408 6.83168 9.67905 6.90336 9.65688C6.83168 9.67905 6.71787 9.68274 6.6824 9.66353C6.64545 9.64358 6.58707 9.54751 6.5649 9.47656C6.58707 9.54972 6.59076 9.66131 6.56933 9.70196C6.54716 9.74334 6.45405 9.79359 6.38458 9.81429C6.45627 9.79212 6.57081 9.78842 6.60554 9.80763C6.64102 9.82685 6.70087 9.92366 6.72304 9.99534Z" fill="white"/>
<path d="M5.94047 10.8336C5.91017 10.7338 5.90795 10.5697 5.93086 10.5269C5.95303 10.4847 6.09123 10.3938 6.19025 10.3643C6.09123 10.3946 5.93308 10.3998 5.88357 10.3739C5.83184 10.3466 5.75055 10.2135 5.72025 10.1138C5.75129 10.2158 5.75646 10.3702 5.72616 10.4264C5.69512 10.4847 5.56654 10.5535 5.46973 10.583C5.56949 10.5527 5.72764 10.5476 5.77641 10.5734C5.82666 10.6 5.91017 10.7338 5.94047 10.8336Z" fill="white"/>
<defs>
<radialGradient id="paint0_radial_687_55169" cx="0" cy="0" r="1" gradientUnits="userSpaceOnUse" gradientTransform="translate(8.04454 6.71743) scale(9.33147)">
<stop stop-color="white"/>
<stop offset="0.242" stop-color="#F3F3F2"/>
<stop offset="0.447917" stop-color="#ECECEC"/>
<stop offset="0.59375" stop-color="#E4E4E4"/>
<stop offset="0.848958" stop-color="#DBDBDB"/>
<stop offset="1" stop-color="#B1B1B1"/>
</radialGradient>
<linearGradient id="paint1_linear_687_55169" x1="9.23593" y1="3.703" x2="8.17877" y2="6.38364" gradientUnits="userSpaceOnUse">
<stop stop-color="white"/>
<stop offset="0.245" stop-color="#F4F4F4"/>
<stop offset="0.808" stop-color="#EDEDEC"/>
<stop offset="1" stop-color="#DDDDDD"/>
</linearGradient>
</defs>
</svg>
