<svg width="31" height="30" viewBox="0 0 31 30" fill="none" xmlns="http://www.w3.org/2000/svg">
<path d="M30.4785 15C30.4785 6.71573 23.7626 8.89546e-07 15.4782 1.25167e-06C7.19385 1.61379e-06 0.478026 6.71573 0.478027 15C0.478027 23.2843 7.19385 30 15.4782 30C23.7626 30 30.4785 23.2843 30.4785 15Z" fill="black"/>
<path d="M15.4787 29.6712C23.5814 29.6712 30.15 23.1026 30.15 14.9999C30.15 6.89718 23.5814 0.328613 15.4787 0.328613C7.37594 0.328613 0.807373 6.89718 0.807373 14.9999C0.807373 23.1026 7.37594 29.6712 15.4787 29.6712Z" fill="url(#paint0_radial_202_2148)"/>
<path opacity="0.2" d="M25.3021 11.2974C23.7819 15.1215 21.0248 10.922 17.2007 9.40184C13.3766 7.88173 8.36851 8.99471 9.88841 5.17063C11.4085 1.34655 16.129 0.95788 19.9531 2.478C23.7774 3.9979 26.8222 7.47329 25.3021 11.2974Z" fill="url(#paint1_linear_202_2148)"/>
<path d="M15.478 2.74994C22.2435 2.74994 27.728 8.23445 27.728 14.9999C27.728 21.7654 22.2435 27.2499 15.478 27.2499C8.71254 27.2499 3.22803 21.7654 3.22803 14.9999C3.22803 8.23445 8.71254 2.74994 15.478 2.74994Z" stroke="#2D14C3" stroke-width="0.5"/>
<path opacity="0.1" d="M20.4147 21.7785C20.2544 21.7832 20.0973 21.7328 19.9696 21.6358C19.8419 21.5387 19.7512 21.4008 19.7128 21.2451C19.3968 19.9929 18.7008 18.8693 17.7206 18.0286C16.7403 17.1878 15.5238 16.6711 14.2381 16.5495V17.553C14.238 17.7988 14.1653 18.0392 14.0293 18.2439C13.8932 18.4487 13.6997 18.6087 13.4731 18.704C13.2273 18.817 12.9541 18.8566 12.6864 18.818C12.4187 18.7794 12.1678 18.6643 11.964 18.4865L8.41246 15.1738C8.27627 15.0578 8.16689 14.9137 8.09188 14.7513C8.01687 14.5889 7.97803 14.4122 7.97803 14.2333C7.97803 14.0544 8.01687 13.8777 8.09188 13.7153C8.16689 13.5529 8.27627 13.4087 8.41246 13.2928L11.9429 9.91088C12.1494 9.73001 12.4045 9.61367 12.6764 9.57624C12.9484 9.53881 13.2253 9.58195 13.473 9.70031C13.6997 9.79562 13.8931 9.95567 14.0292 10.1604C14.1653 10.3652 14.238 10.6055 14.2381 10.8514L14.2592 11.9522C16.1656 12.0996 17.9476 12.9562 19.2535 14.353C20.5593 15.7498 21.2942 17.5854 21.3131 19.4974C21.3122 20.0867 21.2391 20.6736 21.0955 21.2451C21.0571 21.4008 20.9665 21.5387 20.8388 21.6358C20.7111 21.7328 20.554 21.7832 20.3936 21.7785H20.4147Z" fill="#231F20"/>
<path d="M21.2921 20.9654C21.1318 20.9701 20.9747 20.9197 20.847 20.8227C20.7193 20.7256 20.6287 20.5877 20.5903 20.432C20.2742 19.1798 19.5783 18.0562 18.598 17.2154C17.6178 16.3747 16.4012 15.858 15.1155 15.7364V16.7398C15.1154 16.9857 15.0428 17.2261 14.9067 17.4308C14.7706 17.6356 14.5771 17.7956 14.3505 17.8909C14.1047 18.0039 13.8316 18.0435 13.5639 18.0049C13.2961 17.9663 13.0453 17.8512 12.8414 17.6734L9.2899 14.3607C9.15371 14.2447 9.04433 14.1006 8.96932 13.9382C8.89432 13.7758 8.85547 13.599 8.85547 13.4202C8.85547 13.2413 8.89432 13.0646 8.96932 12.9022C9.04433 12.7398 9.15371 12.5956 9.2899 12.4796L12.8204 9.09777C13.0269 8.9169 13.2819 8.80055 13.5539 8.76313C13.8258 8.7257 14.1028 8.76884 14.3505 8.8872C14.5771 8.98251 14.7706 9.14256 14.9067 9.34732C15.0428 9.55208 15.1154 9.79244 15.1155 10.0383L15.1366 11.139C17.0431 11.2864 18.8251 12.1431 20.1309 13.5399C21.4368 14.9367 22.1717 16.7722 22.1906 18.6843C22.1896 19.2736 22.1165 19.8605 21.973 20.432C21.9345 20.5877 21.8439 20.7256 21.7162 20.8227C21.5885 20.9197 21.4314 20.9701 21.2711 20.9654H21.2921Z" fill="white"/>
<defs>
<radialGradient id="paint0_radial_202_2148" cx="0" cy="0" r="1" gradientUnits="userSpaceOnUse" gradientTransform="translate(16.6199 11.7126) scale(18.7885)">
<stop stop-color="#7278FF"/>
<stop offset="0.242" stop-color="#593EFF"/>
<stop offset="0.516" stop-color="#593EFF"/>
<stop offset="0.742" stop-color="#4226EE"/>
<stop offset="0.91" stop-color="#3016D1"/>
<stop offset="1" stop-color="#2711B1"/>
</radialGradient>
<linearGradient id="paint1_linear_202_2148" x1="19.1499" y1="4.29219" x2="17.0213" y2="9.68953" gradientUnits="userSpaceOnUse">
<stop stop-color="white"/>
<stop offset="0.245" stop-color="#C5FFF8"/>
<stop offset="0.808" stop-color="#33FFCE"/>
<stop offset="1" stop-color="#00FFD1"/>
</linearGradient>
</defs>
</svg>
