<svg width="23" height="22" viewBox="0 0 23 22" fill="none" xmlns="http://www.w3.org/2000/svg">
<path d="M18.35 12C18.35 12.1711 18.2858 12.3191 18.1574 12.4441L12.6439 17.8125C12.5155 17.9375 12.3635 18 12.1878 18C12.0121 18 11.8601 17.9375 11.7317 17.8125C11.6034 17.6875 11.5392 17.5395 11.5392 17.3684V14.5263H6.99862C6.82295 14.5263 6.67092 14.4638 6.54254 14.3388C6.41416 14.2138 6.34998 14.0658 6.34998 13.8947V10.1053C6.34998 9.93421 6.41416 9.78618 6.54254 9.66118C6.67092 9.53618 6.82295 9.47368 6.99862 9.47368H11.5392V6.63158C11.5392 6.46053 11.6034 6.3125 11.7317 6.1875C11.8601 6.0625 12.0121 6 12.1878 6C12.3635 6 12.5155 6.0625 12.6439 6.1875L18.1574 11.5559C18.2858 11.6809 18.35 11.8289 18.35 12Z" fill="white"/>
</svg>
