<svg width="31" height="30" viewBox="0 0 31 30" fill="none" xmlns="http://www.w3.org/2000/svg">
<path d="M30.9782 15C30.9782 6.71573 24.2624 8.89546e-07 15.978 1.25167e-06C7.69361 1.61379e-06 0.977782 6.71573 0.977783 15C0.977783 23.2843 7.69361 30 15.978 30C24.2624 30 30.9782 23.2843 30.9782 15Z" fill="black"/>
<path d="M15.9784 29.6712C24.0812 29.6712 30.6497 23.1026 30.6497 14.9999C30.6497 6.89718 24.0812 0.328613 15.9784 0.328613C7.87569 0.328613 1.30713 6.89718 1.30713 14.9999C1.30713 23.1026 7.87569 29.6712 15.9784 29.6712Z" fill="url(#paint0_radial_202_2125)"/>
<path d="M15.9781 2.94937C22.6335 2.94937 28.0288 8.34457 28.0288 14.9999C28.0288 21.6552 22.6335 27.0504 15.9781 27.0504C9.32267 27.0504 3.92739 21.6552 3.92739 14.9999C3.92739 8.34457 9.32267 2.94937 15.9781 2.94937Z" fill="#E6A40F" stroke="#C6900A" stroke-width="0.7"/>
<path opacity="0.2" d="M25.8018 11.2974C24.2817 15.1215 21.5245 10.922 17.7005 9.40184C13.8764 7.88173 8.86826 8.99471 10.3882 5.17063C11.9083 1.34655 16.6287 0.95788 20.4528 2.478C24.2771 3.9979 27.3219 7.47329 25.8018 11.2974Z" fill="url(#paint1_linear_202_2125)"/>
<path d="M16.0044 8.44864C15.7443 7.55917 15.7286 6.08435 15.9229 5.70175C16.1141 5.32569 17.3017 4.51471 18.154 4.24329C17.3017 4.51471 15.9448 4.56376 15.5218 4.32831C15.08 4.08305 14.3843 2.88947 14.1243 2C14.3906 2.91236 14.4345 4.29888 14.1775 4.80247C13.9112 5.32242 12.8082 5.94047 11.9778 6.20535C12.8301 5.93393 14.1901 5.88815 14.61 6.12033C15.0299 6.35578 15.7443 7.55917 16.0044 8.44864Z" fill="white"/>
<path d="M18.2132 8.29166C18.1223 7.97446 18.1161 7.45124 18.185 7.3139C18.2539 7.17983 18.6738 6.89206 18.9778 6.79395C18.6738 6.89206 18.1913 6.90841 18.0409 6.82338C17.8842 6.73509 17.6366 6.30998 17.5426 5.99605C17.6366 6.31979 17.6523 6.81357 17.5614 6.99343C17.4674 7.17655 17.0726 7.39892 16.778 7.49049C17.082 7.39238 17.5677 7.37603 17.715 7.46105C17.8654 7.54607 18.1192 7.97446 18.2132 8.29166Z" fill="white"/>
<g opacity="0.4">
<path d="M15.5127 8.72131V20.4352H17.6051C17.8507 20.4352 18.0499 20.236 18.0499 19.9904C18.0499 19.7448 17.8507 19.5456 17.6051 19.5456H16.8721C16.8846 19.5155 16.8922 19.4829 16.8922 19.4491C16.8922 19.3138 16.7819 19.2035 16.6466 19.2035H16.1517V16.0862C16.9711 15.9083 17.7116 15.3958 18.298 14.649C23.2697 14.649 21.7286 9.68609 21.7323 9.64223C21.7398 9.56455 21.7135 9.48812 21.6609 9.43174C21.6083 9.3741 21.5343 9.34152 21.4579 9.34152H19.6474C19.6474 9.01952 19.6487 8.75765 19.6487 8.72131H15.5127ZM18.7766 14C19.2014 13.1417 19.601 11.786 19.6399 10.6772C19.6411 10.6358 19.6424 10.2863 19.6436 9.89408H21.1372C21.2424 10.3915 22.3099 13.7607 18.7766 14Z" fill="#C99204"/>
<path d="M11.4105 8.72131C11.4105 8.75765 11.4105 9.02077 11.4118 9.34152H9.60002C9.52234 9.34152 9.44841 9.3741 9.39704 9.43174C9.34442 9.48937 9.31936 9.5658 9.32562 9.64223C9.32938 9.68609 7.78825 14.649 12.76 14.649C13.3463 15.397 14.0856 15.9083 14.9063 16.0862V19.201H14.4114C14.276 19.201 14.1658 19.3113 14.1658 19.4466C14.1658 19.4804 14.1733 19.513 14.1858 19.5431H13.4529C13.2073 19.5431 13.0081 19.7423 13.0081 19.9879C13.0081 20.2334 13.2073 20.4327 13.4529 20.4327H15.5453V8.72131H11.4105ZM9.91827 9.89282H11.413C11.4143 10.285 11.4155 10.6346 11.4168 10.6759C11.4569 11.7848 11.8553 13.1417 12.2801 13.9988C8.74551 13.7607 9.81302 10.3915 9.91827 9.89282Z" fill="#C99204"/>
<path d="M18.7257 20.1846H12.0086V22.7493H18.7257V20.1846Z" fill="#C6900A"/>
<path d="M19.0377 22.7493H11.6979V23.6828H19.0377V22.7493Z" fill="#C99204"/>
</g>
<path d="M15.9614 8.72131V20.4352H18.0539C18.2994 20.4352 18.4987 20.236 18.4987 19.9904C18.4987 19.7448 18.2994 19.5456 18.0539 19.5456H17.3209C17.3334 19.5155 17.3409 19.4829 17.3409 19.4491C17.3409 19.3138 17.2307 19.2035 17.0953 19.2035H16.6004V16.0862C17.4199 15.9083 18.1604 15.3958 18.7467 14.649C23.7185 14.649 22.1773 9.68609 22.1811 9.64223C22.1886 9.56455 22.1623 9.48812 22.1097 9.43174C22.057 9.3741 21.9831 9.34152 21.9067 9.34152H20.0962C20.0962 9.01952 20.0974 8.75765 20.0974 8.72131H15.9614ZM19.2254 14C19.6501 13.1417 20.0498 11.786 20.0887 10.6772C20.0899 10.6358 20.0912 10.2863 20.0924 9.89408H21.5859C21.6912 10.3915 22.7587 13.7607 19.2254 14Z" fill="#FCE467"/>
<path d="M11.8593 8.72131C11.8593 8.75765 11.8593 9.02077 11.8605 9.34152H10.0488C9.97107 9.34152 9.89714 9.3741 9.84577 9.43174C9.79315 9.48937 9.76809 9.5658 9.77435 9.64223C9.77811 9.68609 8.23698 14.649 13.2087 14.649C13.7951 15.397 14.5343 15.9083 15.355 16.0862V19.201H14.8601C14.7248 19.201 14.6145 19.3113 14.6145 19.4466C14.6145 19.4804 14.622 19.513 14.6346 19.5431H13.9016C13.656 19.5431 13.4568 19.7423 13.4568 19.9879C13.4568 20.2334 13.656 20.4327 13.9016 20.4327H15.994V8.72131H11.8593ZM10.367 9.89282H11.8618C11.863 10.285 11.8643 10.6346 11.8655 10.6759C11.9056 11.7848 12.3041 13.1417 12.7288 13.9988C9.19424 13.7607 10.2618 10.3915 10.367 9.89282Z" fill="#FCE467"/>
<path d="M19.3509 20.1846H12.6338V22.7494H19.3509V20.1846Z" fill="#BC760E"/>
<path d="M19.6628 22.7493H12.323V23.6828H19.6628V22.7493Z" fill="#BC760E"/>
<path d="M17.9851 21.4664C17.9851 21.8811 17.6481 22.2181 17.2334 22.2181H14.7525C14.3378 22.2181 14.0007 21.8824 14.0007 21.4664C14.0007 21.0516 14.3365 20.7146 14.7525 20.7146H17.2334C17.6481 20.7159 17.9851 21.0516 17.9851 21.4664Z" fill="#FCE467"/>
<defs>
<radialGradient id="paint0_radial_202_2125" cx="0" cy="0" r="1" gradientUnits="userSpaceOnUse" gradientTransform="translate(17.1197 11.7126) scale(18.7885)">
<stop stop-color="#FFECC2"/>
<stop offset="0.242" stop-color="#FFE09C"/>
<stop offset="0.516" stop-color="#FCCE67"/>
<stop offset="0.742" stop-color="#F4B423"/>
<stop offset="0.91" stop-color="#E8AF2E"/>
<stop offset="1" stop-color="#C99204"/>
</radialGradient>
<linearGradient id="paint1_linear_202_2125" x1="19.6496" y1="4.29219" x2="17.5211" y2="9.68953" gradientUnits="userSpaceOnUse">
<stop stop-color="white"/>
<stop offset="0.245" stop-color="#FFFCC5"/>
<stop offset="0.808" stop-color="#FFF533"/>
<stop offset="1" stop-color="#FFF200"/>
</linearGradient>
</defs>
</svg>
