<svg width="375" height="667" viewBox="0 0 375 667" fill="none" xmlns="http://www.w3.org/2000/svg">
<g clip-path="url(#clip0_653_5082)">
<rect width="375" height="667" fill="white"/>
<path d="M375 0H0V667H375V0Z" fill="url(#paint0_radial_653_5082)"/>
<g opacity="0.1" clip-path="url(#clip1_653_5082)">
<path d="M125.49 626.688C126.403 627.483 127.595 627.884 128.803 627.802C129.402 627.761 129.987 627.603 130.524 627.336C131.061 627.07 131.541 626.701 131.935 626.249C132.33 625.798 132.631 625.273 132.823 624.706C133.014 624.138 133.091 623.538 133.051 622.94C133.01 622.343 132.852 621.759 132.585 621.222C132.318 620.686 131.949 620.207 131.497 619.813C131.044 619.416 130.518 619.114 129.947 618.921C129.377 618.729 128.774 618.652 128.174 618.694C127.574 618.736 126.987 618.896 126.449 619.165C125.911 619.435 125.432 619.808 125.039 620.263C124.251 621.177 123.856 622.365 123.941 623.568C124.025 624.771 124.582 625.892 125.49 626.688ZM67.9819 541.893L72.1731 541.613L71.8929 537.415L67.7017 537.707L67.9819 541.893ZM63.8759 597.498C64.241 597.809 64.7139 597.964 65.1927 597.93C65.6714 597.896 66.1175 597.675 66.4345 597.315C66.7476 596.952 66.9052 596.481 66.8733 596.003C66.8414 595.525 66.6225 595.078 66.2639 594.76C65.8989 594.449 65.4259 594.294 64.9472 594.328C64.4685 594.362 64.0224 594.583 63.7053 594.943C63.3922 595.306 63.2346 595.777 63.2666 596.255C63.2985 596.733 63.5173 597.18 63.8759 597.498ZM93.9214 542.672C94.947 543.566 96.1391 544.251 97.4295 544.685C98.7199 545.12 100.083 545.297 101.442 545.205C102.801 545.114 104.128 544.756 105.349 544.152C106.569 543.548 107.658 542.71 108.554 541.686C109.45 540.662 110.136 539.471 110.571 538.183C111.006 536.894 111.183 535.532 111.091 534.175C111 532.818 110.641 531.493 110.037 530.274C109.432 529.056 108.593 527.968 107.567 527.073C105.496 525.266 102.791 524.354 100.047 524.539C97.3024 524.724 94.7441 525.99 92.9345 528.059C91.125 530.127 90.2123 532.829 90.3974 535.569C90.5825 538.31 91.8501 540.864 93.9214 542.672ZM3.55338 626.688C4.00538 627.081 4.53064 627.382 5.09917 627.574C5.6677 627.765 6.26836 627.842 6.86686 627.802C7.46536 627.761 8.04998 627.603 8.58733 627.336C9.12469 627.07 9.60426 626.701 9.99866 626.249C10.3931 625.798 10.6946 625.273 10.886 624.706C11.0774 624.138 11.1549 623.538 11.1142 622.94C11.0735 622.343 10.9153 621.759 10.6486 621.222C10.3819 620.686 10.012 620.207 9.56004 619.813C9.10793 619.418 8.58221 619.117 8.01308 618.926C7.44394 618.735 6.84263 618.658 6.24369 618.7C5.64475 618.742 5.05999 618.901 4.52302 619.17C3.98606 619.438 3.50746 619.81 3.11475 620.263C2.32529 621.175 1.92848 622.362 2.01062 623.565C2.09276 624.768 2.6472 625.891 3.55338 626.688ZM93.9214 664.443C94.947 665.338 96.1391 666.022 97.4295 666.457C98.7199 666.891 100.083 667.068 101.442 666.977C102.801 666.885 104.128 666.527 105.349 665.923C106.569 665.319 107.658 664.482 108.554 663.457C109.45 662.433 110.136 661.243 110.571 659.954C111.006 658.665 111.183 657.304 111.091 655.947C111 654.59 110.641 653.264 110.037 652.045C109.432 650.827 108.593 649.739 107.567 648.844C106.542 647.95 105.35 647.265 104.059 646.83C102.769 646.396 101.405 646.219 100.047 646.311C97.3024 646.495 94.7441 647.761 92.9345 649.83C91.125 651.898 90.2123 654.6 90.3974 657.34C90.5825 660.081 91.8501 662.636 93.9214 664.443ZM101.646 569.513C98.6732 570.121 95.4932 568.904 92.9589 566.228C92.6178 565.863 92.435 565.4 92.4594 564.889C92.4656 564.647 92.52 564.409 92.6192 564.189C92.7185 563.968 92.8607 563.769 93.0375 563.604C93.2144 563.439 93.4224 563.31 93.6494 563.226C93.8765 563.141 94.118 563.103 94.3601 563.113C94.8474 563.113 95.3104 563.32 95.6515 563.685C97.3207 565.449 99.1849 566.24 100.927 565.875C102.645 565.534 104.071 564.086 104.924 561.799C106.215 558.343 108.676 555.995 111.649 555.399C114.622 554.79 117.802 556.007 120.336 558.684C120.994 559.377 121.018 560.424 120.409 561.142L120.263 561.3C119.532 561.993 118.35 561.957 117.656 561.215C115.986 559.45 114.122 558.66 112.392 559.025C110.662 559.365 109.224 560.813 108.384 563.101C107.263 566.094 105.289 568.235 102.84 569.148C102.45 569.318 102.06 569.44 101.646 569.513ZM112.173 557.954C114.281 557.54 116.51 558.441 118.448 560.485C118.522 560.563 118.612 560.625 118.713 560.666C118.813 560.707 118.92 560.726 119.028 560.723C119.137 560.719 119.243 560.693 119.34 560.646C119.437 560.598 119.524 560.531 119.593 560.448C119.837 560.156 119.837 559.718 119.556 559.438C117.278 557.029 114.476 555.946 111.881 556.482C109.273 557.005 107.117 559.098 105.959 562.2C104.96 564.841 103.254 566.52 101.146 566.958C99.0387 567.384 96.809 566.495 94.8718 564.439C94.7698 564.326 94.6362 564.247 94.4883 564.211C94.3405 564.176 94.1853 564.186 94.0432 564.24C93.901 564.293 93.7784 564.389 93.6915 564.514C93.6046 564.638 93.5573 564.786 93.5559 564.938C93.5437 565.145 93.6168 565.327 93.763 565.485C96.0414 567.895 98.8437 568.977 101.439 568.442C104.046 567.919 106.203 565.826 107.372 562.723C108.225 560.424 109.626 558.854 111.369 558.197C111.612 558.1 111.893 558.015 112.173 557.954ZM55.4934 623.281C56.1513 623.281 56.7118 622.794 56.7971 622.112C57.1869 618.633 56.1269 615.615 53.8851 613.839C51.6554 612.074 48.4754 611.746 45.1736 612.938C42.7003 613.827 40.495 613.644 38.9476 612.439C37.4125 611.223 36.7302 609.118 37.0226 606.514C37.0639 606.169 36.9665 605.821 36.7519 605.548C36.5372 605.274 36.2227 605.096 35.8773 605.054C35.5317 605.016 35.1853 605.117 34.9137 605.333C34.642 605.55 34.4672 605.865 34.4274 606.21C34.0375 609.702 35.0853 612.719 37.3272 614.484C39.569 616.248 42.7368 616.576 46.0387 615.396C48.5242 614.508 50.7295 614.69 52.2768 615.895C53.7998 617.112 54.4943 619.217 54.1897 621.82C54.1692 622.004 54.1875 622.19 54.2436 622.365C54.2997 622.541 54.3923 622.703 54.5153 622.841C54.6383 622.979 54.7889 623.089 54.9575 623.165C55.126 623.241 55.3086 623.28 55.4934 623.281Z" fill="#B9E1EE"/>
<path d="M13.3851 453.875C12.4895 454.654 11.32 455.046 10.1341 454.965C9.54692 454.926 8.97334 454.771 8.44612 454.51C7.9189 454.249 7.44838 453.888 7.06142 453.446C6.67446 453.004 6.37863 452.49 6.19084 451.934C6.00304 451.378 5.92695 450.791 5.96691 450.206C6.00687 449.62 6.1621 449.049 6.42373 448.523C6.68537 447.998 7.04829 447.529 7.49176 447.143C7.93563 446.755 8.45224 446.458 9.01178 446.27C9.57132 446.082 10.1627 446.007 10.7518 446.048C11.3408 446.089 11.9159 446.245 12.4438 446.509C12.9717 446.773 13.4419 447.138 13.8274 447.584C14.6005 448.479 14.9878 449.642 14.905 450.82C14.8221 451.998 14.2759 453.096 13.3851 453.875ZM69.8081 370.847L65.6959 370.573L65.9708 366.462L70.083 366.748L69.8081 370.847ZM73.8366 425.293C73.4784 425.598 73.0144 425.75 72.5447 425.716C72.075 425.683 71.6373 425.467 71.3263 425.114C71.0191 424.759 70.8644 424.297 70.8958 423.829C70.9271 423.361 71.1418 422.924 71.4936 422.613C71.8518 422.308 72.3158 422.156 72.7855 422.189C73.2552 422.223 73.6929 422.439 74.004 422.791C74.3111 423.147 74.4658 423.608 74.4344 424.076C74.4031 424.544 74.1884 424.982 73.8366 425.293ZM44.358 371.609C43.3517 372.485 42.1822 373.155 40.9161 373.581C39.65 374.007 38.3122 374.18 36.979 374.09C35.6459 374 34.3435 373.65 33.1462 373.059C31.949 372.467 30.8803 371.647 30.0012 370.644C29.1221 369.641 28.4498 368.476 28.0227 367.214C27.5956 365.952 27.422 364.619 27.5119 363.29C27.6019 361.961 27.9535 360.663 28.5467 359.47C29.14 358.277 29.9632 357.212 30.9695 356.335C33.0017 354.566 35.656 353.674 38.3484 353.855C41.0408 354.036 43.5508 355.275 45.3263 357.301C47.1017 359.326 47.9971 361.971 47.8155 364.655C47.6339 367.338 46.3902 369.84 44.358 371.609ZM133.021 453.875C132.577 454.26 132.062 454.555 131.504 454.742C130.947 454.929 130.357 455.005 129.77 454.965C129.183 454.926 128.609 454.771 128.082 454.51C127.555 454.249 127.084 453.888 126.697 453.446C126.31 453.004 126.015 452.49 125.827 451.934C125.639 451.378 125.563 450.791 125.603 450.206C125.643 449.62 125.798 449.049 126.06 448.523C126.321 447.998 126.684 447.529 127.128 447.143C127.571 446.757 128.087 446.462 128.645 446.275C129.204 446.088 129.794 446.013 130.381 446.054C130.969 446.095 131.543 446.251 132.07 446.514C132.596 446.776 133.066 447.14 133.451 447.584C134.226 448.478 134.615 449.64 134.535 450.818C134.454 451.996 133.91 453.094 133.021 453.875ZM44.358 490.844C43.3517 491.72 42.1822 492.39 40.9161 492.815C39.65 493.241 38.3122 493.414 36.979 493.324C35.6459 493.235 34.3435 492.884 33.1462 492.293C31.949 491.702 30.8803 490.881 30.0012 489.878C29.1221 488.876 28.4498 487.71 28.0227 486.448C27.5956 485.186 27.422 483.853 27.5119 482.524C27.6019 481.196 27.9535 479.898 28.5467 478.704C29.14 477.511 29.9632 476.446 30.9695 475.57C31.9757 474.694 33.1453 474.024 34.4114 473.598C35.6774 473.172 37.0152 472.999 38.3484 473.089C41.0408 473.27 43.5508 474.509 45.3263 476.535C47.1017 478.56 47.9971 481.206 47.8155 483.889C47.6339 486.572 46.3902 489.074 44.358 490.844ZM36.7791 397.891C39.6959 398.487 42.8159 397.296 45.3023 394.674C45.6371 394.317 45.8164 393.864 45.7925 393.364C45.7863 393.127 45.733 392.894 45.6356 392.678C45.5382 392.462 45.3987 392.267 45.2252 392.105C45.0517 391.943 44.8476 391.818 44.6249 391.735C44.4021 391.652 44.1651 391.615 43.9276 391.624C43.4495 391.624 42.9952 391.827 42.6605 392.184C41.0228 393.912 39.1938 394.686 37.4844 394.329C35.7989 393.995 34.4003 392.578 33.5635 390.338C32.2964 386.954 29.8817 384.655 26.9649 384.071C24.0481 383.475 20.9281 384.667 18.4416 387.288C17.7961 387.967 17.7722 388.992 18.3699 389.694L18.5134 389.849C19.2306 390.528 20.3902 390.493 21.0715 389.766C22.7092 388.038 24.5382 387.264 26.2357 387.621C27.9331 387.955 29.3437 389.373 30.1685 391.613C31.2683 394.543 33.2049 396.64 35.6076 397.534C35.9902 397.701 36.3727 397.82 36.7791 397.891ZM26.4508 386.573C24.3828 386.168 22.1952 387.05 20.2945 389.051C20.2214 389.128 20.1328 389.188 20.0346 389.228C19.9364 389.268 19.8308 389.288 19.7246 389.284C19.6185 389.281 19.5144 389.255 19.4189 389.209C19.3235 389.162 19.2389 389.096 19.1708 389.015C18.9318 388.729 18.9318 388.301 19.2067 388.026C21.4421 385.668 24.1915 384.607 26.7377 385.131C29.2959 385.644 31.4118 387.693 32.5474 390.731C33.5276 393.316 35.2012 394.96 37.2692 395.389C39.3373 395.806 41.5249 394.937 43.4256 392.923C43.5256 392.813 43.6567 392.735 43.8018 392.7C43.9468 392.665 44.099 392.675 44.2385 392.728C44.378 392.78 44.4983 392.874 44.5836 392.996C44.6689 393.118 44.7152 393.263 44.7166 393.412C44.7285 393.614 44.6568 393.793 44.5134 393.948C42.278 396.307 39.5285 397.367 36.9823 396.843C34.4242 396.33 32.3083 394.281 31.1607 391.243C30.3239 388.991 28.9492 387.455 27.2398 386.811C27.0007 386.716 26.7258 386.633 26.4508 386.573ZM82.061 450.539C81.4155 450.539 80.8656 450.062 80.7819 449.395C80.3994 445.988 81.4394 443.033 83.6389 441.294C85.8265 439.566 88.9465 439.244 92.186 440.412C94.6127 441.282 96.7764 441.103 98.2945 439.923C99.8007 438.732 100.47 436.671 100.183 434.121C100.143 433.783 100.238 433.443 100.449 433.175C100.659 432.907 100.968 432.733 101.307 432.692C101.646 432.655 101.986 432.753 102.252 432.965C102.519 433.177 102.69 433.486 102.729 433.824C103.112 437.243 102.084 440.197 99.8844 441.925C97.6849 443.652 94.5768 443.974 91.3373 442.819C88.8987 441.949 86.735 442.128 85.2168 443.307C83.7226 444.498 83.0412 446.56 83.34 449.109C83.3602 449.289 83.3422 449.47 83.2871 449.643C83.2321 449.815 83.1413 449.973 83.0206 450.108C82.8999 450.243 82.7521 450.351 82.5868 450.425C82.4214 450.5 82.2423 450.538 82.061 450.539Z" fill="#B9E1EE"/>
<path d="M125.683 551.125C126.127 550.74 126.642 550.445 127.2 550.258C127.758 550.07 128.347 549.995 128.934 550.035C129.521 550.074 130.095 550.229 130.622 550.49C131.149 550.751 131.62 551.112 132.007 551.554C132.394 551.996 132.69 552.51 132.877 553.066C133.065 553.622 133.141 554.209 133.101 554.794C133.061 555.38 132.906 555.951 132.644 556.477C132.383 557.002 132.02 557.471 131.576 557.857C131.133 558.243 130.617 558.538 130.059 558.725C129.5 558.912 128.91 558.987 128.323 558.946C127.735 558.905 127.161 558.749 126.634 558.487C126.108 558.224 125.638 557.86 125.253 557.416C124.478 556.522 124.089 555.36 124.169 554.182C124.25 553.004 124.794 551.906 125.683 551.125ZM176.643 554.461C177.289 554.461 177.839 554.938 177.922 555.605C178.305 559.012 177.265 561.967 175.065 563.706C172.878 565.434 169.758 565.756 166.518 564.588C164.091 563.718 161.928 563.897 160.41 565.077C158.903 566.268 158.234 568.329 158.521 570.879C158.561 571.217 158.466 571.557 158.255 571.825C158.045 572.093 157.736 572.267 157.397 572.308C157.058 572.345 156.718 572.247 156.452 572.035C156.185 571.823 156.014 571.514 155.975 571.177C155.592 567.757 156.62 564.803 158.82 563.075C161.019 561.347 164.127 561.026 167.367 562.182C169.805 563.051 171.969 562.872 173.487 561.693C174.982 560.502 175.663 558.44 175.364 555.891C175.344 555.711 175.362 555.53 175.417 555.357C175.472 555.185 175.563 555.026 175.683 554.892C175.804 554.757 175.952 554.649 176.117 554.575C176.283 554.5 176.462 554.462 176.643 554.461Z" fill="#B9E1EE"/>
<path d="M133.214 378.313C132.301 377.517 131.109 377.116 129.901 377.199C129.302 377.239 128.718 377.397 128.18 377.664C127.643 377.93 127.163 378.299 126.769 378.751C126.374 379.202 126.073 379.727 125.882 380.294C125.69 380.862 125.613 381.462 125.653 382.06C125.694 382.657 125.852 383.241 126.119 383.778C126.386 384.314 126.755 384.793 127.207 385.187C127.66 385.584 128.186 385.887 128.757 386.079C129.327 386.271 129.93 386.348 130.53 386.306C131.131 386.264 131.717 386.104 132.255 385.835C132.793 385.565 133.272 385.192 133.665 384.737C134.453 383.823 134.848 382.635 134.763 381.432C134.679 380.229 134.122 379.108 133.214 378.313ZM164.783 462.328C163.757 461.434 162.565 460.749 161.275 460.315C159.984 459.88 158.621 459.703 157.262 459.795C155.903 459.886 154.576 460.244 153.355 460.848C152.135 461.452 151.046 462.29 150.15 463.314C149.254 464.338 148.569 465.529 148.133 466.817C147.698 468.106 147.521 469.468 147.613 470.825C147.704 472.182 148.063 473.507 148.667 474.726C149.272 475.944 150.111 477.032 151.137 477.927C153.208 479.734 155.913 480.646 158.657 480.461C161.402 480.276 163.96 479.01 165.77 476.941C167.579 474.873 168.492 472.171 168.307 469.431C168.122 466.69 166.854 464.136 164.783 462.328ZM164.783 340.557C163.757 339.662 162.565 338.978 161.275 338.543C159.984 338.109 158.621 337.932 157.262 338.023C155.903 338.115 154.576 338.473 153.355 339.077C152.135 339.681 151.046 340.518 150.15 341.543C149.254 342.567 148.569 343.757 148.133 345.046C147.698 346.335 147.521 347.696 147.613 349.053C147.704 350.41 148.063 351.736 148.667 352.955C149.272 354.173 150.111 355.261 151.137 356.156C152.162 357.051 153.354 357.735 154.645 358.17C155.935 358.604 157.299 358.781 158.657 358.689C161.402 358.505 163.96 357.239 165.77 355.17C167.579 353.102 168.492 350.4 168.307 347.66C168.122 344.919 166.854 342.364 164.783 340.557ZM157.058 435.487C160.031 434.879 163.211 436.096 165.745 438.772C166.086 439.137 166.269 439.6 166.245 440.111C166.238 440.353 166.184 440.591 166.085 440.811C165.986 441.032 165.843 441.231 165.667 441.396C165.49 441.561 165.282 441.69 165.055 441.774C164.828 441.859 164.586 441.897 164.344 441.887C163.857 441.887 163.394 441.68 163.053 441.315C161.383 439.551 159.519 438.76 157.777 439.125C156.059 439.466 154.633 440.914 153.781 443.201C152.489 446.657 150.028 449.005 147.055 449.601C144.082 450.21 140.902 448.993 138.368 446.316C137.71 445.623 137.686 444.576 138.295 443.858L138.441 443.7C139.172 443.007 140.354 443.043 141.048 443.785C142.718 445.55 144.582 446.34 146.312 445.975C148.042 445.635 149.48 444.187 150.32 441.899C151.441 438.906 153.415 436.765 155.864 435.852C156.254 435.682 156.644 435.56 157.058 435.487ZM146.531 447.046C144.423 447.46 142.194 446.56 140.256 444.515C140.182 444.437 140.092 444.375 139.991 444.334C139.891 444.293 139.784 444.274 139.676 444.277C139.567 444.281 139.461 444.307 139.364 444.354C139.267 444.402 139.181 444.469 139.111 444.552C138.867 444.844 138.867 445.282 139.148 445.562C141.426 447.971 144.228 449.054 146.824 448.518C149.431 447.995 151.587 445.902 152.745 442.8C153.744 440.159 155.45 438.48 157.558 438.042C159.665 437.616 161.895 438.505 163.832 440.561C163.934 440.674 164.068 440.753 164.216 440.789C164.364 440.824 164.519 440.814 164.661 440.76C164.803 440.707 164.926 440.611 165.013 440.486C165.1 440.362 165.147 440.214 165.148 440.062C165.16 439.855 165.087 439.673 164.941 439.515C162.663 437.105 159.86 436.023 157.265 436.558C154.658 437.081 152.501 439.174 151.332 442.277C150.479 444.576 149.078 446.146 147.335 446.803C147.092 446.9 146.811 446.985 146.531 447.046Z" fill="#B9E1EE"/>
<path d="M249.51 378.313C248.597 377.517 247.405 377.116 246.197 377.199C245.598 377.239 245.013 377.397 244.476 377.664C243.939 377.93 243.459 378.299 243.065 378.751C242.67 379.202 242.369 379.727 242.177 380.294C241.986 380.862 241.908 381.462 241.949 382.06C241.99 382.657 242.148 383.241 242.415 383.778C242.681 384.314 243.051 384.793 243.503 385.187C243.956 385.584 244.482 385.887 245.053 386.079C245.623 386.271 246.226 386.348 246.826 386.306C247.426 386.264 248.013 386.104 248.551 385.835C249.089 385.565 249.568 385.192 249.961 384.737C250.749 383.823 251.144 382.635 251.059 381.432C250.975 380.229 250.418 379.108 249.51 378.313ZM307.018 463.107L302.827 463.387L303.107 467.585L307.298 467.293L307.018 463.107ZM311.124 407.502C310.759 407.191 310.286 407.036 309.807 407.07C309.329 407.104 308.883 407.325 308.565 407.685C308.252 408.048 308.095 408.519 308.127 408.997C308.159 409.475 308.377 409.922 308.736 410.24C309.101 410.551 309.574 410.706 310.053 410.672C310.532 410.638 310.978 410.417 311.295 410.057C311.608 409.694 311.765 409.223 311.733 408.745C311.702 408.267 311.483 407.82 311.124 407.502ZM281.079 462.328C280.053 461.434 278.861 460.749 277.57 460.315C276.28 459.88 274.917 459.703 273.558 459.795C272.199 459.886 270.871 460.244 269.651 460.848C268.431 461.452 267.342 462.29 266.446 463.314C265.55 464.338 264.864 465.529 264.429 466.817C263.994 468.106 263.817 469.468 263.909 470.825C264 472.182 264.359 473.507 264.963 474.726C265.568 475.944 266.407 477.032 267.433 477.927C269.504 479.734 272.209 480.646 274.953 480.461C277.698 480.276 280.256 479.01 282.065 476.941C283.875 474.873 284.788 472.171 284.603 469.431C284.417 466.69 283.15 464.136 281.079 462.328ZM371.447 378.313C370.995 377.919 370.469 377.618 369.901 377.426C369.332 377.235 368.732 377.158 368.133 377.199C367.535 377.239 366.95 377.397 366.413 377.664C365.875 377.93 365.396 378.299 365.001 378.751C364.607 379.202 364.305 379.727 364.114 380.294C363.923 380.862 363.845 381.462 363.886 382.06C363.927 382.657 364.085 383.241 364.351 383.778C364.618 384.314 364.988 384.793 365.44 385.187C365.892 385.582 366.418 385.883 366.987 386.074C367.556 386.265 368.157 386.342 368.756 386.3C369.355 386.258 369.94 386.099 370.477 385.83C371.014 385.562 371.493 385.19 371.885 384.737C372.675 383.824 373.072 382.638 372.989 381.435C372.907 380.232 372.353 379.11 371.447 378.313ZM281.079 340.557C280.053 339.662 278.861 338.978 277.57 338.543C276.28 338.109 274.917 337.932 273.558 338.023C272.199 338.115 270.871 338.473 269.651 339.077C268.431 339.681 267.342 340.518 266.446 341.543C265.55 342.567 264.864 343.757 264.429 345.046C263.994 346.335 263.817 347.696 263.909 349.053C264 350.41 264.359 351.736 264.963 352.955C265.568 354.173 266.407 355.261 267.433 356.156C268.458 357.051 269.65 357.735 270.941 358.17C272.231 358.604 273.595 358.781 274.953 358.689C277.698 358.505 280.256 357.239 282.065 355.17C283.875 353.102 284.788 350.4 284.603 347.66C284.417 344.919 283.15 342.364 281.079 340.557ZM273.354 435.487C276.327 434.879 279.507 436.096 282.041 438.772C282.382 439.137 282.565 439.6 282.541 440.111C282.534 440.353 282.48 440.591 282.381 440.811C282.282 441.032 282.139 441.231 281.962 441.396C281.786 441.561 281.578 441.69 281.351 441.774C281.124 441.859 280.882 441.897 280.64 441.887C280.153 441.887 279.69 441.68 279.348 441.315C277.679 439.551 275.815 438.76 274.073 439.125C272.355 439.466 270.929 440.914 270.076 443.201C268.785 446.657 266.324 449.005 263.351 449.601C260.378 450.21 257.198 448.993 254.664 446.316C254.006 445.623 253.982 444.576 254.591 443.858L254.737 443.7C255.468 443.007 256.65 443.043 257.344 443.785C259.013 445.55 260.878 446.34 262.608 445.975C264.338 445.635 265.776 444.187 266.616 441.899C267.737 438.906 269.711 436.765 272.16 435.852C272.55 435.682 272.94 435.56 273.354 435.487ZM262.827 447.046C260.719 447.46 258.49 446.56 256.552 444.515C256.478 444.437 256.388 444.375 256.287 444.334C256.187 444.293 256.08 444.274 255.972 444.277C255.863 444.281 255.757 444.307 255.66 444.354C255.563 444.402 255.476 444.469 255.407 444.552C255.163 444.844 255.163 445.282 255.444 445.562C257.722 447.971 260.524 449.054 263.119 448.518C265.727 447.995 267.883 445.902 269.041 442.8C270.04 440.159 271.746 438.48 273.853 438.042C275.961 437.616 278.191 438.505 280.128 440.561C280.23 440.674 280.364 440.753 280.512 440.789C280.659 440.824 280.815 440.814 280.957 440.76C281.099 440.707 281.222 440.611 281.308 440.486C281.395 440.362 281.443 440.214 281.444 440.062C281.456 439.855 281.383 439.673 281.237 439.515C278.959 437.105 276.156 436.023 273.561 436.558C270.954 437.081 268.797 439.174 267.628 442.277C266.775 444.576 265.374 446.146 263.631 446.803C263.388 446.9 263.107 446.985 262.827 447.046ZM319.507 381.719C318.849 381.719 318.288 382.206 318.203 382.888C317.813 386.367 318.873 389.385 321.115 391.161C323.345 392.926 326.525 393.254 329.826 392.062C332.3 391.174 334.505 391.356 336.052 392.561C337.588 393.777 338.27 395.882 337.977 398.486C337.936 398.831 338.033 399.179 338.248 399.452C338.463 399.726 338.777 399.904 339.123 399.946C339.468 399.984 339.815 399.883 340.086 399.667C340.358 399.45 340.533 399.135 340.573 398.79C340.962 395.298 339.915 392.281 337.673 390.516C335.431 388.752 332.263 388.424 328.961 389.604C326.476 390.492 324.271 390.31 322.723 389.105C321.2 387.888 320.506 385.783 320.81 383.18C320.831 382.996 320.812 382.81 320.756 382.635C320.7 382.459 320.608 382.297 320.485 382.159C320.362 382.021 320.211 381.911 320.043 381.835C319.874 381.759 319.691 381.72 319.507 381.719Z" fill="#B9E1EE"/>
<path d="M361.615 551.125C362.511 550.346 363.68 549.954 364.866 550.035C365.453 550.074 366.027 550.229 366.554 550.49C367.081 550.751 367.552 551.112 367.939 551.554C368.326 551.996 368.621 552.51 368.809 553.066C368.997 553.622 369.073 554.209 369.033 554.794C368.993 555.38 368.838 555.951 368.576 556.477C368.315 557.002 367.952 557.471 367.508 557.857C367.064 558.245 366.548 558.542 365.988 558.73C365.429 558.918 364.837 558.993 364.248 558.952C363.659 558.911 363.084 558.755 362.556 558.491C362.028 558.227 361.558 557.862 361.173 557.416C360.399 556.521 360.012 555.358 360.095 554.18C360.178 553.002 360.724 551.904 361.615 551.125ZM305.192 634.153L309.304 634.427L309.029 638.538L304.917 638.252L305.192 634.153ZM301.163 579.707C301.522 579.402 301.986 579.25 302.455 579.284C302.925 579.317 303.363 579.533 303.674 579.886C303.981 580.241 304.136 580.703 304.104 581.171C304.073 581.639 303.858 582.076 303.506 582.387C303.148 582.692 302.684 582.844 302.214 582.811C301.745 582.777 301.307 582.561 300.996 582.209C300.689 581.853 300.534 581.392 300.566 580.924C300.597 580.456 300.812 580.018 301.163 579.707ZM330.642 633.391C331.648 632.515 332.818 631.845 334.084 631.419C335.35 630.993 336.688 630.82 338.021 630.91C339.354 631 340.656 631.35 341.854 631.941C343.051 632.533 344.12 633.353 344.999 634.356C345.878 635.359 346.55 636.524 346.977 637.786C347.404 639.048 347.578 640.381 347.488 641.71C347.398 643.039 347.047 644.337 346.453 645.53C345.86 646.723 345.037 647.788 344.031 648.665C341.998 650.434 339.344 651.326 336.652 651.145C333.959 650.964 331.449 649.725 329.674 647.7C327.898 645.674 327.003 643.029 327.185 640.345C327.366 637.662 328.61 635.16 330.642 633.391ZM241.979 551.125C242.423 550.74 242.938 550.445 243.496 550.258C244.053 550.07 244.643 549.995 245.23 550.035C245.817 550.074 246.391 550.229 246.918 550.49C247.445 550.751 247.916 551.112 248.303 551.554C248.69 551.996 248.985 552.51 249.173 553.066C249.361 553.622 249.437 554.209 249.397 554.794C249.357 555.38 249.202 555.951 248.94 556.477C248.679 557.002 248.316 557.471 247.872 557.857C247.429 558.243 246.913 558.538 246.355 558.725C245.796 558.912 245.206 558.987 244.619 558.946C244.031 558.905 243.457 558.749 242.93 558.487C242.404 558.224 241.934 557.86 241.549 557.416C240.774 556.523 240.385 555.36 240.465 554.182C240.546 553.004 241.09 551.906 241.979 551.125ZM330.642 514.156C331.648 513.28 332.818 512.61 334.084 512.185C335.35 511.759 336.688 511.586 338.021 511.676C339.354 511.765 340.656 512.116 341.854 512.707C343.051 513.298 344.12 514.119 344.999 515.122C345.878 516.124 346.55 517.29 346.977 518.552C347.404 519.814 347.578 521.147 347.488 522.476C347.398 523.804 347.047 525.102 346.453 526.296C345.86 527.489 345.037 528.554 344.031 529.43C343.024 530.306 341.855 530.976 340.589 531.402C339.323 531.828 337.985 532.001 336.652 531.911C333.959 531.73 331.449 530.491 329.674 528.465C327.898 526.44 327.003 523.794 327.184 521.111C327.366 518.428 328.61 515.926 330.642 514.156ZM338.221 607.109C335.304 606.513 332.184 607.705 329.698 610.326C329.363 610.683 329.184 611.136 329.208 611.636C329.214 611.873 329.267 612.106 329.364 612.322C329.462 612.538 329.601 612.733 329.775 612.895C329.948 613.057 330.152 613.182 330.375 613.265C330.598 613.347 330.835 613.385 331.072 613.376C331.551 613.376 332.005 613.173 332.34 612.816C333.977 611.088 335.806 610.314 337.516 610.671C339.201 611.005 340.6 612.422 341.437 614.662C342.704 618.046 345.118 620.345 348.035 620.929C350.952 621.525 354.072 620.333 356.558 617.712C357.204 617.033 357.228 616.009 356.63 615.306L356.487 615.151C355.769 614.472 354.61 614.507 353.928 615.234C352.291 616.962 350.462 617.736 348.764 617.379C347.067 617.045 345.656 615.627 344.831 613.387C343.732 610.457 341.795 608.36 339.392 607.466C339.01 607.299 338.627 607.18 338.221 607.109ZM348.549 618.427C350.617 618.832 352.805 617.951 354.705 615.949C354.779 615.872 354.867 615.812 354.965 615.772C355.064 615.732 355.169 615.713 355.275 615.716C355.381 615.719 355.486 615.745 355.581 615.791C355.677 615.838 355.761 615.904 355.829 615.985C356.068 616.271 356.068 616.7 355.793 616.974C353.558 619.333 350.808 620.393 348.262 619.869C345.704 619.356 343.588 617.307 342.453 614.269C341.472 611.684 339.799 610.04 337.731 609.611C335.663 609.194 333.475 610.063 331.574 612.077C331.474 612.187 331.343 612.265 331.198 612.3C331.053 612.335 330.901 612.325 330.761 612.272C330.622 612.219 330.502 612.126 330.416 612.004C330.331 611.882 330.285 611.737 330.283 611.588C330.271 611.386 330.343 611.207 330.487 611.052C332.722 608.693 335.471 607.633 338.018 608.157C340.576 608.669 342.692 610.719 343.839 613.757C344.676 616.008 346.051 617.545 347.76 618.189C347.999 618.284 348.274 618.367 348.549 618.427ZM292.939 554.461C293.585 554.461 294.134 554.938 294.218 555.605C294.601 559.012 293.561 561.967 291.361 563.706C289.173 565.434 286.053 565.756 282.814 564.588C280.387 563.718 278.224 563.897 276.705 565.077C275.199 566.268 274.53 568.329 274.817 570.879C274.857 571.217 274.762 571.557 274.551 571.825C274.341 572.093 274.032 572.267 273.693 572.308C273.354 572.345 273.014 572.247 272.748 572.035C272.481 571.823 272.31 571.514 272.271 571.176C271.888 567.757 272.916 564.803 275.116 563.075C277.315 561.347 280.423 561.026 283.663 562.182C286.101 563.051 288.265 562.872 289.783 561.693C291.277 560.502 291.959 558.44 291.66 555.891C291.64 555.711 291.658 555.53 291.713 555.357C291.768 555.185 291.859 555.027 291.979 554.892C292.1 554.757 292.248 554.649 292.413 554.575C292.579 554.5 292.758 554.462 292.939 554.461Z" fill="#B9E1EE"/>
<path d="M249.317 453.875C248.873 454.26 248.358 454.555 247.8 454.742C247.242 454.929 246.653 455.005 246.066 454.965C245.479 454.926 244.905 454.771 244.378 454.51C243.851 454.249 243.38 453.888 242.993 453.446C242.606 453.004 242.31 452.49 242.123 451.934C241.935 451.378 241.859 450.791 241.899 450.206C241.939 449.62 242.094 449.049 242.356 448.523C242.617 447.998 242.98 447.529 243.424 447.143C243.867 446.757 244.383 446.462 244.941 446.275C245.5 446.088 246.09 446.013 246.677 446.054C247.265 446.095 247.839 446.251 248.366 446.514C248.892 446.776 249.362 447.14 249.747 447.584C250.522 448.478 250.911 449.64 250.831 450.818C250.75 451.996 250.206 453.094 249.317 453.875ZM198.357 450.539C197.711 450.539 197.161 450.062 197.078 449.395C196.695 445.988 197.735 443.033 199.935 441.294C202.122 439.566 205.242 439.244 208.482 440.412C210.909 441.282 213.072 441.103 214.59 439.923C216.097 438.732 216.766 436.671 216.479 434.121C216.439 433.783 216.534 433.443 216.745 433.175C216.955 432.907 217.264 432.733 217.603 432.692C217.942 432.655 218.282 432.753 218.548 432.965C218.815 433.177 218.986 433.486 219.025 433.824C219.408 437.243 218.38 440.197 216.18 441.925C213.981 443.652 210.873 443.974 207.633 442.819C205.195 441.949 203.031 442.128 201.513 443.307C200.018 444.498 199.337 446.56 199.636 449.109C199.656 449.289 199.638 449.47 199.583 449.643C199.528 449.815 199.437 449.974 199.317 450.108C199.196 450.243 199.048 450.351 198.883 450.425C198.717 450.5 198.538 450.538 198.357 450.539Z" fill="#B9E1EE"/>
<path d="M241.786 626.687C242.699 627.483 243.891 627.884 245.099 627.801C245.698 627.761 246.282 627.603 246.82 627.336C247.357 627.07 247.837 626.701 248.231 626.249C248.626 625.798 248.927 625.273 249.118 624.706C249.31 624.138 249.387 623.538 249.347 622.94C249.306 622.343 249.148 621.759 248.881 621.222C248.614 620.686 248.245 620.207 247.793 619.813C247.34 619.416 246.814 619.113 246.243 618.921C245.673 618.729 245.07 618.652 244.47 618.694C243.869 618.736 243.283 618.896 242.745 619.165C242.207 619.435 241.728 619.808 241.335 620.263C240.547 621.177 240.152 622.365 240.237 623.568C240.321 624.771 240.878 625.892 241.786 626.687ZM210.217 542.672C211.243 543.566 212.435 544.251 213.725 544.685C215.016 545.12 216.379 545.297 217.738 545.205C219.097 545.114 220.424 544.756 221.645 544.152C222.865 543.548 223.954 542.71 224.85 541.686C225.746 540.662 226.431 539.471 226.867 538.183C227.302 536.894 227.479 535.532 227.387 534.175C227.296 532.818 226.937 531.493 226.333 530.274C225.728 529.056 224.889 527.968 223.863 527.073C221.792 525.266 219.087 524.354 216.342 524.539C213.598 524.724 211.04 525.99 209.23 528.059C207.421 530.127 206.508 532.829 206.693 535.569C206.878 538.31 208.146 540.864 210.217 542.672ZM210.217 664.443C211.243 665.338 212.435 666.022 213.725 666.457C215.016 666.891 216.379 667.068 217.738 666.977C219.097 666.885 220.424 666.527 221.645 665.923C222.865 665.319 223.954 664.482 224.85 663.457C225.746 662.433 226.431 661.243 226.867 659.954C227.302 658.665 227.479 657.304 227.387 655.947C227.296 654.59 226.937 653.264 226.333 652.045C225.728 650.827 224.889 649.739 223.863 648.844C222.838 647.95 221.646 647.265 220.355 646.83C219.065 646.396 217.701 646.219 216.343 646.311C213.598 646.495 211.04 647.761 209.23 649.83C207.421 651.898 206.508 654.6 206.693 657.34C206.878 660.081 208.146 662.636 210.217 664.443ZM217.942 569.513C214.969 570.121 211.789 568.904 209.255 566.228C208.914 565.863 208.731 565.4 208.755 564.889C208.762 564.647 208.816 564.409 208.915 564.189C209.014 563.968 209.157 563.769 209.333 563.604C209.51 563.439 209.718 563.31 209.945 563.226C210.172 563.141 210.414 563.103 210.656 563.113C211.143 563.113 211.606 563.32 211.947 563.685C213.617 565.449 215.481 566.24 217.223 565.875C218.941 565.534 220.367 564.086 221.219 561.799C222.511 558.343 224.972 555.995 227.945 555.399C230.918 554.79 234.098 556.007 236.632 558.684C237.29 559.377 237.314 560.424 236.705 561.142L236.559 561.3C235.828 561.993 234.646 561.957 233.952 561.215C232.282 559.45 230.418 558.659 228.688 559.025C226.958 559.365 225.52 560.813 224.68 563.101C223.559 566.094 221.585 568.235 219.136 569.148C218.746 569.318 218.356 569.44 217.942 569.513ZM228.469 557.954C230.577 557.54 232.806 558.44 234.744 560.485C234.818 560.563 234.908 560.625 235.008 560.666C235.109 560.707 235.216 560.726 235.324 560.723C235.433 560.719 235.539 560.693 235.636 560.646C235.733 560.598 235.819 560.531 235.889 560.448C236.133 560.156 236.133 559.718 235.852 559.438C233.574 557.029 230.772 555.946 228.176 556.482C225.569 557.005 223.413 559.098 222.255 562.2C221.256 564.841 219.55 566.52 217.442 566.958C215.335 567.384 213.105 566.495 211.168 564.439C211.066 564.326 210.932 564.247 210.784 564.211C210.636 564.176 210.481 564.186 210.339 564.24C210.197 564.293 210.074 564.389 209.987 564.514C209.9 564.638 209.853 564.786 209.852 564.938C209.84 565.145 209.913 565.327 210.059 565.485C212.337 567.895 215.14 568.977 217.735 568.442C220.342 567.919 222.499 565.826 223.668 562.723C224.521 560.424 225.922 558.854 227.665 558.197C227.908 558.1 228.189 558.015 228.469 557.954Z" fill="#B9E1EE"/>
<path d="M125.49 288.687C126.403 289.483 127.595 289.884 128.803 289.801C129.402 289.761 129.987 289.603 130.524 289.336C131.061 289.07 131.541 288.701 131.935 288.249C132.33 287.798 132.631 287.273 132.823 286.706C133.014 286.138 133.091 285.538 133.051 284.94C133.01 284.343 132.852 283.759 132.585 283.222C132.318 282.686 131.949 282.207 131.497 281.813C131.044 281.416 130.518 281.113 129.947 280.921C129.377 280.729 128.774 280.652 128.174 280.694C127.574 280.736 126.987 280.896 126.449 281.165C125.911 281.435 125.432 281.808 125.039 282.263C124.251 283.177 123.856 284.365 123.941 285.568C124.025 286.771 124.582 287.892 125.49 288.687ZM67.9819 203.893L72.1731 203.613L71.8929 199.415L67.7017 199.707L67.9819 203.893ZM63.8759 259.498C64.241 259.809 64.7139 259.964 65.1927 259.93C65.6714 259.896 66.1175 259.675 66.4345 259.315C66.7476 258.952 66.9052 258.481 66.8733 258.003C66.8414 257.525 66.6225 257.078 66.2639 256.76C65.8989 256.449 65.4259 256.294 64.9472 256.328C64.4685 256.362 64.0224 256.583 63.7053 256.943C63.3922 257.306 63.2346 257.777 63.2666 258.255C63.2985 258.733 63.5173 259.18 63.8759 259.498ZM93.9214 204.672C94.947 205.566 96.1391 206.251 97.4295 206.685C98.7199 207.12 100.083 207.297 101.442 207.205C102.801 207.114 104.128 206.756 105.349 206.152C106.569 205.548 107.658 204.71 108.554 203.686C109.45 202.662 110.136 201.471 110.571 200.183C111.006 198.894 111.183 197.532 111.091 196.175C111 194.818 110.641 193.493 110.037 192.274C109.432 191.056 108.593 189.968 107.567 189.073C105.496 187.266 102.791 186.354 100.047 186.539C97.3024 186.724 94.7441 187.99 92.9345 190.059C91.125 192.127 90.2123 194.829 90.3974 197.569C90.5825 200.31 91.8501 202.864 93.9214 204.672ZM3.55338 288.687C4.00538 289.081 4.53064 289.382 5.09917 289.574C5.6677 289.765 6.26836 289.842 6.86686 289.801C7.46536 289.761 8.04998 289.603 8.58733 289.336C9.12469 289.07 9.60426 288.701 9.99866 288.249C10.3931 287.798 10.6946 287.273 10.886 286.706C11.0774 286.138 11.1549 285.538 11.1142 284.94C11.0735 284.343 10.9153 283.759 10.6486 283.222C10.3819 282.686 10.012 282.207 9.56004 281.813C9.10793 281.418 8.58221 281.117 8.01308 280.926C7.44394 280.735 6.84263 280.658 6.24369 280.7C5.64475 280.742 5.05999 280.901 4.52302 281.17C3.98606 281.438 3.50746 281.81 3.11475 282.263C2.32529 283.176 1.92848 284.362 2.01062 285.565C2.09276 286.768 2.6472 287.891 3.55338 288.687ZM93.9214 326.443C94.947 327.338 96.1391 328.022 97.4295 328.457C98.7199 328.891 100.083 329.068 101.442 328.977C102.801 328.885 104.128 328.527 105.349 327.923C106.569 327.319 107.658 326.482 108.554 325.457C109.45 324.433 110.136 323.243 110.571 321.954C111.006 320.665 111.183 319.304 111.091 317.947C111 316.59 110.641 315.264 110.037 314.045C109.432 312.827 108.593 311.739 107.567 310.844C106.542 309.949 105.35 309.265 104.059 308.83C102.769 308.396 101.405 308.219 100.047 308.311C97.3024 308.495 94.7441 309.761 92.9345 311.83C91.125 313.898 90.2123 316.6 90.3974 319.34C90.5825 322.081 91.8501 324.636 93.9214 326.443ZM101.646 231.513C98.6732 232.121 95.4932 230.904 92.9589 228.228C92.6178 227.863 92.435 227.4 92.4594 226.889C92.4656 226.647 92.52 226.409 92.6192 226.189C92.7185 225.968 92.8607 225.769 93.0375 225.604C93.2144 225.439 93.4224 225.31 93.6494 225.226C93.8765 225.141 94.118 225.103 94.3601 225.113C94.8474 225.113 95.3104 225.32 95.6515 225.685C97.3207 227.449 99.1849 228.24 100.927 227.875C102.645 227.534 104.071 226.086 104.924 223.799C106.215 220.343 108.676 217.995 111.649 217.399C114.622 216.79 117.802 218.007 120.336 220.684C120.994 221.377 121.018 222.424 120.409 223.142L120.263 223.3C119.532 223.993 118.35 223.957 117.656 223.215C115.986 221.45 114.122 220.66 112.392 221.025C110.662 221.365 109.224 222.813 108.384 225.101C107.263 228.094 105.289 230.235 102.84 231.148C102.45 231.318 102.06 231.44 101.646 231.513ZM112.173 219.954C114.281 219.54 116.51 220.441 118.448 222.485C118.522 222.563 118.612 222.625 118.713 222.666C118.813 222.707 118.92 222.726 119.028 222.723C119.137 222.719 119.243 222.693 119.34 222.646C119.437 222.598 119.524 222.531 119.593 222.448C119.837 222.156 119.837 221.718 119.556 221.438C117.278 219.029 114.476 217.946 111.881 218.482C109.273 219.005 107.117 221.098 105.959 224.2C104.96 226.841 103.254 228.52 101.146 228.958C99.0387 229.384 96.809 228.495 94.8718 226.439C94.7698 226.326 94.6362 226.247 94.4883 226.211C94.3405 226.176 94.1853 226.186 94.0432 226.24C93.901 226.293 93.7784 226.389 93.6915 226.514C93.6046 226.638 93.5573 226.786 93.5559 226.938C93.5437 227.145 93.6168 227.327 93.763 227.485C96.0414 229.895 98.8437 230.977 101.439 230.442C104.046 229.919 106.203 227.826 107.372 224.723C108.225 222.424 109.626 220.854 111.369 220.197C111.612 220.1 111.893 220.015 112.173 219.954ZM55.4934 285.281C56.1513 285.281 56.7118 284.794 56.7971 284.112C57.1869 280.633 56.1269 277.615 53.8851 275.839C51.6554 274.074 48.4754 273.746 45.1736 274.938C42.7003 275.826 40.495 275.644 38.9476 274.439C37.4125 273.223 36.7302 271.118 37.0226 268.514C37.0639 268.169 36.9665 267.821 36.7519 267.548C36.5372 267.274 36.2227 267.096 35.8773 267.054C35.5317 267.016 35.1853 267.117 34.9137 267.333C34.642 267.55 34.4672 267.865 34.4274 268.21C34.0375 271.702 35.0853 274.719 37.3272 276.484C39.569 278.248 42.7368 278.576 46.0387 277.396C48.5242 276.508 50.7295 276.69 52.2768 277.895C53.7998 279.112 54.4943 281.217 54.1897 283.82C54.1692 284.004 54.1875 284.19 54.2436 284.365C54.2997 284.541 54.3923 284.703 54.5153 284.841C54.6383 284.979 54.7889 285.089 54.9575 285.165C55.126 285.241 55.3086 285.28 55.4934 285.281Z" fill="#B9E1EE"/>
<path d="M13.3851 115.875C12.4895 116.654 11.32 117.046 10.1341 116.965C9.54692 116.926 8.97334 116.771 8.44612 116.51C7.9189 116.249 7.44838 115.888 7.06142 115.446C6.67446 115.004 6.37863 114.49 6.19084 113.934C6.00304 113.378 5.92695 112.791 5.96691 112.206C6.00687 111.62 6.1621 111.049 6.42373 110.523C6.68537 109.998 7.04829 109.529 7.49176 109.143C7.93563 108.755 8.45224 108.458 9.01178 108.27C9.57132 108.082 10.1627 108.007 10.7518 108.048C11.3408 108.089 11.9159 108.245 12.4438 108.509C12.9717 108.773 13.4419 109.138 13.8274 109.584C14.6005 110.479 14.9878 111.642 14.905 112.82C14.8221 113.998 14.2759 115.096 13.3851 115.875ZM69.8081 32.8466L65.6959 32.5726L65.9708 28.4623L70.083 28.7482L69.8081 32.8466ZM73.8366 87.2932C73.4784 87.5979 73.0144 87.7499 72.5447 87.7165C72.075 87.6831 71.6373 87.4668 71.3263 87.1145C71.0191 86.759 70.8644 86.2974 70.8958 85.8293C70.9271 85.3613 71.1418 84.9242 71.4936 84.6125C71.8518 84.3078 72.3158 84.1558 72.7855 84.1892C73.2552 84.2227 73.6929 84.4389 74.004 84.7912C74.3111 85.1467 74.4658 85.6083 74.4344 86.0764C74.4031 86.5445 74.1884 86.9815 73.8366 87.2932ZM44.358 33.6091C43.3517 34.4853 42.1822 35.1553 40.9161 35.581C39.65 36.0066 38.3122 36.1796 36.979 36.09C35.6459 36.0004 34.3435 35.65 33.1462 35.0587C31.949 34.4674 30.8803 33.647 30.0012 32.6441C29.1221 31.6412 28.4498 30.4756 28.0227 29.2137C27.5956 27.9519 27.422 26.6186 27.5119 25.2899C27.6019 23.9612 27.9535 22.6632 28.5467 21.47C29.14 20.2767 29.9632 19.2116 30.9695 18.3355C33.0017 16.566 35.656 15.6736 38.3484 15.8546C41.0408 16.0356 43.5508 17.2751 45.3263 19.3005C47.1017 21.3259 47.9971 23.9713 47.8155 26.6547C47.6339 29.3381 46.3902 31.8396 44.358 33.6091ZM133.021 115.875C132.577 116.26 132.062 116.555 131.504 116.742C130.947 116.929 130.357 117.005 129.77 116.965C129.183 116.926 128.609 116.771 128.082 116.51C127.555 116.249 127.084 115.888 126.697 115.446C126.31 115.004 126.015 114.49 125.827 113.934C125.639 113.378 125.563 112.791 125.603 112.206C125.643 111.62 125.798 111.049 126.06 110.523C126.321 109.998 126.684 109.529 127.128 109.143C127.571 108.757 128.087 108.462 128.645 108.275C129.204 108.088 129.794 108.013 130.381 108.054C130.969 108.095 131.543 108.251 132.07 108.514C132.596 108.776 133.066 109.14 133.451 109.584C134.226 110.478 134.615 111.64 134.535 112.818C134.454 113.996 133.91 115.094 133.021 115.875ZM44.358 152.844C43.3517 153.72 42.1822 154.39 40.9161 154.815C39.65 155.241 38.3122 155.414 36.979 155.324C35.6459 155.235 34.3435 154.884 33.1462 154.293C31.949 153.702 30.8803 152.881 30.0012 151.878C29.1221 150.876 28.4498 149.71 28.0227 148.448C27.5956 147.186 27.422 145.853 27.5119 144.524C27.6019 143.196 27.9535 141.898 28.5467 140.704C29.14 139.511 29.9632 138.446 30.9695 137.57C31.9757 136.694 33.1453 136.024 34.4114 135.598C35.6774 135.172 37.0152 134.999 38.3484 135.089C41.0408 135.27 43.5508 136.509 45.3263 138.535C47.1017 140.56 47.9971 143.206 47.8155 145.889C47.6339 148.572 46.3902 151.074 44.358 152.844ZM36.7791 59.8912C39.6959 60.4869 42.8159 59.2955 45.3023 56.6744C45.6371 56.317 45.8164 55.8643 45.7925 55.3639C45.7863 55.1271 45.733 54.8939 45.6356 54.6778C45.5382 54.4618 45.3987 54.2672 45.2252 54.1053C45.0517 53.9435 44.8476 53.8176 44.6249 53.7351C44.4021 53.6525 44.1651 53.6149 43.9276 53.6245C43.4495 53.6245 42.9952 53.827 42.6605 54.1844C41.0228 55.9119 39.1938 56.6863 37.4844 56.3289C35.7989 55.9953 34.4003 54.5776 33.5635 52.3378C32.2964 48.9542 29.8817 46.6548 26.9649 46.0711C24.0481 45.4754 20.9281 46.6668 18.4416 49.2878C17.7961 49.9669 17.7722 50.9915 18.3699 51.6944L18.5134 51.8493C19.2306 52.5284 20.3902 52.4927 21.0715 51.7659C22.7092 50.0384 24.5382 49.264 26.2357 49.6214C27.9331 49.955 29.3437 51.3727 30.1685 53.6126C31.2683 56.5434 33.2049 58.6402 35.6076 59.5338C35.9902 59.7006 36.3727 59.8197 36.7791 59.8912ZM26.4508 48.573C24.3828 48.1679 22.1952 49.0495 20.2945 51.0511C20.2214 51.1278 20.1328 51.1882 20.0346 51.2283C19.9364 51.2685 19.8308 51.2875 19.7246 51.2841C19.6185 51.2808 19.5144 51.2551 19.4189 51.2088C19.3235 51.1624 19.2389 51.0965 19.1708 51.0153C18.9318 50.7294 18.9318 50.3005 19.2067 50.0265C21.4421 47.6675 24.1915 46.6072 26.7377 47.1314C29.2959 47.6437 31.4118 49.6929 32.5474 52.7309C33.5276 55.3162 35.2012 56.9604 37.2692 57.3893C39.3373 57.8063 41.5249 56.9365 43.4256 54.9231C43.5256 54.8127 43.6567 54.7351 43.8018 54.7002C43.9468 54.6654 44.099 54.675 44.2385 54.7277C44.378 54.7805 44.4983 54.874 44.5836 54.996C44.6689 55.118 44.7152 55.2629 44.7166 55.4116C44.7285 55.6141 44.6568 55.7928 44.5134 55.9477C42.278 58.3066 39.5285 59.367 36.9823 58.8428C34.4242 58.3305 32.3083 56.2813 31.1607 53.2432C30.3239 50.9915 28.9492 49.4546 27.2398 48.8113C27.0007 48.7159 26.7258 48.6325 26.4508 48.573ZM82.061 112.539C81.4155 112.539 80.8656 112.062 80.7819 111.395C80.3994 107.988 81.4394 105.033 83.6389 103.294C85.8265 101.566 88.9465 101.244 92.186 102.412C94.6127 103.282 96.7764 103.103 98.2945 101.923C99.8007 100.732 100.47 98.671 100.183 96.1214C100.143 95.7834 100.238 95.4432 100.449 95.1753C100.659 94.9073 100.968 94.7334 101.307 94.6917C101.646 94.6549 101.986 94.7532 102.252 94.9653C102.519 95.1773 102.69 95.4859 102.729 95.8235C103.112 99.2428 102.084 102.197 99.8844 103.925C97.6849 105.653 94.5768 105.974 91.3373 104.819C88.8987 103.949 86.735 104.128 85.2168 105.307C83.7226 106.498 83.0412 108.56 83.34 111.109C83.3602 111.289 83.3422 111.47 83.2871 111.643C83.2321 111.815 83.1413 111.974 83.0206 112.108C82.8999 112.243 82.7521 112.351 82.5868 112.425C82.4214 112.5 82.2423 112.538 82.061 112.539Z" fill="#B9E1EE"/>
<path d="M125.683 213.125C126.127 212.74 126.642 212.445 127.2 212.258C127.758 212.071 128.347 211.995 128.934 212.035C129.521 212.074 130.095 212.229 130.622 212.49C131.149 212.751 131.62 213.112 132.007 213.554C132.394 213.996 132.69 214.51 132.877 215.066C133.065 215.622 133.141 216.209 133.101 216.794C133.061 217.38 132.906 217.951 132.644 218.477C132.383 219.002 132.02 219.471 131.576 219.857C131.133 220.243 130.617 220.538 130.059 220.725C129.5 220.912 128.91 220.987 128.323 220.946C127.735 220.905 127.161 220.749 126.634 220.486C126.108 220.224 125.638 219.86 125.253 219.416C124.478 218.522 124.089 217.36 124.169 216.182C124.25 215.004 124.794 213.906 125.683 213.125ZM176.643 216.461C177.289 216.461 177.839 216.938 177.922 217.605C178.305 221.012 177.265 223.967 175.065 225.706C172.878 227.434 169.758 227.756 166.518 226.588C164.091 225.718 161.928 225.897 160.41 227.077C158.903 228.268 158.234 230.329 158.521 232.879C158.561 233.217 158.466 233.557 158.255 233.825C158.045 234.093 157.736 234.267 157.397 234.308C157.058 234.345 156.718 234.247 156.452 234.035C156.185 233.823 156.014 233.514 155.975 233.176C155.592 229.757 156.62 226.803 158.82 225.075C161.019 223.348 164.127 223.026 167.367 224.181C169.805 225.051 171.969 224.872 173.487 223.693C174.982 222.502 175.663 220.44 175.364 217.891C175.344 217.711 175.362 217.53 175.417 217.357C175.472 217.185 175.563 217.026 175.683 216.892C175.804 216.757 175.952 216.649 176.117 216.575C176.283 216.5 176.462 216.462 176.643 216.461Z" fill="#B9E1EE"/>
<path d="M133.214 40.3126C132.301 39.5171 131.109 39.1164 129.901 39.1986C129.302 39.2392 128.718 39.3972 128.18 39.6635C127.643 39.9298 127.163 40.2992 126.769 40.7506C126.374 41.202 126.073 41.7266 125.882 42.2943C125.69 42.8621 125.613 43.4619 125.653 44.0596C125.694 44.6573 125.852 45.2411 126.119 45.7777C126.386 46.3144 126.755 46.7933 127.207 47.1872C127.66 47.5836 128.186 47.8866 128.757 48.0786C129.327 48.2707 129.93 48.348 130.53 48.3061C131.131 48.2643 131.717 48.1041 132.255 47.8347C132.793 47.5654 133.272 47.1923 133.665 46.737C134.453 45.823 134.848 44.6353 134.763 43.4321C134.679 42.229 134.122 41.1079 133.214 40.3126ZM164.783 124.328C163.757 123.434 162.565 122.749 161.275 122.315C159.984 121.88 158.621 121.703 157.262 121.795C155.903 121.886 154.576 122.244 153.355 122.848C152.135 123.452 151.046 124.29 150.15 125.314C149.254 126.338 148.569 127.529 148.133 128.817C147.698 130.106 147.521 131.468 147.613 132.825C147.704 134.182 148.063 135.507 148.667 136.726C149.272 137.944 150.111 139.032 151.137 139.927C153.208 141.734 155.913 142.646 158.657 142.461C161.402 142.276 163.96 141.01 165.77 138.941C167.579 136.873 168.492 134.171 168.307 131.431C168.122 128.69 166.854 126.136 164.783 124.328ZM164.783 2.55716C163.757 1.66236 162.565 0.978078 161.275 0.543349C159.984 0.108619 158.621 -0.0680442 157.262 0.0234736C155.903 0.114991 154.576 0.47289 153.355 1.07672C152.135 1.68055 151.046 2.5185 150.15 3.54272C149.254 4.56694 148.569 5.75736 148.133 7.04604C147.698 8.33472 147.521 9.69641 147.613 11.0534C147.704 12.4103 148.063 13.7359 148.667 14.9546C149.272 16.1732 150.111 17.261 151.137 18.1558C152.162 19.0506 153.354 19.7348 154.645 20.1696C155.935 20.6043 157.299 20.781 158.657 20.6894C161.402 20.5046 163.96 19.2387 165.77 17.1702C167.579 15.1017 168.492 12.4 168.307 9.65956C168.122 6.91909 166.854 4.36427 164.783 2.55716ZM157.058 97.4872C160.031 96.8788 163.211 98.0955 165.745 100.772C166.086 101.137 166.269 101.6 166.245 102.111C166.238 102.353 166.184 102.591 166.085 102.811C165.986 103.032 165.843 103.231 165.667 103.396C165.49 103.561 165.282 103.69 165.055 103.774C164.828 103.859 164.586 103.897 164.344 103.887C163.857 103.887 163.394 103.68 163.053 103.315C161.383 101.551 159.519 100.76 157.777 101.125C156.059 101.466 154.633 102.914 153.781 105.201C152.489 108.657 150.028 111.005 147.055 111.601C144.082 112.21 140.902 110.993 138.368 108.316C137.71 107.623 137.686 106.576 138.295 105.858L138.441 105.7C139.172 105.007 140.354 105.043 141.048 105.785C142.718 107.55 144.582 108.34 146.312 107.975C148.042 107.635 149.48 106.187 150.32 103.899C151.441 100.906 153.415 98.7647 155.864 97.8522C156.254 97.6819 156.644 97.5602 157.058 97.4872ZM146.531 109.046C144.423 109.46 142.194 108.56 140.256 106.515C140.182 106.437 140.092 106.375 139.991 106.334C139.891 106.293 139.784 106.274 139.676 106.277C139.567 106.281 139.461 106.307 139.364 106.354C139.267 106.402 139.181 106.469 139.111 106.552C138.867 106.844 138.867 107.282 139.148 107.562C141.426 109.971 144.228 111.054 146.824 110.518C149.431 109.995 151.587 107.902 152.745 104.8C153.744 102.159 155.45 100.48 157.558 100.042C159.665 99.6165 161.895 100.505 163.832 102.561C163.934 102.674 164.068 102.753 164.216 102.789C164.364 102.824 164.519 102.814 164.661 102.76C164.803 102.707 164.926 102.611 165.013 102.486C165.1 102.362 165.147 102.214 165.148 102.062C165.16 101.855 165.087 101.673 164.941 101.515C162.663 99.1054 159.86 98.0225 157.265 98.5579C154.658 99.0811 152.501 101.174 151.332 104.277C150.479 106.576 149.078 108.146 147.335 108.803C147.092 108.9 146.811 108.985 146.531 109.046Z" fill="#B9E1EE"/>
<path d="M249.51 40.3126C248.597 39.5171 247.405 39.1164 246.197 39.1985C245.598 39.2392 245.013 39.3972 244.476 39.6635C243.939 39.9298 243.459 40.2992 243.065 40.7506C242.67 41.202 242.369 41.7266 242.177 42.2943C241.986 42.8621 241.908 43.4619 241.949 44.0596C241.99 44.6573 242.148 45.2411 242.415 45.7777C242.681 46.3144 243.051 46.7933 243.503 47.1871C243.956 47.5835 244.482 47.8865 245.053 48.0786C245.623 48.2707 246.226 48.348 246.826 48.3061C247.426 48.2643 248.013 48.1041 248.551 47.8347C249.089 47.5654 249.568 47.1923 249.961 46.7369C250.749 45.823 251.144 44.6353 251.059 43.4321C250.975 42.229 250.418 41.1078 249.51 40.3126ZM307.018 125.107L302.827 125.387L303.107 129.585L307.298 129.293L307.018 125.107ZM311.124 69.5021C310.759 69.191 310.286 69.0357 309.807 69.0698C309.329 69.104 308.883 69.3248 308.565 69.6847C308.252 70.0477 308.095 70.5191 308.127 70.9971C308.159 71.4752 308.377 71.9215 308.736 72.2398C309.101 72.551 309.574 72.7063 310.053 72.6722C310.532 72.638 310.978 72.4171 311.295 72.0573C311.608 71.6943 311.765 71.2229 311.733 70.7449C311.702 70.2668 311.483 69.8204 311.124 69.5021ZM281.079 124.328C280.053 123.434 278.861 122.749 277.57 122.315C276.28 121.88 274.917 121.703 273.558 121.795C272.199 121.886 270.871 122.244 269.651 122.848C268.431 123.452 267.342 124.29 266.446 125.314C265.55 126.338 264.864 127.529 264.429 128.817C263.994 130.106 263.817 131.468 263.909 132.825C264 134.182 264.359 135.507 264.963 136.726C265.568 137.944 266.407 139.032 267.433 139.927C269.504 141.734 272.209 142.646 274.953 142.461C277.698 142.276 280.256 141.01 282.065 138.941C283.875 136.873 284.788 134.171 284.603 131.431C284.417 128.69 283.15 126.136 281.079 124.328ZM371.447 40.3125C370.995 39.9187 370.469 39.6176 369.901 39.4264C369.332 39.2353 368.732 39.1578 368.133 39.1985C367.535 39.2392 366.95 39.3972 366.413 39.6635C365.875 39.9298 365.396 40.2992 365.001 40.7506C364.607 41.202 364.305 41.7265 364.114 42.2943C363.923 42.8621 363.845 43.4619 363.886 44.0596C363.927 44.6573 364.085 45.2411 364.351 45.7777C364.618 46.3144 364.988 46.7933 365.44 47.1871C365.892 47.5817 366.418 47.8831 366.987 48.0741C367.556 48.2651 368.157 48.3419 368.756 48.3C369.355 48.2582 369.94 48.0986 370.477 47.8303C371.014 47.5621 371.493 47.1905 371.885 46.7369C372.675 45.8245 373.072 44.6377 372.989 43.4346C372.907 42.2316 372.353 41.1095 371.447 40.3125ZM281.079 2.55713C280.053 1.66234 278.861 0.978066 277.57 0.543336C276.28 0.108607 274.917 -0.0680415 273.558 0.0234762C272.199 0.114994 270.871 0.472893 269.651 1.07673C268.431 1.68056 267.342 2.51849 266.446 3.54271C265.55 4.56693 264.864 5.75735 264.429 7.04603C263.994 8.33471 263.817 9.69641 263.909 11.0534C264 12.4103 264.359 13.7359 264.963 14.9545C265.568 16.1732 266.407 17.261 267.433 18.1557C268.458 19.0505 269.65 19.7348 270.941 20.1696C272.231 20.6043 273.595 20.7809 274.953 20.6894C277.698 20.5046 280.256 19.2387 282.065 17.1702C283.875 15.1017 284.788 12.4 284.603 9.65955C284.417 6.91907 283.15 4.36425 281.079 2.55713ZM273.354 97.4872C276.327 96.8788 279.507 98.0955 282.041 100.772C282.382 101.137 282.565 101.6 282.541 102.111C282.534 102.353 282.48 102.591 282.381 102.811C282.282 103.032 282.139 103.231 281.962 103.396C281.786 103.561 281.578 103.69 281.351 103.774C281.124 103.859 280.882 103.897 280.64 103.887C280.153 103.887 279.69 103.68 279.348 103.315C277.679 101.551 275.815 100.76 274.073 101.125C272.355 101.466 270.929 102.914 270.076 105.201C268.785 108.657 266.324 111.005 263.351 111.601C260.378 112.21 257.198 110.993 254.664 108.316C254.006 107.623 253.982 106.576 254.591 105.858L254.737 105.7C255.468 105.007 256.65 105.043 257.344 105.785C259.013 107.55 260.878 108.34 262.608 107.975C264.338 107.635 265.776 106.187 266.616 103.899C267.737 100.906 269.711 98.7647 272.16 97.8522C272.55 97.6818 272.94 97.5602 273.354 97.4872ZM262.827 109.046C260.719 109.46 258.49 108.559 256.552 106.515C256.478 106.437 256.388 106.375 256.287 106.334C256.187 106.293 256.08 106.274 255.972 106.277C255.863 106.281 255.757 106.307 255.66 106.354C255.563 106.402 255.476 106.469 255.407 106.552C255.163 106.844 255.163 107.282 255.444 107.562C257.722 109.971 260.524 111.054 263.119 110.518C265.727 109.995 267.883 107.902 269.041 104.8C270.04 102.159 271.746 100.48 273.853 100.042C275.961 99.6165 278.191 100.505 280.128 102.561C280.23 102.674 280.364 102.753 280.512 102.789C280.659 102.824 280.815 102.814 280.957 102.76C281.099 102.707 281.222 102.611 281.308 102.486C281.395 102.362 281.443 102.214 281.444 102.062C281.456 101.855 281.383 101.673 281.237 101.515C278.959 99.1054 276.156 98.0225 273.561 98.5579C270.954 99.0811 268.797 101.174 267.628 104.277C266.775 106.576 265.374 108.146 263.631 108.803C263.388 108.9 263.107 108.985 262.827 109.046ZM319.507 43.7195C318.849 43.7195 318.288 44.2061 318.203 44.8875C317.813 48.3674 318.873 51.3849 321.115 53.1613C323.345 54.9256 326.525 55.2541 329.826 54.0617C332.3 53.1735 334.505 53.356 336.052 54.5606C337.588 55.7773 338.27 57.8823 337.977 60.4861C337.936 60.8313 338.033 61.1787 338.248 61.4524C338.463 61.726 338.777 61.9036 339.123 61.9462C339.468 61.9838 339.815 61.8834 340.086 61.6668C340.358 61.4503 340.533 61.1351 340.573 60.7903C340.962 57.2982 339.915 54.2807 337.673 52.5165C335.431 50.7522 332.263 50.4237 328.961 51.6039C326.476 52.4921 324.271 52.3096 322.723 51.1051C321.2 49.8883 320.506 47.7834 320.81 45.1795C320.831 44.9961 320.812 44.8105 320.756 44.6346C320.7 44.4588 320.608 44.2967 320.485 44.159C320.362 44.0212 320.211 43.9109 320.043 43.8352C319.874 43.7594 319.691 43.72 319.507 43.7195Z" fill="#B9E1EE"/>
<path d="M361.615 213.125C362.511 212.346 363.68 211.954 364.866 212.035C365.453 212.074 366.027 212.229 366.554 212.49C367.081 212.751 367.552 213.112 367.939 213.554C368.326 213.996 368.621 214.51 368.809 215.066C368.997 215.622 369.073 216.209 369.033 216.794C368.993 217.38 368.838 217.951 368.576 218.477C368.315 219.002 367.952 219.471 367.508 219.857C367.064 220.245 366.548 220.542 365.988 220.73C365.429 220.918 364.837 220.993 364.248 220.952C363.659 220.911 363.084 220.755 362.556 220.491C362.028 220.227 361.558 219.862 361.173 219.416C360.399 218.521 360.012 217.358 360.095 216.18C360.178 215.002 360.724 213.904 361.615 213.125ZM305.192 296.153L309.304 296.427L309.029 300.538L304.917 300.252L305.192 296.153ZM301.163 241.707C301.522 241.402 301.986 241.25 302.455 241.284C302.925 241.317 303.363 241.533 303.674 241.886C303.981 242.241 304.136 242.703 304.104 243.171C304.073 243.639 303.858 244.076 303.506 244.387C303.148 244.692 302.684 244.844 302.214 244.811C301.745 244.777 301.307 244.561 300.996 244.209C300.689 243.853 300.534 243.392 300.566 242.924C300.597 242.456 300.812 242.019 301.163 241.707ZM330.642 295.391C331.648 294.515 332.818 293.845 334.084 293.419C335.35 292.993 336.688 292.82 338.021 292.91C339.354 293 340.656 293.35 341.854 293.941C343.051 294.533 344.12 295.353 344.999 296.356C345.878 297.359 346.55 298.524 346.977 299.786C347.404 301.048 347.578 302.381 347.488 303.71C347.398 305.039 347.047 306.337 346.453 307.53C345.86 308.723 345.037 309.788 344.031 310.665C341.998 312.434 339.344 313.326 336.652 313.145C333.959 312.964 331.449 311.725 329.674 309.699C327.898 307.674 327.003 305.029 327.185 302.345C327.366 299.662 328.61 297.16 330.642 295.391ZM241.979 213.125C242.423 212.74 242.938 212.445 243.496 212.258C244.053 212.071 244.643 211.995 245.23 212.035C245.817 212.074 246.391 212.229 246.918 212.49C247.445 212.751 247.916 213.112 248.303 213.554C248.69 213.996 248.985 214.51 249.173 215.066C249.361 215.622 249.437 216.209 249.397 216.794C249.357 217.38 249.202 217.951 248.94 218.477C248.679 219.002 248.316 219.471 247.872 219.857C247.429 220.243 246.913 220.538 246.355 220.725C245.796 220.912 245.206 220.987 244.619 220.946C244.031 220.905 243.457 220.749 242.93 220.486C242.404 220.224 241.934 219.86 241.549 219.416C240.774 218.522 240.385 217.36 240.465 216.182C240.546 215.004 241.09 213.906 241.979 213.125ZM330.642 176.157C331.648 175.28 332.818 174.61 334.084 174.185C335.35 173.759 336.688 173.586 338.021 173.676C339.354 173.765 340.656 174.116 341.854 174.707C343.051 175.298 344.12 176.119 344.999 177.122C345.878 178.124 346.55 179.29 346.977 180.552C347.404 181.814 347.578 183.147 347.488 184.476C347.398 185.804 347.047 187.102 346.453 188.296C345.86 189.489 345.037 190.554 344.031 191.43C343.024 192.306 341.855 192.976 340.589 193.402C339.323 193.828 337.985 194.001 336.652 193.911C333.959 193.73 331.449 192.491 329.674 190.465C327.898 188.44 327.003 185.794 327.184 183.111C327.366 180.428 328.61 177.926 330.642 176.157ZM338.221 269.109C335.304 268.513 332.184 269.704 329.698 272.326C329.363 272.683 329.184 273.136 329.208 273.636C329.214 273.873 329.267 274.106 329.364 274.322C329.462 274.538 329.601 274.733 329.775 274.895C329.948 275.057 330.152 275.182 330.375 275.265C330.598 275.348 330.835 275.385 331.072 275.376C331.551 275.376 332.005 275.173 332.34 274.816C333.977 273.088 335.806 272.314 337.516 272.671C339.201 273.005 340.6 274.422 341.437 276.662C342.704 280.046 345.118 282.345 348.035 282.929C350.952 283.525 354.072 282.333 356.558 279.712C357.204 279.033 357.228 278.008 356.63 277.306L356.487 277.151C355.769 276.472 354.61 276.507 353.928 277.234C352.291 278.962 350.462 279.736 348.764 279.379C347.067 279.045 345.656 277.627 344.831 275.387C343.732 272.457 341.795 270.36 339.392 269.466C339.01 269.299 338.627 269.18 338.221 269.109ZM348.549 280.427C350.617 280.832 352.805 279.95 354.705 277.949C354.779 277.872 354.867 277.812 354.965 277.772C355.064 277.732 355.169 277.712 355.275 277.716C355.381 277.719 355.486 277.745 355.581 277.791C355.677 277.838 355.761 277.904 355.829 277.985C356.068 278.271 356.068 278.7 355.793 278.974C353.558 281.332 350.808 282.393 348.262 281.869C345.704 281.356 343.588 279.307 342.453 276.269C341.472 273.684 339.799 272.04 337.731 271.611C335.663 271.194 333.475 272.063 331.574 274.077C331.474 274.187 331.343 274.265 331.198 274.3C331.053 274.335 330.901 274.325 330.761 274.272C330.622 274.22 330.502 274.126 330.416 274.004C330.331 273.882 330.285 273.737 330.283 273.588C330.271 273.386 330.343 273.207 330.487 273.052C332.722 270.693 335.471 269.633 338.018 270.157C340.576 270.67 342.692 272.719 343.839 275.757C344.676 278.009 346.051 279.545 347.76 280.189C347.999 280.284 348.274 280.367 348.549 280.427ZM292.939 216.461C293.585 216.461 294.134 216.938 294.218 217.605C294.601 221.012 293.561 223.967 291.361 225.706C289.173 227.434 286.053 227.756 282.814 226.588C280.387 225.718 278.224 225.897 276.705 227.077C275.199 228.268 274.53 230.329 274.817 232.879C274.857 233.217 274.762 233.557 274.551 233.825C274.341 234.093 274.032 234.267 273.693 234.308C273.354 234.345 273.014 234.247 272.748 234.035C272.481 233.823 272.31 233.514 272.271 233.176C271.888 229.757 272.916 226.803 275.116 225.075C277.315 223.348 280.423 223.026 283.663 224.181C286.101 225.051 288.265 224.872 289.783 223.693C291.277 222.502 291.959 220.441 291.66 217.891C291.64 217.711 291.658 217.53 291.713 217.357C291.768 217.185 291.859 217.027 291.979 216.892C292.1 216.757 292.248 216.649 292.413 216.575C292.579 216.5 292.758 216.462 292.939 216.461Z" fill="#B9E1EE"/>
<path d="M249.317 115.875C248.873 116.26 248.358 116.555 247.8 116.742C247.242 116.929 246.653 117.005 246.066 116.965C245.479 116.926 244.905 116.771 244.378 116.51C243.851 116.249 243.38 115.888 242.993 115.446C242.606 115.004 242.31 114.49 242.123 113.934C241.935 113.378 241.859 112.791 241.899 112.206C241.939 111.62 242.094 111.049 242.356 110.523C242.617 109.998 242.98 109.529 243.424 109.143C243.867 108.757 244.383 108.462 244.941 108.275C245.5 108.088 246.09 108.013 246.677 108.054C247.265 108.095 247.839 108.251 248.366 108.514C248.892 108.776 249.362 109.14 249.747 109.584C250.522 110.478 250.911 111.64 250.831 112.818C250.75 113.996 250.206 115.094 249.317 115.875ZM198.357 112.539C197.711 112.539 197.161 112.062 197.078 111.395C196.695 107.988 197.735 105.033 199.935 103.294C202.122 101.566 205.242 101.244 208.482 102.412C210.909 103.282 213.072 103.103 214.59 101.923C216.097 100.732 216.766 98.671 216.479 96.1214C216.439 95.7834 216.534 95.4432 216.745 95.1753C216.955 94.9073 217.264 94.7334 217.603 94.6917C217.942 94.6549 218.282 94.7532 218.548 94.9653C218.815 95.1773 218.986 95.4859 219.025 95.8235C219.408 99.2428 218.38 102.197 216.18 103.925C213.981 105.653 210.873 105.974 207.633 104.819C205.195 103.949 203.031 104.128 201.513 105.307C200.018 106.498 199.337 108.56 199.636 111.109C199.656 111.289 199.638 111.47 199.583 111.643C199.528 111.815 199.437 111.974 199.317 112.108C199.196 112.243 199.048 112.351 198.883 112.425C198.717 112.5 198.538 112.538 198.357 112.539Z" fill="#B9E1EE"/>
<path d="M241.786 288.687C242.699 289.483 243.891 289.884 245.099 289.801C245.698 289.761 246.282 289.603 246.82 289.336C247.357 289.07 247.837 288.701 248.231 288.249C248.626 287.798 248.927 287.273 249.118 286.706C249.31 286.138 249.387 285.538 249.347 284.94C249.306 284.343 249.148 283.759 248.881 283.222C248.614 282.686 248.245 282.207 247.793 281.813C247.34 281.416 246.814 281.113 246.243 280.921C245.673 280.729 245.07 280.652 244.47 280.694C243.869 280.736 243.283 280.896 242.745 281.165C242.207 281.435 241.728 281.808 241.335 282.263C240.547 283.177 240.152 284.365 240.237 285.568C240.321 286.771 240.878 287.892 241.786 288.687ZM210.217 204.672C211.243 205.566 212.435 206.251 213.725 206.685C215.016 207.12 216.379 207.297 217.738 207.205C219.097 207.114 220.424 206.756 221.645 206.152C222.865 205.548 223.954 204.71 224.85 203.686C225.746 202.662 226.431 201.471 226.867 200.183C227.302 198.894 227.479 197.532 227.387 196.175C227.296 194.818 226.937 193.493 226.333 192.274C225.728 191.056 224.889 189.968 223.863 189.073C221.792 187.266 219.087 186.354 216.342 186.539C213.598 186.724 211.04 187.99 209.23 190.059C207.421 192.127 206.508 194.829 206.693 197.569C206.878 200.31 208.146 202.864 210.217 204.672ZM210.217 326.443C211.243 327.338 212.435 328.022 213.725 328.457C215.016 328.891 216.379 329.068 217.738 328.977C219.097 328.885 220.424 328.527 221.645 327.923C222.865 327.319 223.954 326.482 224.85 325.457C225.746 324.433 226.431 323.243 226.867 321.954C227.302 320.665 227.479 319.304 227.387 317.947C227.296 316.59 226.937 315.264 226.333 314.045C225.728 312.827 224.889 311.739 223.863 310.844C222.838 309.949 221.646 309.265 220.355 308.83C219.065 308.396 217.701 308.219 216.343 308.311C213.598 308.495 211.04 309.761 209.23 311.83C207.421 313.898 206.508 316.6 206.693 319.34C206.878 322.081 208.146 324.636 210.217 326.443ZM217.942 231.513C214.969 232.121 211.789 230.904 209.255 228.228C208.914 227.863 208.731 227.4 208.755 226.889C208.762 226.647 208.816 226.409 208.915 226.189C209.014 225.968 209.157 225.769 209.333 225.604C209.51 225.439 209.718 225.31 209.945 225.226C210.172 225.141 210.414 225.103 210.656 225.113C211.143 225.113 211.606 225.32 211.947 225.685C213.617 227.449 215.481 228.24 217.223 227.875C218.941 227.534 220.367 226.086 221.219 223.799C222.511 220.343 224.972 217.995 227.945 217.399C230.918 216.79 234.098 218.007 236.632 220.684C237.29 221.377 237.314 222.424 236.705 223.142L236.559 223.3C235.828 223.993 234.646 223.957 233.952 223.215C232.282 221.45 230.418 220.66 228.688 221.025C226.958 221.365 225.52 222.813 224.68 225.101C223.559 228.094 221.585 230.235 219.136 231.148C218.746 231.318 218.356 231.44 217.942 231.513ZM228.469 219.954C230.577 219.54 232.806 220.441 234.744 222.485C234.818 222.563 234.908 222.625 235.008 222.666C235.109 222.707 235.216 222.726 235.324 222.723C235.433 222.719 235.539 222.693 235.636 222.646C235.733 222.598 235.819 222.531 235.889 222.448C236.133 222.156 236.133 221.718 235.852 221.438C233.574 219.029 230.772 217.946 228.176 218.482C225.569 219.005 223.413 221.098 222.255 224.2C221.256 226.841 219.55 228.52 217.442 228.958C215.335 229.384 213.105 228.495 211.168 226.439C211.066 226.326 210.932 226.247 210.784 226.211C210.636 226.176 210.481 226.186 210.339 226.24C210.197 226.293 210.074 226.389 209.987 226.514C209.9 226.638 209.853 226.786 209.852 226.938C209.84 227.145 209.913 227.327 210.059 227.485C212.337 229.895 215.14 230.977 217.735 230.442C220.342 229.919 222.499 227.826 223.668 224.723C224.521 222.424 225.922 220.854 227.665 220.197C227.908 220.1 228.189 220.015 228.469 219.954Z" fill="#B9E1EE"/>
<path d="M16.1453 560.428L38.7003 553.347L45.7631 575.988L23.2081 583.081L16.1453 560.428ZM37.5272 555.606L18.4189 561.631L24.3933 580.822L43.5136 574.809L37.5272 555.606ZM131.98 515.061L121.047 519.458L125.425 530.451L136.358 526.054L131.98 515.061ZM136.431 596.685L124.736 600.317L125.425 602.576L137.12 598.932L136.431 596.685ZM74.9818 635.785L75.8284 637.898L90.5103 631.983L89.6637 629.869L74.9818 635.785ZM81.3673 577.154L82.9637 576.048L68.1609 554.598L66.5645 555.715L81.3673 577.154ZM10.9449 515.061L0.0120941 519.458L4.39006 530.439L15.3229 526.042L10.9449 515.061ZM15.3955 596.685L3.70071 600.329L4.39006 602.576L16.0848 598.944L15.3955 596.685ZM131.98 636.623L121.035 641.02L125.413 652L136.346 647.603L131.98 636.623ZM10.9449 636.623L0 641.02L4.39006 652L15.3229 647.603L10.9449 636.623Z" fill="#2171BB"/>
<path d="M121.265 389.384L99.1157 382.456L92.1799 404.607L114.329 411.547L121.265 389.384ZM100.268 384.667L119.032 390.561L113.165 409.336L94.3889 403.454L100.268 384.667ZM7.51363 345L18.2498 349.302L13.9506 360.056L3.2144 355.754L7.51363 345ZM3.14314 424.856L14.6276 428.409L13.9506 430.619L2.46619 427.054L3.14314 424.856ZM63.4867 463.108L62.6554 465.176L48.2375 459.389L49.0689 457.321L63.4867 463.108ZM57.216 405.748L55.6484 404.666L70.185 383.68L71.7527 384.773L57.216 405.748ZM126.372 345L137.108 349.302L132.809 360.044L122.073 355.743L126.372 345ZM122.001 424.856L133.486 428.421L132.809 430.619L121.324 427.066L122.001 424.856ZM7.51363 463.928L18.2617 468.23L13.9625 478.973L3.22628 474.671L7.51363 463.928ZM126.372 463.928L137.12 468.23L132.809 478.973L122.073 474.671L126.372 463.928Z" fill="#2171BB"/>
<path d="M122.519 408.225L134.214 404.593L133.524 402.334L121.83 405.978L122.519 408.225ZM183.968 369.125L183.121 367.012L168.439 372.927L169.286 375.041L183.968 369.125ZM169.197 422.812L167.601 423.918L182.404 445.368L184 444.251L169.197 422.812Z" fill="#2171BB"/>
<path d="M144.59 615.526L166.739 622.454L173.675 600.303L151.526 593.363L144.59 615.526ZM165.587 620.243L146.823 614.349L152.689 595.573L171.466 601.456L165.587 620.243ZM143.853 580.054L132.369 576.489L133.046 574.29L144.53 577.844L143.853 580.054Z" fill="#2171BB"/>
<path d="M358.855 444.572L336.3 451.653L329.237 429.012L351.792 421.919L358.855 444.572ZM337.473 449.394L356.581 443.369L350.607 424.178L331.486 430.191L337.473 449.394ZM243.02 489.939L253.953 485.542L249.575 474.549L238.642 478.946L243.02 489.939ZM238.569 408.315L250.264 404.683L249.575 402.424L237.88 406.068L238.569 408.315ZM300.018 369.215L299.172 367.102L284.49 373.017L285.336 375.131L300.018 369.215ZM293.633 427.846L292.036 428.952L306.839 450.402L308.435 449.285L293.633 427.846ZM364.055 489.939L374.988 485.542L370.61 474.561L359.677 478.958L364.055 489.939ZM359.605 408.315L371.299 404.671L370.61 402.424L358.915 406.056L359.605 408.315ZM243.02 368.377L253.965 363.98L249.587 353L238.654 357.397L243.02 368.377ZM364.055 368.377L375 363.98L370.61 353L359.677 357.397L364.055 368.377Z" fill="#2171BB"/>
<path d="M253.735 615.616L275.884 622.544L282.82 600.393L260.671 593.453L253.735 615.616ZM274.732 620.333L255.968 614.439L261.835 595.664L280.611 601.546L274.732 620.333ZM367.486 660L356.75 655.698L361.049 644.944L371.786 649.246L367.486 660ZM371.857 580.144L360.372 576.591L361.049 574.381L372.534 577.946L371.857 580.144ZM311.513 541.892L312.345 539.824L326.762 545.611L325.931 547.679L311.513 541.892ZM317.784 599.252L319.352 600.334L304.815 621.32L303.247 620.227L317.784 599.252ZM248.628 660L237.892 655.698L242.191 644.956L252.927 649.257L248.628 660ZM252.999 580.144L241.514 576.579L242.191 574.381L253.676 577.934L252.999 580.144ZM367.486 541.072L356.738 536.77L361.038 526.027L371.774 530.329L367.486 541.072ZM248.628 541.072L237.88 536.77L242.191 526.027L252.927 530.329L248.628 541.072Z" fill="#2171BB"/>
<path d="M252.481 596.775L240.786 600.407L241.476 602.666L253.17 599.022L252.481 596.775ZM191.032 635.875L191.879 637.988L206.561 632.073L205.714 629.959L191.032 635.875ZM205.803 582.188L207.399 581.082L192.596 559.632L191 560.749L205.803 582.188Z" fill="#2171BB"/>
<path d="M230.41 389.474L208.261 382.546L201.325 404.697L223.474 411.637L230.41 389.474ZM209.413 384.757L228.177 390.651L222.311 409.427L203.534 403.544L209.413 384.757ZM231.147 424.946L242.631 428.511L241.954 430.71L230.47 427.156L231.147 424.946Z" fill="#2171BB"/>
<path d="M16.1453 222.428L38.7003 215.347L45.7631 237.988L23.2081 245.081L16.1453 222.428ZM37.5272 217.606L18.4189 223.631L24.3933 242.822L43.5136 236.809L37.5272 217.606ZM131.98 177.061L121.047 181.458L125.425 192.451L136.358 188.054L131.98 177.061ZM136.431 258.685L124.736 262.317L125.425 264.576L137.12 260.932L136.431 258.685ZM74.9818 297.785L75.8284 299.898L90.5103 293.983L89.6637 291.869L74.9818 297.785ZM81.3673 239.154L82.9637 238.048L68.1609 216.598L66.5645 217.715L81.3673 239.154ZM10.9449 177.061L0.0120941 181.458L4.39006 192.439L15.3229 188.042L10.9449 177.061ZM15.3955 258.685L3.70071 262.329L4.39006 264.576L16.0848 260.944L15.3955 258.685ZM131.98 298.623L121.035 303.02L125.413 314L136.346 309.603L131.98 298.623ZM10.9449 298.623L0 303.02L4.39006 314L15.3229 309.603L10.9449 298.623Z" fill="#2171BB"/>
<path d="M121.265 51.3842L99.1157 44.4562L92.1799 66.6068L114.329 73.5466L121.265 51.3842ZM100.268 46.6665L119.032 52.5607L113.165 71.3363L94.3889 65.4541L100.268 46.6665ZM7.51363 7L18.2498 11.3018L13.9506 22.0562L3.2144 17.7544L7.51363 7ZM3.14314 86.856L14.6276 90.4091L13.9506 92.6194L2.46619 89.0544L3.14314 86.856ZM63.4867 125.108L62.6554 127.176L48.2375 121.389L49.0689 119.321L63.4867 125.108ZM57.216 67.7476L55.6484 66.6662L70.185 45.6802L71.7527 46.7735L57.216 67.7476ZM126.372 7L137.108 11.3018L132.809 22.0443L122.073 17.7425L126.372 7ZM122.001 86.856L133.486 90.421L132.809 92.6194L121.324 89.0663L122.001 86.856ZM7.51363 125.928L18.2617 130.23L13.9625 140.973L3.22628 136.671L7.51363 125.928ZM126.372 125.928L137.12 130.23L132.809 140.973L122.073 136.671L126.372 125.928Z" fill="#2171BB"/>
<path d="M122.519 70.2246L134.214 66.5928L133.524 64.3336L121.83 67.9775L122.519 70.2246ZM183.968 31.1253L183.121 29.0118L168.439 34.9271L169.286 37.0406L183.968 31.1253ZM169.197 84.8124L167.601 85.9178L182.404 107.368L184 106.251L169.197 84.8124Z" fill="#2171BB"/>
<path d="M144.59 277.526L166.739 284.454L173.675 262.303L151.526 255.363L144.59 277.526ZM165.587 282.243L146.823 276.349L152.689 257.573L171.466 263.456L165.587 282.243ZM143.853 242.054L132.369 238.489L133.046 236.29L144.53 239.844L143.853 242.054Z" fill="#2171BB"/>
<path d="M358.855 106.572L336.3 113.653L329.237 91.0123L351.792 83.9188L358.855 106.572ZM337.473 111.394L356.581 105.369L350.607 86.1781L331.486 92.1905L337.473 111.394ZM243.02 151.939L253.953 147.542L249.575 136.549L238.642 140.946L243.02 151.939ZM238.569 70.3148L250.264 66.683L249.575 64.4238L237.88 68.0677L238.569 70.3148ZM300.018 31.2155L299.172 29.102L284.49 35.0173L285.336 37.1308L300.018 31.2155ZM293.633 89.8463L292.036 90.9516L306.839 112.402L308.435 111.285L293.633 89.8463ZM364.055 151.939L374.988 147.542L370.61 136.561L359.677 140.958L364.055 151.939ZM359.605 70.3148L371.299 66.6709L370.61 64.4238L358.915 68.0556L359.605 70.3148ZM243.02 30.3774L253.965 25.9804L249.587 15L238.654 19.397L243.02 30.3774ZM364.055 30.3774L375 25.9804L370.61 15L359.677 19.397L364.055 30.3774Z" fill="#2171BB"/>
<path d="M253.735 277.616L275.884 284.544L282.82 262.393L260.671 255.453L253.735 277.616ZM274.732 282.333L255.968 276.439L261.835 257.664L280.611 263.546L274.732 282.333ZM367.486 322L356.75 317.698L361.049 306.944L371.786 311.246L367.486 322ZM371.857 242.144L360.372 238.591L361.049 236.381L372.534 239.946L371.857 242.144ZM311.513 203.892L312.345 201.824L326.762 207.611L325.931 209.679L311.513 203.892ZM317.784 261.252L319.352 262.334L304.815 283.32L303.247 282.227L317.784 261.252ZM248.628 322L237.892 317.698L242.191 306.956L252.927 311.257L248.628 322ZM252.999 242.144L241.514 238.579L242.191 236.381L253.676 239.934L252.999 242.144ZM367.486 203.072L356.738 198.77L361.038 188.027L371.774 192.329L367.486 203.072ZM248.628 203.072L237.88 198.77L242.191 188.027L252.927 192.329L248.628 203.072Z" fill="#2171BB"/>
<path d="M252.481 258.775L240.786 262.407L241.476 264.666L253.17 261.022L252.481 258.775ZM191.032 297.875L191.879 299.988L206.561 294.073L205.714 291.959L191.032 297.875ZM205.803 244.188L207.399 243.082L192.596 221.632L191 222.749L205.803 244.188Z" fill="#2171BB"/>
<path d="M230.41 51.4744L208.261 44.5465L201.325 66.6969L223.474 73.6368L230.41 51.4744ZM209.413 46.7567L228.177 52.6509L222.311 71.4265L203.534 65.5443L209.413 46.7567ZM231.147 86.9462L242.631 90.5111L241.954 92.7096L230.47 89.1565L231.147 86.9462Z" fill="#2171BB"/>
<path d="M32.3352 508.189L28.4072 543.706L61.04 529.366L32.3352 508.189ZM83.1578 609.418L108.72 581.15L120.347 617.492L83.1578 609.418ZM86.3486 608.388L117.869 615.225L108.019 584.435L86.3486 608.388ZM32.3232 629.504L28.383 665.021L61.0159 650.669L32.3232 629.504Z" fill="#63B8D4"/>
<path d="M105.539 338L109.446 372.957L76.9883 358.843L105.539 338ZM54.9894 437.632L29.5644 409.81L18 445.578L54.9894 437.632ZM51.8158 436.618L20.4644 443.347L30.2617 413.043L51.8158 436.618ZM105.551 457.401L109.47 492.358L77.0123 478.232L105.551 457.401Z" fill="#63B8D4"/>
<path d="M175.83 395.582L150.268 423.85L138.641 387.508L175.83 395.582ZM172.64 396.612L141.119 389.775L150.969 420.565L172.64 396.612Z" fill="#63B8D4"/>
<path d="M153.45 667L149.543 632.043L182 646.157L153.45 667ZM153.438 547.599L149.519 512.642L181.976 526.768L153.438 547.599Z" fill="#63B8D4"/>
<path d="M342.665 496.811L346.593 461.294L313.96 475.634L342.665 496.811ZM291.842 395.582L266.28 423.85L254.653 387.508L291.842 395.582ZM288.651 396.612L257.13 389.775L266.981 420.565L288.651 396.612ZM342.677 375.496L346.617 339.979L313.984 354.331L342.677 375.496Z" fill="#63B8D4"/>
<path d="M269.461 667L265.554 632.043L298.012 646.157L269.461 667ZM320.011 567.368L345.436 595.19L357 559.422L320.011 567.368ZM323.184 568.382L354.536 561.653L344.738 591.957L323.184 568.382ZM269.449 547.599L265.53 512.642L297.988 526.768L269.449 547.599Z" fill="#63B8D4"/>
<path d="M199.17 609.418L224.732 581.15L236.359 617.492L199.17 609.418ZM202.36 608.388L233.881 615.225L224.031 584.435L202.36 608.388Z" fill="#63B8D4"/>
<path d="M221.55 338L225.457 372.957L193 358.843L221.55 338ZM221.562 457.401L225.481 492.358L193.024 478.232L221.562 457.401Z" fill="#63B8D4"/>
<path d="M32.3352 170.189L28.4072 205.706L61.04 191.366L32.3352 170.189ZM83.1578 271.418L108.72 243.15L120.347 279.492L83.1578 271.418ZM86.3486 270.388L117.869 277.225L108.019 246.435L86.3486 270.388ZM32.3232 291.504L28.383 327.021L61.0159 312.669L32.3232 291.504Z" fill="#63B8D4"/>
<path d="M105.539 0L109.446 34.9566L76.9883 20.8427L105.539 0ZM54.9894 99.6323L29.5644 71.8102L18 107.578L54.9894 99.6323ZM51.8158 98.6182L20.4644 105.347L30.2617 75.0434L51.8158 98.6182ZM105.551 119.401L109.47 154.358L77.0123 140.232L105.551 119.401Z" fill="#63B8D4"/>
<path d="M175.83 57.5816L150.268 85.8495L138.641 49.5085L175.83 57.5816ZM172.64 58.6119L141.119 51.7752L150.969 82.5646L172.64 58.6119Z" fill="#63B8D4"/>
<path d="M153.45 329L149.543 294.043L182 308.157L153.45 329ZM153.438 209.599L149.519 174.642L181.976 188.768L153.438 209.599Z" fill="#63B8D4"/>
<path d="M342.665 158.811L346.593 123.294L313.96 137.634L342.665 158.811ZM291.842 57.5816L266.28 85.8495L254.653 49.5084L291.842 57.5816ZM288.651 58.6119L257.13 51.7752L266.981 82.5645L288.651 58.6119ZM342.677 37.4958L346.617 1.97894L313.984 16.3311L342.677 37.4958Z" fill="#63B8D4"/>
<path d="M269.461 329L265.554 294.043L298.012 308.157L269.461 329ZM320.011 229.368L345.436 257.19L357 221.422L320.011 229.368ZM323.184 230.382L354.536 223.653L344.738 253.957L323.184 230.382ZM269.449 209.599L265.53 174.642L297.988 188.768L269.449 209.599Z" fill="#63B8D4"/>
<path d="M199.17 271.418L224.732 243.15L236.359 279.492L199.17 271.418ZM202.36 270.388L233.881 277.225L224.031 246.435L202.36 270.388Z" fill="#63B8D4"/>
<path d="M221.55 6.41735e-06L225.457 34.9566L193 20.8427L221.55 6.41735e-06ZM221.562 119.401L225.481 154.358L193.024 140.232L221.562 119.401Z" fill="#63B8D4"/>
</g>
</g>
<defs>
<radialGradient id="paint0_radial_653_5082" cx="0" cy="0" r="1" gradientUnits="userSpaceOnUse" gradientTransform="translate(188.082 334.701) rotate(-0.401144) scale(242.924 432.082)">
<stop stop-color="#CCF8FF"/>
<stop offset="0.494792" stop-color="#6AD0E0"/>
<stop offset="1" stop-color="#56B1BF"/>
</radialGradient>
<clipPath id="clip0_653_5082">
<rect width="375" height="667" fill="white"/>
</clipPath>
<clipPath id="clip1_653_5082">
<rect width="375" height="667" fill="white"/>
</clipPath>
</defs>
</svg>
