<svg width="51" height="51" viewBox="0 0 51 51" fill="none" xmlns="http://www.w3.org/2000/svg">
<path d="M25.7601 0.684092C12.2318 0.684093 1.26491 11.9088 1.26491 25.7552C1.26491 39.6015 12.2318 50.8262 25.7601 50.8262C39.2884 50.8262 50.2552 39.6015 50.2552 25.7552C50.2552 11.9088 39.2884 0.684091 25.7601 0.684092Z" fill="#F3F1F2"/>
<g filter="url(#filter0_i_601_466)">
<path d="M26.2897 5.32648C14.9741 5.32648 5.59702 14.5066 5.34553 25.8309C5.09403 37.1552 14.0633 46.3354 25.379 46.3354C36.6946 46.3354 46.0717 37.1552 46.3232 25.8309C46.5747 14.5066 37.6054 5.32648 26.2897 5.32648Z" fill="#FFCB2B"/>
</g>
<path d="M25.9074 5.0142C37.1637 5.0142 46.321 14.3873 46.321 25.9068C46.321 37.4262 37.1637 46.7993 25.9074 46.7993C14.6511 46.7993 5.49576 37.4262 5.49576 25.9068C5.49576 14.3873 14.6511 5.0142 25.9074 5.0142ZM25.9074 46.1337C36.803 46.1337 45.6667 37.0612 45.6667 25.9088C45.6667 14.7565 36.803 5.68401 25.9074 5.68401C15.0117 5.68401 6.14812 14.7565 6.14812 25.9088C6.1461 37.0591 15.0117 46.1337 25.9074 46.1337Z" fill="url(#paint0_linear_601_466)"/>
<path d="M25.5 -1.58639e-06C39.2314 -2.81504e-06 50.4034 11.4347 50.4034 25.4889C50.4034 39.5431 39.2314 50.9778 25.5 50.9778C11.7686 50.9778 0.596599 39.5431 0.596597 25.4889C0.596596 11.4326 11.7666 -3.57545e-07 25.5 -1.58639e-06ZM25.5 50.1402C38.7824 50.1402 49.5871 39.0815 49.5871 25.4868C49.5871 11.8922 38.7824 0.833474 25.5 0.833475C12.2176 0.833477 1.41297 11.8922 1.41297 25.4868C1.41297 39.0815 12.2177 50.1402 25.5 50.1402Z" fill="#FED659"/>
<g filter="url(#filter1_d_601_466)">
<path d="M28.7005 25.886C27.9454 26.2912 27.0777 26.5233 26.1506 26.5233C25.2279 26.5233 24.3602 26.2912 23.6026 25.886C21.0025 26.8718 19.1602 29.3087 19.1602 32.1651V32.4527C21.0267 34.0405 23.4727 35 26.1506 35C28.8347 35 31.2758 34.0405 33.146 32.4491V32.1645C33.146 29.3087 31.3005 26.8718 28.7005 25.886ZM26.1506 17C23.6094 17 21.5493 18.9888 21.5493 21.4418C21.5493 23.8931 23.6094 25.8825 26.1506 25.8825C28.6956 25.8825 30.7538 23.8931 30.7538 21.4418C30.7538 18.9894 28.6956 17 26.1506 17Z" fill="white"/>
</g>
<defs>
<filter id="filter0_i_601_466" x="5.34039" y="5.32648" width="42.988" height="43.0089" filterUnits="userSpaceOnUse" color-interpolation-filters="sRGB">
<feFlood flood-opacity="0" result="BackgroundImageFix"/>
<feBlend mode="normal" in="SourceGraphic" in2="BackgroundImageFix" result="shape"/>
<feColorMatrix in="SourceAlpha" type="matrix" values="0 0 0 0 0 0 0 0 0 0 0 0 0 0 0 0 0 0 127 0" result="hardAlpha"/>
<feOffset dx="2" dy="2"/>
<feGaussianBlur stdDeviation="1.5"/>
<feComposite in2="hardAlpha" operator="arithmetic" k2="-1" k3="1"/>
<feColorMatrix type="matrix" values="0 0 0 0 0 0 0 0 0 0 0 0 0 0 0 0 0 0 0.2 0"/>
<feBlend mode="normal" in2="shape" result="effect1_innerShadow_601_466"/>
</filter>
<filter id="filter1_d_601_466" x="18.1602" y="16" width="19.9859" height="24" filterUnits="userSpaceOnUse" color-interpolation-filters="sRGB">
<feFlood flood-opacity="0" result="BackgroundImageFix"/>
<feColorMatrix in="SourceAlpha" type="matrix" values="0 0 0 0 0 0 0 0 0 0 0 0 0 0 0 0 0 0 127 0" result="hardAlpha"/>
<feOffset dx="2" dy="2"/>
<feGaussianBlur stdDeviation="1.5"/>
<feComposite in2="hardAlpha" operator="out"/>
<feColorMatrix type="matrix" values="0 0 0 0 0 0 0 0 0 0 0 0 0 0 0 0 0 0 0.2 0"/>
<feBlend mode="normal" in2="BackgroundImageFix" result="effect1_dropShadow_601_466"/>
<feBlend mode="normal" in="SourceGraphic" in2="effect1_dropShadow_601_466" result="shape"/>
</filter>
<linearGradient id="paint0_linear_601_466" x1="40.3336" y1="40.6747" x2="10.8076" y2="11.8283" gradientUnits="userSpaceOnUse">
<stop stop-color="white"/>
<stop offset="1" stop-color="#CECECE"/>
</linearGradient>
</defs>
</svg>
