<svg width="50" height="51" viewBox="0 0 50 51" fill="none" xmlns="http://www.w3.org/2000/svg">
<path d="M25.1635 0.684092C11.6352 0.684093 0.668351 11.9088 0.668352 25.7552C0.668353 39.6015 11.6352 50.8262 25.1635 50.8262C38.6918 50.8262 49.6587 39.6015 49.6587 25.7552C49.6587 11.9088 38.6918 0.684091 25.1635 0.684092Z" fill="#F3F1F2"/>
<g filter="url(#filter0_i_601_465)">
<path d="M25.6932 5.32648C14.3775 5.32648 5.00047 14.5066 4.74897 25.8309C4.49748 37.1552 13.4668 46.3354 24.7824 46.3354C36.0981 46.3354 45.4751 37.1552 45.7266 25.8309C45.9781 14.5066 37.0088 5.32648 25.6932 5.32648Z" fill="#FFCB2B"/>
</g>
<path d="M25.3108 5.0142C36.5671 5.0142 45.7245 14.3873 45.7245 25.9068C45.7245 37.4262 36.5671 46.7993 25.3108 46.7993C14.0546 46.7993 4.8992 37.4262 4.8992 25.9068C4.8992 14.3873 14.0546 5.0142 25.3108 5.0142ZM25.3108 46.1337C36.2065 46.1337 45.0701 37.0612 45.0701 25.9088C45.0701 14.7565 36.2065 5.68401 25.3108 5.68401C14.4152 5.68401 5.55156 14.7565 5.55157 25.9088C5.54954 37.0591 14.4152 46.1337 25.3108 46.1337Z" fill="url(#paint0_linear_601_465)"/>
<path d="M24.9035 -1.58639e-06C38.6348 -2.81504e-06 49.8069 11.4347 49.8069 25.4889C49.8069 39.5431 38.6348 50.9778 24.9035 50.9778C11.1721 50.9778 4.0985e-05 39.5431 3.97845e-05 25.4889C3.85839e-05 11.4326 11.17 -3.57545e-07 24.9035 -1.58639e-06ZM24.9035 50.1402C38.1858 50.1402 48.9905 39.0815 48.9905 25.4868C48.9905 11.8922 38.1858 0.833474 24.9035 0.833475C11.6211 0.833477 0.816411 11.8922 0.816412 25.4868C0.816413 39.0815 11.6211 50.1402 24.9035 50.1402Z" fill="#FED659"/>
<g filter="url(#filter1_d_601_465)">
<path d="M23.2048 30.1287C24.3017 29.5206 25.3544 28.8198 26.3144 27.9099C27.2802 26.9971 28.1592 25.8619 28.9101 24.3925C28.9631 24.2836 28.9631 24.1805 28.9263 24.0878C28.8733 23.9479 28.7569 23.8051 28.6171 23.6652C28.5081 23.5563 28.3344 23.4208 28.1445 23.2795C27.4009 22.7141 26.4778 22.0148 26.9401 21.0268C26.9504 21.0047 26.9622 20.9886 26.971 20.9665L28.8659 17.6714C28.8718 17.6611 28.8821 17.6493 28.888 17.6405C29.1869 17.2062 29.6477 17.0266 30.1704 17.0221C30.7019 17.0221 31.2996 17.218 31.8046 17.5051C32.4716 17.8849 32.9133 18.4444 33.2048 19.0893C33.4875 19.7032 33.6391 20.3864 33.7363 21.043C33.888 22.0736 33.7908 23.0395 33.4875 24.0274C33.1886 24.9932 32.6954 25.9664 32.0387 27.0295L31.9887 27.1075C31.6839 27.5948 31.3585 28.1219 30.9742 28.6387C29.5461 30.5291 27.4834 32.4564 25.2131 33.7123C23.3079 34.765 21.2511 35.3392 19.2914 35.0256C18.2166 34.8519 17.239 34.391 16.5942 33.5871C16.0288 32.8863 15.7196 31.9426 15.8285 30.7206C15.8389 30.5807 15.9198 30.4555 16.0406 30.3893L19.6124 28.2765C20.0129 27.9673 20.4104 27.929 20.8079 28.0984C21.1333 28.2382 21.4336 28.5209 21.7134 28.9067C21.8106 29.02 21.9092 29.1555 22.0123 29.2983C22.3553 29.7709 22.7514 30.3083 23.2166 30.1243L23.2048 30.1287Z" fill="white"/>
</g>
<defs>
<filter id="filter0_i_601_465" x="4.74384" y="5.32648" width="42.988" height="43.0089" filterUnits="userSpaceOnUse" color-interpolation-filters="sRGB">
<feFlood flood-opacity="0" result="BackgroundImageFix"/>
<feBlend mode="normal" in="SourceGraphic" in2="BackgroundImageFix" result="shape"/>
<feColorMatrix in="SourceAlpha" type="matrix" values="0 0 0 0 0 0 0 0 0 0 0 0 0 0 0 0 0 0 127 0" result="hardAlpha"/>
<feOffset dx="2" dy="2"/>
<feGaussianBlur stdDeviation="1.5"/>
<feComposite in2="hardAlpha" operator="arithmetic" k2="-1" k3="1"/>
<feColorMatrix type="matrix" values="0 0 0 0 0 0 0 0 0 0 0 0 0 0 0 0 0 0 0.2 0"/>
<feBlend mode="normal" in2="shape" result="effect1_innerShadow_601_465"/>
</filter>
<filter id="filter1_d_601_465" x="14.8069" y="16.0222" width="24" height="24.0889" filterUnits="userSpaceOnUse" color-interpolation-filters="sRGB">
<feFlood flood-opacity="0" result="BackgroundImageFix"/>
<feColorMatrix in="SourceAlpha" type="matrix" values="0 0 0 0 0 0 0 0 0 0 0 0 0 0 0 0 0 0 127 0" result="hardAlpha"/>
<feOffset dx="2" dy="2"/>
<feGaussianBlur stdDeviation="1.5"/>
<feComposite in2="hardAlpha" operator="out"/>
<feColorMatrix type="matrix" values="0 0 0 0 0 0 0 0 0 0 0 0 0 0 0 0 0 0 0.2 0"/>
<feBlend mode="normal" in2="BackgroundImageFix" result="effect1_dropShadow_601_465"/>
<feBlend mode="normal" in="SourceGraphic" in2="effect1_dropShadow_601_465" result="shape"/>
</filter>
<linearGradient id="paint0_linear_601_465" x1="39.7371" y1="40.6747" x2="10.211" y2="11.8283" gradientUnits="userSpaceOnUse">
<stop stop-color="white"/>
<stop offset="1" stop-color="#CECECE"/>
</linearGradient>
</defs>
</svg>
