<svg width="31" height="30" viewBox="0 0 31 30" fill="none" xmlns="http://www.w3.org/2000/svg">
<path d="M30.9782 15C30.9782 6.71573 24.2624 8.89546e-07 15.978 1.25167e-06C7.69361 1.61379e-06 0.977782 6.71573 0.977783 15C0.977783 23.2843 7.69361 30 15.978 30C24.2624 30 30.9782 23.2843 30.9782 15Z" fill="black"/>
<path d="M15.9784 29.6713C24.0812 29.6713 30.6497 23.1028 30.6497 15C30.6497 6.8973 24.0812 0.328735 15.9784 0.328735C7.87569 0.328735 1.30713 6.8973 1.30713 15C1.30713 23.1028 7.87569 29.6713 15.9784 29.6713Z" fill="url(#paint0_radial_202_2140)"/>
<path opacity="0.2" d="M25.8018 11.2974C24.2817 15.1215 21.5245 10.922 17.7005 9.40184C13.8764 7.88173 8.86826 8.99471 10.3882 5.17063C11.9083 1.34655 16.6287 0.95788 20.4528 2.478C24.2771 3.9979 27.3219 7.47329 25.8018 11.2974Z" fill="url(#paint1_linear_202_2140)"/>
<path d="M15.9361 2.31323C22.9198 2.31323 28.5812 7.97462 28.5812 14.9583C28.5812 21.942 22.9198 27.6034 15.9361 27.6034C8.95241 27.6034 3.29102 21.942 3.29102 14.9583C3.29101 7.97462 8.95241 2.31323 15.9361 2.31323Z" stroke="#086C35" stroke-width="0.5"/>
<g opacity="0.1">
<path d="M9.48853 13.853V19.3795H12.0675L16.6729 21.5901V11.6424L12.0675 13.853H9.48853Z" fill="#231F20"/>
<path d="M16.3966 22.1427C16.8542 22.1427 17.2256 21.7713 17.2256 21.3137V11.9188C17.2256 11.4612 16.8542 11.0898 16.3966 11.0898C15.939 11.0898 15.5676 11.4612 15.5676 11.9188V21.3137C15.5676 21.7713 15.939 22.1427 16.3966 22.1427Z" fill="#231F20"/>
<path d="M20.7147 12.3793L19.9815 13.1999C21.8035 15.2391 21.8035 18.5461 19.9815 20.5853L20.7147 21.4058C22.9399 18.9153 22.9399 14.8739 20.7147 12.3793ZM19.2483 14.0205L18.5151 14.8411C19.001 15.3853 19.2739 16.1232 19.2739 16.8926C19.2739 17.6619 19.001 18.3998 18.5151 18.9441L19.2483 19.7647C20.6633 18.1809 20.6633 15.6083 19.2483 14.0205Z" fill="#231F20"/>
</g>
<path d="M9.48853 12.5635V18.09H12.0675L16.6729 20.3006V10.3529L12.0675 12.5635H9.48853Z" fill="white"/>
<path d="M16.3966 20.8532C16.8542 20.8532 17.2256 20.4818 17.2256 20.0243V10.6293C17.2256 10.1717 16.8542 9.80029 16.3966 9.80029C15.939 9.80029 15.5676 10.1717 15.5676 10.6293V20.0243C15.5676 20.4818 15.939 20.8532 16.3966 20.8532Z" fill="white"/>
<path d="M20.7147 11.0898L19.9815 11.9104C21.8035 13.9496 21.8035 17.2566 19.9815 19.2958L20.7147 20.1164C22.9399 17.6258 22.9399 13.5844 20.7147 11.0898ZM19.2483 12.731L18.5151 13.5516C19.001 14.0958 19.2739 14.8337 19.2739 15.6031C19.2739 16.3724 19.001 17.1103 18.5151 17.6546L19.2483 18.4752C20.6633 16.8914 20.6633 14.3188 19.2483 12.731Z" fill="white"/>
<defs>
<radialGradient id="paint0_radial_202_2140" cx="0" cy="0" r="1" gradientUnits="userSpaceOnUse" gradientTransform="translate(17.1197 11.7127) scale(18.7885)">
<stop offset="0.135417" stop-color="#B5CA10"/>
<stop offset="0.516" stop-color="#68A121"/>
<stop offset="0.742" stop-color="#30822D"/>
<stop offset="0.91" stop-color="#0D6F35"/>
<stop offset="1" stop-color="#006838"/>
</radialGradient>
<linearGradient id="paint1_linear_202_2140" x1="19.6496" y1="4.29219" x2="17.5211" y2="9.68953" gradientUnits="userSpaceOnUse">
<stop stop-color="white"/>
<stop offset="0.245" stop-color="#FFFCC5"/>
<stop offset="0.808" stop-color="#FFF533"/>
<stop offset="1" stop-color="#FFF200"/>
</linearGradient>
</defs>
</svg>
