<svg width="46" height="50" viewBox="0 0 46 50" fill="none" xmlns="http://www.w3.org/2000/svg">
<g filter="url(#filter0_d_346_53)">
<g filter="url(#filter1_dd_346_53)">
<path d="M22.4888 13.7993C21.7624 13.3291 21.564 12.3803 22.0496 11.6811C22.5352 10.9777 23.515 10.7896 24.2413 11.2558C24.9676 11.7261 25.1619 12.6748 24.6805 13.3781C24.1948 14.0774 23.2109 14.2696 22.4888 13.7993ZM11.347 26.8153C12.7574 24.7706 15.5066 24.1041 17.7236 25.1714L19.3156 22.8773C19.2058 22.7751 19.1087 22.6769 19.02 22.587C18.3655 22.3457 17.7616 22.0308 17.7616 22.0308L17.6476 21.7855C17.694 21.5483 17.9052 21.3683 18.0868 21.2538C17.9347 20.8654 17.9896 20.6609 17.9896 20.6609C20.4009 15.8723 21.199 14.4084 22.9135 14.6455C24.6238 14.8786 27.2716 19.385 27.2716 19.385C28.5258 20.8817 29.8307 21.9899 30.1052 22.1249L30.443 21.7118L30.992 22.1044L30.5781 22.681C30.5781 22.7301 30.5739 22.7628 30.5739 22.7628C30.5443 22.8937 30.4514 22.9632 30.3459 23.0081L30.1474 23.2821L27.4785 22.7628L27.2969 22.9264L28.6356 25.6785C30.1136 25.11 31.8492 25.2245 33.2681 26.1406C35.5611 27.6209 36.1819 30.6306 34.6532 32.847C33.1245 35.0675 30.0165 35.6686 27.7234 34.1883C25.4304 32.708 24.8139 29.6982 26.3425 27.4777C26.7522 26.8848 27.2758 26.4104 27.8628 26.0588L27.0647 24.3944L23.5808 29.277C23.3865 29.9313 23.2556 30.3403 23.2556 30.3403C25.2826 30.0336 24.949 31.3994 24.949 31.3994C23.699 31.7633 22.0014 31.3912 22.0014 31.3912C21.4989 31.1377 21.9929 30.2135 21.9929 30.2135C21.9887 30.1603 21.9803 30.0949 21.9803 30.0377L20.4643 30.0172C20.384 30.7696 20.1222 31.518 19.6577 32.1886C18.129 34.4091 15.0209 35.0061 12.7279 33.5299C10.4391 32.0455 9.81831 29.0399 11.347 26.8153ZM27.2167 28.038C26.0047 29.7882 26.4988 32.1723 28.3104 33.3418C30.122 34.5113 32.5798 34.037 33.7875 32.2827C34.9995 30.5284 34.5054 28.1484 32.6938 26.9789C31.5874 26.2673 30.2445 26.1692 29.0874 26.5945L30.8526 30.2176L30.443 30.6061L29.8771 30.2421L28.3104 26.9789C27.8881 27.2487 27.5165 27.6045 27.2167 28.038ZM20.2278 23.6256L22.0352 28.0911C22.1576 26.6435 22.3857 25.1959 22.3857 25.1959C21.9845 24.9955 20.971 24.2145 20.2278 23.6256ZM26.1863 22.1658L26.6804 21.9654L28.1837 22.2598C27.0604 21.6055 26.0892 20.8572 26.0892 20.8572C25.5951 20.436 23.9017 17.8679 23.9017 17.8679C22.563 18.1051 21.6847 20.9431 21.6847 20.9431C22.5504 21.671 23.15 22.3988 23.5723 23.0531L26.6044 23.1595L26.0512 22.5624L26.1863 22.1658ZM26.3383 24.055L24.0453 23.8955C24.4887 24.8197 24.552 25.4536 24.552 25.4536C24.438 25.9933 24.3155 26.5209 24.1889 27.0197L26.3383 24.055ZM20.4811 29.2239L21.4313 29.2648L19.4508 24.1245L18.433 25.5926C19.6872 26.4718 20.3967 27.8213 20.4811 29.2239ZM17.8503 26.435L16.0471 29.0276L19.4381 29.1748C19.341 28.1157 18.792 27.1056 17.8503 26.435ZM13.3106 32.6875C15.1223 33.8571 17.58 33.3786 18.7878 31.6284C19.1383 31.1254 19.3367 30.5652 19.417 30.0008L15.3123 29.9354L14.814 29.3711L17.1366 26.0261C15.4052 25.2654 13.3064 25.8011 12.2169 27.3837C11.0134 29.1339 11.5032 31.5139 13.3106 32.6875Z" fill="#4DBA79" stroke="#0A0A0A" stroke-width="0.3"/>
<path d="M31.3572 21.4611C29.4832 20.3546 31.0713 17.2181 33.9337 17.7907C33.1527 18.7665 34.363 21.3953 31.6169 21.5387C31.6169 20.1724 31.9357 19.2413 32.7428 18.435C31.3504 19.3982 31.3572 20.8496 31.3572 21.4611Z" fill="#4DBA79"/>
<path d="M31.7705 17.8852C31.6381 17.9569 31.5107 18.0387 31.3893 18.1306C31.2425 18.2419 31.1093 18.3659 30.9895 18.4992C30.7947 18.2208 30.5358 17.9518 30.1908 17.7131C30.4784 18.0007 30.7036 18.3035 30.8748 18.6366C30.664 18.9057 30.508 19.2084 30.4219 19.5247C30.3165 19.9118 30.3207 20.2981 30.4346 20.6447C28.8516 20.0189 29.6798 17.9181 29 17.0688C30.2027 16.8293 31.1801 17.2425 31.7705 17.8852Z" fill="#4DBA79"/>
<path d="M31.3572 21.4611C29.4832 20.3546 31.0713 17.2181 33.9337 17.7907C33.1527 18.7665 34.363 21.3953 31.6169 21.5387C31.6169 20.1724 31.9357 19.2413 32.7428 18.435C31.3504 19.3982 31.3572 20.8496 31.3572 21.4611Z" stroke="#0A0A0A" stroke-width="0.3"/>
<path d="M31.7705 17.8852C31.6381 17.9569 31.5107 18.0387 31.3893 18.1306C31.2425 18.2419 31.1093 18.3659 30.9895 18.4992C30.7947 18.2208 30.5358 17.9518 30.1908 17.7131C30.4784 18.0007 30.7036 18.3035 30.8748 18.6366C30.664 18.9057 30.508 19.2084 30.4219 19.5247C30.3165 19.9118 30.3207 20.2981 30.4346 20.6447C28.8516 20.0189 29.6798 17.9181 29 17.0688C30.2027 16.8293 31.1801 17.2425 31.7705 17.8852Z" stroke="#0A0A0A" stroke-width="0.3"/>
</g>
</g>
<defs>
<filter id="filter0_d_346_53" x="3" y="3" width="40" height="40" filterUnits="userSpaceOnUse" color-interpolation-filters="sRGB">
<feFlood flood-opacity="0" result="BackgroundImageFix"/>
<feColorMatrix in="SourceAlpha" type="matrix" values="0 0 0 0 0 0 0 0 0 0 0 0 0 0 0 0 0 0 127 0" result="hardAlpha"/>
<feOffset/>
<feGaussianBlur stdDeviation="2"/>
<feComposite in2="hardAlpha" operator="out"/>
<feColorMatrix type="matrix" values="0 0 0 0 0.996078 0 0 0 0 0.858824 0 0 0 0 0.00784314 0 0 0 1 0"/>
<feBlend mode="normal" in2="BackgroundImageFix" result="effect1_dropShadow_346_53"/>
<feBlend mode="normal" in="SourceGraphic" in2="effect1_dropShadow_346_53" result="shape"/>
</filter>
<filter id="filter1_dd_346_53" x="0.358398" y="0.850037" width="45.2832" height="48.2999" filterUnits="userSpaceOnUse" color-interpolation-filters="sRGB">
<feFlood flood-opacity="0" result="BackgroundImageFix"/>
<feColorMatrix in="SourceAlpha" type="matrix" values="0 0 0 0 0 0 0 0 0 0 0 0 0 0 0 0 0 0 127 0" result="hardAlpha"/>
<feOffset dy="4"/>
<feGaussianBlur stdDeviation="5"/>
<feComposite in2="hardAlpha" operator="out"/>
<feColorMatrix type="matrix" values="0 0 0 0 0.996078 0 0 0 0 0.858824 0 0 0 0 0.00784314 0 0 0 1 0"/>
<feBlend mode="normal" in2="BackgroundImageFix" result="effect1_dropShadow_346_53"/>
<feColorMatrix in="SourceAlpha" type="matrix" values="0 0 0 0 0 0 0 0 0 0 0 0 0 0 0 0 0 0 127 0" result="hardAlpha"/>
<feOffset/>
<feGaussianBlur stdDeviation="5"/>
<feComposite in2="hardAlpha" operator="out"/>
<feColorMatrix type="matrix" values="0 0 0 0 0.996078 0 0 0 0 0.858824 0 0 0 0 0.00784314 0 0 0 1 0"/>
<feBlend mode="normal" in2="effect1_dropShadow_346_53" result="effect2_dropShadow_346_53"/>
<feBlend mode="normal" in="SourceGraphic" in2="effect2_dropShadow_346_53" result="shape"/>
</filter>
</defs>
</svg>
