<svg width="346" height="86" viewBox="0 0 346 86" fill="none" xmlns="http://www.w3.org/2000/svg">
<g filter="url(#filter0_d_721_14400)">
<path d="M80.0188 77.44C70.5881 67.8288 60.6502 58.6925 50.2448 50.0674C55.3624 34.1202 62.3141 17.4314 62.3585 0.5C72.3275 4.7792 82.2522 9.05839 92.0881 13.6371C89.1004 35.0331 83.6278 56.1296 80.0188 77.44Z" fill="#AA1119"/>
<path d="M265.274 77.44C274.705 67.8288 284.643 58.6925 295.048 50.0674C289.931 34.1202 282.979 17.4314 282.935 0.5C272.966 4.7792 263.041 9.05839 253.205 13.6371C256.193 35.0331 261.665 56.1296 265.274 77.44Z" fill="#AA1119"/>
</g>
<path d="M92.088 13.6372C68.1268 13.5421 44.1705 13.3852 20.2191 13.1665C26.0284 20.5512 31.3158 28.3045 36.0454 36.374C24.6428 43.5119 12.5755 49.61 0 54.5892C26.0248 64.1691 52.777 71.7992 80.0186 77.4116C83.6276 56.1297 89.1002 35.0332 92.088 13.6372Z" fill="#CA1516"/>
<path d="M253.205 13.6372C277.166 13.5421 301.122 13.3852 325.074 13.1665C319.264 20.5512 313.977 28.3045 309.247 36.374C320.65 43.5119 332.717 49.61 345.293 54.5892C319.268 64.1691 292.516 71.7992 265.274 77.4116C261.665 56.1297 256.193 35.0332 253.205 13.6372Z" fill="#CA1516"/>
<path d="M295.049 50.0674C213.826 60.793 131.467 60.793 50.2448 50.0674C55.3624 34.1202 62.3141 17.4314 62.3585 0.5H282.935C282.979 17.4314 289.931 34.1202 295.049 50.0674Z" fill="#FD2926"/>
<g filter="url(#filter1_d_721_14400)">
<path d="M72.0617 28.57C72.6017 28.57 73.0157 28.522 73.3037 28.426C73.5917 28.33 73.7897 28.204 73.8977 28.048C74.0057 27.892 74.0597 27.724 74.0597 27.544C74.0597 27.256 73.9757 26.92 73.8077 26.536C73.6517 26.152 73.4537 25.75 73.2137 25.33C72.9737 24.91 72.7217 24.508 72.4577 24.124C72.2057 23.74 71.9777 23.404 71.7737 23.116L73.9157 21.694C74.4317 22.39 74.8757 23.08 75.2477 23.764C75.6197 24.436 75.9197 25.06 76.1477 25.636C76.3877 26.212 76.5557 26.704 76.6517 27.112C76.7477 27.496 76.8917 27.796 77.0837 28.012C77.2877 28.216 77.5217 28.36 77.7857 28.444C78.0497 28.528 78.3137 28.57 78.5777 28.57C79.0337 28.57 79.3577 28.69 79.5497 28.93C79.7537 29.158 79.8557 29.446 79.8557 29.794C79.8557 30.166 79.7297 30.478 79.4777 30.73C79.2377 30.97 78.8777 31.09 78.3977 31.09C77.8697 31.09 77.4077 31.018 77.0117 30.874C76.6157 30.73 76.2797 30.502 76.0037 30.19C75.7277 29.878 75.4937 29.482 75.3017 29.002L76.3997 29.236C76.3037 29.572 76.0817 29.884 75.7337 30.172C75.3977 30.448 74.9477 30.676 74.3837 30.856C73.8317 31.024 73.1777 31.108 72.4217 31.108C72.0617 31.108 71.6597 31.078 71.2157 31.018C70.7837 30.958 70.3517 30.868 69.9197 30.748C69.4997 30.628 69.1157 30.472 68.7677 30.28L69.6497 27.994C70.0937 28.186 70.5197 28.33 70.9277 28.426C71.3477 28.522 71.7257 28.57 72.0617 28.57ZM78.4209 31.09L78.6009 28.57C78.9969 28.57 79.3209 28.54 79.5729 28.48C79.8249 28.408 80.0289 28.258 80.1849 28.03C80.3529 27.79 80.4969 27.436 80.6169 26.968C80.7489 26.488 80.8929 25.84 81.0489 25.024L83.3889 25.456C83.3529 25.636 83.3109 25.846 83.2629 26.086C83.2149 26.326 83.1729 26.572 83.1369 26.824C83.1009 27.064 83.0829 27.28 83.0829 27.472C83.0829 27.808 83.1909 28.078 83.4069 28.282C83.6229 28.474 84.0309 28.57 84.6309 28.57C84.9309 28.57 85.1889 28.54 85.4049 28.48C85.6329 28.408 85.8249 28.258 85.9809 28.03C86.1489 27.79 86.2929 27.424 86.4129 26.932C86.5449 26.428 86.6709 25.75 86.7909 24.898L89.1669 25.276C89.1189 25.552 89.0709 25.846 89.0229 26.158C88.9749 26.47 88.9329 26.758 88.8969 27.022C88.8609 27.286 88.8429 27.502 88.8429 27.67C88.8429 27.826 88.8849 27.976 88.9689 28.12C89.0649 28.252 89.2329 28.36 89.4729 28.444C89.7249 28.528 90.0789 28.57 90.5349 28.57C90.8589 28.57 91.1349 28.528 91.3629 28.444C91.6029 28.36 91.7829 28.222 91.9029 28.03C92.0349 27.838 92.1009 27.586 92.1009 27.274C92.1009 26.83 91.9989 26.248 91.7949 25.528C91.5909 24.808 91.3509 24.052 91.0749 23.26L93.6129 22.504C93.8049 23.02 93.9729 23.572 94.1169 24.16C94.2729 24.736 94.3929 25.3 94.4769 25.852C94.5729 26.392 94.6209 26.866 94.6209 27.274C94.6209 27.886 94.5249 28.432 94.3329 28.912C94.1409 29.38 93.8709 29.776 93.5229 30.1C93.1749 30.424 92.7609 30.67 92.2809 30.838C91.8009 31.006 91.2729 31.09 90.6969 31.09C90.0009 31.09 89.4309 31.024 88.9869 30.892C88.5429 30.748 88.2009 30.514 87.9609 30.19C87.7329 29.854 87.5829 29.398 87.5109 28.822H88.1229C87.8709 29.53 87.5889 30.046 87.2769 30.37C86.9649 30.682 86.5929 30.88 86.1609 30.964C85.7409 31.048 85.2129 31.09 84.5769 31.09C84.1809 31.09 83.7729 31.048 83.3529 30.964C82.9449 30.868 82.5789 30.652 82.2549 30.316C81.9309 29.98 81.6909 29.458 81.5349 28.75L82.5069 28.714C82.2549 29.422 81.9249 29.944 81.5169 30.28C81.1209 30.616 80.6649 30.838 80.1489 30.946C79.6329 31.042 79.0569 31.09 78.4209 31.09ZM87.8349 19.948C87.5349 19.948 87.2709 19.834 87.0429 19.606C86.8269 19.378 86.7189 19.108 86.7189 18.796C86.7189 18.484 86.8269 18.22 87.0429 18.004C87.2709 17.788 87.5349 17.68 87.8349 17.68C88.1469 17.68 88.4109 17.788 88.6269 18.004C88.8429 18.22 88.9509 18.484 88.9509 18.796C88.9509 19.108 88.8429 19.378 88.6269 19.606C88.4109 19.834 88.1469 19.948 87.8349 19.948ZM86.3949 22.324C86.0949 22.324 85.8309 22.21 85.6029 21.982C85.3869 21.754 85.2789 21.484 85.2789 21.172C85.2789 20.86 85.3869 20.596 85.6029 20.38C85.8309 20.164 86.0949 20.056 86.3949 20.056C86.7069 20.056 86.9709 20.164 87.1869 20.38C87.4029 20.596 87.5109 20.86 87.5109 21.172C87.5109 21.484 87.4029 21.754 87.1869 21.982C86.9709 22.21 86.7069 22.324 86.3949 22.324ZM89.1849 22.324C88.8849 22.324 88.6209 22.21 88.3929 21.982C88.1769 21.754 88.0689 21.484 88.0689 21.172C88.0689 20.86 88.1769 20.596 88.3929 20.38C88.6209 20.164 88.8849 20.056 89.1849 20.056C89.4969 20.056 89.7609 20.164 89.9769 20.38C90.1929 20.596 90.3009 20.86 90.3009 21.172C90.3009 21.484 90.1929 21.754 89.9769 21.982C89.7609 22.21 89.4969 22.324 89.1849 22.324ZM101.166 38.074C100.89 37.09 100.662 36.154 100.482 35.266C100.302 34.39 100.17 33.592 100.086 32.872C100.002 32.164 99.9604 31.57 99.9604 31.09C99.9604 30.022 100.128 29.074 100.464 28.246C100.812 27.406 101.256 26.686 101.796 26.086C102.348 25.474 102.936 24.97 103.56 24.574C104.196 24.178 104.808 23.884 105.396 23.692C105.996 23.5 106.506 23.404 106.926 23.404C107.358 23.404 107.712 23.518 107.988 23.746C108.276 23.974 108.528 24.304 108.744 24.736C108.972 25.156 109.212 25.666 109.464 26.266C109.752 26.914 110.004 27.406 110.22 27.742C110.448 28.066 110.682 28.288 110.922 28.408C111.162 28.516 111.432 28.57 111.732 28.57C112.188 28.57 112.518 28.69 112.722 28.93C112.926 29.158 113.028 29.446 113.028 29.794C113.028 30.166 112.902 30.478 112.65 30.73C112.398 30.97 112.032 31.09 111.552 31.09C110.964 31.09 110.454 30.994 110.022 30.802C109.59 30.598 109.2 30.31 108.852 29.938L109.356 29.38C109.248 29.752 109.098 30.088 108.906 30.388C108.726 30.676 108.48 30.904 108.168 31.072C107.868 31.24 107.49 31.324 107.034 31.324C106.626 31.324 106.218 31.264 105.81 31.144C105.414 31.024 105.024 30.844 104.64 30.604C104.268 30.364 103.908 30.07 103.56 29.722C103.212 29.362 102.882 28.948 102.57 28.48L103.236 28.354C102.972 28.762 102.78 29.218 102.66 29.722C102.54 30.226 102.48 30.724 102.48 31.216C102.48 31.6 102.51 32.044 102.57 32.548C102.642 33.064 102.732 33.604 102.84 34.168C102.948 34.744 103.068 35.308 103.2 35.86C103.344 36.424 103.482 36.94 103.614 37.408L101.166 38.074ZM106.998 28.786C107.226 28.786 107.406 28.756 107.538 28.696C107.682 28.624 107.772 28.522 107.808 28.39C107.856 28.258 107.844 28.102 107.772 27.922C107.652 27.598 107.532 27.316 107.412 27.076C107.304 26.836 107.196 26.632 107.088 26.464C106.992 26.296 106.89 26.17 106.782 26.086C106.686 26.002 106.584 25.96 106.476 25.96C106.32 25.96 106.128 26.014 105.9 26.122C105.672 26.218 105.444 26.338 105.216 26.482C104.988 26.626 104.796 26.77 104.64 26.914C104.484 27.046 104.394 27.148 104.37 27.22L104.154 26.626C104.37 27.046 104.628 27.424 104.928 27.76C105.24 28.084 105.576 28.336 105.936 28.516C106.296 28.696 106.65 28.786 106.998 28.786ZM111.591 31.09L111.771 28.57H114.345C114.597 28.57 114.819 28.558 115.011 28.534C115.203 28.498 115.359 28.444 115.479 28.372C115.611 28.3 115.707 28.21 115.767 28.102C115.827 27.994 115.857 27.868 115.857 27.724C115.857 27.58 115.779 27.352 115.623 27.04C115.479 26.716 115.161 26.326 114.669 25.87C114.405 25.63 114.117 25.378 113.805 25.114C113.505 24.838 113.217 24.58 112.941 24.34C112.665 24.088 112.437 23.866 112.257 23.674C112.077 23.482 111.987 23.344 111.987 23.26C111.987 23.08 111.999 22.882 112.023 22.666C112.047 22.45 112.083 22.252 112.131 22.072C112.191 21.892 112.269 21.76 112.365 21.676C112.569 21.484 112.869 21.262 113.265 21.01C113.673 20.746 114.159 20.464 114.723 20.164C115.287 19.852 115.917 19.528 116.613 19.192C117.321 18.844 118.077 18.496 118.881 18.148L119.907 20.344C119.247 20.632 118.623 20.914 118.035 21.19C117.447 21.454 116.895 21.718 116.379 21.982C115.875 22.234 115.407 22.486 114.975 22.738C114.555 22.978 114.183 23.218 113.859 23.458L114.093 22.126C115.113 22.906 115.923 23.608 116.523 24.232C117.135 24.856 117.591 25.414 117.891 25.906C118.191 26.386 118.389 26.818 118.485 27.202C118.581 27.574 118.629 27.904 118.629 28.192C118.629 28.48 118.557 28.792 118.413 29.128C118.281 29.452 118.035 29.764 117.675 30.064C117.327 30.364 116.835 30.61 116.199 30.802C115.563 30.994 114.747 31.09 113.751 31.09H111.591ZM124.219 35.14L123.301 32.836C124.333 32.476 125.167 32.08 125.803 31.648C126.451 31.216 126.925 30.754 127.225 30.262C127.537 29.77 127.693 29.26 127.693 28.732C127.693 28.396 127.645 28.048 127.549 27.688C127.453 27.316 127.315 26.926 127.135 26.518C126.967 26.11 126.763 25.684 126.523 25.24L128.881 24.106C129.301 24.91 129.625 25.678 129.853 26.41C130.093 27.142 130.213 27.826 130.213 28.462C130.213 29.05 130.135 29.614 129.979 30.154C129.835 30.694 129.607 31.198 129.295 31.666C128.995 32.146 128.605 32.596 128.125 33.016C127.645 33.436 127.081 33.82 126.433 34.168C125.785 34.528 125.047 34.852 124.219 35.14ZM128.197 22.27C127.825 22.27 127.507 22.144 127.243 21.892C126.991 21.64 126.865 21.328 126.865 20.956C126.865 20.584 126.991 20.266 127.243 20.002C127.507 19.738 127.825 19.606 128.197 19.606C128.557 19.606 128.863 19.738 129.115 20.002C129.379 20.266 129.511 20.584 129.511 20.956C129.511 21.328 129.379 21.64 129.115 21.892C128.863 22.144 128.557 22.27 128.197 22.27ZM137.002 31.09C135.886 31.09 135.022 30.976 134.41 30.748C133.81 30.52 133.39 30.166 133.15 29.686C132.91 29.194 132.772 28.576 132.736 27.832L132.358 17.824H134.878L135.256 26.626C135.28 27.178 135.34 27.592 135.436 27.868C135.532 28.144 135.712 28.33 135.976 28.426C136.252 28.522 136.654 28.57 137.182 28.57C137.638 28.57 137.962 28.69 138.154 28.93C138.358 29.158 138.46 29.446 138.46 29.794C138.46 30.166 138.334 30.478 138.082 30.73C137.83 30.97 137.47 31.09 137.002 31.09ZM137.026 31.09L137.206 28.57C137.638 28.57 138.01 28.528 138.322 28.444C138.634 28.36 138.898 28.192 139.114 27.94C139.33 27.676 139.51 27.292 139.654 26.788C139.81 26.284 139.948 25.612 140.068 24.772L142.426 25.168C142.402 25.348 142.366 25.558 142.318 25.798C142.282 26.038 142.246 26.284 142.21 26.536C142.186 26.776 142.174 27.004 142.174 27.22C142.174 27.436 142.216 27.628 142.3 27.796C142.384 27.964 142.516 28.108 142.696 28.228C142.888 28.336 143.134 28.42 143.434 28.48C143.746 28.54 144.124 28.57 144.568 28.57C145.024 28.57 145.348 28.69 145.54 28.93C145.732 29.158 145.828 29.446 145.828 29.794C145.828 30.166 145.702 30.478 145.45 30.73C145.21 30.97 144.856 31.09 144.388 31.09C143.848 31.09 143.356 31.048 142.912 30.964C142.48 30.88 142.102 30.742 141.778 30.55C141.466 30.346 141.208 30.082 141.004 29.758C140.812 29.422 140.692 29.014 140.644 28.534H141.508C141.292 29.11 141.016 29.572 140.68 29.92C140.356 30.256 139.99 30.508 139.582 30.676C139.174 30.844 138.748 30.952 138.304 31C137.872 31.06 137.446 31.09 137.026 31.09ZM142.048 35.266C141.7 35.266 141.4 35.14 141.148 34.888C140.908 34.648 140.788 34.36 140.788 34.024C140.788 33.676 140.908 33.376 141.148 33.124C141.4 32.872 141.7 32.746 142.048 32.746C142.384 32.746 142.672 32.872 142.912 33.124C143.152 33.376 143.272 33.676 143.272 34.024C143.272 34.36 143.152 34.648 142.912 34.888C142.672 35.14 142.384 35.266 142.048 35.266ZM138.934 35.266C138.586 35.266 138.286 35.14 138.034 34.888C137.794 34.648 137.674 34.36 137.674 34.024C137.674 33.676 137.794 33.376 138.034 33.124C138.286 32.872 138.586 32.746 138.934 32.746C139.27 32.746 139.558 32.872 139.798 33.124C140.038 33.376 140.158 33.676 140.158 34.024C140.158 34.36 140.038 34.648 139.798 34.888C139.558 35.14 139.27 35.266 138.934 35.266ZM144.392 31.09L144.572 28.57C145.004 28.57 145.376 28.528 145.688 28.444C146 28.36 146.264 28.192 146.48 27.94C146.696 27.676 146.876 27.292 147.02 26.788C147.176 26.284 147.314 25.612 147.434 24.772L149.792 25.168C149.768 25.348 149.732 25.558 149.684 25.798C149.648 26.038 149.612 26.284 149.576 26.536C149.552 26.776 149.54 27.004 149.54 27.22C149.54 27.436 149.582 27.628 149.666 27.796C149.75 27.964 149.882 28.108 150.062 28.228C150.254 28.336 150.5 28.42 150.8 28.48C151.112 28.54 151.49 28.57 151.934 28.57C152.39 28.57 152.714 28.69 152.906 28.93C153.098 29.158 153.194 29.446 153.194 29.794C153.194 30.166 153.068 30.478 152.816 30.73C152.576 30.97 152.222 31.09 151.754 31.09C151.214 31.09 150.722 31.048 150.278 30.964C149.846 30.88 149.468 30.742 149.144 30.55C148.832 30.346 148.574 30.082 148.37 29.758C148.178 29.422 148.058 29.014 148.01 28.534H148.874C148.658 29.11 148.382 29.572 148.046 29.92C147.722 30.256 147.356 30.508 146.948 30.676C146.54 30.844 146.114 30.952 145.67 31C145.238 31.06 144.812 31.09 144.392 31.09ZM150.17 23.152C149.822 23.152 149.522 23.032 149.27 22.792C149.03 22.54 148.91 22.246 148.91 21.91C148.91 21.562 149.03 21.262 149.27 21.01C149.522 20.758 149.822 20.632 150.17 20.632C150.506 20.632 150.794 20.758 151.034 21.01C151.274 21.262 151.394 21.562 151.394 21.91C151.394 22.246 151.274 22.54 151.034 22.792C150.794 23.032 150.506 23.152 150.17 23.152ZM147.056 23.134C146.708 23.134 146.408 23.014 146.156 22.774C145.916 22.522 145.796 22.228 145.796 21.892C145.796 21.544 145.916 21.244 146.156 20.992C146.408 20.74 146.708 20.614 147.056 20.614C147.392 20.614 147.68 20.74 147.92 20.992C148.16 21.244 148.28 21.544 148.28 21.892C148.28 22.228 148.16 22.522 147.92 22.774C147.68 23.014 147.392 23.134 147.056 23.134ZM151.757 31.09L151.937 28.57C152.213 28.57 152.447 28.504 152.639 28.372C152.843 28.228 153.053 27.994 153.269 27.67C153.485 27.334 153.737 26.884 154.025 26.32C154.385 25.6 154.757 25.036 155.141 24.628C155.537 24.22 155.939 23.932 156.347 23.764C156.767 23.584 157.187 23.494 157.607 23.494C158.135 23.494 158.627 23.608 159.083 23.836C159.539 24.064 159.935 24.376 160.271 24.772C160.607 25.156 160.865 25.6 161.045 26.104C161.237 26.596 161.333 27.106 161.333 27.634C161.333 28.27 161.195 28.846 160.919 29.362C160.655 29.866 160.283 30.268 159.803 30.568C159.335 30.856 158.795 31 158.183 31C157.667 31 157.067 30.91 156.383 30.73C155.699 30.55 154.979 30.172 154.223 29.596L155.141 27.418C155.681 27.79 156.185 28.06 156.653 28.228C157.133 28.396 157.529 28.48 157.841 28.48C158.081 28.48 158.279 28.456 158.435 28.408C158.591 28.36 158.705 28.282 158.777 28.174C158.849 28.066 158.885 27.922 158.885 27.742C158.885 27.49 158.825 27.232 158.705 26.968C158.585 26.704 158.423 26.482 158.219 26.302C158.027 26.11 157.799 26.014 157.535 26.014C157.283 26.014 157.067 26.11 156.887 26.302C156.719 26.482 156.551 26.746 156.383 27.094C156.227 27.43 156.035 27.826 155.807 28.282C155.531 28.834 155.261 29.296 154.997 29.668C154.733 30.028 154.451 30.316 154.151 30.532C153.863 30.736 153.521 30.88 153.125 30.964C152.741 31.048 152.285 31.09 151.757 31.09ZM163.673 31L163.295 17.824H165.815L166.193 31H163.673ZM178.971 31.378L179.439 28.858C180.603 28.858 181.617 28.828 182.481 28.768C183.345 28.696 184.059 28.594 184.623 28.462C185.199 28.318 185.625 28.132 185.901 27.904C186.189 27.676 186.333 27.4 186.333 27.076C186.333 26.644 186.261 26.128 186.117 25.528C185.973 24.916 185.787 24.298 185.559 23.674L187.917 22.99C188.073 23.398 188.223 23.848 188.367 24.34C188.511 24.82 188.625 25.306 188.709 25.798C188.805 26.278 188.853 26.728 188.853 27.148C188.853 27.892 188.691 28.534 188.367 29.074C188.043 29.602 187.503 30.04 186.747 30.388C186.003 30.724 184.995 30.97 183.723 31.126C182.451 31.294 180.867 31.378 178.971 31.378ZM178.953 31.378C177.657 31.378 176.559 31.276 175.659 31.072C174.771 30.88 174.045 30.604 173.481 30.244C172.929 29.872 172.527 29.44 172.275 28.948C172.023 28.456 171.897 27.916 171.897 27.328C171.897 26.944 171.927 26.56 171.987 26.176C172.059 25.78 172.143 25.396 172.239 25.024C172.347 24.652 172.443 24.316 172.527 24.016L174.777 24.538C174.729 24.754 174.675 24.988 174.615 25.24C174.555 25.492 174.507 25.738 174.471 25.978C174.435 26.206 174.417 26.416 174.417 26.608C174.417 27.052 174.573 27.448 174.885 27.796C175.209 28.132 175.737 28.396 176.469 28.588C177.201 28.768 178.185 28.858 179.421 28.858L179.781 30.802L178.953 31.378ZM181.923 23.152C181.575 23.152 181.275 23.032 181.023 22.792C180.783 22.54 180.663 22.246 180.663 21.91C180.663 21.562 180.783 21.262 181.023 21.01C181.275 20.758 181.575 20.632 181.923 20.632C182.259 20.632 182.547 20.758 182.787 21.01C183.027 21.262 183.147 21.562 183.147 21.91C183.147 22.246 183.027 22.54 182.787 22.792C182.547 23.032 182.259 23.152 181.923 23.152ZM178.809 23.134C178.461 23.134 178.161 23.014 177.909 22.774C177.669 22.522 177.549 22.228 177.549 21.892C177.549 21.544 177.669 21.244 177.909 20.992C178.161 20.74 178.461 20.614 178.809 20.614C179.145 20.614 179.433 20.74 179.673 20.992C179.913 21.244 180.033 21.544 180.033 21.892C180.033 22.228 179.913 22.522 179.673 22.774C179.433 23.014 179.145 23.134 178.809 23.134ZM190.049 35.14L189.131 32.836C190.163 32.476 190.997 32.08 191.633 31.648C192.281 31.216 192.755 30.754 193.055 30.262C193.367 29.77 193.523 29.26 193.523 28.732C193.523 28.396 193.475 28.048 193.379 27.688C193.283 27.316 193.145 26.926 192.965 26.518C192.797 26.11 192.593 25.684 192.353 25.24L194.711 24.106C195.131 24.91 195.455 25.678 195.683 26.41C195.923 27.142 196.043 27.826 196.043 28.462C196.043 29.05 195.965 29.614 195.809 30.154C195.665 30.694 195.437 31.198 195.125 31.666C194.825 32.146 194.435 32.596 193.955 33.016C193.475 33.436 192.911 33.82 192.263 34.168C191.615 34.528 190.877 34.852 190.049 35.14ZM194.027 22.27C193.655 22.27 193.337 22.144 193.073 21.892C192.821 21.64 192.695 21.328 192.695 20.956C192.695 20.584 192.821 20.266 193.073 20.002C193.337 19.738 193.655 19.606 194.027 19.606C194.387 19.606 194.693 19.738 194.945 20.002C195.209 20.266 195.341 20.584 195.341 20.956C195.341 21.328 195.209 21.64 194.945 21.892C194.693 22.144 194.387 22.27 194.027 22.27ZM198.566 31L198.188 17.824H200.708L201.086 31H198.566ZM216.222 31.09C215.37 31.09 214.632 30.982 214.008 30.766C213.396 30.538 212.922 30.178 212.586 29.686C212.25 29.182 212.058 28.51 212.01 27.67L211.686 20.416H214.224L214.53 26.788C214.554 27.28 214.632 27.658 214.764 27.922C214.908 28.174 215.112 28.348 215.376 28.444C215.64 28.528 215.982 28.57 216.402 28.57C216.858 28.57 217.182 28.69 217.374 28.93C217.566 29.158 217.662 29.446 217.662 29.794C217.662 30.166 217.536 30.478 217.284 30.73C217.044 30.97 216.69 31.09 216.222 31.09ZM212.928 29.416C212.124 29.596 211.35 29.68 210.606 29.668C209.862 29.644 209.196 29.512 208.608 29.272C208.02 29.02 207.552 28.66 207.204 28.192C206.868 27.724 206.7 27.13 206.7 26.41C206.7 25.774 206.838 25.198 207.114 24.682C207.402 24.154 207.798 23.692 208.302 23.296C208.818 22.9 209.418 22.564 210.102 22.288C210.786 22.012 211.53 21.802 212.334 21.658L212.586 24.214C212.07 24.238 211.602 24.31 211.182 24.43C210.774 24.538 210.42 24.682 210.12 24.862C209.832 25.042 209.61 25.246 209.454 25.474C209.298 25.69 209.22 25.924 209.22 26.176C209.22 26.38 209.292 26.548 209.436 26.68C209.58 26.812 209.772 26.92 210.012 27.004C210.252 27.076 210.528 27.118 210.84 27.13C211.152 27.142 211.47 27.124 211.794 27.076C212.13 27.028 212.46 26.95 212.784 26.842L212.928 29.416ZM216.216 31.09L216.396 28.57C216.924 28.57 217.338 28.534 217.638 28.462C217.95 28.39 218.172 28.258 218.304 28.066C218.436 27.862 218.502 27.574 218.502 27.202C218.502 26.866 218.454 26.464 218.358 25.996C218.274 25.528 218.16 25.042 218.016 24.538C217.872 24.034 217.728 23.572 217.584 23.152L220.068 22.468C220.212 22.876 220.356 23.35 220.5 23.89C220.644 24.43 220.764 24.988 220.86 25.564C220.968 26.128 221.022 26.674 221.022 27.202C221.022 27.862 220.938 28.42 220.77 28.876C220.602 29.32 220.368 29.692 220.068 29.992C219.78 30.28 219.432 30.508 219.024 30.676C218.628 30.832 218.19 30.94 217.71 31C217.23 31.06 216.732 31.09 216.216 31.09ZM218.808 20.974C218.436 20.974 218.118 20.848 217.854 20.596C217.602 20.344 217.476 20.032 217.476 19.66C217.476 19.288 217.602 18.97 217.854 18.706C218.118 18.442 218.436 18.31 218.808 18.31C219.168 18.31 219.474 18.442 219.726 18.706C219.99 18.97 220.122 19.288 220.122 19.66C220.122 20.032 219.99 20.344 219.726 20.596C219.474 20.848 219.168 20.974 218.808 20.974ZM227.635 31.09C226.519 31.09 225.655 30.976 225.043 30.748C224.443 30.52 224.023 30.166 223.783 29.686C223.543 29.194 223.405 28.576 223.369 27.832L222.991 17.824H225.511L225.889 26.626C225.913 27.178 225.973 27.592 226.069 27.868C226.165 28.144 226.345 28.33 226.609 28.426C226.885 28.522 227.287 28.57 227.815 28.57C228.271 28.57 228.595 28.69 228.787 28.93C228.991 29.158 229.093 29.446 229.093 29.794C229.093 30.166 228.967 30.478 228.715 30.73C228.463 30.97 228.103 31.09 227.635 31.09ZM227.659 31.09L227.839 28.588C228.307 28.6 228.739 28.594 229.135 28.57C229.531 28.546 229.885 28.51 230.197 28.462C230.521 28.414 230.803 28.36 231.043 28.3C231.295 28.24 231.505 28.186 231.673 28.138C232.081 28.006 232.429 27.85 232.717 27.67C233.005 27.478 233.227 27.262 233.383 27.022C233.539 26.782 233.617 26.524 233.617 26.248C233.617 26.032 233.569 25.816 233.473 25.6C233.389 25.372 233.263 25.186 233.095 25.042C232.927 24.898 232.729 24.826 232.501 24.826C232.285 24.826 232.087 24.892 231.907 25.024C231.727 25.156 231.583 25.336 231.475 25.564C231.367 25.78 231.313 26.032 231.313 26.32C231.313 26.572 231.373 26.812 231.493 27.04C231.613 27.256 231.781 27.466 231.997 27.67C232.213 27.874 232.471 28.066 232.771 28.246L230.377 29.164C230.113 28.912 229.861 28.642 229.621 28.354C229.393 28.066 229.201 27.742 229.045 27.382C228.901 27.01 228.829 26.596 228.829 26.14C228.829 25.588 228.937 25.084 229.153 24.628C229.369 24.172 229.657 23.782 230.017 23.458C230.377 23.122 230.779 22.864 231.223 22.684C231.667 22.504 232.111 22.414 232.555 22.414C233.275 22.414 233.899 22.582 234.427 22.918C234.955 23.254 235.363 23.692 235.651 24.232C235.951 24.772 236.101 25.36 236.101 25.996C236.101 26.584 235.993 27.112 235.777 27.58C235.561 28.036 235.267 28.444 234.895 28.804C234.535 29.152 234.133 29.458 233.689 29.722C233.257 29.986 232.819 30.208 232.375 30.388C232.159 30.484 231.889 30.574 231.565 30.658C231.241 30.742 230.875 30.82 230.467 30.892C230.059 30.952 229.621 31 229.153 31.036C228.685 31.072 228.187 31.09 227.659 31.09ZM237.163 31.09C236.467 31.09 235.783 31.054 235.111 30.982C234.439 30.91 233.815 30.802 233.239 30.658C232.675 30.514 232.183 30.34 231.763 30.136L233.005 28.192C233.365 28.288 233.785 28.366 234.265 28.426C234.757 28.474 235.267 28.51 235.795 28.534C236.335 28.558 236.851 28.57 237.343 28.57C237.799 28.57 238.123 28.69 238.315 28.93C238.519 29.158 238.621 29.446 238.621 29.794C238.621 30.166 238.495 30.478 238.243 30.73C237.991 30.97 237.631 31.09 237.163 31.09ZM232.573 20.74C232.201 20.74 231.883 20.614 231.619 20.362C231.367 20.11 231.241 19.798 231.241 19.426C231.241 19.054 231.367 18.736 231.619 18.472C231.883 18.208 232.201 18.076 232.573 18.076C232.933 18.076 233.239 18.208 233.491 18.472C233.755 18.736 233.887 19.054 233.887 19.426C233.887 19.798 233.755 20.11 233.491 20.362C233.239 20.614 232.933 20.74 232.573 20.74ZM237.187 31.09L237.367 28.57C237.763 28.57 238.087 28.54 238.339 28.48C238.591 28.408 238.795 28.258 238.951 28.03C239.119 27.79 239.263 27.436 239.383 26.968C239.515 26.488 239.659 25.84 239.815 25.024L242.155 25.456C242.119 25.636 242.077 25.846 242.029 26.086C241.981 26.326 241.939 26.572 241.903 26.824C241.867 27.064 241.849 27.28 241.849 27.472C241.849 27.808 241.957 28.078 242.173 28.282C242.389 28.474 242.797 28.57 243.397 28.57C243.697 28.57 243.955 28.54 244.171 28.48C244.399 28.408 244.591 28.258 244.747 28.03C244.915 27.79 245.059 27.424 245.179 26.932C245.311 26.428 245.437 25.75 245.557 24.898L247.933 25.276C247.885 25.552 247.837 25.846 247.789 26.158C247.741 26.47 247.699 26.758 247.663 27.022C247.627 27.286 247.609 27.502 247.609 27.67C247.609 27.826 247.651 27.976 247.735 28.12C247.831 28.252 247.999 28.36 248.239 28.444C248.491 28.528 248.845 28.57 249.301 28.57C249.625 28.57 249.901 28.528 250.129 28.444C250.369 28.36 250.549 28.222 250.669 28.03C250.801 27.838 250.867 27.586 250.867 27.274C250.867 26.83 250.765 26.248 250.561 25.528C250.357 24.808 250.117 24.052 249.841 23.26L252.379 22.504C252.571 23.02 252.739 23.572 252.883 24.16C253.039 24.736 253.159 25.3 253.243 25.852C253.339 26.392 253.387 26.866 253.387 27.274C253.387 27.886 253.291 28.432 253.099 28.912C252.907 29.38 252.637 29.776 252.289 30.1C251.941 30.424 251.527 30.67 251.047 30.838C250.567 31.006 250.039 31.09 249.463 31.09C248.767 31.09 248.197 31.024 247.753 30.892C247.309 30.748 246.967 30.514 246.727 30.19C246.499 29.854 246.349 29.398 246.277 28.822H246.889C246.637 29.53 246.355 30.046 246.043 30.37C245.731 30.682 245.359 30.88 244.927 30.964C244.507 31.048 243.979 31.09 243.343 31.09C242.947 31.09 242.539 31.048 242.119 30.964C241.711 30.868 241.345 30.652 241.021 30.316C240.697 29.98 240.457 29.458 240.301 28.75L241.273 28.714C241.021 29.422 240.691 29.944 240.283 30.28C239.887 30.616 239.431 30.838 238.915 30.946C238.399 31.042 237.823 31.09 237.187 31.09ZM259.996 31.09C258.88 31.09 258.016 30.976 257.404 30.748C256.804 30.52 256.384 30.166 256.144 29.686C255.904 29.194 255.766 28.576 255.73 27.832L255.352 17.824H257.872L258.25 26.626C258.274 27.178 258.334 27.592 258.43 27.868C258.526 28.144 258.706 28.33 258.97 28.426C259.246 28.522 259.648 28.57 260.176 28.57C260.632 28.57 260.956 28.69 261.148 28.93C261.352 29.158 261.454 29.446 261.454 29.794C261.454 30.166 261.328 30.478 261.076 30.73C260.824 30.97 260.464 31.09 259.996 31.09ZM260.021 31.09L260.201 28.57C260.633 28.57 261.005 28.528 261.317 28.444C261.629 28.36 261.893 28.192 262.109 27.94C262.325 27.676 262.505 27.292 262.649 26.788C262.805 26.284 262.943 25.612 263.063 24.772L265.421 25.168C265.397 25.348 265.361 25.558 265.313 25.798C265.277 26.038 265.241 26.284 265.205 26.536C265.181 26.776 265.169 27.004 265.169 27.22C265.169 27.436 265.211 27.628 265.295 27.796C265.379 27.964 265.511 28.108 265.691 28.228C265.883 28.336 266.129 28.42 266.429 28.48C266.741 28.54 267.119 28.57 267.563 28.57C268.019 28.57 268.343 28.69 268.535 28.93C268.727 29.158 268.823 29.446 268.823 29.794C268.823 30.166 268.697 30.478 268.445 30.73C268.205 30.97 267.851 31.09 267.383 31.09C266.843 31.09 266.351 31.048 265.907 30.964C265.475 30.88 265.097 30.742 264.773 30.55C264.461 30.346 264.203 30.082 263.999 29.758C263.807 29.422 263.687 29.014 263.639 28.534H264.503C264.287 29.11 264.011 29.572 263.675 29.92C263.351 30.256 262.985 30.508 262.577 30.676C262.169 30.844 261.743 30.952 261.299 31C260.867 31.06 260.441 31.09 260.021 31.09ZM265.799 23.152C265.451 23.152 265.151 23.032 264.899 22.792C264.659 22.54 264.539 22.246 264.539 21.91C264.539 21.562 264.659 21.262 264.899 21.01C265.151 20.758 265.451 20.632 265.799 20.632C266.135 20.632 266.423 20.758 266.663 21.01C266.903 21.262 267.023 21.562 267.023 21.91C267.023 22.246 266.903 22.54 266.663 22.792C266.423 23.032 266.135 23.152 265.799 23.152ZM262.685 23.134C262.337 23.134 262.037 23.014 261.785 22.774C261.545 22.522 261.425 22.228 261.425 21.892C261.425 21.544 261.545 21.244 261.785 20.992C262.037 20.74 262.337 20.614 262.685 20.614C263.021 20.614 263.309 20.74 263.549 20.992C263.789 21.244 263.909 21.544 263.909 21.892C263.909 22.228 263.789 22.522 263.549 22.774C263.309 23.014 263.021 23.134 262.685 23.134ZM267.386 31.09L267.566 28.57C267.842 28.57 268.076 28.504 268.268 28.372C268.472 28.228 268.682 27.994 268.898 27.67C269.114 27.334 269.366 26.884 269.654 26.32C270.014 25.6 270.386 25.036 270.77 24.628C271.166 24.22 271.568 23.932 271.976 23.764C272.396 23.584 272.816 23.494 273.236 23.494C273.764 23.494 274.256 23.608 274.712 23.836C275.168 24.064 275.564 24.376 275.9 24.772C276.236 25.156 276.494 25.6 276.674 26.104C276.866 26.596 276.962 27.106 276.962 27.634C276.962 28.27 276.824 28.846 276.548 29.362C276.284 29.866 275.912 30.268 275.432 30.568C274.964 30.856 274.424 31 273.812 31C273.296 31 272.696 30.91 272.012 30.73C271.328 30.55 270.608 30.172 269.852 29.596L270.77 27.418C271.31 27.79 271.814 28.06 272.282 28.228C272.762 28.396 273.158 28.48 273.47 28.48C273.71 28.48 273.908 28.456 274.064 28.408C274.22 28.36 274.334 28.282 274.406 28.174C274.478 28.066 274.514 27.922 274.514 27.742C274.514 27.49 274.454 27.232 274.334 26.968C274.214 26.704 274.052 26.482 273.848 26.302C273.656 26.11 273.428 26.014 273.164 26.014C272.912 26.014 272.696 26.11 272.516 26.302C272.348 26.482 272.18 26.746 272.012 27.094C271.856 27.43 271.664 27.826 271.436 28.282C271.16 28.834 270.89 29.296 270.626 29.668C270.362 30.028 270.08 30.316 269.78 30.532C269.492 30.736 269.15 30.88 268.754 30.964C268.37 31.048 267.914 31.09 267.386 31.09Z" fill="white"/>
</g>
<defs>
<filter id="filter0_d_721_14400" x="46.2448" y="0.5" width="252.804" height="84.9399" filterUnits="userSpaceOnUse" color-interpolation-filters="sRGB">
<feFlood flood-opacity="0" result="BackgroundImageFix"/>
<feColorMatrix in="SourceAlpha" type="matrix" values="0 0 0 0 0 0 0 0 0 0 0 0 0 0 0 0 0 0 127 0" result="hardAlpha"/>
<feOffset dy="4"/>
<feGaussianBlur stdDeviation="2"/>
<feComposite in2="hardAlpha" operator="out"/>
<feColorMatrix type="matrix" values="0 0 0 0 0 0 0 0 0 0 0 0 0 0 0 0 0 0 0.25 0"/>
<feBlend mode="normal" in2="BackgroundImageFix" result="effect1_dropShadow_721_14400"/>
<feBlend mode="normal" in="SourceGraphic" in2="effect1_dropShadow_721_14400" result="shape"/>
</filter>
<filter id="filter1_d_721_14400" x="66.7677" y="16.6802" width="212.194" height="24.394" filterUnits="userSpaceOnUse" color-interpolation-filters="sRGB">
<feFlood flood-opacity="0" result="BackgroundImageFix"/>
<feColorMatrix in="SourceAlpha" type="matrix" values="0 0 0 0 0 0 0 0 0 0 0 0 0 0 0 0 0 0 127 0" result="hardAlpha"/>
<feOffset dy="1"/>
<feGaussianBlur stdDeviation="1"/>
<feComposite in2="hardAlpha" operator="out"/>
<feColorMatrix type="matrix" values="0 0 0 0 0.792157 0 0 0 0 0.0823529 0 0 0 0 0.0862745 0 0 0 1 0"/>
<feBlend mode="normal" in2="BackgroundImageFix" result="effect1_dropShadow_721_14400"/>
<feBlend mode="normal" in="SourceGraphic" in2="effect1_dropShadow_721_14400" result="shape"/>
</filter>
</defs>
</svg>
