<svg width="277" height="70" viewBox="0 0 277 70" fill="none" xmlns="http://www.w3.org/2000/svg">
<g filter="url(#filter0_d_667_11190)">
<path d="M75.741 11.7344C57.0741 11.6603 38.411 11.5381 19.7517 11.3677C24.2774 17.1207 28.3965 23.1609 32.0811 29.4475C23.1979 35.0082 13.797 39.7589 4 43.6379C24.2746 51.1012 45.1159 57.0454 66.3384 61.4177C69.15 44.8381 73.4134 28.4029 75.741 11.7344Z" fill="#CA1516"/>
<path d="M66.3385 61.44C58.9915 53.9524 51.2495 46.8348 43.1431 40.1154C47.13 27.6918 52.5457 14.6904 52.5803 1.5C60.3466 4.8337 68.0784 8.1674 75.7411 11.7345C73.4135 28.403 69.1501 44.8382 66.3385 61.44Z" fill="#AA1119"/>
<path d="M201.259 11.7344C219.926 11.6603 238.589 11.5381 257.248 11.3677C252.723 17.1207 248.603 23.1609 244.919 29.4475C253.802 35.0082 263.203 39.7589 273 43.6379C252.725 51.1012 231.884 57.0454 210.662 61.4177C207.85 44.8381 203.587 28.4029 201.259 11.7344Z" fill="#CA1516"/>
<path d="M210.662 61.44C218.008 53.9524 225.751 46.8348 233.857 40.1154C229.87 27.6918 224.454 14.6904 224.42 1.5C216.653 4.8337 208.922 8.1674 201.259 11.7345C203.587 28.403 207.85 44.8382 210.662 61.44Z" fill="#AA1119"/>
<path d="M233.857 40.1154C170.581 48.4712 106.419 48.4712 43.1431 40.1154C47.13 27.6918 52.5457 14.6904 52.5803 1.5H224.42C224.455 14.6904 229.87 27.6918 233.857 40.1154Z" fill="#FD2926"/>
</g>
<g filter="url(#filter1_d_667_11190)">
<path d="M113.932 30.13L114.712 25.93C116.132 25.93 117.292 25.91 118.192 25.87C119.092 25.83 119.782 25.76 120.262 25.66C120.762 25.54 121.112 25.38 121.312 25.18C121.512 24.98 121.612 24.73 121.612 24.43C121.612 24.07 121.452 23.65 121.132 23.17C120.832 22.69 120.432 22.19 119.932 21.67C119.452 21.15 118.942 20.63 118.402 20.11C117.862 19.57 117.342 19.07 116.842 18.61C116.362 18.15 115.962 17.75 115.642 17.41C115.342 17.05 115.192 16.79 115.192 16.63C115.192 16.07 115.222 15.63 115.282 15.31C115.342 14.97 115.422 14.7 115.522 14.5C115.642 14.3 115.772 14.13 115.912 13.99C116.372 13.53 117.112 13 118.132 12.4C119.172 11.8 120.422 11.15 121.882 10.45C123.342 9.73 124.942 8.97 126.682 8.17L128.392 11.83C126.652 12.61 125.142 13.31 123.862 13.93C122.602 14.53 121.512 15.08 120.592 15.58C119.692 16.06 118.912 16.52 118.252 16.96L118.552 14.74C119.412 15.48 120.192 16.18 120.892 16.84C121.592 17.5 122.242 18.16 122.842 18.82C123.442 19.48 124.002 20.16 124.522 20.86C125.062 21.56 125.582 22.32 126.082 23.14C126.402 23.66 126.732 24.08 127.072 24.4C127.432 24.7 127.782 24.93 128.122 25.09C128.482 25.23 128.822 25.33 129.142 25.39C129.482 25.43 129.782 25.45 130.042 25.45C130.802 25.45 131.342 25.66 131.662 26.08C132.002 26.5 132.172 27 132.172 27.58C132.172 28.2 131.962 28.7 131.542 29.08C131.122 29.46 130.522 29.65 129.742 29.65C129.082 29.65 128.372 29.55 127.612 29.35C126.852 29.13 126.142 28.77 125.482 28.27C124.822 27.75 124.322 27.04 123.982 26.14L125.602 26.26C125.222 27.08 124.762 27.75 124.222 28.27C123.682 28.77 122.982 29.16 122.122 29.44C121.262 29.7 120.162 29.88 118.822 29.98C117.502 30.08 115.872 30.13 113.932 30.13ZM113.932 30.13C111.772 30.13 109.942 29.96 108.442 29.62C106.962 29.3 105.752 28.84 104.812 28.24C103.892 27.62 103.222 26.9 102.802 26.08C102.382 25.26 102.172 24.36 102.172 23.38C102.172 22.74 102.222 22.1 102.322 21.46C102.442 20.8 102.582 20.16 102.742 19.54C102.922 18.92 103.082 18.36 103.222 17.86L106.972 18.73C106.892 19.09 106.802 19.48 106.702 19.9C106.602 20.32 106.522 20.73 106.462 21.13C106.402 21.51 106.372 21.86 106.372 22.18C106.372 22.92 106.632 23.58 107.152 24.16C107.692 24.72 108.572 25.16 109.792 25.48C111.012 25.78 112.652 25.93 114.712 25.93L115.312 29.17L113.932 30.13ZM129.776 29.65L130.076 25.45C131.276 25.45 132.196 25.39 132.836 25.27C133.476 25.15 133.916 24.93 134.156 24.61C134.416 24.27 134.546 23.79 134.546 23.17C134.546 22.61 134.466 21.94 134.306 21.16C134.166 20.38 133.976 19.57 133.736 18.73C133.516 17.89 133.276 17.12 133.016 16.42L137.156 15.28C137.416 15.96 137.666 16.75 137.906 17.65C138.146 18.55 138.346 19.48 138.506 20.44C138.666 21.38 138.746 22.29 138.746 23.17C138.746 24.53 138.526 25.64 138.086 26.5C137.646 27.34 137.026 27.99 136.226 28.45C135.446 28.91 134.506 29.23 133.406 29.41C132.306 29.57 131.096 29.65 129.776 29.65ZM137.186 36.61C136.606 36.61 136.106 36.4 135.686 35.98C135.286 35.58 135.086 35.1 135.086 34.54C135.086 33.96 135.286 33.46 135.686 33.04C136.106 32.62 136.606 32.41 137.186 32.41C137.746 32.41 138.226 32.62 138.626 33.04C139.026 33.46 139.226 33.96 139.226 34.54C139.226 35.1 139.026 35.58 138.626 35.98C138.226 36.4 137.746 36.61 137.186 36.61ZM131.996 36.61C131.416 36.61 130.916 36.4 130.496 35.98C130.096 35.58 129.896 35.1 129.896 34.54C129.896 33.96 130.096 33.46 130.496 33.04C130.916 32.62 131.416 32.41 131.996 32.41C132.556 32.41 133.036 32.62 133.436 33.04C133.836 33.46 134.036 33.96 134.036 34.54C134.036 35.1 133.836 35.58 133.436 35.98C133.036 36.4 132.556 36.61 131.996 36.61ZM141.038 36.43L139.508 32.71C140.568 32.35 141.538 31.93 142.418 31.45C143.318 30.97 144.098 30.44 144.758 29.86C145.418 29.28 145.928 28.65 146.288 27.97C146.648 27.27 146.828 26.52 146.828 25.72C146.828 24.88 146.638 23.96 146.258 22.96C145.878 21.96 145.418 20.94 144.878 19.9L148.808 18.01C149.168 18.63 149.478 19.3 149.738 20.02C150.018 20.72 150.248 21.35 150.428 21.91C150.608 22.47 150.728 22.85 150.788 23.05C151.068 24.01 151.448 24.65 151.928 24.97C152.428 25.29 153.228 25.45 154.328 25.45C155.088 25.45 155.628 25.65 155.948 26.05C156.288 26.43 156.458 26.91 156.458 27.49C156.458 28.11 156.248 28.63 155.828 29.05C155.408 29.45 154.808 29.65 154.028 29.65C153.208 29.65 152.488 29.53 151.868 29.29C151.248 29.05 150.748 28.7 150.368 28.24C150.008 27.78 149.778 27.24 149.678 26.62L150.788 27.25C150.668 28.31 150.318 29.31 149.738 30.25C149.178 31.21 148.448 32.09 147.548 32.89C146.648 33.69 145.638 34.39 144.518 34.99C143.398 35.59 142.238 36.07 141.038 36.43ZM154.063 29.65L154.363 25.45C155.123 25.45 155.723 25.38 156.163 25.24C156.623 25.1 156.983 24.82 157.243 24.4C157.523 23.96 157.753 23.32 157.933 22.48C158.133 21.64 158.333 20.52 158.533 19.12L162.463 19.78C162.423 20.08 162.363 20.43 162.283 20.83C162.223 21.23 162.163 21.64 162.103 22.06C162.063 22.46 162.043 22.84 162.043 23.2C162.043 23.68 162.143 24.09 162.343 24.43C162.563 24.75 162.943 25 163.483 25.18C164.043 25.36 164.843 25.45 165.883 25.45C166.643 25.45 167.183 25.65 167.503 26.05C167.823 26.43 167.983 26.91 167.983 27.49C167.983 28.11 167.773 28.63 167.353 29.05C166.953 29.45 166.363 29.65 165.583 29.65C164.203 29.65 163.083 29.52 162.223 29.26C161.363 29 160.723 28.56 160.303 27.94C159.883 27.32 159.613 26.47 159.493 25.39H160.933C160.573 26.35 160.153 27.12 159.673 27.7C159.193 28.26 158.653 28.68 158.053 28.96C157.453 29.24 156.813 29.42 156.133 29.5C155.473 29.6 154.783 29.65 154.063 29.65ZM159.403 36.55C158.823 36.55 158.323 36.35 157.903 35.95C157.503 35.55 157.303 35.06 157.303 34.48C157.303 33.9 157.503 33.39 157.903 32.95C158.323 32.53 158.823 32.32 159.403 32.32C159.983 32.32 160.473 32.53 160.873 32.95C161.293 33.39 161.503 33.9 161.503 34.48C161.503 35.06 161.293 35.55 160.873 35.95C160.473 36.35 159.983 36.55 159.403 36.55ZM165.577 29.65L165.877 25.45C167.077 25.45 167.997 25.39 168.637 25.27C169.277 25.15 169.717 24.93 169.957 24.61C170.217 24.27 170.347 23.79 170.347 23.17C170.347 22.61 170.267 21.94 170.107 21.16C169.967 20.38 169.777 19.57 169.537 18.73C169.317 17.89 169.077 17.12 168.817 16.42L172.957 15.28C173.217 15.96 173.467 16.75 173.707 17.65C173.947 18.55 174.147 19.48 174.307 20.44C174.467 21.38 174.547 22.29 174.547 23.17C174.547 24.53 174.327 25.64 173.887 26.5C173.447 27.34 172.827 27.99 172.027 28.45C171.247 28.91 170.307 29.23 169.207 29.41C168.107 29.57 166.897 29.65 165.577 29.65ZM173.707 12.85C173.127 12.85 172.627 12.65 172.207 12.25C171.807 11.83 171.607 11.34 171.607 10.78C171.607 10.2 171.807 9.7 172.207 9.28C172.627 8.86 173.127 8.65 173.707 8.65C174.267 8.65 174.747 8.86 175.147 9.28C175.547 9.7 175.747 10.2 175.747 10.78C175.747 11.34 175.547 11.83 175.147 12.25C174.747 12.65 174.267 12.85 173.707 12.85ZM168.517 12.82C167.937 12.82 167.437 12.62 167.017 12.22C166.617 11.8 166.417 11.31 166.417 10.75C166.417 10.17 166.617 9.67 167.017 9.25C167.437 8.83 167.937 8.62 168.517 8.62C169.077 8.62 169.557 8.83 169.957 9.25C170.357 9.67 170.557 10.17 170.557 10.75C170.557 11.31 170.357 11.8 169.957 12.22C169.557 12.62 169.077 12.82 168.517 12.82Z" fill="white"/>
</g>
<defs>
<filter id="filter0_d_667_11190" x="0" y="1.5" width="277" height="67.9399" filterUnits="userSpaceOnUse" color-interpolation-filters="sRGB">
<feFlood flood-opacity="0" result="BackgroundImageFix"/>
<feColorMatrix in="SourceAlpha" type="matrix" values="0 0 0 0 0 0 0 0 0 0 0 0 0 0 0 0 0 0 127 0" result="hardAlpha"/>
<feOffset dy="4"/>
<feGaussianBlur stdDeviation="2"/>
<feComposite in2="hardAlpha" operator="out"/>
<feColorMatrix type="matrix" values="0 0 0 0 0 0 0 0 0 0 0 0 0 0 0 0 0 0 0.25 0"/>
<feBlend mode="normal" in2="BackgroundImageFix" result="effect1_dropShadow_667_11190"/>
<feBlend mode="normal" in="SourceGraphic" in2="effect1_dropShadow_667_11190" result="shape"/>
</filter>
<filter id="filter1_d_667_11190" x="100.172" y="7.16992" width="77.5752" height="32.4399" filterUnits="userSpaceOnUse" color-interpolation-filters="sRGB">
<feFlood flood-opacity="0" result="BackgroundImageFix"/>
<feColorMatrix in="SourceAlpha" type="matrix" values="0 0 0 0 0 0 0 0 0 0 0 0 0 0 0 0 0 0 127 0" result="hardAlpha"/>
<feOffset dy="1"/>
<feGaussianBlur stdDeviation="1"/>
<feComposite in2="hardAlpha" operator="out"/>
<feColorMatrix type="matrix" values="0 0 0 0 0.792157 0 0 0 0 0.0823529 0 0 0 0 0.0862745 0 0 0 1 0"/>
<feBlend mode="normal" in2="BackgroundImageFix" result="effect1_dropShadow_667_11190"/>
<feBlend mode="normal" in="SourceGraphic" in2="effect1_dropShadow_667_11190" result="shape"/>
</filter>
</defs>
</svg>
