<svg width="346" height="86" viewBox="0 0 346 86" fill="none" xmlns="http://www.w3.org/2000/svg">
<g filter="url(#filter0_d_743_5119)">
<path d="M80.0187 77.44C70.588 67.8288 60.6501 58.6925 50.2446 50.0674C55.3623 34.1202 62.314 17.4314 62.3584 0.5C72.3274 4.7792 82.2521 9.05839 92.088 13.6371C89.1003 35.0331 83.6276 56.1296 80.0187 77.44Z" fill="#AA1119"/>
<path d="M265.274 77.44C274.705 67.8288 284.643 58.6925 295.048 50.0674C289.931 34.1202 282.979 17.4314 282.935 0.5C272.965 4.7792 263.041 9.05839 253.205 13.6371C256.193 35.0331 261.665 56.1296 265.274 77.44Z" fill="#AA1119"/>
</g>
<path d="M92.088 13.6372C68.1268 13.5421 44.1705 13.3852 20.2191 13.1665C26.0284 20.5512 31.3158 28.3045 36.0454 36.374C24.6428 43.5119 12.5755 49.61 0 54.5892C26.0248 64.1691 52.777 71.7992 80.0186 77.4116C83.6276 56.1297 89.1002 35.0332 92.088 13.6372Z" fill="#CA1516"/>
<path d="M253.205 13.6372C277.166 13.5421 301.122 13.3852 325.074 13.1665C319.264 20.5512 313.977 28.3045 309.247 36.374C320.65 43.5119 332.717 49.61 345.293 54.5892C319.268 64.1691 292.516 71.7992 265.274 77.4116C261.665 56.1297 256.193 35.0332 253.205 13.6372Z" fill="#CA1516"/>
<path d="M295.048 50.0674C213.826 60.793 131.467 60.793 50.2446 50.0674C55.3623 34.1202 62.314 17.4314 62.3584 0.5H282.935C282.979 17.4314 289.931 34.1202 295.048 50.0674Z" fill="#FD2926"/>
<g filter="url(#filter1_d_743_5119)">
<path d="M115.75 30.496C115.75 30.22 115.774 29.896 115.822 29.524C115.87 29.152 115.96 28.732 116.092 28.264C116.224 27.784 116.422 27.25 116.686 26.662L118.9 27.436C118.768 27.808 118.654 28.15 118.558 28.462C118.462 28.762 118.39 29.044 118.342 29.308C118.294 29.56 118.27 29.812 118.27 30.064C118.27 30.46 118.354 30.814 118.522 31.126C118.702 31.45 118.96 31.72 119.296 31.936C119.632 32.164 120.04 32.338 120.52 32.458C121.012 32.578 121.576 32.638 122.212 32.638C122.872 32.638 123.46 32.608 123.976 32.548C124.504 32.488 124.948 32.398 125.308 32.278C125.68 32.158 125.962 32.002 126.154 31.81C126.346 31.63 126.442 31.42 126.442 31.18C126.442 31.072 126.4 30.97 126.316 30.874C126.244 30.778 126.118 30.676 125.938 30.568C125.77 30.46 125.542 30.346 125.254 30.226C124.978 30.106 124.642 29.974 124.246 29.83L124.84 27.292C125.356 27.508 125.842 27.7 126.298 27.868C126.766 28.024 127.21 28.156 127.63 28.264C128.05 28.36 128.446 28.438 128.818 28.498C129.19 28.546 129.538 28.57 129.862 28.57C130.318 28.57 130.642 28.69 130.834 28.93C131.026 29.158 131.122 29.446 131.122 29.794C131.122 30.166 130.996 30.478 130.744 30.73C130.492 30.97 130.138 31.09 129.682 31.09C129.586 31.09 129.49 31.09 129.394 31.09C129.31 31.09 129.22 31.09 129.124 31.09C129.04 31.09 128.95 31.09 128.854 31.09C128.878 31.21 128.89 31.312 128.89 31.396C128.89 31.492 128.89 31.582 128.89 31.666C128.89 32.062 128.752 32.464 128.476 32.872C128.212 33.28 127.798 33.658 127.234 34.006C126.67 34.354 125.95 34.63 125.074 34.834C124.21 35.05 123.178 35.158 121.978 35.158C120.682 35.158 119.566 34.99 118.63 34.654C117.706 34.33 116.992 33.82 116.488 33.124C115.996 32.44 115.75 31.564 115.75 30.496ZM129.679 31.09L129.859 28.57C130.291 28.57 130.663 28.528 130.975 28.444C131.287 28.36 131.551 28.192 131.767 27.94C131.983 27.676 132.163 27.292 132.307 26.788C132.463 26.284 132.601 25.612 132.721 24.772L135.079 25.168C135.055 25.348 135.019 25.558 134.971 25.798C134.935 26.038 134.899 26.284 134.863 26.536C134.839 26.776 134.827 27.004 134.827 27.22C134.827 27.436 134.869 27.628 134.953 27.796C135.037 27.964 135.169 28.108 135.349 28.228C135.541 28.336 135.787 28.42 136.087 28.48C136.399 28.54 136.777 28.57 137.221 28.57C137.677 28.57 138.001 28.69 138.193 28.93C138.385 29.158 138.481 29.446 138.481 29.794C138.481 30.166 138.355 30.478 138.103 30.73C137.863 30.97 137.509 31.09 137.041 31.09C136.501 31.09 136.009 31.048 135.565 30.964C135.133 30.88 134.755 30.742 134.431 30.55C134.119 30.346 133.861 30.082 133.657 29.758C133.465 29.422 133.345 29.014 133.297 28.534H134.161C133.945 29.11 133.669 29.572 133.333 29.92C133.009 30.256 132.643 30.508 132.235 30.676C131.827 30.844 131.401 30.952 130.957 31C130.525 31.06 130.099 31.09 129.679 31.09ZM135.457 23.152C135.109 23.152 134.809 23.032 134.557 22.792C134.317 22.54 134.197 22.246 134.197 21.91C134.197 21.562 134.317 21.262 134.557 21.01C134.809 20.758 135.109 20.632 135.457 20.632C135.793 20.632 136.081 20.758 136.321 21.01C136.561 21.262 136.681 21.562 136.681 21.91C136.681 22.246 136.561 22.54 136.321 22.792C136.081 23.032 135.793 23.152 135.457 23.152ZM132.343 23.134C131.995 23.134 131.695 23.014 131.443 22.774C131.203 22.522 131.083 22.228 131.083 21.892C131.083 21.544 131.203 21.244 131.443 20.992C131.695 20.74 131.995 20.614 132.343 20.614C132.679 20.614 132.967 20.74 133.207 20.992C133.447 21.244 133.567 21.544 133.567 21.892C133.567 22.228 133.447 22.522 133.207 22.774C132.967 23.014 132.679 23.134 132.343 23.134ZM137.044 31.09L137.224 28.588C138.22 28.588 139.018 28.582 139.618 28.57C140.23 28.558 140.704 28.534 141.04 28.498C141.388 28.45 141.646 28.396 141.814 28.336C141.982 28.264 142.126 28.186 142.246 28.102C142.39 27.994 142.51 27.85 142.606 27.67C142.714 27.478 142.798 27.226 142.858 26.914C142.918 26.602 142.948 26.212 142.948 25.744C142.948 25.156 142.894 24.664 142.786 24.268C142.69 23.86 142.546 23.554 142.354 23.35C142.174 23.146 141.952 23.044 141.688 23.044C141.496 23.044 141.316 23.11 141.148 23.242C140.98 23.362 140.842 23.53 140.734 23.746C140.626 23.962 140.572 24.208 140.572 24.484C140.572 24.64 140.614 24.778 140.698 24.898C140.782 25.018 140.914 25.108 141.094 25.168C141.274 25.228 141.502 25.258 141.778 25.258C142.042 25.258 142.318 25.228 142.606 25.168C142.906 25.096 143.182 25 143.434 24.88L143.506 27.022C143.314 27.154 143.092 27.274 142.84 27.382C142.588 27.49 142.318 27.574 142.03 27.634C141.754 27.682 141.472 27.706 141.184 27.706C140.548 27.706 139.996 27.622 139.528 27.454C139.072 27.274 138.718 26.986 138.466 26.59C138.214 26.194 138.088 25.654 138.088 24.97C138.088 24.442 138.178 23.92 138.358 23.404C138.538 22.876 138.796 22.402 139.132 21.982C139.468 21.55 139.864 21.208 140.32 20.956C140.776 20.692 141.28 20.56 141.832 20.56C142.648 20.56 143.32 20.8 143.848 21.28C144.388 21.748 144.784 22.384 145.036 23.188C145.3 23.98 145.432 24.862 145.432 25.834C145.432 26.686 145.306 27.43 145.054 28.066C144.802 28.69 144.502 29.182 144.154 29.542C143.866 29.842 143.536 30.094 143.164 30.298C142.792 30.502 142.336 30.664 141.796 30.784C141.268 30.892 140.614 30.97 139.834 31.018C139.066 31.066 138.136 31.09 137.044 31.09ZM141.796 18.886C141.424 18.886 141.106 18.76 140.842 18.508C140.59 18.256 140.464 17.944 140.464 17.572C140.464 17.2 140.59 16.882 140.842 16.618C141.106 16.354 141.424 16.222 141.796 16.222C142.156 16.222 142.462 16.354 142.714 16.618C142.978 16.882 143.11 17.2 143.11 17.572C143.11 17.944 142.978 18.256 142.714 18.508C142.462 18.76 142.156 18.886 141.796 18.886ZM145.875 35.158L144.957 32.926C145.593 32.71 146.175 32.458 146.703 32.17C147.243 31.882 147.711 31.564 148.107 31.216C148.503 30.868 148.809 30.49 149.025 30.082C149.241 29.662 149.349 29.212 149.349 28.732C149.349 28.228 149.235 27.676 149.007 27.076C148.779 26.476 148.503 25.864 148.179 25.24L150.537 24.106C150.753 24.478 150.939 24.88 151.095 25.312C151.263 25.732 151.401 26.11 151.509 26.446C151.617 26.782 151.689 27.01 151.725 27.13C151.893 27.706 152.121 28.09 152.409 28.282C152.709 28.474 153.189 28.57 153.849 28.57C154.305 28.57 154.629 28.69 154.821 28.93C155.025 29.158 155.127 29.446 155.127 29.794C155.127 30.166 155.001 30.478 154.749 30.73C154.497 30.97 154.137 31.09 153.669 31.09C153.177 31.09 152.745 31.018 152.373 30.874C152.001 30.73 151.701 30.52 151.473 30.244C151.257 29.968 151.119 29.644 151.059 29.272L151.725 29.65C151.653 30.286 151.443 30.886 151.095 31.45C150.759 32.026 150.321 32.554 149.781 33.034C149.241 33.514 148.635 33.934 147.963 34.294C147.291 34.654 146.595 34.942 145.875 35.158ZM153.834 20.47L152.952 18.994C153.54 18.646 154.146 18.298 154.77 17.95C155.394 17.59 156.09 17.206 156.858 16.798C157.638 16.378 158.55 15.904 159.594 15.376L160.422 16.96C159.354 17.476 158.43 17.938 157.65 18.346C156.882 18.754 156.192 19.132 155.58 19.48C154.98 19.816 154.398 20.146 153.834 20.47ZM153.69 31.09L153.87 28.57H156.39C156.81 28.57 157.128 28.546 157.344 28.498C157.572 28.45 157.728 28.378 157.812 28.282C157.896 28.174 157.938 28.048 157.938 27.904C157.938 27.688 157.842 27.436 157.65 27.148C157.47 26.86 157.23 26.56 156.93 26.248C156.642 25.936 156.336 25.624 156.012 25.312C155.688 24.988 155.376 24.688 155.076 24.412C154.788 24.136 154.548 23.896 154.356 23.692C154.176 23.476 154.086 23.32 154.086 23.224C154.086 22.888 154.104 22.624 154.14 22.432C154.176 22.228 154.224 22.066 154.284 21.946C154.356 21.826 154.434 21.724 154.518 21.64C154.722 21.436 155.028 21.208 155.436 20.956C155.844 20.692 156.324 20.416 156.876 20.128C157.44 19.828 158.07 19.516 158.766 19.192C159.462 18.856 160.2 18.508 160.98 18.148L162.006 20.344C161.214 20.692 160.506 21.016 159.882 21.316C159.27 21.604 158.718 21.874 158.226 22.126C157.746 22.366 157.314 22.594 156.93 22.81C156.558 23.026 156.222 23.23 155.922 23.422L156.102 22.09C156.618 22.534 157.086 22.954 157.506 23.35C157.926 23.746 158.316 24.142 158.676 24.538C159.036 24.934 159.372 25.342 159.684 25.762C160.008 26.182 160.32 26.638 160.62 27.13C160.884 27.55 161.154 27.862 161.43 28.066C161.718 28.27 161.994 28.408 162.258 28.48C162.534 28.54 162.78 28.57 162.996 28.57C163.452 28.57 163.776 28.69 163.968 28.93C164.172 29.158 164.274 29.446 164.274 29.794C164.274 30.166 164.148 30.478 163.896 30.73C163.644 30.97 163.284 31.09 162.816 31.09C162.42 31.09 161.994 31.024 161.538 30.892C161.082 30.748 160.656 30.52 160.26 30.208C159.864 29.896 159.564 29.47 159.36 28.93L160.332 29.002C160.152 29.386 159.936 29.716 159.684 29.992C159.444 30.256 159.156 30.472 158.82 30.64C158.484 30.796 158.1 30.91 157.668 30.982C157.236 31.054 156.75 31.09 156.21 31.09H153.69ZM162.831 31.09L163.011 28.57C163.539 28.57 163.953 28.534 164.253 28.462C164.565 28.39 164.787 28.258 164.919 28.066C165.051 27.862 165.117 27.574 165.117 27.202C165.117 26.866 165.069 26.464 164.973 25.996C164.889 25.528 164.775 25.042 164.631 24.538C164.487 24.034 164.343 23.572 164.199 23.152L166.683 22.468C166.827 22.876 166.971 23.35 167.115 23.89C167.259 24.43 167.379 24.988 167.475 25.564C167.583 26.128 167.637 26.674 167.637 27.202C167.637 27.862 167.553 28.42 167.385 28.876C167.217 29.32 166.983 29.692 166.683 29.992C166.395 30.28 166.047 30.508 165.639 30.676C165.243 30.832 164.805 30.94 164.325 31C163.845 31.06 163.347 31.09 162.831 31.09ZM165.423 20.974C165.051 20.974 164.733 20.848 164.469 20.596C164.217 20.344 164.091 20.032 164.091 19.66C164.091 19.288 164.217 18.97 164.469 18.706C164.733 18.442 165.051 18.31 165.423 18.31C165.783 18.31 166.089 18.442 166.341 18.706C166.605 18.97 166.737 19.288 166.737 19.66C166.737 20.032 166.605 20.344 166.341 20.596C166.089 20.848 165.783 20.974 165.423 20.974ZM173.178 30.496C173.178 30.22 173.202 29.896 173.25 29.524C173.298 29.152 173.388 28.732 173.52 28.264C173.652 27.784 173.85 27.25 174.114 26.662L176.328 27.436C176.196 27.808 176.082 28.15 175.986 28.462C175.89 28.762 175.818 29.044 175.77 29.308C175.722 29.56 175.698 29.812 175.698 30.064C175.698 30.424 175.776 30.76 175.932 31.072C176.088 31.384 176.322 31.654 176.634 31.882C176.946 32.122 177.33 32.308 177.786 32.44C178.254 32.572 178.794 32.638 179.406 32.638C180.102 32.638 180.714 32.572 181.242 32.44C181.782 32.32 182.232 32.158 182.592 31.954C182.964 31.762 183.246 31.558 183.438 31.342C183.63 31.126 183.726 30.928 183.726 30.748C183.726 30.604 183.624 30.478 183.42 30.37C183.228 30.262 182.97 30.154 182.646 30.046C182.334 29.926 181.998 29.794 181.638 29.65C181.29 29.506 180.954 29.326 180.63 29.11C180.318 28.894 180.06 28.63 179.856 28.318C179.664 28.006 179.568 27.628 179.568 27.184C179.568 26.728 179.688 26.23 179.928 25.69C180.168 25.138 180.51 24.616 180.954 24.124C181.398 23.62 181.926 23.212 182.538 22.9C183.162 22.576 183.846 22.414 184.59 22.414C185.118 22.414 185.598 22.498 186.03 22.666C186.474 22.834 186.846 23.026 187.146 23.242L186.21 25.348C185.958 25.18 185.688 25.054 185.4 24.97C185.112 24.874 184.836 24.826 184.572 24.826C184.236 24.826 183.912 24.892 183.6 25.024C183.3 25.156 183.03 25.33 182.79 25.546C182.562 25.75 182.382 25.972 182.25 26.212C182.118 26.452 182.052 26.68 182.052 26.896C182.052 27.112 182.154 27.304 182.358 27.472C182.574 27.628 182.85 27.778 183.186 27.922C183.522 28.054 183.876 28.192 184.248 28.336C184.62 28.48 184.974 28.642 185.31 28.822C185.646 29.002 185.916 29.218 186.12 29.47C186.336 29.722 186.444 30.028 186.444 30.388C186.444 30.904 186.282 31.438 185.958 31.99C185.646 32.554 185.178 33.076 184.554 33.556C183.93 34.036 183.162 34.42 182.25 34.708C181.35 35.008 180.306 35.158 179.118 35.158C178.254 35.158 177.462 35.056 176.742 34.852C176.022 34.66 175.392 34.366 174.852 33.97C174.324 33.586 173.91 33.1 173.61 32.512C173.322 31.936 173.178 31.264 173.178 30.496ZM187.781 35.14L186.863 32.836C187.895 32.476 188.729 32.08 189.365 31.648C190.013 31.216 190.487 30.754 190.787 30.262C191.099 29.77 191.255 29.26 191.255 28.732C191.255 28.396 191.207 28.048 191.111 27.688C191.015 27.316 190.877 26.926 190.697 26.518C190.529 26.11 190.325 25.684 190.085 25.24L192.443 24.106C192.863 24.91 193.187 25.678 193.415 26.41C193.655 27.142 193.775 27.826 193.775 28.462C193.775 29.05 193.697 29.614 193.541 30.154C193.397 30.694 193.169 31.198 192.857 31.666C192.557 32.146 192.167 32.596 191.687 33.016C191.207 33.436 190.643 33.82 189.995 34.168C189.347 34.528 188.609 34.852 187.781 35.14ZM191.759 22.27C191.387 22.27 191.069 22.144 190.805 21.892C190.553 21.64 190.427 21.328 190.427 20.956C190.427 20.584 190.553 20.266 190.805 20.002C191.069 19.738 191.387 19.606 191.759 19.606C192.119 19.606 192.425 19.738 192.677 20.002C192.941 20.266 193.073 20.584 193.073 20.956C193.073 21.328 192.941 21.64 192.677 21.892C192.425 22.144 192.119 22.27 191.759 22.27ZM200.564 31.09C199.448 31.09 198.584 30.976 197.972 30.748C197.372 30.52 196.952 30.166 196.712 29.686C196.472 29.194 196.334 28.576 196.298 27.832L195.92 17.824H198.44L198.818 26.626C198.842 27.178 198.902 27.592 198.998 27.868C199.094 28.144 199.274 28.33 199.538 28.426C199.814 28.522 200.216 28.57 200.744 28.57C201.2 28.57 201.524 28.69 201.716 28.93C201.92 29.158 202.022 29.446 202.022 29.794C202.022 30.166 201.896 30.478 201.644 30.73C201.392 30.97 201.032 31.09 200.564 31.09ZM200.589 31.09L200.769 28.57C201.201 28.57 201.573 28.528 201.885 28.444C202.197 28.36 202.461 28.192 202.677 27.94C202.893 27.676 203.073 27.292 203.217 26.788C203.373 26.284 203.511 25.612 203.631 24.772L205.989 25.168C205.965 25.348 205.929 25.558 205.881 25.798C205.845 26.038 205.809 26.284 205.773 26.536C205.749 26.776 205.737 27.004 205.737 27.22C205.737 27.436 205.779 27.628 205.863 27.796C205.947 27.964 206.079 28.108 206.259 28.228C206.451 28.336 206.697 28.42 206.997 28.48C207.309 28.54 207.687 28.57 208.131 28.57C208.587 28.57 208.911 28.69 209.103 28.93C209.295 29.158 209.391 29.446 209.391 29.794C209.391 30.166 209.265 30.478 209.013 30.73C208.773 30.97 208.419 31.09 207.951 31.09C207.411 31.09 206.919 31.048 206.475 30.964C206.043 30.88 205.665 30.742 205.341 30.55C205.029 30.346 204.771 30.082 204.567 29.758C204.375 29.422 204.255 29.014 204.207 28.534H205.071C204.855 29.11 204.579 29.572 204.243 29.92C203.919 30.256 203.553 30.508 203.145 30.676C202.737 30.844 202.311 30.952 201.867 31C201.435 31.06 201.009 31.09 200.589 31.09ZM205.611 35.266C205.263 35.266 204.963 35.14 204.711 34.888C204.471 34.648 204.351 34.36 204.351 34.024C204.351 33.676 204.471 33.376 204.711 33.124C204.963 32.872 205.263 32.746 205.611 32.746C205.947 32.746 206.235 32.872 206.475 33.124C206.715 33.376 206.835 33.676 206.835 34.024C206.835 34.36 206.715 34.648 206.475 34.888C206.235 35.14 205.947 35.266 205.611 35.266ZM202.497 35.266C202.149 35.266 201.849 35.14 201.597 34.888C201.357 34.648 201.237 34.36 201.237 34.024C201.237 33.676 201.357 33.376 201.597 33.124C201.849 32.872 202.149 32.746 202.497 32.746C202.833 32.746 203.121 32.872 203.361 33.124C203.601 33.376 203.721 33.676 203.721 34.024C203.721 34.36 203.601 34.648 203.361 34.888C203.121 35.14 202.833 35.266 202.497 35.266ZM207.954 31.09L208.134 28.57C208.566 28.57 208.938 28.528 209.25 28.444C209.562 28.36 209.826 28.192 210.042 27.94C210.258 27.676 210.438 27.292 210.582 26.788C210.738 26.284 210.876 25.612 210.996 24.772L213.354 25.168C213.33 25.348 213.294 25.558 213.246 25.798C213.21 26.038 213.174 26.284 213.138 26.536C213.114 26.776 213.102 27.004 213.102 27.22C213.102 27.436 213.144 27.628 213.228 27.796C213.312 27.964 213.444 28.108 213.624 28.228C213.816 28.336 214.062 28.42 214.362 28.48C214.674 28.54 215.052 28.57 215.496 28.57C215.952 28.57 216.276 28.69 216.468 28.93C216.66 29.158 216.756 29.446 216.756 29.794C216.756 30.166 216.63 30.478 216.378 30.73C216.138 30.97 215.784 31.09 215.316 31.09C214.776 31.09 214.284 31.048 213.84 30.964C213.408 30.88 213.03 30.742 212.706 30.55C212.394 30.346 212.136 30.082 211.932 29.758C211.74 29.422 211.62 29.014 211.572 28.534H212.436C212.22 29.11 211.944 29.572 211.608 29.92C211.284 30.256 210.918 30.508 210.51 30.676C210.102 30.844 209.676 30.952 209.232 31C208.8 31.06 208.374 31.09 207.954 31.09ZM213.732 23.152C213.384 23.152 213.084 23.032 212.832 22.792C212.592 22.54 212.472 22.246 212.472 21.91C212.472 21.562 212.592 21.262 212.832 21.01C213.084 20.758 213.384 20.632 213.732 20.632C214.068 20.632 214.356 20.758 214.596 21.01C214.836 21.262 214.956 21.562 214.956 21.91C214.956 22.246 214.836 22.54 214.596 22.792C214.356 23.032 214.068 23.152 213.732 23.152ZM210.618 23.134C210.27 23.134 209.97 23.014 209.718 22.774C209.478 22.522 209.358 22.228 209.358 21.892C209.358 21.544 209.478 21.244 209.718 20.992C209.97 20.74 210.27 20.614 210.618 20.614C210.954 20.614 211.242 20.74 211.482 20.992C211.722 21.244 211.842 21.544 211.842 21.892C211.842 22.228 211.722 22.522 211.482 22.774C211.242 23.014 210.954 23.134 210.618 23.134ZM215.319 31.09L215.499 28.57C215.775 28.57 216.009 28.504 216.201 28.372C216.405 28.228 216.615 27.994 216.831 27.67C217.047 27.334 217.299 26.884 217.587 26.32C217.947 25.6 218.319 25.036 218.703 24.628C219.099 24.22 219.501 23.932 219.909 23.764C220.329 23.584 220.749 23.494 221.169 23.494C221.697 23.494 222.189 23.608 222.645 23.836C223.101 24.064 223.497 24.376 223.833 24.772C224.169 25.156 224.427 25.6 224.607 26.104C224.799 26.596 224.895 27.106 224.895 27.634C224.895 28.27 224.757 28.846 224.481 29.362C224.217 29.866 223.845 30.268 223.365 30.568C222.897 30.856 222.357 31 221.745 31C221.229 31 220.629 30.91 219.945 30.73C219.261 30.55 218.541 30.172 217.785 29.596L218.703 27.418C219.243 27.79 219.747 28.06 220.215 28.228C220.695 28.396 221.091 28.48 221.403 28.48C221.643 28.48 221.841 28.456 221.997 28.408C222.153 28.36 222.267 28.282 222.339 28.174C222.411 28.066 222.447 27.922 222.447 27.742C222.447 27.49 222.387 27.232 222.267 26.968C222.147 26.704 221.985 26.482 221.781 26.302C221.589 26.11 221.361 26.014 221.097 26.014C220.845 26.014 220.629 26.11 220.449 26.302C220.281 26.482 220.113 26.746 219.945 27.094C219.789 27.43 219.597 27.826 219.369 28.282C219.093 28.834 218.823 29.296 218.559 29.668C218.295 30.028 218.013 30.316 217.713 30.532C217.425 30.736 217.083 30.88 216.687 30.964C216.303 31.048 215.847 31.09 215.319 31.09ZM227.236 31L226.858 17.824H229.378L229.756 31H227.236Z" fill="white"/>
</g>
<defs>
<filter id="filter0_d_743_5119" x="46.2446" y="0.5" width="252.804" height="84.9399" filterUnits="userSpaceOnUse" color-interpolation-filters="sRGB">
<feFlood flood-opacity="0" result="BackgroundImageFix"/>
<feColorMatrix in="SourceAlpha" type="matrix" values="0 0 0 0 0 0 0 0 0 0 0 0 0 0 0 0 0 0 127 0" result="hardAlpha"/>
<feOffset dy="4"/>
<feGaussianBlur stdDeviation="2"/>
<feComposite in2="hardAlpha" operator="out"/>
<feColorMatrix type="matrix" values="0 0 0 0 0 0 0 0 0 0 0 0 0 0 0 0 0 0 0.25 0"/>
<feBlend mode="normal" in2="BackgroundImageFix" result="effect1_dropShadow_743_5119"/>
<feBlend mode="normal" in="SourceGraphic" in2="effect1_dropShadow_743_5119" result="shape"/>
</filter>
<filter id="filter1_d_743_5119" x="113.75" y="14.376" width="118.006" height="23.8901" filterUnits="userSpaceOnUse" color-interpolation-filters="sRGB">
<feFlood flood-opacity="0" result="BackgroundImageFix"/>
<feColorMatrix in="SourceAlpha" type="matrix" values="0 0 0 0 0 0 0 0 0 0 0 0 0 0 0 0 0 0 127 0" result="hardAlpha"/>
<feOffset dy="1"/>
<feGaussianBlur stdDeviation="1"/>
<feComposite in2="hardAlpha" operator="out"/>
<feColorMatrix type="matrix" values="0 0 0 0 0.792157 0 0 0 0 0.0823529 0 0 0 0 0.0862745 0 0 0 1 0"/>
<feBlend mode="normal" in2="BackgroundImageFix" result="effect1_dropShadow_743_5119"/>
<feBlend mode="normal" in="SourceGraphic" in2="effect1_dropShadow_743_5119" result="shape"/>
</filter>
</defs>
</svg>
