<svg width="40" height="40" viewBox="0 0 40 40" fill="none" xmlns="http://www.w3.org/2000/svg">
<path d="M39.204 19.9766C39.204 9.35802 30.5958 0.749926 19.977 0.749927C9.35822 0.749927 0.749999 9.35802 0.749999 19.9766C0.75 30.5953 9.35822 39.2034 19.977 39.2034C30.5958 39.2034 39.204 30.5953 39.204 19.9766Z" fill="black" stroke="black" stroke-width="0.5"/>
<path d="M19.9775 38.5375C30.2284 38.5375 38.5384 30.2275 38.5384 19.9766C38.5384 9.72576 30.2284 1.41577 19.9775 1.41577C9.72661 1.41577 1.41663 9.72576 1.41663 19.9766C1.41663 30.2275 9.72661 38.5375 19.9775 38.5375Z" fill="url(#paint0_radial_618_14948)"/>
<path d="M19.9406 4.4129C28.5364 4.4129 35.5046 11.3811 35.5046 19.9768C35.5046 28.5726 28.5364 35.5408 19.9406 35.5408C11.3449 35.5408 4.37671 28.5726 4.37671 19.9768C4.37671 11.3811 11.3449 4.4129 19.9406 4.4129Z" stroke="#C31414" stroke-width="0.5"/>
<path opacity="0.2" d="M32.4052 15.2922C30.482 20.1301 26.9939 14.8173 22.156 12.8942C17.3181 10.9711 10.9823 12.3791 12.9051 7.54121C14.8283 2.7033 20.8002 2.2116 25.6381 4.13472C30.4763 6.05757 34.3283 10.4543 32.4052 15.2922Z" fill="url(#paint1_linear_618_14948)"/>
<path opacity="0.1" d="M28.5085 25.0747C28.4843 25.0412 28.4576 25.0093 28.4268 24.9799C28.4095 24.9615 28.3914 24.9442 28.3724 24.9282C26.6337 23.2786 24.8947 21.6289 23.156 19.9793C24.7406 18.4758 26.3253 16.9724 27.9098 15.469C28.1731 15.2192 28.5412 14.9462 28.6893 14.6068C28.946 14.0192 28.794 13.4634 28.3653 13.0116C28.1382 12.7722 27.9112 12.533 27.6842 12.2937C27.4415 12.0378 27.1988 11.7819 26.9561 11.5263C26.5906 11.1409 26.1717 10.9345 25.6236 11.0104C25.1583 11.0747 24.8205 11.4743 24.4959 11.7822C22.8325 13.3603 21.1692 14.9383 19.5058 16.5164C17.907 14.9993 16.3082 13.4824 14.7091 11.9655C14.4966 11.7637 14.2842 11.5623 14.0714 11.3605C13.5424 10.8584 12.6851 10.8628 12.178 11.3971C11.9936 11.5914 11.8094 11.7855 11.6253 11.9798C11.3625 12.2568 11.0995 12.5339 10.8367 12.8109C10.5874 13.0737 10.3706 13.3021 10.2381 13.655C9.97645 14.3525 10.4739 14.8731 10.9252 15.3013C12.5688 16.8606 14.2124 18.4201 15.856 19.9793C14.2715 21.4827 12.6867 22.9861 11.1022 24.4896C10.8389 24.7394 10.4709 25.0123 10.3228 25.3518C10.0661 25.9394 10.218 26.4951 10.6468 26.947C10.8738 27.1861 11.1009 27.4255 11.3279 27.6646C11.5706 27.9205 11.8133 28.1764 12.056 28.432C12.4215 28.8173 12.8404 29.0238 13.3887 28.9479C13.854 28.8836 14.1918 28.4839 14.5164 28.1761C16.1798 26.5979 17.8432 25.02 19.5066 23.4418C21.1054 24.9587 22.7045 26.4759 24.3035 27.9928C24.5069 28.1857 24.7103 28.3787 24.9137 28.5716C25.523 29.1499 26.3641 29.0567 26.9201 28.4708C27.3208 28.0483 27.7216 27.6259 28.1226 27.2034C28.2311 27.0888 28.34 26.9745 28.4485 26.8599C28.9309 26.3508 28.9282 25.6043 28.5085 25.0747Z" fill="#231F20"/>
<path d="M29.4805 25.0747C29.4563 25.0412 29.4297 25.0093 29.3989 24.9799C29.3816 24.9615 29.3634 24.9442 29.3445 24.9282C27.6058 23.2786 25.8668 21.6289 24.1281 19.9793C25.7126 18.4758 27.2974 16.9724 28.8819 15.469C29.1452 15.2192 29.5132 14.9462 29.6614 14.6068C29.9181 14.0192 29.7661 13.4634 29.3373 13.0116C29.1103 12.7722 28.8833 12.533 28.6562 12.2937C28.4135 12.0378 28.1709 11.7819 27.9282 11.5263C27.5626 11.1409 27.1437 10.9345 26.5957 11.0104C26.1304 11.0747 25.7926 11.4743 25.468 11.7822C23.8046 13.3603 22.1412 14.9383 20.4778 16.5164C18.879 14.9995 17.2799 13.4827 15.6811 11.9655C15.4687 11.7637 15.2562 11.5623 15.0435 11.3605C14.5144 10.8584 13.6571 10.8628 13.15 11.3971C12.9656 11.5914 12.7815 11.7855 12.5973 11.9798C12.3346 12.2568 12.0715 12.5339 11.8088 12.8109C11.5595 13.0737 11.3426 13.3021 11.2102 13.655C10.9485 14.3525 11.446 14.8731 11.8973 15.3013C13.5409 16.8606 15.1845 18.4201 16.8281 19.9793C15.2436 21.4827 13.6588 22.9861 12.0743 24.4896C11.811 24.7394 11.443 25.0123 11.2948 25.3518C11.0381 25.9394 11.1901 26.4951 11.6189 26.947C11.8459 27.1861 12.0729 27.4255 12.2999 27.6646C12.5426 27.9205 12.7853 28.1764 13.028 28.432C13.3936 28.8173 13.8124 29.0238 14.3608 28.9479C14.8261 28.8836 15.1639 28.4839 15.4885 28.1761C17.1519 26.5979 18.8152 25.02 20.4786 23.4418C22.0774 24.9587 23.6765 26.4759 25.2756 27.9928C25.479 28.1857 25.6824 28.3787 25.8858 28.5716C26.4951 29.1499 27.3361 29.0567 27.8922 28.4708C28.2929 28.0483 28.6936 27.6259 29.0946 27.2034C29.2032 27.0888 29.312 26.9745 29.4206 26.8599C29.903 26.3508 29.9002 25.6043 29.4805 25.0747Z" fill="white"/>
<defs>
<radialGradient id="paint0_radial_618_14948" cx="0" cy="0" r="1" gradientUnits="userSpaceOnUse" gradientTransform="translate(21.4213 15.8178) scale(23.7696)">
<stop stop-color="#FF9B9B"/>
<stop offset="0.242" stop-color="#FF7171"/>
<stop offset="0.516" stop-color="#FA3535"/>
<stop offset="0.742" stop-color="#E31F1F"/>
<stop offset="0.91" stop-color="#CA1616"/>
<stop offset="1" stop-color="#B11111"/>
</radialGradient>
<linearGradient id="paint1_linear_618_14948" x1="24.6219" y1="6.42988" x2="21.9291" y2="13.2581" gradientUnits="userSpaceOnUse">
<stop stop-color="white"/>
<stop offset="0.245" stop-color="#FFE1C5"/>
<stop offset="0.808" stop-color="#FFA133"/>
<stop offset="1" stop-color="#FF7A00"/>
</linearGradient>
</defs>
</svg>
